<?xml version="1.0" encoding="UTF-8" standalone="no"?>
<!-- Created with Inkscape (http://www.inkscape.org/) -->

<svg
   width="1000"
   height="1000"
   viewBox="0 0 1000 1000"
   version="1.1"
   id="svg1"
   inkscape:version="1.4 (86a8ad7, 2024-10-11)"
   sodipodi:docname="drawing.svg"
   inkscape:export-filename="ink_test_100.png"
   inkscape:export-xdpi="9.6000004"
   inkscape:export-ydpi="9.6000004"
   xmlns:inkscape="http://www.inkscape.org/namespaces/inkscape"
   xmlns:sodipodi="http://sodipodi.sourceforge.net/DTD/sodipodi-0.dtd"
   xmlns="http://www.w3.org/2000/svg"
   xmlns:svg="http://www.w3.org/2000/svg">
  <sodipodi:namedview
     id="namedview1"
     pagecolor="#ffffff"
     bordercolor="#000000"
     borderopacity="0.25"
     inkscape:showpageshadow="2"
     inkscape:pageopacity="0.0"
     inkscape:pagecheckerboard="0"
     inkscape:deskcolor="#d1d1d1"
     inkscape:document-units="mm"
     inkscape:zoom="0.71891835"
     inkscape:cx="303.92881"
     inkscape:cy="508.40266"
     inkscape:window-width="1920"
     inkscape:window-height="1009"
     inkscape:window-x="1912"
     inkscape:window-y="-8"
     inkscape:window-maximized="1"
     inkscape:current-layer="layer1" />
  <defs
     id="defs1" />
  <g
     inkscape:label="Layer 1"
     inkscape:groupmode="layer"
     id="layer1">
    <path
       id="path1"
       style="fill:#000000;stroke:#000000;stroke-width:1;stroke-dasharray:none;stroke-opacity:1"
       d="m 580.74219,118.83203 c -118.38048,1.53879 -167.6211,105.11524 -167.6211,105.11524 L 384.76367,390.0332 c 0.006,0.15298 0.01,0.30585 0.0117,0.45899 0.003,0.23944 0.003,0.47929 0.004,0.71875 0.005,0.2508 9.7e-4,0.50019 -0.0215,0.75 -0.0207,0.30122 -0.1275,0.58371 -0.1914,0.875 -0.0593,0.26247 -0.0838,0.52824 -0.14063,0.79101 -0.0328,0.10716 -0.0697,0.21418 -0.10547,0.32032 -0.03,0.089 -0.0752,0.14273 -0.11133,0.21875 0.0115,0.0503 0.0241,0.10001 0.0352,0.15039 0.04,0.17713 0.0703,0.35602 0.0996,0.53515 0.0439,0.26813 0.0387,0.50009 -0.004,0.69532 1.61337,4.75267 4.51831,15.27219 6.52539,80.16796 4.17294,134.92492 109.88705,180.82755 77.89454,260.11328 -31.99251,79.2858 -18.08198,69.54911 27.82031,153.00782 45.90229,83.45871 230.90234,-151.61719 230.90234,-151.61719 0,0 172.48131,-499.36144 -30.60156,-591.16602 -44.42438,-20.08225 -82.99214,-27.65156 -116.13867,-27.2207 z" />
  </g>
</svg>
