<?xml version="1.0" encoding="UTF-8" standalone="no"?>
<svg
   width="432pt"
   height="432pt"
   viewBox="0 0 432 432"
   version="1.1"
   id="svg32"
   sodipodi:docname="sym_epi_n=8.svg"
   inkscape:version="1.4 (86a8ad7, 2024-10-11)"
   inkscape:export-filename="..\..\PNGs\sym\sym_epi_n=8.png"
   inkscape:export-xdpi="96"
   inkscape:export-ydpi="96"
   xmlns:inkscape="http://www.inkscape.org/namespaces/inkscape"
   xmlns:sodipodi="http://sodipodi.sourceforge.net/DTD/sodipodi-0.dtd"
   xmlns:xlink="http://www.w3.org/1999/xlink"
   xmlns="http://www.w3.org/2000/svg"
   xmlns:svg="http://www.w3.org/2000/svg"
   xmlns:rdf="http://www.w3.org/1999/02/22-rdf-syntax-ns#"
   xmlns:cc="http://creativecommons.org/ns#"
   xmlns:dc="http://purl.org/dc/elements/1.1/">
  <sodipodi:namedview
     id="namedview32"
     pagecolor="#ffffff"
     bordercolor="#000000"
     borderopacity="0.25"
     inkscape:showpageshadow="2"
     inkscape:pageopacity="0.0"
     inkscape:pagecheckerboard="0"
     inkscape:deskcolor="#d1d1d1"
     inkscape:document-units="pt"
     inkscape:zoom="1.4010417"
     inkscape:cx="270.15613"
     inkscape:cy="283.00372"
     inkscape:window-width="1920"
     inkscape:window-height="1009"
     inkscape:window-x="1912"
     inkscape:window-y="-8"
     inkscape:window-maximized="1"
     inkscape:current-layer="svg32" />
  <metadata
     id="metadata1">
    <rdf:RDF>
      <cc:Work>
        <dc:type
           rdf:resource="http://purl.org/dc/dcmitype/StillImage" />
        <dc:date>2025-04-09T14:13:45.788169</dc:date>
        <dc:format>image/svg+xml</dc:format>
        <dc:creator>
          <cc:Agent>
            <dc:title>Matplotlib v3.9.2, https://matplotlib.org/</dc:title>
          </cc:Agent>
        </dc:creator>
      </cc:Work>
    </rdf:RDF>
  </metadata>
  <defs
     id="defs1">
    <style
       type="text/css"
       id="style1">*{stroke-linejoin: round; stroke-linecap: butt}</style>
  </defs>
  <g
     id="figure_1">
    <g
       id="patch_1">
      <path
         d="M 0 432  L 432 432  L 432 0  L 0 0  z "
         style="fill: #ffffff"
         id="path1" />
    </g>
    <g
       id="axes_1">
      <g
         id="patch_2">
        <path
           d="M 54 384.48  L 388.8 384.48  L 388.8 51.84  L 54 51.84  z "
           style="fill: #ffffff"
           id="path2" />
      </g>
      <g
         id="matplotlib.axis_1">
        <g
           id="xtick_1">
          <g
             id="line2d_1">
            <path
               d="M 93.369136 384.48  L 93.369136 51.84  "
               clip-path="url(#pe74b6feba1)"
               style="fill: none; stroke: #b0b0b0; stroke-width: 0.8; stroke-linecap: square"
               id="path3" />
          </g>
          <g
             id="line2d_2">
            <defs
               id="defs3">
              <path
                 id="mec80ebb1bb"
                 d="M 0 0  L 0 3.5  "
                 style="stroke: #000000; stroke-width: 0.8" />
            </defs>
            <g
               id="g3">
              <use
                 xlink:href="#mec80ebb1bb"
                 x="93.369136"
                 y="384.48"
                 style="stroke: #000000; stroke-width: 0.8"
                 id="use3" />
            </g>
          </g>
          <g
             id="text_1">
            <!-- −2 -->
            <g
               transform="translate(85.998043 399.078438) scale(0.1 -0.1)"
               id="g5">
              <defs
                 id="defs4">
                <path
                   id="DejaVuSans-2212"
                   d="M 678 2272  L 4684 2272  L 4684 1741  L 678 1741  L 678 2272  z "
                   transform="scale(0.015625)" />
                <path
                   id="DejaVuSans-32"
                   d="M 1228 531  L 3431 531  L 3431 0  L 469 0  L 469 531  Q 828 903 1448 1529  Q 2069 2156 2228 2338  Q 2531 2678 2651 2914  Q 2772 3150 2772 3378  Q 2772 3750 2511 3984  Q 2250 4219 1831 4219  Q 1534 4219 1204 4116  Q 875 4013 500 3803  L 500 4441  Q 881 4594 1212 4672  Q 1544 4750 1819 4750  Q 2544 4750 2975 4387  Q 3406 4025 3406 3419  Q 3406 3131 3298 2873  Q 3191 2616 2906 2266  Q 2828 2175 2409 1742  Q 1991 1309 1228 531  z "
                   transform="scale(0.015625)" />
              </defs>
              <use
                 xlink:href="#DejaVuSans-2212"
                 id="use4" />
              <use
                 xlink:href="#DejaVuSans-32"
                 x="83.789062"
                 id="use5" />
            </g>
          </g>
        </g>
        <g
           id="xtick_2">
          <g
             id="line2d_3">
            <path
               d="M 157.379167 384.48  L 157.379167 51.84  "
               clip-path="url(#pe74b6feba1)"
               style="fill: none; stroke: #b0b0b0; stroke-width: 0.8; stroke-linecap: square"
               id="path5" />
          </g>
          <g
             id="line2d_4">
            <g
               id="g6">
              <use
                 xlink:href="#mec80ebb1bb"
                 x="157.379167"
                 y="384.48"
                 style="stroke: #000000; stroke-width: 0.8"
                 id="use6" />
            </g>
          </g>
          <g
             id="text_2">
            <!-- −1 -->
            <g
               transform="translate(150.008073 399.078438) scale(0.1 -0.1)"
               id="g8">
              <defs
                 id="defs6">
                <path
                   id="DejaVuSans-31"
                   d="M 794 531  L 1825 531  L 1825 4091  L 703 3866  L 703 4441  L 1819 4666  L 2450 4666  L 2450 531  L 3481 531  L 3481 0  L 794 0  L 794 531  z "
                   transform="scale(0.015625)" />
              </defs>
              <use
                 xlink:href="#DejaVuSans-2212"
                 id="use7" />
              <use
                 xlink:href="#DejaVuSans-31"
                 x="83.789062"
                 id="use8" />
            </g>
          </g>
        </g>
        <g
           id="xtick_3">
          <g
             id="line2d_5">
            <path
               d="M 221.389198 384.48  L 221.389198 51.84  "
               clip-path="url(#pe74b6feba1)"
               style="fill: none; stroke: #b0b0b0; stroke-width: 0.8; stroke-linecap: square"
               id="path8" />
          </g>
          <g
             id="line2d_6">
            <g
               id="g9">
              <use
                 xlink:href="#mec80ebb1bb"
                 x="221.389198"
                 y="384.48"
                 style="stroke: #000000; stroke-width: 0.8"
                 id="use9" />
            </g>
          </g>
          <g
             id="text_3">
            <!-- 0 -->
            <g
               transform="translate(218.207948 399.078438) scale(0.1 -0.1)"
               id="g10">
              <defs
                 id="defs9">
                <path
                   id="DejaVuSans-30"
                   d="M 2034 4250  Q 1547 4250 1301 3770  Q 1056 3291 1056 2328  Q 1056 1369 1301 889  Q 1547 409 2034 409  Q 2525 409 2770 889  Q 3016 1369 3016 2328  Q 3016 3291 2770 3770  Q 2525 4250 2034 4250  z M 2034 4750  Q 2819 4750 3233 4129  Q 3647 3509 3647 2328  Q 3647 1150 3233 529  Q 2819 -91 2034 -91  Q 1250 -91 836 529  Q 422 1150 422 2328  Q 422 3509 836 4129  Q 1250 4750 2034 4750  z "
                   transform="scale(0.015625)" />
              </defs>
              <use
                 xlink:href="#DejaVuSans-30"
                 id="use10" />
            </g>
          </g>
        </g>
        <g
           id="xtick_4">
          <g
             id="line2d_7">
            <path
               d="M 285.399228 384.48  L 285.399228 51.84  "
               clip-path="url(#pe74b6feba1)"
               style="fill: none; stroke: #b0b0b0; stroke-width: 0.8; stroke-linecap: square"
               id="path10" />
          </g>
          <g
             id="line2d_8">
            <g
               id="g11">
              <use
                 xlink:href="#mec80ebb1bb"
                 x="285.399228"
                 y="384.48"
                 style="stroke: #000000; stroke-width: 0.8"
                 id="use11" />
            </g>
          </g>
          <g
             id="text_4">
            <!-- 1 -->
            <g
               transform="translate(282.217978 399.078438) scale(0.1 -0.1)"
               id="g12">
              <use
                 xlink:href="#DejaVuSans-31"
                 id="use12" />
            </g>
          </g>
        </g>
        <g
           id="xtick_5">
          <g
             id="line2d_9">
            <path
               d="M 349.409259 384.48  L 349.409259 51.84  "
               clip-path="url(#pe74b6feba1)"
               style="fill: none; stroke: #b0b0b0; stroke-width: 0.8; stroke-linecap: square"
               id="path12" />
          </g>
          <g
             id="line2d_10">
            <g
               id="g13">
              <use
                 xlink:href="#mec80ebb1bb"
                 x="349.409259"
                 y="384.48"
                 style="stroke: #000000; stroke-width: 0.8"
                 id="use13" />
            </g>
          </g>
          <g
             id="text_5">
            <!-- 2 -->
            <g
               transform="translate(346.228009 399.078438) scale(0.1 -0.1)"
               id="g14">
              <use
                 xlink:href="#DejaVuSans-32"
                 id="use14" />
            </g>
          </g>
        </g>
        <g
           id="text_6">
          <!-- x -->
          <g
             transform="translate(218.440625 412.756563) scale(0.1 -0.1)"
             id="g15">
            <defs
               id="defs14">
              <path
                 id="DejaVuSans-78"
                 d="M 3513 3500  L 2247 1797  L 3578 0  L 2900 0  L 1881 1375  L 863 0  L 184 0  L 1544 1831  L 300 3500  L 978 3500  L 1906 2253  L 2834 3500  L 3513 3500  z "
                 transform="scale(0.015625)" />
            </defs>
            <use
               xlink:href="#DejaVuSans-78"
               id="use15" />
          </g>
        </g>
      </g>
      <g
         id="matplotlib.axis_2">
        <g
           id="ytick_1">
          <g
             id="line2d_11">
            <path
               d="M 54 345.348492  L 388.8 345.348492  "
               clip-path="url(#pe74b6feba1)"
               style="fill: none; stroke: #b0b0b0; stroke-width: 0.8; stroke-linecap: square"
               id="path15" />
          </g>
          <g
             id="line2d_12">
            <defs
               id="defs15">
              <path
                 id="md59973a8be"
                 d="M 0 0  L -3.5 0  "
                 style="stroke: #000000; stroke-width: 0.8" />
            </defs>
            <g
               id="g16">
              <use
                 xlink:href="#md59973a8be"
                 x="54"
                 y="345.348492"
                 style="stroke: #000000; stroke-width: 0.8"
                 id="use16" />
            </g>
          </g>
          <g
             id="text_7">
            <!-- −2 -->
            <g
               transform="translate(32.257812 349.147711) scale(0.1 -0.1)"
               id="g18">
              <use
                 xlink:href="#DejaVuSans-2212"
                 id="use17" />
              <use
                 xlink:href="#DejaVuSans-32"
                 x="83.789062"
                 id="use18" />
            </g>
          </g>
        </g>
        <g
           id="ytick_2">
          <g
             id="line2d_13">
            <path
               d="M 54 281.754246  L 388.8 281.754246  "
               clip-path="url(#pe74b6feba1)"
               style="fill: none; stroke: #b0b0b0; stroke-width: 0.8; stroke-linecap: square"
               id="path18" />
          </g>
          <g
             id="line2d_14">
            <g
               id="g19">
              <use
                 xlink:href="#md59973a8be"
                 x="54"
                 y="281.754246"
                 style="stroke: #000000; stroke-width: 0.8"
                 id="use19" />
            </g>
          </g>
          <g
             id="text_8">
            <!-- −1 -->
            <g
               transform="translate(32.257812 285.553465) scale(0.1 -0.1)"
               id="g21">
              <use
                 xlink:href="#DejaVuSans-2212"
                 id="use20" />
              <use
                 xlink:href="#DejaVuSans-31"
                 x="83.789062"
                 id="use21" />
            </g>
          </g>
        </g>
        <g
           id="ytick_3">
          <g
             id="line2d_15">
            <path
               d="M 54 218.16  L 388.8 218.16  "
               clip-path="url(#pe74b6feba1)"
               style="fill: none; stroke: #b0b0b0; stroke-width: 0.8; stroke-linecap: square"
               id="path21" />
          </g>
          <g
             id="line2d_16">
            <g
               id="g22">
              <use
                 xlink:href="#md59973a8be"
                 x="54"
                 y="218.16"
                 style="stroke: #000000; stroke-width: 0.8"
                 id="use22" />
            </g>
          </g>
          <g
             id="text_9">
            <!-- 0 -->
            <g
               transform="translate(40.6375 221.959219) scale(0.1 -0.1)"
               id="g23">
              <use
                 xlink:href="#DejaVuSans-30"
                 id="use23" />
            </g>
          </g>
        </g>
        <g
           id="ytick_4">
          <g
             id="line2d_17">
            <path
               d="M 54 154.565754  L 388.8 154.565754  "
               clip-path="url(#pe74b6feba1)"
               style="fill: none; stroke: #b0b0b0; stroke-width: 0.8; stroke-linecap: square"
               id="path23" />
          </g>
          <g
             id="line2d_18">
            <g
               id="g24">
              <use
                 xlink:href="#md59973a8be"
                 x="54"
                 y="154.565754"
                 style="stroke: #000000; stroke-width: 0.8"
                 id="use24" />
            </g>
          </g>
          <g
             id="text_10">
            <!-- 1 -->
            <g
               transform="translate(40.6375 158.364973) scale(0.1 -0.1)"
               id="g25">
              <use
                 xlink:href="#DejaVuSans-31"
                 id="use25" />
            </g>
          </g>
        </g>
        <g
           id="ytick_5">
          <g
             id="line2d_19">
            <path
               d="M 54 90.971508  L 388.8 90.971508  "
               clip-path="url(#pe74b6feba1)"
               style="fill: none; stroke: #b0b0b0; stroke-width: 0.8; stroke-linecap: square"
               id="path25" />
          </g>
          <g
             id="line2d_20">
            <g
               id="g26">
              <use
                 xlink:href="#md59973a8be"
                 x="54"
                 y="90.971508"
                 style="stroke: #000000; stroke-width: 0.8"
                 id="use26" />
            </g>
          </g>
          <g
             id="text_11">
            <!-- 2 -->
            <g
               transform="translate(40.6375 94.770726) scale(0.1 -0.1)"
               id="g27">
              <use
                 xlink:href="#DejaVuSans-32"
                 id="use27" />
            </g>
          </g>
        </g>
        <g
           id="text_12">
          <!-- y -->
          <g
             transform="translate(26.178125 221.119375) rotate(-90) scale(0.1 -0.1)"
             id="g28">
            <defs
               id="defs27">
              <path
                 id="DejaVuSans-79"
                 d="M 2059 -325  Q 1816 -950 1584 -1140  Q 1353 -1331 966 -1331  L 506 -1331  L 506 -850  L 844 -850  Q 1081 -850 1212 -737  Q 1344 -625 1503 -206  L 1606 56  L 191 3500  L 800 3500  L 1894 763  L 2988 3500  L 3597 3500  L 2059 -325  z "
                 transform="scale(0.015625)" />
            </defs>
            <use
               xlink:href="#DejaVuSans-79"
               id="use28" />
          </g>
        </g>
      </g>
      <g
         id="line2d_21">
        <path
           d="M 349.409259 218.16  L 350.222436 218.057765  L 351.624793 217.69159  L 353.626604 216.894608  L 356.111649 215.526081  L 357.490854 214.591442  L 358.934393 213.47491  L 360.420718 212.168181  L 361.927446 210.665431  L 363.431647 208.963391  L 364.910136 207.0614  L 366.339776 204.961407  L 367.697769 202.66796  L 368.961956 200.188144  L 370.111097 197.531497  L 371.125145 194.709887  L 371.985507 191.73737  L 372.675281 188.630008  L 373.179474 185.405668  L 373.485193 182.083797  L 373.581818 178.685174  L 373.461133 175.231649  L 373.117434 171.745865  L 372.547606 168.250972  L 371.75116 164.770332  L 370.730245 161.327223  L 369.489617 157.944545  L 368.036583 154.644528  L 366.380908 151.448452  L 364.534689 148.376376  L 362.512204 145.446883  L 360.329727 142.676848  L 358.005325 140.081222  L 355.558625 137.672844  L 353.010564 135.462281  L 350.383123 133.457694  L 347.699046 131.664738  L 344.98155 130.086491  L 342.254028 128.723418  L 339.539755 127.573371  L 336.861586 126.631614  L 334.241665 125.890892  L 331.701149 125.341525  L 329.25993 124.971537  L 326.936389 124.766808  L 324.747158 124.711264  L 322.706911 124.787082  L 319.121174 125.254186  L 316.251019 125.99985  L 314.128058 126.844391  L 312.31107 127.900615  L 311.922275 128.215275  L 312.071444 128.043717  L 312.620382 127.267025  L 313.407249 125.800541  L 314.254927 123.598275  L 314.980162 120.655336  L 315.24025 118.915947  L 315.40303 117.008254  L 315.448058 114.943002  L 315.356227 112.733187  L 315.110018 110.393889  L 314.693724 107.94209  L 314.093656 105.396447  L 313.298324 102.777064  L 312.298583 100.105228  L 311.087758 97.403145  L 309.661729 94.693653  L 308.018988 91.999932  L 306.160663 89.345208  L 304.090506 86.752456  L 301.814846 84.24411  L 299.342515 81.841776  L 296.684733 79.565952  L 293.854972 77.435772  L 290.868784 75.468763  L 287.743604 73.680615  L 284.498531 72.084987  L 281.154088 70.693332  L 277.731959 69.514751  L 274.254713 68.555878  L 270.745525 67.820794  L 267.227873 67.31098  L 263.725247 67.025296  L 260.260847 66.96  L 256.857293 67.108792  L 253.536332 67.462902  L 250.31857 68.011198  L 247.223205 68.740336  L 244.267787 69.634925  L 241.467996 70.677733  L 238.837445 71.849902  L 236.387507 73.131195  L 234.127176 74.500256  L 232.062949 75.934884  L 230.198756 77.412318  L 228.535902 78.90953  L 227.073062 80.403523  L 225.806298 81.871624  L 223.832548 84.642822  L 222.533774 87.059088  L 221.794068 88.979098  L 221.409703 90.694625  L 221.389138 90.965837  L 221.345674 90.514905  L 221.098345 89.367761  L 220.476743 87.590527  L 219.329851 85.286132  L 217.533882 82.58904  L 216.362878 81.142206  L 214.99873 79.658357  L 213.436213 78.159893  L 211.67269 76.669687  L 209.708153 75.210787  L 207.545221 73.806126  L 205.189115 72.47822  L 202.647595 71.248883  L 199.930859 70.138945  L 197.051419 69.167985  L 194.023946 68.354078  L 190.86508 67.713561  L 187.593225 67.260824  L 184.228314 67.008126  L 180.791558 66.965434  L 177.305174 67.140295  L 173.79211 67.537738  L 170.275747 68.160208  L 166.779608 69.007535  L 163.327054 70.076934  L 159.940995 71.363037  L 156.643594 72.857966  L 153.455985 74.551428  L 150.398012 76.430845  L 147.487971 78.481521  L 144.742381 80.686819  L 142.175778 83.028381  L 139.800526 85.486359  L 137.626668 88.039667  L 135.661796 90.66625  L 133.910957 93.343367  L 132.376596 96.047881  L 131.058521 98.756552  L 129.953915 101.446333  L 129.057369 104.094667  L 128.360962 106.679774  L 127.854359 109.180923  L 127.524949 111.578704  L 127.358011 113.855269  L 127.336905 115.994562  L 127.443287 117.982521  L 127.958078 121.459209  L 128.731084 124.218801  L 129.58066 126.235036  L 130.601217 127.910209  L 130.86434 128.223147  L 130.621417 128.017236  L 129.756755 127.433127  L 128.189807 126.633982  L 125.879362 125.797037  L 122.825733 125.104457  L 121.031736 124.868261  L 119.070819 124.733928  L 116.954376 124.721463  L 114.696029 124.849476  L 112.311456 125.134943  L 109.81819 125.592985  L 107.2354 126.236673  L 104.583642 127.076851  L 101.884601 128.122002  L 99.160814 129.378131  L 96.435382 130.848685  L 93.731675 132.534509  L 91.073036 134.433827  L 88.482483 136.542268  L 85.982414 138.852911  L 83.594322 141.35638  L 81.338521 144.040952  L 79.233889 146.892709  L 77.297622 149.895715  L 75.545023 153.032212  L 73.989299 156.282848  L 72.641399 159.626922  L 71.509871 163.042642  L 70.600758 166.50741  L 69.917517 169.998099  L 69.460979 173.491351  L 69.22934 176.963874  L 69.218182 180.392736  L 69.420534 183.755654  L 69.826963 187.031279  L 70.425693 190.199468  L 71.20276 193.241533  L 72.142189 196.140483  L 73.226205 198.881236  L 74.435455 201.450809  L 75.749264 203.838481  L 77.145897 206.03593  L 78.602839 208.037329  L 80.097087 209.839425  L 81.60544 211.441574  L 83.104806 212.845744  L 85.986492 215.080885  L 88.570597 216.610955  L 90.705372 217.538673  L 92.266645 217.997997  L 93.346309 218.160476  L 93.164182 218.172836  L 92.266645 218.322003  L 90.705372 218.781327  L 88.570597 219.709045  L 85.986492 221.239115  L 84.57249 222.263511  L 83.104806 223.474256  L 81.60544 224.878426  L 80.097087 226.480575  L 78.602839 228.282671  L 77.145897 230.28407  L 75.749264 232.481519  L 74.435455 234.869191  L 73.226205 237.438764  L 72.142189 240.179517  L 71.20276 243.078467  L 70.425693 246.120532  L 69.826963 249.288721  L 69.420534 252.564346  L 69.218182 255.927264  L 69.22934 259.356126  L 69.460979 262.828649  L 69.917517 266.321901  L 70.600758 269.81259  L 71.509871 273.277358  L 72.641399 276.693078  L 73.989299 280.037152  L 75.545023 283.287788  L 77.297622 286.424285  L 79.233889 289.427291  L 81.338521 292.279048  L 83.594322 294.96362  L 85.982414 297.467089  L 88.482483 299.777732  L 91.073036 301.886173  L 93.731675 303.785491  L 96.435382 305.471315  L 99.160814 306.941869  L 101.884601 308.197998  L 104.583642 309.243149  L 107.2354 310.083327  L 109.81819 310.727015  L 112.311456 311.185057  L 114.696029 311.470524  L 116.954376 311.598537  L 119.070819 311.586072  L 121.031736 311.451739  L 124.443787 310.898619  L 127.128486 310.111146  L 129.064601 309.270418  L 130.621417 308.302764  L 130.86434 308.096853  L 130.601217 308.409791  L 129.976877 309.352445  L 129.157802 311.000143  L 128.323523 313.388747  L 127.657349 316.512741  L 127.443287 318.337479  L 127.336905 320.325438  L 127.358011 322.464731  L 127.524949 324.741296  L 127.854359 327.139077  L 128.360962 329.640226  L 129.057369 332.225333  L 129.953915 334.873667  L 131.058521 337.563448  L 132.376596 340.272119  L 133.910957 342.976633  L 135.661796 345.65375  L 137.626668 348.280333  L 139.800526 350.833641  L 142.175778 353.291619  L 144.742381 355.633181  L 147.487971 357.838479  L 150.398012 359.889155  L 153.455985 361.768572  L 156.643594 363.462034  L 159.940995 364.956963  L 163.327054 366.243066  L 166.779608 367.312465  L 170.275747 368.159792  L 173.79211 368.782262  L 177.305174 369.179705  L 180.791558 369.354566  L 184.228314 369.311874  L 187.593225 369.059176  L 190.86508 368.606439  L 194.023946 367.965922  L 197.051419 367.152015  L 199.930859 366.181055  L 202.647595 365.071117  L 205.189115 363.84178  L 207.545221 362.513874  L 209.708153 361.109213  L 211.67269 359.650313  L 213.436213 358.160107  L 214.99873 356.661643  L 216.362878 355.177794  L 218.519487 352.342784  L 219.977416 349.823514  L 220.844319 347.767718  L 221.345674 345.805095  L 221.389138 345.354163  L 221.409703 345.625375  L 221.58952 346.603137  L 222.102496 348.231137  L 223.105275 350.415222  L 224.729116 353.028225  L 225.806298 354.448376  L 227.073062 355.916477  L 228.535902 357.41047  L 230.198756 358.907682  L 232.062949 360.385116  L 234.127176 361.819744  L 236.387507 363.188805  L 238.837445 364.470098  L 241.467996 365.642267  L 244.267787 366.685075  L 247.223205 367.579664  L 250.31857 368.308802  L 253.536332 368.857098  L 256.857293 369.211208  L 260.260847 369.36  L 263.725247 369.294704  L 267.227873 369.00902  L 270.745525 368.499206  L 274.254713 367.764122  L 277.731959 366.805249  L 281.154088 365.626668  L 284.498531 364.235013  L 287.743604 362.639385  L 290.868784 360.851237  L 293.854972 358.884228  L 296.684733 356.754048  L 299.342515 354.478224  L 301.814846 352.07589  L 304.090506 349.567544  L 306.160663 346.974792  L 308.018988 344.320068  L 309.661729 341.626347  L 311.087758 338.916855  L 312.298583 336.214772  L 313.298324 333.542936  L 314.093656 330.923553  L 314.693724 328.37791  L 315.110018 325.926111  L 315.356227 323.586813  L 315.448058 321.376998  L 315.40303 319.311746  L 315.24025 317.404053  L 314.644284 314.101933  L 313.834907 311.527336  L 312.994891 309.696174  L 312.071444 308.276283  L 311.922275 308.104725  L 312.31107 308.419385  L 313.345232 309.073251  L 315.095792 309.898815  L 317.593702 310.716732  L 320.828175 311.345076  L 322.706911 311.532918  L 324.747158 311.608736  L 326.936389 311.553192  L 329.25993 311.348463  L 331.701149 310.978475  L 334.241665 310.429108  L 336.861586 309.688386  L 339.539755 308.746629  L 342.254028 307.596582  L 344.98155 306.233509  L 347.699046 304.655262  L 350.383123 302.862306  L 353.010564 300.857719  L 355.558625 298.647156  L 358.005325 296.238778  L 360.329727 293.643152  L 362.512204 290.873117  L 364.534689 287.943624  L 366.380908 284.871548  L 368.036583 281.675472  L 369.489617 278.375455  L 370.730245 274.992777  L 371.75116 271.549668  L 372.547606 268.069028  L 373.117434 264.574135  L 373.461133 261.088351  L 373.581818 257.634826  L 373.485193 254.236203  L 373.179474 250.914332  L 372.675281 247.689992  L 371.985507 244.58263  L 371.125145 241.610113  L 370.111097 238.788503  L 368.961956 236.131856  L 367.697769 233.65204  L 366.339776 231.358593  L 364.910136 229.2586  L 363.431647 227.356609  L 361.927446 225.654569  L 360.420718 224.151819  L 358.934393 222.84509  L 356.111649 220.793919  L 353.626604 219.425392  L 351.624793 218.62841  L 349.772855 218.19039  L 349.409259 218.16  L 349.409259 218.16  "
           clip-path="url(#pe74b6feba1)"
           style="fill: none; stroke: #0000ff; stroke-width: 1.5; stroke-linecap: square"
           id="path28" />
      </g>
      <g
         id="patch_3">
        <path
           d="M 54 384.48  L 54 51.84  "
           style="fill: none; stroke: #000000; stroke-width: 0.8; stroke-linejoin: miter; stroke-linecap: square"
           id="path29" />
      </g>
      <g
         id="patch_4">
        <path
           d="M 388.8 384.48  L 388.8 51.84  "
           style="fill: none; stroke: #000000; stroke-width: 0.8; stroke-linejoin: miter; stroke-linecap: square"
           id="path30" />
      </g>
      <g
         id="patch_5">
        <path
           d="M 54 384.48  L 388.8 384.48  "
           style="fill: none; stroke: #000000; stroke-width: 0.8; stroke-linejoin: miter; stroke-linecap: square"
           id="path31" />
      </g>
      <g
         id="patch_6">
        <path
           d="M 54 51.84  L 388.8 51.84  "
           style="fill: none; stroke: #000000; stroke-width: 0.8; stroke-linejoin: miter; stroke-linecap: square"
           id="path32" />
      </g>
    </g>
  </g>
  <path
     style="fill:#000000;fill-opacity:0;stroke:#f50000;stroke-width:0.761848;stroke-linecap:butt;stroke-linejoin:round;stroke-dasharray:9.14218, 9.14218"
     d="M 94.051115,218.20401 H 349.00926"
     id="path33" />
  <defs
     id="defs32">
    <clipPath
       id="pe74b6feba1">
      <rect
         x="54"
         y="51.84"
         width="334.8"
         height="332.64"
         id="rect32" />
    </clipPath>
  </defs>
  <path
     style="fill:#000000;fill-opacity:0;stroke:#f50000;stroke-width:0.761848;stroke-linecap:butt;stroke-linejoin:round;stroke-dasharray:9.14218, 9.14218"
     d="M 221.4,345.63907 V 90.680931"
     id="path34" />
</svg>
