<?xml version="1.0" encoding="UTF-8" standalone="no"?>
<svg
   width="432pt"
   height="432pt"
   viewBox="0 0 432 432"
   version="1.1"
   id="svg32"
   sodipodi:docname="sym_epi_n=7.svg"
   inkscape:version="1.4 (86a8ad7, 2024-10-11)"
   inkscape:export-filename="..\..\PNGs\sym\sym_epi_n=7.png"
   inkscape:export-xdpi="96"
   inkscape:export-ydpi="96"
   xmlns:inkscape="http://www.inkscape.org/namespaces/inkscape"
   xmlns:sodipodi="http://sodipodi.sourceforge.net/DTD/sodipodi-0.dtd"
   xmlns:xlink="http://www.w3.org/1999/xlink"
   xmlns="http://www.w3.org/2000/svg"
   xmlns:svg="http://www.w3.org/2000/svg"
   xmlns:rdf="http://www.w3.org/1999/02/22-rdf-syntax-ns#"
   xmlns:cc="http://creativecommons.org/ns#"
   xmlns:dc="http://purl.org/dc/elements/1.1/">
  <sodipodi:namedview
     id="namedview32"
     pagecolor="#ffffff"
     bordercolor="#000000"
     borderopacity="0.25"
     inkscape:showpageshadow="2"
     inkscape:pageopacity="0.0"
     inkscape:pagecheckerboard="0"
     inkscape:deskcolor="#d1d1d1"
     inkscape:document-units="pt"
     inkscape:zoom="1.4142136"
     inkscape:cx="112.78353"
     inkscape:cy="330.57242"
     inkscape:window-width="1920"
     inkscape:window-height="1009"
     inkscape:window-x="1912"
     inkscape:window-y="-8"
     inkscape:window-maximized="1"
     inkscape:current-layer="g7" />
  <metadata
     id="metadata1">
    <rdf:RDF>
      <cc:Work>
        <dc:type
           rdf:resource="http://purl.org/dc/dcmitype/StillImage" />
        <dc:date>2025-04-09T14:13:37.063655</dc:date>
        <dc:format>image/svg+xml</dc:format>
        <dc:creator>
          <cc:Agent>
            <dc:title>Matplotlib v3.9.2, https://matplotlib.org/</dc:title>
          </cc:Agent>
        </dc:creator>
      </cc:Work>
    </rdf:RDF>
  </metadata>
  <defs
     id="defs1">
    <linearGradient
       id="swatch9"
       inkscape:swatch="solid">
      <stop
         style="stop-color:#f50000;stop-opacity:1;"
         offset="0"
         id="stop9" />
    </linearGradient>
    <linearGradient
       id="swatch8"
       inkscape:swatch="solid">
      <stop
         style="stop-color:#000000;stop-opacity:1;"
         offset="0"
         id="stop8" />
    </linearGradient>
    <linearGradient
       id="swatch7"
       inkscape:swatch="solid">
      <stop
         style="stop-color:#000000;stop-opacity:1;"
         offset="0"
         id="stop7" />
    </linearGradient>
    <linearGradient
       id="swatch6"
       inkscape:swatch="solid">
      <stop
         style="stop-color:#000000;stop-opacity:1;"
         offset="0"
         id="stop6" />
    </linearGradient>
    <linearGradient
       id="swatch5"
       inkscape:swatch="solid">
      <stop
         style="stop-color:#000000;stop-opacity:0;"
         offset="0"
         id="stop5" />
    </linearGradient>
    <linearGradient
       id="swatch4"
       inkscape:swatch="solid">
      <stop
         style="stop-color:#000000;stop-opacity:1;"
         offset="0"
         id="stop4" />
    </linearGradient>
    <style
       type="text/css"
       id="style1">*{stroke-linejoin: round; stroke-linecap: butt}</style>
    <linearGradient
       inkscape:collect="always"
       xlink:href="#swatch7"
       id="linearGradient7"
       x1="69.218178"
       y1="243.45774"
       x2="132.35687"
       y2="243.45774"
       gradientUnits="userSpaceOnUse" />
    <linearGradient
       inkscape:collect="always"
       xlink:href="#swatch8"
       id="linearGradient8"
       x1="68.718179"
       y1="243.45774"
       x2="132.85687"
       y2="243.45774"
       gradientUnits="userSpaceOnUse" />
    <linearGradient
       inkscape:collect="always"
       xlink:href="#swatch8"
       id="linearGradient9"
       x1="66.055969"
       y1="218.15997"
       x2="376.74533"
       y2="218.15997"
       gradientUnits="userSpaceOnUse" />
  </defs>
  <g
     id="figure_1">
    <g
       id="patch_1">
      <path
         d="M 0 432  L 432 432  L 432 0  L 0 0  z "
         style="fill: #ffffff"
         id="path1" />
    </g>
    <g
       id="axes_1">
      <g
         id="patch_2">
        <path
           d="M 54 384.48  L 388.8 384.48  L 388.8 51.84  L 54 51.84  z "
           style="fill: #ffffff"
           id="path2" />
      </g>
      <g
         id="matplotlib.axis_1">
        <g
           id="xtick_1">
          <g
             id="line2d_1">
            <path
               d="M 104.066615 384.48  L 104.066615 51.84  "
               clip-path="url(#p04c03e38ca)"
               style="fill: none; stroke: #b0b0b0; stroke-width: 0.8; stroke-linecap: square"
               id="path3" />
          </g>
          <g
             id="line2d_2">
            <defs
               id="defs3">
              <path
                 id="m5f0c7a69e6"
                 d="M 0 0  L 0 3.5  "
                 style="stroke: #000000; stroke-width: 0.8" />
            </defs>
            <g
               id="g3">
              <use
                 xlink:href="#m5f0c7a69e6"
                 x="104.066615"
                 y="384.48"
                 style="stroke: #000000; stroke-width: 0.8"
                 id="use3" />
            </g>
          </g>
          <g
             id="text_1">
            <!-- −2 -->
            <g
               transform="translate(96.695521 399.078438) scale(0.1 -0.1)"
               id="g5">
              <defs
                 id="defs4">
                <path
                   id="DejaVuSans-2212"
                   d="M 678 2272  L 4684 2272  L 4684 1741  L 678 1741  L 678 2272  z "
                   transform="scale(0.015625)" />
                <path
                   id="DejaVuSans-32"
                   d="M 1228 531  L 3431 531  L 3431 0  L 469 0  L 469 531  Q 828 903 1448 1529  Q 2069 2156 2228 2338  Q 2531 2678 2651 2914  Q 2772 3150 2772 3378  Q 2772 3750 2511 3984  Q 2250 4219 1831 4219  Q 1534 4219 1204 4116  Q 875 4013 500 3803  L 500 4441  Q 881 4594 1212 4672  Q 1544 4750 1819 4750  Q 2544 4750 2975 4387  Q 3406 4025 3406 3419  Q 3406 3131 3298 2873  Q 3191 2616 2906 2266  Q 2828 2175 2409 1742  Q 1991 1309 1228 531  z "
                   transform="scale(0.015625)" />
              </defs>
              <use
                 xlink:href="#DejaVuSans-2212"
                 id="use4" />
              <use
                 xlink:href="#DejaVuSans-32"
                 x="83.789062"
                 id="use5" />
            </g>
          </g>
        </g>
        <g
           id="xtick_2">
          <g
             id="line2d_3">
            <path
               d="M 165.094905 384.48  L 165.094905 51.84  "
               clip-path="url(#p04c03e38ca)"
               style="fill: none; stroke: #b0b0b0; stroke-width: 0.8; stroke-linecap: square"
               id="path5" />
          </g>
          <g
             id="line2d_4">
            <g
               id="g6">
              <use
                 xlink:href="#m5f0c7a69e6"
                 x="165.094905"
                 y="384.48"
                 style="stroke: #000000; stroke-width: 0.8"
                 id="use6" />
            </g>
          </g>
          <g
             id="text_2">
            <!-- −1 -->
            <g
               transform="translate(157.723811 399.078438) scale(0.1 -0.1)"
               id="g8">
              <defs
                 id="defs6">
                <path
                   id="DejaVuSans-31"
                   d="M 794 531  L 1825 531  L 1825 4091  L 703 3866  L 703 4441  L 1819 4666  L 2450 4666  L 2450 531  L 3481 531  L 3481 0  L 794 0  L 794 531  z "
                   transform="scale(0.015625)" />
              </defs>
              <use
                 xlink:href="#DejaVuSans-2212"
                 id="use7" />
              <use
                 xlink:href="#DejaVuSans-31"
                 x="83.789062"
                 id="use8" />
            </g>
          </g>
        </g>
        <g
           id="xtick_3">
          <g
             id="line2d_5">
            <path
               d="M 226.123196 384.48  L 226.123196 51.84  "
               clip-path="url(#p04c03e38ca)"
               style="fill: none; stroke: #b0b0b0; stroke-width: 0.8; stroke-linecap: square"
               id="path8" />
          </g>
          <g
             id="line2d_6">
            <g
               id="g9">
              <use
                 xlink:href="#m5f0c7a69e6"
                 x="226.123196"
                 y="384.48"
                 style="stroke: #000000; stroke-width: 0.8"
                 id="use9" />
            </g>
          </g>
          <g
             id="text_3">
            <!-- 0 -->
            <g
               transform="translate(222.941946 399.078438) scale(0.1 -0.1)"
               id="g10">
              <defs
                 id="defs9">
                <path
                   id="DejaVuSans-30"
                   d="M 2034 4250  Q 1547 4250 1301 3770  Q 1056 3291 1056 2328  Q 1056 1369 1301 889  Q 1547 409 2034 409  Q 2525 409 2770 889  Q 3016 1369 3016 2328  Q 3016 3291 2770 3770  Q 2525 4250 2034 4250  z M 2034 4750  Q 2819 4750 3233 4129  Q 3647 3509 3647 2328  Q 3647 1150 3233 529  Q 2819 -91 2034 -91  Q 1250 -91 836 529  Q 422 1150 422 2328  Q 422 3509 836 4129  Q 1250 4750 2034 4750  z "
                   transform="scale(0.015625)" />
              </defs>
              <use
                 xlink:href="#DejaVuSans-30"
                 id="use10" />
            </g>
          </g>
        </g>
        <g
           id="xtick_4">
          <g
             id="line2d_7">
            <path
               d="M 287.151486 384.48  L 287.151486 51.84  "
               clip-path="url(#p04c03e38ca)"
               style="fill: none; stroke: #b0b0b0; stroke-width: 0.8; stroke-linecap: square"
               id="path10" />
          </g>
          <g
             id="line2d_8">
            <g
               id="g11">
              <use
                 xlink:href="#m5f0c7a69e6"
                 x="287.151486"
                 y="384.48"
                 style="stroke: #000000; stroke-width: 0.8"
                 id="use11" />
            </g>
          </g>
          <g
             id="text_4">
            <!-- 1 -->
            <g
               transform="translate(283.970236 399.078438) scale(0.1 -0.1)"
               id="g12">
              <use
                 xlink:href="#DejaVuSans-31"
                 id="use12" />
            </g>
          </g>
        </g>
        <g
           id="xtick_5">
          <g
             id="line2d_9">
            <path
               d="M 348.179777 384.48  L 348.179777 51.84  "
               clip-path="url(#p04c03e38ca)"
               style="fill: none; stroke: #b0b0b0; stroke-width: 0.8; stroke-linecap: square"
               id="path12" />
          </g>
          <g
             id="line2d_10">
            <g
               id="g13">
              <use
                 xlink:href="#m5f0c7a69e6"
                 x="348.179777"
                 y="384.48"
                 style="stroke: #000000; stroke-width: 0.8"
                 id="use13" />
            </g>
          </g>
          <g
             id="text_5">
            <!-- 2 -->
            <g
               transform="translate(344.998527 399.078438) scale(0.1 -0.1)"
               id="g14">
              <use
                 xlink:href="#DejaVuSans-32"
                 id="use14" />
            </g>
          </g>
        </g>
        <g
           id="text_6">
          <!-- x -->
          <g
             transform="translate(218.440625 412.756563) scale(0.1 -0.1)"
             id="g15">
            <defs
               id="defs14">
              <path
                 id="DejaVuSans-78"
                 d="M 3513 3500  L 2247 1797  L 3578 0  L 2900 0  L 1881 1375  L 863 0  L 184 0  L 1544 1831  L 300 3500  L 978 3500  L 1906 2253  L 2834 3500  L 3513 3500  z "
                 transform="scale(0.015625)" />
            </defs>
            <use
               xlink:href="#DejaVuSans-78"
               id="use15" />
          </g>
        </g>
      </g>
      <g
         id="matplotlib.axis_2">
        <g
           id="ytick_1">
          <g
             id="line2d_11">
            <path
               d="M 54 337.575104  L 388.8 337.575104  "
               clip-path="url(#p04c03e38ca)"
               style="fill: none; stroke: #b0b0b0; stroke-width: 0.8; stroke-linecap: square"
               id="path15" />
          </g>
          <g
             id="line2d_12">
            <defs
               id="defs15">
              <path
                 id="mbea7051fef"
                 d="M 0 0  L -3.5 0  "
                 style="stroke: #000000; stroke-width: 0.8" />
            </defs>
            <g
               id="g16">
              <use
                 xlink:href="#mbea7051fef"
                 x="54"
                 y="337.575104"
                 style="stroke: #000000; stroke-width: 0.8"
                 id="use16" />
            </g>
          </g>
          <g
             id="text_7">
            <!-- −2 -->
            <g
               transform="translate(32.257812 341.374323) scale(0.1 -0.1)"
               id="g18">
              <use
                 xlink:href="#DejaVuSans-2212"
                 id="use17" />
              <use
                 xlink:href="#DejaVuSans-32"
                 x="83.789062"
                 id="use18" />
            </g>
          </g>
        </g>
        <g
           id="ytick_2">
          <g
             id="line2d_13">
            <path
               d="M 54 277.867552  L 388.8 277.867552  "
               clip-path="url(#p04c03e38ca)"
               style="fill: none; stroke: #b0b0b0; stroke-width: 0.8; stroke-linecap: square"
               id="path18" />
          </g>
          <g
             id="line2d_14">
            <g
               id="g19">
              <use
                 xlink:href="#mbea7051fef"
                 x="54"
                 y="277.867552"
                 style="stroke: #000000; stroke-width: 0.8"
                 id="use19" />
            </g>
          </g>
          <g
             id="text_8">
            <!-- −1 -->
            <g
               transform="translate(32.257812 281.666771) scale(0.1 -0.1)"
               id="g21">
              <use
                 xlink:href="#DejaVuSans-2212"
                 id="use20" />
              <use
                 xlink:href="#DejaVuSans-31"
                 x="83.789062"
                 id="use21" />
            </g>
          </g>
        </g>
        <g
           id="ytick_3">
          <g
             id="line2d_15">
            <path
               d="M 54 218.16  L 388.8 218.16  "
               clip-path="url(#p04c03e38ca)"
               style="fill: none; stroke: #b0b0b0; stroke-width: 0.8; stroke-linecap: square"
               id="path21" />
          </g>
          <g
             id="line2d_16">
            <g
               id="g22">
              <use
                 xlink:href="#mbea7051fef"
                 x="54"
                 y="218.16"
                 style="stroke: #000000; stroke-width: 0.8"
                 id="use22" />
            </g>
          </g>
          <g
             id="text_9">
            <!-- 0 -->
            <g
               transform="translate(40.6375 221.959219) scale(0.1 -0.1)"
               id="g23">
              <use
                 xlink:href="#DejaVuSans-30"
                 id="use23" />
            </g>
          </g>
        </g>
        <g
           id="ytick_4">
          <g
             id="line2d_17">
            <path
               d="M 54 158.452448  L 388.8 158.452448  "
               clip-path="url(#p04c03e38ca)"
               style="fill: none; stroke: #b0b0b0; stroke-width: 0.8; stroke-linecap: square"
               id="path23" />
          </g>
          <g
             id="line2d_18">
            <g
               id="g24">
              <use
                 xlink:href="#mbea7051fef"
                 x="54"
                 y="158.452448"
                 style="stroke: #000000; stroke-width: 0.8"
                 id="use24" />
            </g>
          </g>
          <g
             id="text_10">
            <!-- 1 -->
            <g
               transform="translate(40.6375 162.251667) scale(0.1 -0.1)"
               id="g25">
              <use
                 xlink:href="#DejaVuSans-31"
                 id="use25" />
            </g>
          </g>
        </g>
        <g
           id="ytick_5">
          <g
             id="line2d_19">
            <path
               d="M 54 98.744896  L 388.8 98.744896  "
               clip-path="url(#p04c03e38ca)"
               style="fill: none; stroke: #b0b0b0; stroke-width: 0.8; stroke-linecap: square"
               id="path25" />
          </g>
          <g
             id="line2d_20">
            <g
               id="g26">
              <use
                 xlink:href="#mbea7051fef"
                 x="54"
                 y="98.744896"
                 style="stroke: #000000; stroke-width: 0.8"
                 id="use26" />
            </g>
          </g>
          <g
             id="text_11">
            <!-- 2 -->
            <g
               transform="translate(40.6375 102.544115) scale(0.1 -0.1)"
               id="g27">
              <use
                 xlink:href="#DejaVuSans-32"
                 id="use27" />
            </g>
          </g>
        </g>
        <g
           id="text_12">
          <!-- y -->
          <g
             transform="translate(26.178125 221.119375) rotate(-90) scale(0.1 -0.1)"
             id="g28">
            <defs
               id="defs27">
              <path
                 id="DejaVuSans-79"
                 d="M 2059 -325  Q 1816 -950 1584 -1140  Q 1353 -1331 966 -1331  L 506 -1331  L 506 -850  L 844 -850  Q 1081 -850 1212 -737  Q 1344 -625 1503 -206  L 1606 56  L 191 3500  L 800 3500  L 1894 763  L 2988 3500  L 3597 3500  L 2059 -325  z "
                 transform="scale(0.015625)" />
            </defs>
            <use
               xlink:href="#DejaVuSans-79"
               id="use28" />
          </g>
        </g>
      </g>
      <g
         id="line2d_21">
        <path
           d="M 348.179777 218.16  L 348.87041 218.083117  L 350.068682 217.806986  L 351.796411 217.203249  L 353.973153 216.159878  L 356.49679 214.582931  L 359.247675 212.40044  L 360.667333 211.066391  L 362.093477 209.565406  L 363.508465 207.895838  L 364.894552 206.05779  L 366.234069 204.053115  L 367.509606 201.885404  L 368.704182 199.559947  L 369.801427 197.083686  L 370.785741 194.465143  L 371.642457 191.714343  L 372.357989 188.842709  L 372.919973 185.862949  L 373.317387 182.788934  L 373.54067 179.635557  L 373.581818 176.418584  L 373.434465 173.154499  L 373.093947 169.860337  L 372.557356 166.553515  L 371.823563 163.251661  L 370.893237 159.972431  L 369.768834 156.733337  L 368.454578 153.551573  L 366.956415 150.44384  L 365.281958 147.426182  L 363.440408 144.513822  L 361.442462 141.721014  L 359.300208 139.0609  L 357.027001 136.545376  L 354.637332 134.18498  L 352.146679 131.98878  L 349.571356 129.964291  L 346.928343 128.117397  L 344.235121 126.452296  L 341.509492 124.971458  L 338.769403 123.675603  L 336.032765 122.563697  L 333.31727 121.632963  L 330.640219 120.878912  L 328.018342 120.295392  L 325.467634 119.874649  L 323.003194 119.607413  L 320.639071 119.48299  L 318.388128 119.489374  L 314.270524 119.840731  L 310.724957 120.544189  L 307.800237 121.470507  L 305.517499 122.483794  L 303.869404 123.447065  L 302.502334 124.510971  L 302.228222 124.792721  L 302.531733 124.328855  L 303.037226 123.324859  L 303.630729 121.71507  L 304.172895 119.487198  L 304.524497 116.656821  L 304.552137 113.266804  L 304.405732 111.382393  L 304.133714 109.385608  L 303.72341 107.288559  L 303.163444 105.104563  L 302.443857 102.84801  L 301.556211 100.534219  L 300.493675 98.179285  L 299.251097 95.799913  L 297.825059 93.413254  L 296.213917 91.036732  L 294.417815 88.687866  L 292.438691 86.384093  L 290.280255 84.142597  L 287.947961 81.980129  L 285.448945 79.912845  L 282.791965 77.956137  L 279.987308 76.124483  L 277.04669 74.431297  L 273.983141 72.888796  L 270.810876 71.507877  L 267.545152 70.298005  L 264.202114 69.267122  L 260.798641 68.421563  L 257.35217 67.765995  L 253.880525 67.303367  L 250.40174 67.034886  L 246.933879 66.96  L 243.494852 67.076409  L 240.10224 67.380084  L 236.773119 67.865311  L 233.523886 68.52475  L 230.370101 69.349508  L 227.326328 70.329231  L 224.405992 71.452206  L 221.621244 72.705486  L 218.982843 74.075016  L 216.500048 75.545778  L 214.180526 77.101944  L 212.03028 78.727034  L 210.053587 80.404088  L 208.252962 82.115832  L 206.62913 83.844859  L 205.181028 85.5738  L 203.905812 87.285504  L 201.853981 90.590724  L 200.416968 93.634136  L 199.513468 96.303391  L 199.040913 98.504704  L 198.879716 100.166641  L 198.959664 101.725373  L 198.821329 101.314981  L 198.386479 100.372794  L 197.537812 98.973105  L 196.175742 97.212023  L 194.222508 95.203564  L 191.625404 93.075008  L 190.07635 92.00783  L 188.358998 90.961725  L 186.474614 89.953973  L 184.426241 89.001665  L 182.218679 88.121526  L 179.858429 87.329747  L 177.35364 86.641816  L 174.71402 86.072363  L 171.950744 85.635011  L 169.076346 85.342233  L 166.104588 85.205227  L 163.050327 85.2338  L 159.929367 85.436268  L 156.758299 85.819372  L 153.554337 86.388203  L 150.335146 87.146155  L 147.118663 88.094885  L 143.922919 89.234297  L 140.76586 90.562539  L 137.665164 92.076024  L 134.638066 93.769461  L 131.701188 95.63591  L 128.870366 97.666849  L 126.160499 99.852258  L 123.585394 102.180722  L 121.157634 104.639542  L 118.888448 107.214864  L 116.787601 109.891815  L 114.863297 112.654655  L 113.122097 115.486936  L 111.568858 118.37166  L 110.206681 121.291457  L 109.036885 124.228755  L 108.058992 127.16596  L 107.270739 130.085626  L 106.668099 132.970637  L 106.245325 135.804374  L 105.995009 138.570883  L 105.908161 141.255035  L 105.974301 143.842677  L 106.181565 146.320773  L 106.516832 148.677535  L 106.965852 150.902539  L 107.5134 152.986829  L 108.83922 156.705309  L 110.359018 159.793668  L 111.932562 162.240065  L 113.42038 164.060532  L 114.689452 165.298252  L 116.103612 166.321982  L 116.152589 166.347065  L 115.822738 166.222814  L 114.185833 165.846464  L 112.317544 165.667252  L 109.85244 165.702976  L 106.842765 166.08091  L 103.366124 166.915612  L 101.483128 167.5354  L 99.522363 168.304212  L 97.499127 169.230806  L 95.429563 170.322397  L 93.330502 171.584578  L 91.219284 173.021265  L 89.113591 174.63465  L 87.031263 176.425178  L 84.990121 178.391541  L 83.007786 180.530686  L 81.101497 182.837847  L 79.287944 185.306586  L 77.583093 187.92886  L 76.002027 190.695097  L 74.558794 193.594291  L 73.266262 196.614111  L 72.135994 199.741024  L 71.178125 202.960429  L 70.401264 206.256802  L 69.812404 209.61385  L 69.416854 213.014676  L 69.218182 216.441944  L 69.218182 219.878056  L 69.416854 223.305324  L 69.812404 226.70615  L 70.401264 230.063198  L 71.178125 233.359571  L 72.135994 236.578976  L 73.266262 239.705889  L 74.558794 242.725709  L 76.002027 245.624903  L 77.583093 248.39114  L 79.287944 251.013414  L 81.101497 253.482153  L 83.007786 255.789314  L 84.990121 257.928459  L 87.031263 259.894822  L 89.113591 261.68535  L 91.219284 263.298735  L 93.330502 264.735422  L 95.429563 265.997603  L 97.499127 267.089194  L 99.522363 268.015788  L 103.366124 269.404388  L 106.842765 270.23909  L 109.85244 270.617024  L 112.317544 270.652748  L 114.185833 270.473536  L 115.822738 270.097186  L 116.152589 269.972935  L 115.922391 270.101704  L 114.689452 271.021748  L 113.42038 272.259468  L 111.932562 274.079935  L 110.359018 276.526332  L 108.83922 279.614691  L 108.143426 281.396991  L 107.5134 283.333171  L 106.965852 285.417461  L 106.516832 287.642465  L 106.181565 289.999227  L 105.974301 292.477323  L 105.908161 295.064965  L 105.995009 297.749117  L 106.245325 300.515626  L 106.668099 303.349363  L 107.270739 306.234374  L 108.058992 309.15404  L 109.036885 312.091245  L 110.206681 315.028543  L 111.568858 317.94834  L 113.122097 320.833064  L 114.863297 323.665345  L 116.787601 326.428185  L 118.888448 329.105136  L 121.157634 331.680458  L 123.585394 334.139278  L 126.160499 336.467742  L 128.870366 338.653151  L 131.701188 340.68409  L 134.638066 342.550539  L 137.665164 344.243976  L 140.76586 345.757461  L 143.922919 347.085703  L 147.118663 348.225115  L 150.335146 349.173845  L 153.554337 349.931797  L 156.758299 350.500628  L 159.929367 350.883732  L 163.050327 351.0862  L 166.104588 351.114773  L 169.076346 350.977767  L 171.950744 350.684989  L 174.71402 350.247637  L 177.35364 349.678184  L 179.858429 348.990253  L 182.218679 348.198474  L 184.426241 347.318335  L 186.474614 346.366027  L 188.358998 345.358275  L 191.625404 343.244992  L 194.222508 341.116436  L 196.175742 339.107977  L 197.537812 337.346895  L 198.648661 335.41373  L 198.959664 334.594627  L 198.898188 335.077  L 198.879716 336.153359  L 199.040913 337.815296  L 199.513468 340.016609  L 200.416968 342.685864  L 201.853981 345.729276  L 202.798892 347.356788  L 203.905812 349.034496  L 205.181028 350.7462  L 206.62913 352.475141  L 208.252962 354.204168  L 210.053587 355.915912  L 212.03028 357.592966  L 214.180526 359.218056  L 216.500048 360.774222  L 218.982843 362.244984  L 221.621244 363.614514  L 224.405992 364.867794  L 227.326328 365.990769  L 230.370101 366.970492  L 233.523886 367.79525  L 236.773119 368.454689  L 240.10224 368.939916  L 243.494852 369.243591  L 246.933879 369.36  L 250.40174 369.285114  L 253.880525 369.016633  L 257.35217 368.554005  L 260.798641 367.898437  L 264.202114 367.052878  L 267.545152 366.021995  L 270.810876 364.812123  L 273.983141 363.431204  L 277.04669 361.888703  L 279.987308 360.195517  L 282.791965 358.363863  L 285.448945 356.407155  L 287.947961 354.339871  L 290.280255 352.177403  L 292.438691 349.935907  L 294.417815 347.632134  L 296.213917 345.283268  L 297.825059 342.906746  L 299.251097 340.520087  L 300.493675 338.140715  L 301.556211 335.785781  L 302.443857 333.47199  L 303.163444 331.215437  L 303.72341 329.031441  L 304.133714 326.934392  L 304.552137 323.053196  L 304.524497 319.663179  L 304.172895 316.832802  L 303.630729 314.60493  L 303.037226 312.995141  L 302.228222 311.527279  L 302.502334 311.809029  L 303.273335 312.451782  L 304.61569 313.339868  L 306.57841 314.345118  L 309.183007 315.332108  L 312.422554 316.163695  L 316.261909 316.70663  L 318.388128 316.830626  L 320.639071 316.83701  L 323.003194 316.712587  L 325.467634 316.445351  L 328.018342 316.024608  L 330.640219 315.441088  L 333.31727 314.687037  L 336.032765 313.756303  L 338.769403 312.644397  L 341.509492 311.348542  L 344.235121 309.867704  L 346.928343 308.202603  L 349.571356 306.355709  L 352.146679 304.33122  L 354.637332 302.13502  L 357.027001 299.774624  L 359.300208 297.2591  L 361.442462 294.598986  L 363.440408 291.806178  L 365.281958 288.893818  L 366.956415 285.87616  L 368.454578 282.768427  L 369.768834 279.586663  L 370.893237 276.347569  L 371.823563 273.068339  L 372.557356 269.766485  L 373.093947 266.459663  L 373.434465 263.165501  L 373.581818 259.901416  L 373.54067 256.684443  L 373.317387 253.531066  L 372.919973 250.457051  L 372.357989 247.477291  L 371.642457 244.605657  L 370.785741 241.854857  L 369.801427 239.236314  L 368.704182 236.760053  L 367.509606 234.434596  L 366.234069 232.266885  L 364.894552 230.26221  L 363.508465 228.424162  L 362.093477 226.754594  L 359.247675 223.91956  L 356.49679 221.737069  L 353.973153 220.160122  L 351.796411 219.116751  L 350.068682 218.513014  L 348.257109 218.162859  L 348.179777 218.16  L 348.179777 218.16  "
           clip-path="url(#p04c03e38ca)"
           style="fill: none; stroke: #0000ff; stroke-width: 1.5; stroke-linecap: square"
           id="path28" />
      </g>
      <g
         id="patch_3">
        <path
           d="M 54 384.48  L 54 51.84  "
           style="fill: none; stroke: #000000; stroke-width: 0.8; stroke-linejoin: miter; stroke-linecap: square"
           id="path29" />
      </g>
      <g
         id="patch_4">
        <path
           d="M 388.8 384.48  L 388.8 51.84  "
           style="fill: none; stroke: #000000; stroke-width: 0.8; stroke-linejoin: miter; stroke-linecap: square"
           id="path30" />
      </g>
      <g
         id="patch_5">
        <path
           d="M 54 384.48  L 388.8 384.48  "
           style="fill: none; stroke: #000000; stroke-width: 0.8; stroke-linejoin: miter; stroke-linecap: square"
           id="path31" />
      </g>
      <g
         id="patch_6">
        <path
           d="M 54 51.84  L 388.8 51.84  "
           style="fill: none; stroke: #000000; stroke-width: 0.8; stroke-linejoin: miter; stroke-linecap: square"
           id="path32" />
      </g>
    </g>
  </g>
  <path
     style="fill:#000000;fill-opacity:0;stroke:#f50000;stroke-width:0.795119;stroke-linecap:butt;stroke-linejoin:round;stroke-dasharray:9.54143, 9.54143"
     d="M 69.218182,218.20679 H 346.93149"
     id="path33" />
  <defs
     id="defs32">
    <clipPath
       id="p04c03e38ca">
      <rect
         x="54"
         y="51.84"
         width="334.8"
         height="332.64"
         id="rect32" />
    </clipPath>
  </defs>
  <g
     id="g7"
     style="display:none">
    <path
       style="stroke:url(#linearGradient9);stroke-width:6.327;stroke-dasharray:none"
       d="m 69.218182,218.20679 0.09934,-3.47848 0.09934,-1.71363 0.197775,-1.70042 0.492205,-3.37894 0.29443,-1.67852 1.255796,-4.90607 1.044068,-3.17316 1.2114,-3.07337 1.367882,-2.9595 0.72162,-1.4496 c 0,0 1.58106,-2.76624 1.58106,-2.76624 l 0.852427,-1.31114 1.7592,-2.54551 0.90678,-1.23436 1.90629,-2.30717 1.982333,-2.13914 2.04114,-1.96636 1.041165,-0.89526 2.094015,-1.70196 3.164062,-2.24338 2.099063,-1.26218 5.073177,-2.4026 2.86338,-1.00419 3.47664,-0.8347 1.50484,-0.18897 3.96995,-0.22469 3.07898,0.14287 -2.72006,-2.65982 -0.74391,-0.91023 -0.78677,-1.2232 -0.78677,-1.22321 -1.5198,-3.08835 -0.66291,-1.85924 -0.93668,-2.90139 -0.7228,-3.26715 -0.33527,-2.35676 -0.20726,-2.47809 -0.0661,-2.58764 0.0434,-1.34208 0.16858,-2.72533 0.12515,-1.38326 0.42278,-2.83374 v 0 l 0.60264,-2.88501 0.39412,-1.45983 0.88308,-2.92843 1.07385,-2.93726 1.26598,-2.92854 0.68109,-1.4599 1.55324,-2.88473 0.8706,-1.41614 1.83275,-2.79756 0.96215,-1.38142 2.10085,-2.67695 2.26918,-2.57532 1.21389,-1.22941 1.21388,-1.22941 2.5751,-2.328465 1.35494,-1.092705 2.77034,-2.108168 1.41541,-1.01547 1.46844,-0.933225 2.98199,-1.779945 3.06389,-1.603462 3.12888,-1.42086 3.1764,-1.233833 3.20612,-1.044067 1.60824,-0.474368 3.21919,-0.75795 4.78949,-0.76038 1.58554,-0.191557 3.12096,-0.202463 3.05426,-0.02858 1.48588,0.06848 2.92307,0.21489 4.20048,0.58374 2.63962,0.569453 2.50479,0.68793 2.36025,0.791783 2.20756,0.880139 2.99056,1.456185 1.80087,1.026923 2.40774,1.590233 2.5971,2.12856 0.97662,1.004227 2.33868,2.76531 0.84867,1.399685 0.57318,1.35258 0.0812,-3.220662 0.23628,-1.100663 0.68803,-2.43528 0.45175,-1.334632 0.7185,-1.521705 0.71851,-1.521705 1.02592,-1.65261 1.02592,-1.65261 1.27521,-1.711703 1.4481,-1.728937 1.62384,-1.729028 1.80062,-1.711747 1.97669,-1.677053 3.31001,-2.403172 2.40116,-1.513466 2.5606,-1.420146 4.10394,-1.938045 1.46017,-0.561487 1.46017,-0.561488 3.04377,-0.979723 3.15379,-0.824758 3.24923,-0.659439 1.66456,-0.242613 1.66456,-0.242614 1.69631,-0.151837 3.41582,-0.210042 3.45344,-0.02076 1.73393,0.03744 1.7394,0.13424 1.73939,0.134241 3.47164,0.462628 1.72323,0.327783 1.72324,0.327785 3.40348,0.845559 1.67152,0.515441 3.30438,1.120378 3.21899,1.295395 1.58613,0.690459 3.06355,1.542501 1.47031,0.846595 2.87264,1.762418 2.73081,1.894185 1.32849,0.978352 3.66517,3.148515 2.24537,2.201985 3.05834,3.424523 0.89805,1.174432 1.70362,2.362695 1.51859,2.381588 0.71302,1.193332 1.77384,3.556838 0.53127,1.177467 0.88765,2.31379 0.99957,3.34855 0.69029,3.18905 0.27201,1.99679 0.14641,1.88441 -0.0138,1.69501 -0.18962,3.11019 -0.44688,2.52912 -0.86459,2.72373 -0.67195,1.32699 3.15223,-2.16805 2.28273,-1.01329 2.92472,-0.92632 3.54557,-0.70346 2.0588,-0.17568 3.18427,-0.17887 4.72182,0.25485 2.50757,0.34399 5.23576,1.17092 1.33853,0.37702 1.35774,0.46537 2.72607,1.02132 1.36832,0.55595 2.74009,1.29586 1.36281,0.74042 2.70942,1.57297 2.66812,1.756 1.32151,0.92344 2.57533,2.02449 1.24532,1.0981 1.24533,1.0981 2.38966,2.3604 1.13661,1.25776 2.20773,2.58782 1.07112,1.33005 1.99795,2.79282 0.92078,1.45617 1.758,2.96501 1.58631,3.0627 1.40621,3.14475 0.65713,1.59088 0.5622,1.61955 1.02736,3.25916 0.83207,3.29054 0.63519,3.30434 0.43855,3.30049 0.24394,3.27912 0.0737,1.63205 -0.0412,3.21697 -0.11164,1.57669 -0.31035,3.11369 -0.19871,1.53701 -0.56198,2.97976 -0.35776,1.43582 -0.78613,2.81121 -1.41267,3.99395 -0.54863,1.23813 -1.14591,2.40085 -1.23505,2.24659 -1.97729,3.08853 -0.69304,0.91903 -2.10803,2.58859 -2.13597,2.16801 -0.70983,0.66702 -2.75089,2.18249 -1.26181,0.78847 -2.3502,1.31016 -4.01436,1.40156 2.06213,0.73177 3.0406,1.34523 1.26183,0.78848 2.63726,1.87972 1.37544,1.09124 1.4229,1.41752 2.1304,2.2523 1.40053,1.7538 1.3628,1.92137 1.30753,2.08619 1.83235,3.40931 1.09724,2.47626 0.98432,2.61855 1.21448,4.18662 0.91975,4.41557 0.39741,3.07402 0.24386,4.76186 -0.0531,3.24053 -0.24394,3.27912 -0.43855,3.3005 -0.2683,1.65341 -1.19896,4.94146 -1.02736,3.25917 -1.21933,3.21042 -0.65713,1.59089 -1.49816,3.10773 -0.83723,1.50883 -1.758,2.96501 -0.92078,1.45618 -3.06908,4.12287 -1.07112,1.33005 -2.27321,2.51553 -1.19483,1.1802 -2.44016,2.27829 -2.53299,2.11035 -1.28766,1.01224 -1.32151,0.92345 -2.66812,1.75599 -1.34661,0.83256 -2.72563,1.48083 -2.74008,1.29586 -2.73664,1.11191 -2.7155,0.93073 -1.33852,0.37703 -3.9604,0.96054 -2.55071,0.42074 -2.46444,0.26724 -2.36413,0.12442 -3.31405,-0.0684 -2.98278,-0.33346 -3.53945,-0.68726 v 0 l -2.92208,-0.90929 -2.28366,-0.99612 -1.65253,-0.94667 -1.31179,-0.63461 0.998,2.34372 0.54217,2.22787 0.3516,2.83037 0.0138,1.69501 -0.19539,3.63561 -0.41437,2.98913 -0.48513,2.14052 -0.63978,2.22027 -0.80362,2.28517 -0.44382,1.15689 -1.06254,2.35494 -1.24257,2.37937 -1.42604,2.38666 -1.61114,2.37652 -0.89805,1.17444 -1.88762,2.32632 -0.98956,1.15188 -2.15843,2.2415 -2.3323,2.16247 -1.24951,1.03364 -1.24951,1.03364 -1.32849,0.97835 -2.73081,1.89419 -2.87264,1.76242 -1.47031,0.84659 -4.64968,2.23296 -3.219,1.2954 -1.63286,0.60493 c 0,0 -1.67151,0.51544 -1.67151,0.51544 l -3.37327,0.93822 -1.70173,0.42278 -5.18229,0.88689 -3.47522,0.36555 -3.47332,0.17169 -3.45344,-0.0208 -3.41582,-0.21004 -3.36087,-0.39445 -3.28917,-0.57233 -3.20152,-0.7421 -3.09878,-0.90224 -4.44222,-1.61284 -2.78475,-1.25328 -5.12119,-2.84029 -3.39465,-2.36871 -3.95213,-3.34547 -2.52414,-2.5849 -2.08571,-2.5848 -1.19107,-1.6947 -1.02592,-1.65261 -1.19096,-2.33546 -0.71851,-1.5217 c 0,0 0,0 -0.45174,-1.33464 -0.45175,-1.33462 -0.92431,-3.53594 -0.92431,-3.53594 l -0.39225,-2.40156 -1.11085,1.93316 -1.36207,1.76109 -1.95324,2.00845 -2.5971,2.12856 -1.6332,1.05664 -2.5754,1.56051 -2.99056,1.45619 -2.20756,0.88014 -3.61265,1.13575 -2.5722,0.62868 -4.08308,0.72209 -2.8744,0.29278 -2.97176,0.137 -4.61474,-0.12981 -1.56048,-0.10123 -3.17107,-0.38311 -3.20396,-0.56883 -1.6096,-0.37897 -4.82608,-1.32771 -4.77427,-1.80353 -4.67923,-2.17761 -3.0271,-1.69344 -2.93688,-1.86645 -2.83082,-2.03094 -2.70986,-2.1854 -2.5751,-2.32846 -2.42777,-2.45883 -2.26918,-2.57532 -3.063,-4.05837 -0.96215,-1.38142 -1.7412,-2.83228 -1.55324,-2.88472 -1.36218,-2.9198 -1.1698,-2.9373 -1.37202,-4.39704 -0.99676,-4.34484 -0.54793,-4.21699 -0.16858,-2.72533 -0.0104,-2.6359 0.24034,-3.77191 0.55978,-3.46927 0.77206,-3.19679 0.97792,-2.82733 1.1078,-2.43533 1.54667,-2.76738 0.78677,-1.2232 1.48781,-1.82047 2.40237,-2.16228 -5.9703,0.51984"
       id="path4" />
    <path
       d="m 114.18583,270.47353 -7.34306,-0.23444 -3.47664,-0.8347 -3.84377,-1.38861 -3.058012,-1.47238 -3.133845,-1.80798 -3.164063,-2.24338 -4.15575,-3.5804 -3.002902,-3.12233 -2.81307,-3.54153 -1.7592,-2.5455 -1.642958,-2.69426 -0.79053,-1.38312 -2.735768,-5.91901 -1.130268,-3.12692 -0.957869,-3.2194 -0.776861,-3.29637 -0.58886,-3.35705 -0.197775,-1.70041 -0.297111,-3.41405 -0.09934,-5.14974 25.666576,1.76484 18.334566,11.17611 12.57994,8.69888 5.62081,14.05204 0.9368,5.88848 -1.47212,6.95911 -1.47211,4.01487 z"
       id="path6"
       style="fill:url(#linearGradient8);stroke:url(#linearGradient7);stroke-width:6.327;stroke-dasharray:none" />
  </g>
</svg>
