<?xml version="1.0" encoding="UTF-8" standalone="no"?>
<!-- Created with Inkscape (http://www.inkscape.org/) -->

<svg
   width="250"
   height="250"
   viewBox="0 0 66.145832 66.145833"
   version="1.1"
   id="svg1"
   inkscape:version="1.4 (86a8ad7, 2024-10-11)"
   sodipodi:docname="input_epi_n=8_g=250.svg"
   inkscape:export-filename="input_epi_n=8_g=250.png"
   inkscape:export-xdpi="96"
   inkscape:export-ydpi="96"
   xmlns:inkscape="http://www.inkscape.org/namespaces/inkscape"
   xmlns:sodipodi="http://sodipodi.sourceforge.net/DTD/sodipodi-0.dtd"
   xmlns="http://www.w3.org/2000/svg"
   xmlns:svg="http://www.w3.org/2000/svg">
  <sodipodi:namedview
     id="namedview1"
     pagecolor="#ffffff"
     bordercolor="#000000"
     borderopacity="0.25"
     inkscape:showpageshadow="2"
     inkscape:pageopacity="0.0"
     inkscape:pagecheckerboard="0"
     inkscape:deskcolor="#d1d1d1"
     inkscape:document-units="mm"
     inkscape:zoom="2.8756734"
     inkscape:cx="99.628838"
     inkscape:cy="104.84501"
     inkscape:window-width="1920"
     inkscape:window-height="1009"
     inkscape:window-x="1912"
     inkscape:window-y="-8"
     inkscape:window-maximized="1"
     inkscape:current-layer="layer1" />
  <defs
     id="defs1" />
  <g
     inkscape:label="Layer 1"
     inkscape:groupmode="layer"
     id="layer1">
    <path
       style="stroke-width:1.37504;stroke-linecap:butt;stroke-linejoin:round"
       d="M 5.2228135,32.860388 4.6686527,32.72391 4.2047042,32.522291 3.9239028,32.356026 3.6431037,32.18976 3.3299664,31.94688 2.8539025,31.551418 2.5270694,31.224738 2.2007942,30.854816 1.8801042,30.441514 1.5700232,29.985249 1.2754945,29.487007 1.0013268,28.948331 0.75213065,28.371288 0.5322544,27.758454 0.43016698,27.44344 0.26128876,26.782313 0.19622516,26.438042 c 0,0 -0.10922462,-0.700212 -0.10922462,-0.700212 L 0.04283082,25.381885 0.02083841,25.016455 6.4171722e-5,24.27843 0.00126059,23.905835 0.0516082,23.151156 0.10121621,22.771565 0.22506981,22.012659 0.29931323,21.633345 0.49688926,20.88035 0.61984663,20.509182 0.742804,20.138015 1.0357414,19.411252 1.2047925,19.058024 1.5642901,18.363968 1.7547355,18.023143 1.9651383,17.696824 2.4042392,17.060619 2.6329386,16.750735 3.1231898,16.1673 3.3826905,15.89526 3.9138594,15.372139 4.1855277,15.121055 4.748529,14.662827 l 0.2889001,-0.206386 0.5826966,-0.389576 0.5899535,-0.34299 0.5921375,-0.29629 0.2959784,-0.136498 0.5865818,-0.227141 0.8569579,-0.25254 0.5515874,-0.119721 0.5300476,-0.08079 0.7499242,-0.05884 0.886127,0.0319 0.389886,0.05133 0.663642,0.150518 0.502125,0.181893 0.524071,0.277362 -0.314116,-0.583159 -0.176317,-0.518962 -0.139938,-0.677661 -0.05594,-0.377792 -0.02082,-0.664507 0.02043,-0.4798444 0.05394,-0.5079366 0.09084,-0.5323381 0.05505,-0.2717879 0.07567,-0.2809079 0.173099,-0.5686887 0.09742,-0.2877798 0.240061,-0.5845674 0.143228,-0.2943361 0.143229,-0.2943361 0.16673,-0.2938847 0.166728,-0.2938848 0.380508,-0.5818145 0.427026,-0.5708314 0.23622,-0.2774535 0.494326,-0.5445493 0.258104,-0.2670947 0.2789,-0.2544441 0.577245,-0.4940809 0.61457,-0.4624747 0.316228,-0.2228358 0.332293,-0.2042249 0.332292,-0.2042259 0.346381,-0.1840184 0.704689,-0.3464653 0.35831,-0.16244586 0.735891,-0.279507 0.375167,-0.11620629 0.375172,-0.1162052 L 21.961567,0.25965184 22.34367,0.19201049 23.107518,0.08118267 23.489263,0.03800271 24.246956,0 l 0.373451,0.00456816 0.7391,0.03209673 0.365645,0.02745245 0.71107,0.09838939 0.343255,0.0695991 0.343257,0.0695991 0.657958,0.17688446 0.312893,0.10551354 0.903317,0.34673069 0.552348,0.26717078 0.512048,0.2885912 0.470067,0.3052747 0.426951,0.3170605 0.383264,0.3238649 0.487816,0.4869013 0.275479,0.3184603 0.322406,0.4502973 0.319785,0.5434844 0.259716,0.6366488 0.06543,0.3178371 L 33.23836,4.575484 33.45987,4.1042852 33.815476,3.5405921 34.029952,3.2394625 34.305258,2.9204018 34.623175,2.5957135 34.803869,2.4330208 35.389705,1.9492367 35.838321,1.6374503 36.083938,1.4886828 36.595776,1.2006834 37.147845,0.93407918 37.737929,0.69338954 38.363315,0.48286388 39.020822,0.3064221 39.706834,0.16761105 40.41736,0.06954796 41.148076,0.0149041 l 0.7463,-0.00902754 0.757071,0.0381441 0.762854,0.08644693 0.382243,0.0554052 0.762648,0.15975496 0.377852,0.10419747 0.749717,0.23226465 0.371865,0.12807045 0.726844,0.30244668 0.352625,0.1733888 0.692218,0.3676963 0.664089,0.4080517 0.324491,0.2137429 0.614988,0.4629512 0.288807,0.2472993 0.288806,0.2473015 0.537309,0.5220968 0.247283,0.2725677 0.472236,0.5543067 0.224953,0.281741 0.403867,0.5769484 0.357016,0.5854223 0.309918,0.5888517 0.263146,0.5872408 0.108635,0.2903325 0.195062,0.5749666 0.15163,0.5612568 0.110442,0.543044 0.07199,0.5206197 0.02676,0.2542005 0.01506,0.7046768 -0.04026,0.639015 -0.05653,0.378018 -0.157615,0.639586 -0.09211,0.239309 -0.177616,0.398662 -0.145154,0.243754 0.618,-0.268021 0.854459,-0.253827 0.389643,-0.05076 0.611343,-0.05899 0.459595,-0.0022 0.490376,0.02828 0.517761,0.06245 0.541337,0.0999 0.560755,0.140188 0.575716,0.182826 0.585966,0.227304 0.591328,0.273086 0.59168,0.319618 0.295296,0.171498 0.291664,0.194831 0.291664,0.194831 0.571019,0.435653 0.553766,0.480421 0.26587,0.261705 0.265869,0.261703 0.505158,0.564105 0.23716,0.301005 0.237158,0.301005 c 0,0 0,0 0.21977,0.31833 0.219772,0.318333 0.42039,0.652159 0.42039,0.652159 l 0.20062,0.333825 0.179913,0.347301 0.337805,0.705892 0.157893,0.358595 0.134814,0.367577 0.245747,0.741719 0.197484,0.752365 0.08655,0.378223 0.123841,0.759541 c 0,0 0.03734,0.37878 0.03734,0.37878 l 0.06357,1.129332 -0.01055,0.369309 -0.04372,0.73028 -0.08801,0.711339 -0.05478,0.35037 -0.149907,0.675321 -0.0935,0.323006 -0.203681,0.629617 -0.235061,0.595292 -0.262244,0.55815 -0.432505,0.767899 -0.310699,0.456391 -0.484772,0.598308 -0.490908,0.511542 -0.636746,0.526643 -0.569775,0.351835 -1.147077,0.42702 0.659514,0.1851 0.487563,0.235312 0.576767,0.3716 0.468241,0.364885 0.325239,0.30529 0.327182,0.348246 0.324112,0.391631 0.471359,0.663066 0.295133,0.498433 0.274743,0.538937 0.249741,0.577366 0.261415,0.754981 0.220905,0.84191 0.129739,0.688029 0.08801,0.711341 0.04372,0.730279 c 0,0 -0.0026,0.744584 -0.0026,0.744584 l -0.05046,0.754057 -0.03735,0.378781 -0.123841,0.75954 -0.08654,0.378222 -0.197483,0.752366 c 0,0 0.02387,0.0065 -0.110938,0.374143 -0.13481,0.367576 -0.269624,0.735153 -0.269624,0.735153 l -0.495698,1.064488 -0.380532,0.681126 c 0,0 -0.200617,0.333826 -0.200617,0.333826 l -0.439544,0.636663 c 0,0 0,0 -0.237159,0.301004 -0.237156,0.301003 -0.489738,0.583057 -0.489738,0.583057 0,0 -0.518449,0.543756 -0.518449,0.543756 l -0.542752,0.501915 c 0,0 -0.562394,0.458038 -0.562394,0.458038 0,0 -0.868835,0.607489 -0.868835,0.607489 l -0.59059,0.342998 -0.592772,0.296236 -0.589889,0.249937 -1.151427,0.36565 -0.817401,0.1596 -0.770246,0.0847 -0.697484,0.0038 -0.630008,-0.04906 -0.974377,-0.225435 -0.461659,-0.178588 -0.467054,-0.262914 0.291972,0.507566 0.179232,0.478749 0.08795,0.279767 c 0,0 0.111833,0.510347 0.129521,0.717646 0.0177,0.207299 0.04516,0.863434 0.04516,0.863434 l -0.04671,0.734457 -0.07199,0.520623 c 0,0 -0.175649,0.819663 -0.175649,0.819663 l -0.172848,0.569267 c 0,0 -0.217273,0.580668 -0.217273,0.580668 l -0.263146,0.58724 -0.309917,0.588853 -0.357018,0.58542 -0.201933,0.288477 -0.651837,0.851952 -0.494568,0.545137 -0.537309,0.522096 -0.577611,0.494602 -0.61499,0.462949 -0.648982,0.427488 -1.031817,0.562004 -0.716047,0.324611 -0.735286,0.279294 -0.371862,0.128071 -0.755708,0.20839 -0.762647,0.159755 -0.764488,0.110798 -0.761222,0.06208 -0.376457,0.0071 -0.746301,-0.0091 -0.730716,-0.05465 -0.710527,-0.09806 -1.022369,-0.218041 -0.642298,-0.19442 -0.894321,-0.354005 -0.552069,-0.266604 -0.757455,-0.436768 -0.853761,-0.632875 -0.520343,-0.487731 -0.296611,-0.321874 -0.254705,-0.31385 -0.117051,-0.154321 -0.176454,-0.283939 -0.28542,-0.521275 -0.108966,-0.237332 -0.164477,-0.527249 -0.203161,0.649927 -0.411052,0.770903 -0.234347,0.308065 -0.530815,0.630547 -0.339581,0.325659 -0.383264,0.323866 -0.661983,0.469697 -0.747083,0.441228 c 0,0 -0.257135,0.14656 -0.552348,0.267171 -0.295212,0.120611 -1.21621,0.452239 -1.21621,0.452239 l -0.328979,0.08844 -1.01549,0.227645 -1.076716,0.125853 -1.112551,0.03673 -0.757693,-0.038 -0.76349,-0.08638 L 21.58163,65.366121 20.083439,64.901884 18.998876,64.437238 18.306115,64.0692 17.64153,63.660749 17.325312,63.437912 16.710745,62.975439 16.1335,62.481357 c 0,0 -0.537004,-0.521539 -0.537004,-0.521539 l -0.494328,-0.544548 -0.449732,-0.562871 -0.403764,-0.576324 -0.356984,-0.584791 -0.309959,-0.588219 -0.263259,-0.586621 -0.120031,-0.292283 -0.270522,-0.856467 -0.07568,-0.280911 -0.1101,-0.543572 -0.07159,-0.521107 -0.03628,-0.494764 -0.0046,-0.464929 0.02312,-0.432041 0.04652,-0.396567 0.144778,-0.678935 0.181314,-0.519111 0.178008,-0.358094 0.140079,-0.228126 -0.759115,0.393014 -0.954232,0.231244 -1.026914,0.09066 L 9.6233143,53.106903 8.8223381,52.976339 8.2610237,52.836446 7.3914294,52.540281 6.8021623,52.290211 6.2100248,51.993921 5.6200713,51.650933 4.7484736,51.054969 4.1854722,50.596741 3.3826361,49.822536 2.8780093,49.25878 2.1754877,48.347293 1.7546811,47.694653 1.3737893,47.013002 1.0356859,46.306546 0.74274853,45.579781 0.49683487,44.837447 0.29925776,44.084452 0.15077092,43.325827 0.10116291,42.946233 0.02638654,42.1893 0,41.439367 0.02077424,40.701342 0.04276665,40.335911 0.13109521,39.624023 0.19615881,39.279755 0.34565935,38.604923 0.53218153,37.959345 0.86985204,37.048687 1.132657,36.490242 1.4181853,35.971334 1.7217142,35.493767 2.2007213,34.86298 2.6909009,34.318963 3.3357266,33.750667 4.2046313,33.195507 4.6685798,32.993888 Z"
       id="path4" />
  </g>
</svg>
