<?xml version="1.0" encoding="UTF-8" standalone="no"?>
<!-- Created with Inkscape (http://www.inkscape.org/) -->

<svg
   width="250"
   height="250"
   viewBox="0 0 66.145832 66.145833"
   version="1.1"
   id="svg1"
   inkscape:version="1.4 (86a8ad7, 2024-10-11)"
   sodipodi:docname="input_epi_n=7.svg"
   inkscape:export-filename="input_epi_n=7_g=250.png"
   inkscape:export-xdpi="96"
   inkscape:export-ydpi="96"
   xmlns:inkscape="http://www.inkscape.org/namespaces/inkscape"
   xmlns:sodipodi="http://sodipodi.sourceforge.net/DTD/sodipodi-0.dtd"
   xmlns:xlink="http://www.w3.org/1999/xlink"
   xmlns="http://www.w3.org/2000/svg"
   xmlns:svg="http://www.w3.org/2000/svg">
  <sodipodi:namedview
     id="namedview1"
     pagecolor="#ffffff"
     bordercolor="#000000"
     borderopacity="0.25"
     inkscape:showpageshadow="2"
     inkscape:pageopacity="0.0"
     inkscape:pagecheckerboard="0"
     inkscape:deskcolor="#d1d1d1"
     inkscape:document-units="mm"
     inkscape:zoom="2.8284271"
     inkscape:cx="25.986174"
     inkscape:cy="52.149125"
     inkscape:window-width="1920"
     inkscape:window-height="1009"
     inkscape:window-x="1912"
     inkscape:window-y="-8"
     inkscape:window-maximized="1"
     inkscape:current-layer="g7"
     inkscape:export-bgcolor="#ffffffff" />
  <defs
     id="defs1">
    <linearGradient
       id="swatch2"
       inkscape:swatch="solid">
      <stop
         style="stop-color:#f50000;stop-opacity:1;"
         offset="0"
         id="stop2" />
    </linearGradient>
    <linearGradient
       id="swatch1"
       inkscape:swatch="solid">
      <stop
         style="stop-color:#000000;stop-opacity:1;"
         offset="0"
         id="stop1" />
    </linearGradient>
    <linearGradient
       id="swatch5"
       inkscape:swatch="solid">
      <stop
         style="stop-color:#000000;stop-opacity:0;"
         offset="0"
         id="stop5" />
    </linearGradient>
    <linearGradient
       id="swatch4"
       inkscape:swatch="solid">
      <stop
         style="stop-color:#000000;stop-opacity:1;"
         offset="0"
         id="stop4" />
    </linearGradient>
    <linearGradient
       inkscape:collect="always"
       xlink:href="#swatch1"
       id="linearGradient9"
       x1="66.055969"
       y1="218.15997"
       x2="376.74533"
       y2="218.15997"
       gradientUnits="userSpaceOnUse"
       gradientTransform="matrix(0.98374984,0,0,0.98374984,3.6228579,3.6258003)" />
    <linearGradient
       inkscape:collect="always"
       xlink:href="#swatch1"
       id="linearGradient8"
       x1="68.718178"
       y1="243.45773"
       x2="132.85687"
       y2="243.45773"
       gradientUnits="userSpaceOnUse"
       gradientTransform="matrix(0.98374984,0,0,0.98374984,3.6228579,3.6258003)" />
    <linearGradient
       inkscape:collect="always"
       xlink:href="#swatch1"
       id="linearGradient7"
       x1="69.218178"
       y1="243.45773"
       x2="132.35687"
       y2="243.45773"
       gradientUnits="userSpaceOnUse"
       gradientTransform="matrix(0.98374984,0,0,0.98374984,3.6228579,3.6258003)" />
  </defs>
  <g
     inkscape:label="Layer 1"
     inkscape:groupmode="layer"
     id="layer1">
    <g
       id="g7"
       style="stroke-linecap:butt;stroke-linejoin:round"
       transform="matrix(0.21641738,0,0,0.21641738,-14.847515,-14.374963)">
      <path
         style="fill:#000000;fill-opacity:0;stroke:#f50000;stroke-width:0.7822;stroke-linecap:butt;stroke-linejoin:round;stroke-dasharray:9.38642, 9.38642"
         d="M 71.716241,218.2867 H 344.91667"
         id="path33" />
      <path
         style="stroke:url(#linearGradient9);stroke-width:6.22417;stroke-linecap:butt;stroke-linejoin:round;stroke-dasharray:none"
         d="m 71.716241,218.2867 0.09773,-3.42196 0.09772,-1.68577 0.194567,-1.67279 0.4842,-3.32404 0.289647,-1.65124 1.23539,-4.82635 1.027102,-3.12159 1.191715,-3.02343 1.345653,-2.9114 0.709894,-1.42605 c 0,0 1.555368,-2.72129 1.555368,-2.72129 l 0.838575,-1.28984 1.730612,-2.50414 0.892045,-1.2143 1.875312,-2.26968 1.95012,-2.10438 2.007972,-1.93441 1.024246,-0.8807 2.059988,-1.67431 3.112645,-2.20692 2.064949,-1.24167 4.990739,-2.36356 2.81685,-0.98787 3.42014,-0.82114 1.48038,-0.1859 3.90545,-0.22103 3.02894,0.14055 -2.67586,-2.61661 -0.73182,-0.89543 -0.77399,-1.20333 -0.77398,-1.20333 -1.4951,-3.03817 -0.65214,-1.82902 -0.92146,-2.85424 -0.71106,-3.21406 -0.32981,-2.31846 -0.2039,-2.43782 -0.065,-2.5456 0.0427,-1.32026 0.16584,-2.68105 0.12312,-1.36078 0.4159,-2.78769 v 0 l 0.59285,-2.83813 0.38772,-1.4361 0.86873,-2.88085 1.0564,-2.88953 1.24541,-2.88095 0.67002,-1.43618 1.528,-2.83785 0.85645,-1.39312 1.80297,-2.7521 0.94652,-1.35898 2.0667,-2.63344 2.23231,-2.53347 1.19417,-1.20944 1.19415,-1.20943 2.53325,-2.29063 1.33292,-1.07495 2.72532,-2.073908 1.39242,-0.998965 1.44457,-0.918059 2.93353,-1.751022 3.01411,-1.577409 3.07804,-1.397767 3.12478,-1.213786 3.15401,-1.027099 1.58211,-0.466659 3.16688,-0.745634 4.71166,-0.748024 1.55978,-0.188443 3.07024,-0.199173 3.00463,-0.02812 1.46173,0.06737 2.87557,0.211398 4.13222,0.574255 2.59673,0.560199 2.46408,0.67675 2.3219,0.778917 2.17169,0.865835 2.94196,1.432525 1.77161,1.010236 2.36861,1.564386 2.5549,2.09397 0.96075,0.987909 2.30067,2.720378 0.83488,1.37693 0.56386,1.3306 0.0799,-3.16832 0.23244,-1.082777 0.67685,-2.395703 0.44441,-1.312942 0.70682,-1.496982 0.70684,-1.496975 1.00925,-1.625754 1.00925,-1.625756 1.25448,-1.683887 1.42457,-1.700842 1.59745,-1.700931 1.77135,-1.683931 1.94458,-1.6498 3.25622,-2.364121 2.36213,-1.488871 2.519,-1.397069 4.03725,-1.906551 1.43645,-0.552363 1.43643,-0.552364 2.99431,-0.963802 3.10253,-0.811356 3.19644,-0.648723 1.63751,-0.238671 1.63751,-0.23867 1.66875,-0.14937 3.36031,-0.206629 3.39732,-0.02043 1.70575,0.03683 1.71114,0.132059 1.71112,0.132059 3.41523,0.45511 1.69523,0.322457 1.69523,0.322458 3.34818,0.831819 1.64434,0.507065 3.2507,1.102171 3.16667,1.274345 1.56036,0.679239 3.01377,1.517435 1.44641,0.832837 2.82596,1.733779 2.68643,1.863404 1.30691,0.962454 3.60561,3.097352 2.20888,2.166202 3.00865,3.368876 0.88345,1.155342 1.67594,2.324302 1.4939,2.342889 0.70144,1.173936 1.74502,3.49904 0.52263,1.15834 0.87323,2.27619 0.98333,3.29414 0.67907,3.13722 0.26759,1.96435 0.14403,1.85378 -0.0136,1.66747 -0.18653,3.05965 -0.43962,2.48802 -0.85055,2.67947 -0.66103,1.30543 3.10101,-2.13282 2.24564,-0.99683 2.87719,-0.91126 3.48795,-0.69204 2.02535,-0.17282 3.13252,-0.17596 4.6451,0.25071 2.46681,0.3384 5.15069,1.15189 1.31678,0.37089 1.33567,0.45781 2.68177,1.00472 1.34609,0.54692 2.69556,1.2748 1.34066,0.72839 2.6654,1.54741 2.62476,1.72746 1.30004,0.90844 2.53348,1.99159 1.22508,1.08025 1.22509,1.08026 2.35083,2.32204 1.11815,1.23732 2.17185,2.54578 1.05372,1.30842 1.96548,2.74745 0.90581,1.4325 1.72943,2.91683 1.56054,3.01293 1.38335,3.09365 0.64646,1.56503 0.55306,1.59323 1.01067,3.2062 0.81854,3.23706 0.62487,3.25065 0.43142,3.24686 0.23998,3.22583 0.0725,1.60553 -0.0405,3.16469 -0.10983,1.55107 -0.30531,3.06309 -0.19547,1.51203 -0.55285,2.93135 -0.35195,1.41248 -0.77336,2.76553 -1.38971,3.92905 -0.53971,1.21801 -1.1273,2.36183 -1.21498,2.21008 -1.94515,3.03835 -0.68178,0.90409 -2.07378,2.54653 -2.10126,2.13278 -0.69829,0.65618 -2.70619,2.14702 -1.24131,0.77566 -2.312,1.28887 -3.94913,1.37878 2.02862,0.71988 2.99119,1.32337 1.24132,0.77567 2.59441,1.84917 1.35309,1.07351 1.39978,1.39449 2.09577,2.21569 1.37778,1.72531 1.34065,1.89015 1.28628,2.05229 1.80258,3.3539 1.07941,2.43603 0.96832,2.57599 1.19475,4.11858 0.9048,4.34382 0.39096,3.02407 0.23989,4.68449 -0.0523,3.18786 -0.23998,3.22583 -0.43142,3.24687 -0.26394,1.62654 -1.17948,4.86116 -1.01067,3.20621 -1.19951,3.15825 -0.64645,1.56503 -1.47382,3.05724 -0.82362,1.48431 -1.72943,2.91682 -0.90582,1.43252 -3.01921,4.05587 -1.05372,1.30844 -2.23626,2.47466 -1.17542,1.16102 -2.40051,2.24127 -2.49183,2.07605 -1.26673,0.99579 -1.30004,0.90844 -2.62477,1.72746 -1.32472,0.81903 -2.68134,1.45677 -2.69555,1.2748 -2.69217,1.09384 -2.67137,0.91561 -1.31677,0.3709 -3.89604,0.94493 -2.50927,0.41391 -2.42439,0.26289 -2.32571,0.1224 -3.2602,-0.0673 -2.9343,-0.32804 -3.48194,-0.67609 v 0 l -2.8746,-0.89451 -2.24655,-0.97994 -1.62567,-0.93129 -1.29048,-0.62429 0.98178,2.30564 0.53336,2.19166 0.34589,2.78438 0.0136,1.66747 -0.19222,3.57652 -0.40763,2.94056 -0.47725,2.10573 -0.62939,2.1842 -0.79055,2.24803 -0.43661,1.13809 -1.04528,2.31668 -1.22237,2.3407 -1.40287,2.34788 -1.58496,2.3379 -0.88346,1.15535 -1.85694,2.28852 -0.97349,1.13316 -2.12335,2.20507 -2.2944,2.12733 -1.2292,1.01685 -1.22921,1.01684 -1.3069,0.96246 -2.68643,1.8634 -2.82596,1.73378 -1.44642,0.83283 -4.57412,2.19668 -3.16669,1.27435 -1.60633,0.5951 c 0,0 -1.64435,0.50706 -1.64435,0.50706 l -3.31845,0.92298 -1.67408,0.41591 -5.09807,0.87248 -3.41875,0.35961 -3.41688,0.16889 -3.39732,-0.0204 -3.36032,-0.20663 -3.30625,-0.38804 -3.23572,-0.56303 -3.14949,-0.73003 -3.04842,-0.88758 -4.37004,-1.58664 -2.7395,-1.23291 -5.03796,-2.79414 -3.33949,-2.33021 -3.88791,-3.29111 -2.48312,-2.5429 -2.05182,-2.54279 -1.17171,-1.66717 -1.00925,-1.62574 -1.17161,-2.29752 -0.70683,-1.49697 c 0,0 0,0 -0.44441,-1.31295 -0.4444,-1.31293 -0.90929,-3.47848 -0.90929,-3.47848 l -0.38586,-2.36253 -1.0928,1.90175 -1.33994,1.73247 -1.9215,1.97581 -2.5549,2.09397 -1.60666,1.03946 -2.53355,1.53516 -2.94196,1.43252 -2.17169,0.86584 -3.55394,1.1173 -2.5304,0.61846 -4.01673,0.71035 -2.82769,0.28803 -2.92347,0.13477 -4.53975,-0.1277 -1.53512,-0.0996 -3.11954,-0.37688 -3.15189,-0.5596 -1.58345,-0.3728 -4.74765,-1.30614 -4.69669,-1.77423 -4.60319,-2.14222 -2.97791,-1.66591 -2.88916,-1.83612 -2.78481,-1.99795 -2.66583,-2.14988 -2.53326,-2.29062 -2.38831,-2.41888 -2.23231,-2.53347 -3.01323,-3.99242 -0.94651,-1.35897 -1.71291,-2.78625 -1.528,-2.83785 -1.34004,-2.87235 -1.15079,-2.88957 -1.34972,-4.32559 -0.98057,-4.27424 -0.53902,-4.14846 -0.16585,-2.68104 -0.0102,-2.59307 0.23644,-3.71061 0.55068,-3.41289 0.75951,-3.14485 0.96203,-2.78139 1.0898,-2.39575 1.52154,-2.72241 0.77398,-1.20332 1.46363,-1.79089 2.36333,-2.12714 -5.87328,0.51139"
         id="path4" />
      <path
         d="m 115.95315,269.7041 -7.22373,-0.23063 -3.42014,-0.82114 -3.78131,-1.36604 -3.008323,-1.44845 -3.082916,-1.77861 -3.112645,-2.20692 -4.088221,-3.52222 -2.954104,-3.07159 -2.767358,-3.48398 -1.730612,-2.50414 -1.61626,-2.65047 -0.777684,-1.36065 -2.691311,-5.82282 -1.111901,-3.07611 -0.942306,-3.16708 -0.764235,-3.24281 -0.579288,-3.30249 -0.194559,-1.67278 -0.292287,-3.35858 -0.09773,-5.06606 25.24949,1.73617 18.03663,10.9945 12.37551,8.55752 5.52948,13.82369 0.92158,5.7928 -1.44821,6.84602 -1.44818,3.94963 z"
         id="path6"
         style="fill:url(#linearGradient8);stroke:url(#linearGradient7);stroke-width:6.22417;stroke-linecap:butt;stroke-linejoin:round;stroke-dasharray:none" />
    </g>
  </g>
</svg>
