<?xml version="1.0" encoding="UTF-8" standalone="no"?>
<!-- Created with Inkscape (http://www.inkscape.org/) -->

<svg
   width="250"
   height="250"
   viewBox="0 0 66.145832 66.145833"
   version="1.1"
   id="svg1"
   inkscape:version="1.4 (86a8ad7, 2024-10-11)"
   sodipodi:docname="input_epi_n=6_g=250.svg"
   inkscape:export-filename="input_epi_n=6_g=250.png"
   inkscape:export-xdpi="96"
   inkscape:export-ydpi="96"
   xmlns:inkscape="http://www.inkscape.org/namespaces/inkscape"
   xmlns:sodipodi="http://sodipodi.sourceforge.net/DTD/sodipodi-0.dtd"
   xmlns="http://www.w3.org/2000/svg"
   xmlns:svg="http://www.w3.org/2000/svg">
  <sodipodi:namedview
     id="namedview1"
     pagecolor="#ffffff"
     bordercolor="#000000"
     borderopacity="0.25"
     inkscape:showpageshadow="2"
     inkscape:pageopacity="0.0"
     inkscape:pagecheckerboard="0"
     inkscape:deskcolor="#d1d1d1"
     inkscape:document-units="mm"
     inkscape:zoom="2.0334082"
     inkscape:cx="100.57007"
     inkscape:cy="107.94685"
     inkscape:window-width="1920"
     inkscape:window-height="1009"
     inkscape:window-x="1912"
     inkscape:window-y="-8"
     inkscape:window-maximized="1"
     inkscape:current-layer="layer1"
     inkscape:export-bgcolor="#ffffffff" />
  <defs
     id="defs1" />
  <g
     inkscape:label="Layer 1"
     inkscape:groupmode="layer"
     id="layer1">
    <path
       style="fill:#000000;fill-opacity:0;stroke:#000000;stroke-width:0.26458333;stroke-linecap:butt;stroke-linejoin:round;stroke-dasharray:none"
       d="m 19.858479,17.383925 -0.209276,-0.524129 -0.04584,-0.32743 0.01736,-0.624957 0.110861,-0.508071 0.209112,-0.56461 0.161548,-0.304449 0.161547,-0.304449 0.328891,-0.477955 0.258069,-0.324312 0.446992,-0.491017 0.344476,-0.327614 0.379634,-0.325236 0.639436,-0.47791 0.708304,-0.462825 0.516846,-0.295134 0.549001,-0.28263 0.289898,-0.134127 0.594397,-0.260176 0.622691,-0.243173 0.649072,-0.2245471 0.330879,-0.107419 0.342454,-0.09699 0.695294,-0.182897 0.714787,-0.160147 0.361946,-0.07424 0.369712,-0.06207 0.369713,-0.06207 1.133145,-0.135527 0.380991,-0.03656 0.768832,-0.04677 0.386329,-0.01005 0.773036,-0.0067 0.772274,0.02008 0.385561,0.01673 0.765782,0.05999 0.378718,0.04306 1.124864,0.15471 0.366003,0.06822 0.723558,0.148357 0.705359,0.171668 0.347801,0.09153 0.673623,0.204582 0.649334,0.2247351 0.622935,0.243378 0.297305,0.130196 0.579594,0.268031 0.548831,0.282396 0.516707,0.294891 0.25017,0.150331 0.682676,0.469119 0.414668,0.320521 0.560647,0.488319 0.473035,0.491681 0.275067,0.325935 0.353584,0.482108 0.27299,0.465506 0.146651,0.299539 0.15745,0.422978 0.136027,0.521906 0.04455,0.246131 0.01447,0.42345 -0.03889,0.347618 -0.06951,0.267491 -0.158878,0.321745 0.46866,-0.333571 0.219743,-0.128947 0.437884,-0.199124 0.560546,-0.202556 0.342164,-0.09487 0.342162,-0.09487 0.805024,-0.160762 0.459255,-0.0581 0.459254,-0.0581 0.510439,-0.02857 1.064707,-0.02113 0.554272,0.0074 0.589192,0.04897 0.589191,0.04897 0.613901,0.09487 0.613901,0.09487 0.625497,0.131322 0.944433,0.247243 0.629099,0.19452 0.625399,0.220046 0.618664,0.245454 0.60892,0.270565 0.301649,0.141509 0.589118,0.307367 0.28604,0.165485 0.562188,0.34232 0.276143,0.176832 0.52987,0.375286 0.504957,0.395685 0.238861,0.207356 0.463029,0.42347 0.432675,0.44018 0.400475,0.455206 0.191972,0.231142 0.506114,0.717117 0.156752,0.242507 0.276618,0.49344 0.238953,0.499819 0.200774,0.504126 0.162339,0.506332 0.06196,0.253217 0.104842,0.505439 0.09105,0.7526 0.01135,0.494293 -0.02442,0.486233 -0.05889,0.476282 -0.04592,0.232257 -0.107435,0.457776 -0.137658,0.443501 -0.165834,0.427694 -0.191774,0.410484 -0.215315,0.392012 -0.359384,0.55362 -0.263105,0.341415 -0.138611,0.159876 -0.42706,0.45743 -0.299353,0.263672 -0.603303,0.482066 -0.600729,0.392668 -0.296778,0.174272 -0.806219,0.360433 -0.249523,0.09502 -1.112881,0.238447 0.624657,0.105206 0.729327,0.219425 0.530336,0.226602 0.57785,0.306169 0.603622,0.392201 0.606284,0.481958 0.292578,0.286289 0.431192,0.446164 0.270165,0.330581 0.377701,0.533089 0.226467,0.38248 0.293856,0.611255 0.165834,0.427694 0.199177,0.669023 0.09183,0.464513 0.05889,0.47628 0.02442,0.486234 -0.03542,0.744481 -0.06696,0.502412 -0.10484,0.505438 -0.06196,0.253218 -0.162337,0.506331 -0.200774,0.504126 -0.238955,0.49982 -0.138309,0.246719 c 0,0 0.01844,0.0042 -0.138309,0.24672 -0.156752,0.242508 -0.313503,0.485015 -0.313503,0.485015 l -0.349363,0.474611 -0.592445,0.686347 -0.208507,0.224064 -0.448339,0.432232 -0.477721,0.414711 -0.504957,0.395683 -0.529868,0.375287 -0.552292,0.353665 -0.572079,0.330973 -0.29456,0.153682 -0.596209,0.295194 -0.608918,0.270564 -0.307272,0.129053 -0.936793,0.336448 -0.629099,0.194519 -0.944434,0.247243 -0.625494,0.131322 -0.618719,0.106788 -0.602891,0.07145 -1.175825,0.09904 -1.106312,0.01627 -0.533376,-0.01131 -0.485657,-0.0442 v 0 l -0.917117,-0.114384 v 0 l -0.804121,-0.15881 -0.37266,-0.08863 -0.622559,-0.198186 -0.498815,-0.202854 -0.378276,-0.191431 -0.472881,-0.301305 0.154916,0.377406 0.0646,0.501036 -0.01712,0.422572 -0.09151,0.49107 -0.18502,0.550076 -0.118128,0.288451 -0.353668,0.617842 -0.353583,0.482107 -0.275068,0.325936 -0.473034,0.491681 -0.362048,0.326684 -0.397198,0.323267 -0.21607,0.158889 -0.682675,0.469117 -0.250169,0.150331 -0.516708,0.294893 -0.548831,0.282395 -0.579594,0.268032 -0.608773,0.251883 -0.636134,0.234058 -0.661479,0.214657 -0.684613,0.193818 -0.705356,0.171666 -0.723561,0.148357 -0.739074,0.124042 -0.373074,0.05582 -0.757436,0.08611 -0.38289,0.03 -0.382891,0.03 -0.771125,0.03346 -0.77342,0.0067 -0.386328,-0.01005 -0.386328,-0.01005 -0.768833,-0.04677 -0.380989,-0.03656 -0.757067,-0.08604 -0.376077,-0.04949 -1.101381,-0.198391 -0.714787,-0.160147 -0.695292,-0.182896 -0.673335,-0.20441 -0.967265,-0.341671 -0.608997,-0.252097 -0.579794,-0.268254 -0.807424,-0.430197 -0.966727,-0.610393 -0.432082,-0.317521 -0.207356,-0.160389 -0.379634,-0.325235 -0.344474,-0.327614 -0.309502,-0.327925 -0.27498,-0.326185 -0.241165,-0.32244 -0.458179,-0.775756 -0.191115,-0.438528 -0.157829,-0.537747 -0.06855,-0.475862 9.97e-4,-0.405044 0.04872,-0.327882 0.17895,-0.465609 -0.563548,0.366009 -0.672687,0.297371 -0.591561,0.198843 -0.326755,0.09724 -0.387682,0.08475 -0.8332,0.149125 -0.445515,0.06438 -0.996528,0.07319 -0.544092,0.0021 -0.544093,0.0021 -1.162745,-0.07627 -1.217482,-0.166102 -0.622468,-0.11898 -0.9428595,-0.228305 -0.629808,-0.181769 -0.627629,-0.207289 -0.312891,-0.110029 -0.619042,-0.245492 -0.609289,-0.270622 -0.298287,-0.147638 -0.298284,-0.147639 -0.862214,-0.490495 -0.551961,-0.353531 -0.529556,-0.375132 -0.98212,-0.810035 -0.231644,-0.211834 -0.432905,-0.44039 -0.200339,-0.227715 -0.383753,-0.462055 -0.349203,-0.474371 -0.165788,-0.240027 -0.295174,-0.48948 -0.257867,-0.496886 -0.219913,-0.502235 -0.09078,-0.252746 -0.09079,-0.252747 -0.143109,-0.506643 -0.104791,-0.5057 -0.03344,-0.251334 -0.03344,-0.251333 -0.01482,-0.248794 -0.01148,-0.494045 0.0033,-0.245253 0.02091,-0.240743 0.0587,-0.476054 0.03778,-0.235308 0.05383,-0.228992 0.122792,-0.450838 0.15201302,-0.435783 0.08306,-0.213936 0.192074,-0.410641 0.215634,-0.392151 0.236644,-0.37255 0.254974,-0.351995 0.270525,-0.330657 0.579541,-0.583709 v 0 l 0.296338,-0.275001 0.303917,-0.229662 0.303916,-0.229663 0.299654,-0.185118 0.583623,-0.327901 0.541612,-0.246794 0.479428,-0.174039 0.221784,-0.07003 0.355591,-0.08383 0.38475,-0.05287 -0.244131,-0.03318 -0.248104,-0.05441 -0.248106,-0.05441 -0.443568,-0.140055 -0.515287,-0.208022 -0.283969,-0.142785 v 0 l -0.28397,-0.142785 -0.299653,-0.185116 -0.299654,-0.185118 -0.303916,-0.229662 -0.303917,-0.229663 -0.296338,-0.275001 -0.296339,-0.275 -0.283202,-0.308709 -0.270525,-0.330657 -0.254974,-0.351995 -0.236644,-0.372549 -0.215634,-0.392152 -0.09604,-0.20532 -0.179095,-0.419255 -0.15201302,-0.435783 -0.06896,-0.221848 -0.107666,-0.457982 -0.07557,-0.470616 -0.04183,-0.481491 -0.0067,-0.490506 0.01482,-0.248792 0.04826,-0.500127 0.08584,-0.504183 0.0524,-0.252849 0.143108,-0.506645 0.09078,-0.252746 0.200741,-0.503864 0.23889,-0.49956 0.128934,-0.248444 0.295175,-0.489479 0.331576,-0.480058 0.366828,-0.46868 0.200339,-0.227715 0.416792,-0.447912 0.448096,-0.432027 0.477453,-0.414522 0.24581,-0.202688 0.517713,-0.385649 0.541402,-0.364619 0.562522,-0.342442 0.290475,-0.159637 0.588761,-0.307274 0.602931,-0.282949 0.304644,-0.135313 0.309522,-0.122745 0.309521,-0.122746 0.31289,-0.110031 0.31289,-0.11003 0.314739,-0.09726 0.314739,-0.09726 0.315069,-0.08451 0.3150705,-0.08451 0.627788,-0.14379 0.622469,-0.11898 0.60874,-0.08305 0.608742,-0.08305 0.581373,-0.03813 0.581373,-0.03813 0.544093,0.0021 0.544091,0.0021 0.498263,0.0366 0.498265,0.0366 0.891033,0.128753 0.387682,0.08475 0.714437,0.181987 0.326754,0.09724 0.733554,0.301096 0.203941,0.09788 0.415261,0.264825 z"
       id="path31" />
  </g>
</svg>
