<?xml version="1.0" encoding="UTF-8" standalone="no"?>
<!-- Created with Inkscape (http://www.inkscape.org/) -->

<svg
   width="500"
   height="500"
   viewBox="0 0 132.29166 132.29167"
   version="1.1"
   id="svg1"
   inkscape:version="1.4 (86a8ad7, 2024-10-11)"
   sodipodi:docname="input_cardioid_ortho_polar_g=500.svg"
   inkscape:export-filename="input_cardioid_ortho_polar_g=250.png"
   inkscape:export-xdpi="96"
   inkscape:export-ydpi="96"
   xmlns:inkscape="http://www.inkscape.org/namespaces/inkscape"
   xmlns:sodipodi="http://sodipodi.sourceforge.net/DTD/sodipodi-0.dtd"
   xmlns="http://www.w3.org/2000/svg"
   xmlns:svg="http://www.w3.org/2000/svg">
  <sodipodi:namedview
     id="namedview1"
     pagecolor="#ffffff"
     bordercolor="#000000"
     borderopacity="0.25"
     inkscape:showpageshadow="2"
     inkscape:pageopacity="0.0"
     inkscape:pagecheckerboard="0"
     inkscape:deskcolor="#d1d1d1"
     inkscape:document-units="mm"
     inkscape:zoom="1.0167041"
     inkscape:cx="226.71296"
     inkscape:cy="230.64725"
     inkscape:window-width="1920"
     inkscape:window-height="1009"
     inkscape:window-x="1912"
     inkscape:window-y="-8"
     inkscape:window-maximized="1"
     inkscape:current-layer="layer1"
     inkscape:export-bgcolor="#ffffffff" />
  <defs
     id="defs1">
    <linearGradient
       id="swatch37"
       inkscape:swatch="solid">
      <stop
         style="stop-color:#000000;stop-opacity:0;"
         offset="0"
         id="stop37" />
    </linearGradient>
  </defs>
  <g
     inkscape:label="Layer 1"
     inkscape:groupmode="layer"
     id="layer1">
    <path
       style="fill:#000000;fill-opacity:0;stroke:#000000;stroke-width:0.906634;stroke-linecap:butt;stroke-linejoin:round"
       d="m 4.0726754,10.183637 1.1595243,2.983043 2.3071378,2.533796 1.8319899,1.422384 1.4868366,0.998293 0.804541,0.511004 1.893308,1.080163 1.117837,0.577388 1.117834,0.577394 1.290307,0.607959 1.290303,0.607962 1.487644,0.644176 3.218174,1.337213 1.730525,0.69304 2.00377,0.746584 2.003767,0.746586 2.301712,0.803022 2.301708,0.803025 2.738072,0.899902 1.297132,0.426321 2.899656,0.92829 1.759455,0.548449 3.218174,1.00315 4.037895,1.203351 4.037895,1.203345 2.838459,0.81758 1.697622,0.488979 2.64234,0.761085 1.977721,0.569656 2.319988,0.668241 2.140601,0.616096 1.609449,0.463217 2.338608,0.673078 2.226557,0.640829 1.688446,0.485948 4.157662,1.196632 3.764677,1.083519 2.081319,0.599026 4.053078,1.223749 1.824035,0.550725 2.229041,0.673022 2.092166,0.665037 2.08611,0.663119 2.218628,0.705242 2.68318,0.904923 2.68316,0.904929 2.27007,0.818141 2.27007,0.818144 1.93578,0.750396 1.93577,0.750403 1.6619,0.69753 1.66191,0.697537 1.41174,0.645758 1.41174,0.645758 2.42881,1.219388 1.01906,0.56573 1.01904,0.565728 1.75692,1.088267 1.46435,1.02323 0.60524,0.482632 1.1046,0.94398 1.28875,1.321447 0.88334,1.248707 0.71152,1.568537 0.23702,1.462965 -0.079,1.085914 -0.18719,0.723943 -0.71565,1.513189 -0.89563,1.203426 -0.7742,0.838686 -1.43989,1.301146 -0.63107,0.476877 -2.09011,1.453636 -2.79382,1.613781 -2.24541,1.154231 -2.60301,1.221657 -1.38981,0.62546 -3.26206,1.3533 -3.69329,1.421812 -2.18207,0.784267 -2.18207,0.784274 -2.54425,0.858522 -1.1989,0.404555 -2.73338,0.896843 -1.556902,0.496752 -2.94493,0.93963 -2.522356,0.766631 -1.090505,0.331444 -2.019018,0.613643 -1.593835,0.484423 -1.792795,0.523594 -1.774919,0.518371 -1.183644,0.345688 -3.391189,0.990401 -3.001994,0.872396 -2.834209,0.820234 -3.145059,0.910194 -2.641253,0.764395 -3.240817,0.93791 -3.274659,0.947707 -3.54573,1.026153 -3.893315,1.126749 -2.376116,0.687649 -2.633874,0.76227 -1.861912,0.53884 -1.921417,0.59779 -3.790786,1.17937 -4.124477,1.33447 -2.853851,0.93916 -2.398452,0.8406 -2.398445,0.84061 -2.049311,0.76991 -2.049307,0.7699 -3.521773,1.42764 -4.295958,1.94429 -2.383271,1.20036 -2.03656,1.13477 -1.745709,1.08576 -2.6631655,1.98844 -1.7917869,1.80227 -1.2962425,2.0135 -0.4853762,1.77648 z"
       id="path31" />
  </g>
</svg>
