<?xml version="1.0" encoding="UTF-8" standalone="no"?>
<!-- Created with Inkscape (http://www.inkscape.org/) -->

<svg
   width="250"
   height="250"
   viewBox="0 0 66.145832 66.145833"
   version="1.1"
   id="svg1"
   inkscape:version="1.4 (86a8ad7, 2024-10-11)"
   sodipodi:docname="input_epi_n=6_g=250.svg"
   inkscape:export-filename="input_epi_n=6_g=250.png"
   inkscape:export-xdpi="96"
   inkscape:export-ydpi="96"
   xmlns:inkscape="http://www.inkscape.org/namespaces/inkscape"
   xmlns:sodipodi="http://sodipodi.sourceforge.net/DTD/sodipodi-0.dtd"
   xmlns="http://www.w3.org/2000/svg"
   xmlns:svg="http://www.w3.org/2000/svg">
  <sodipodi:namedview
     id="namedview1"
     pagecolor="#ffffff"
     bordercolor="#000000"
     borderopacity="0.25"
     inkscape:showpageshadow="2"
     inkscape:pageopacity="0.0"
     inkscape:pagecheckerboard="0"
     inkscape:deskcolor="#d1d1d1"
     inkscape:document-units="mm"
     inkscape:zoom="2.0334082"
     inkscape:cx="92.701507"
     inkscape:cy="152.20751"
     inkscape:window-width="1920"
     inkscape:window-height="1009"
     inkscape:window-x="1912"
     inkscape:window-y="-8"
     inkscape:window-maximized="1"
     inkscape:current-layer="layer1"
     inkscape:export-bgcolor="#ffffffff" />
  <defs
     id="defs1" />
  <g
     inkscape:label="Layer 1"
     inkscape:groupmode="layer"
     id="layer1">
    <path
       style="fill:#000000;fill-opacity:0;stroke:#000000;stroke-width:0.162593;stroke-linecap:butt;stroke-linejoin:round"
       d="m 19.679918,11.567549 -0.180295,-0.515681 -0.06513,-0.39027 -0.02811,-0.497838 0.01587,-0.2993185 0.07224,-0.6438393 0.05638,-0.3445169 L 19.657219,8.4932271 19.763565,8.1103713 19.927884,7.6974831 20.19814,7.0698187 20.304076,6.8550432 20.549373,6.4177565 20.68922,6.1965734 20.986468,5.7530271 21.319061,5.3085129 21.687318,4.8658199 21.88039,4.6452806 22.091299,4.4277624 22.530785,3.9971481 23.005291,3.5767615 23.776928,2.9692173 24.630203,2.4040187 24.925068,2.2221165 25.234785,2.0511726 25.544503,1.8802292 26.191796,1.5625394 26.864893,1.2711782 27.561542,1.008106 c 0,0 0.358884,-0.11650454 0.358884,-0.11650454 l 1.095184,-0.31787482 0.376051,-0.0841824 0.376047,-0.0841836 0.382522,-0.0671097 0.770042,-0.11668889 0.387519,-0.0495798 0.782009,-0.0634256 0.785895,-0.02726028 0.393338,0.0045475 0.393338,0.0045475 0.784337,0.04538259 0.389453,0.0406815 0.389453,0.0406815 0.385208,0.0583921 0.385206,0.0583921 0.379468,0.0757106 0.751741,0.16822287 0.372274,0.0925129 0.727366,0.21737311 0.353763,0.12412516 0.696346,0.262851 0.672814,0.291116 0.330234,0.1523903 0.633605,0.3300639 0.302401,0.1765711 0.589529,0.3634989 0.287128,0.1869309 0.542214,0.3920994 0.508909,0.4077515 0.237301,0.2103663 0.457074,0.4258448 0.421777,0.434687 0.386128,0.4407256 0.350402,0.4439549 0.314865,0.4443774 0.279781,0.4420265 0.245417,0.4369548 c 0,0 0.309837,0.6415901 0.309837,0.6415901 l 0.149162,0.4062286 0.242208,0.7802285 v 0 l 0.13836,0.7077989 0.04532,0.333799 0.0147,0.5742778 -0.03956,0.471432 -0.0707,0.362766 -0.11789,0.381339 0.493493,-0.45028 0.385691,-0.256996 0.507771,-0.272376 0.285075,-0.137352 0.696056,-0.257323 0.409409,-0.109011 0.409408,-0.1090112 c 0,0 0,0 0.467125,-0.078797 0.467124,-0.078797 0.986309,-0.1175437 0.986309,-0.1175437 l 0.519185,-0.038746 0.553689,-0.00313 0.573851,0.023309 0.895115,0.092171 0.922985,0.153143 0.629321,0.1448239 0.318107,0.08905 0.638168,0.195079 0.320063,0.106032 0.320494,0.123243 0.639881,0.263806 0.636115,0.298423 0.316731,0.15786 0.625074,0.350041 0.306816,0.191913 0.606426,0.400336 0.299607,0.208423 0.581885,0.44886 0.280878,0.239815 0.280878,0.239818 0.538947,0.508957 0.513613,0.536621 0.48591,0.562422 0.228007,0.293092 0.440091,0.596965 0.212079,0.30387 0.390518,0.626943 0.355348,0.643657 0.318877,0.65777 0.140682,0.334597 0.140677,0.334594 0.243051,0.677849 0.204212,0.683686 0.165123,0.686679 0.126039,0.686818 0.08724,0.684115 0.02452,0.339303 0.03601,1.009655 -0.01241,0.329711 c 0,0 -0.01241,0.329711 -0.04234,0.652671 -0.02993,0.322961 -0.07666,0.637944 -0.07666,0.637944 l -0.0467,0.314984 -0.125141,0.611689 -0.154891,0.59125 -0.182464,0.568815 -0.322835,0.803924 -0.365543,0.75081 -0.133806,0.231511 -0.415781,0.665147 c 0,0 -0.293392,0.403542 -0.293392,0.403542 l -0.61013,0.699791 -0.308338,0.326812 -0.613965,0.531895 -0.587755,0.415223 c 0,0 -0.539421,0.307314 -0.539421,0.307314 l -0.471079,0.211597 -0.38543,0.131115 -0.520678,0.09754 0.701726,0.154099 0.684024,0.298148 0.536917,0.308839 0.584984,0.41632 0.611021,0.53253 0.309161,0.296184 0.304484,0.357587 0.597871,0.761127 0.281974,0.43364 0.267613,0.463018 0.250369,0.491453 0.230349,0.518713 0.10383,0.272284 0.195062,0.55669 0.246123,0.875659 0.06257,0.305844 0.109274,0.620829 0.07666,0.637945 0.04234,0.652671 0.01241,0.32971 -0.0055,0.335175 -0.0303,0.674479 -0.06811,0.681361 -0.04363,0.342059 -0.208594,1.030157 -0.08257,0.343339 c 0,0 -0.204213,0.683686 -0.204213,0.683686 0,0 0,0 -0.121522,0.338924 -0.121528,0.338923 -0.402882,1.008116 -0.402882,1.008116 l -0.318876,0.657771 -0.177678,0.321827 -0.177671,0.321828 -0.390524,0.626944 -0.424156,0.607742 -0.228013,0.293094 -0.470965,0.574304 -0.499756,0.549518 -0.256809,0.268311 -0.538948,0.508958 -0.280875,0.239818 -0.571822,0.464246 -0.590548,0.432852 -0.299606,0.208423 -0.613639,0.383827 -0.625071,0.350041 -0.633462,0.315722 -0.638772,0.281124 -0.640989,0.246486 -0.640121,0.212062 -0.950878,0.250508 -0.624421,0.128654 -0.916686,0.137556 -0.591653,0.05151 -0.57385,0.02331 -0.55369,-0.0031 -0.531345,-0.02758 -0.987961,-0.119885 -0.438853,-0.09519 -0.438851,-0.09519 -0.758096,-0.240379 -0.63323,-0.268777 -0.253677,-0.137556 -0.253682,-0.137554 -0.384762,-0.259613 -0.134796,-0.11161 -0.349036,-0.336499 0.10253,0.341446 0.08693,0.418664 0.03666,0.470702 0.0076,0.261911 -0.05008,0.622349 -0.136077,0.709613 -0.120152,0.391194 -0.300016,0.810148 -0.179864,0.418952 -0.228449,0.433743 -0.410977,0.66211 -0.481138,0.666809 -0.184126,0.221523 -0.38613,0.440726 -0.421775,0.434684 -0.457074,0.425846 -0.237301,0.210364 -0.508911,0.407755 -0.542214,0.392104 -0.574256,0.373858 c 0,0 -0.287998,0.188105 -0.6048,0.353136 -0.316803,0.165036 -0.963839,0.482456 -0.963839,0.482456 l -1.015399,0.429841 -0.353761,0.124128 -0.353763,0.124122 -0.727368,0.217375 -0.744547,0.185027 -1.144142,0.209811 -0.385208,0.05838 -1.171074,0.104057 -0.39217,0.02268 -0.786675,0.0091 -1.176899,-0.05899 -0.391005,-0.03171 c 0,0 -0.775037,-0.09916 -0.775037,-0.09916 L 29.015823,65.146224 28.647671,65.045534 27.561753,64.711841 26.865106,64.44877 26.192009,64.157405 25.544716,63.839715 24.925281,63.497831 24.630415,63.315925 24.056346,62.942381 23.777141,62.750729 23.251438,62.350477 22.75957,61.935895 22.30242,61.509704 21.880603,61.074665 21.494462,60.633588 21.144083,60.189281 20.829277,59.744557 20.549585,59.30219 20.304289,58.864904 20.092413,58.435353 19.912731,58.016094 19.778297,57.617102 19.643865,57.21811 19.483332,56.488827 19.44847,56.16615 l -0.03438,-0.597334 0.02526,-0.496992 0.06217,-0.389901 0.16163,-0.496704 -0.264818,0.259387 -0.340095,0.273733 -0.415676,0.262839 -0.538962,0.272844 -1.028051,0.38575 -0.424263,0.102427 -0.424261,0.102422 -0.961489,0.139342 -0.531098,0.02732 -0.531099,0.02732 -0.564054,-0.0098 -0.583058,-0.0372 L 12.14983,55.877006 11.218269,55.700111 10.9017,55.619431 10.265847,55.441193 9.9465734,55.34369 8.9855003,54.982561 8.6653683,54.850663 8.0288653,54.552219 7.0893478,54.035781 6.172687,53.451825 5.5817813,53.018832 5.2956989,52.786626 4.734279,52.307174 4.458941,52.059927 3.9323554,51.536918 3.4323111,50.987155 3.1966977,50.699868 2.9610842,50.412584 2.52076,49.815335 2.1132151,49.197689 1.9266579,48.87988 1.5714722,48.236546 1.4028419,47.911025 c 0,0 -0.3002324,-0.663824 -0.3002324,-0.663824 L 0.84032329,46.573333 0.61664271,45.892212 0.43196043,45.206673 0.3591799,44.863121 0.28639875,44.519568 0.17981264,43.833748 0.14579874,43.492895 0.11178484,43.152039 0.08163629,42.477223 l 0.0033799,-0.332608 0.02467314,-0.659102 0.0212687,-0.326495 0.076861,-0.638241 0.0547541,-0.310555 0.0547541,-0.310554 0.0701399,-0.300864 0.15461915,-0.591001 0.0844799,-0.290135 0.0976829,-0.278452 0.20734715,-0.544367 0.35036357,-0.771158 0.1296725,-0.238687 0.2672516,-0.462899 0.2816093,-0.433551 0.2930136,-0.403483 0.301416,-0.372952 0.4615554,-0.490262 v 0 L 3.6303912,34.15934 4.2240158,33.714644 4.7749107,33.379946 5.4881389,33.048948 5.6689811,32.992105 6.2411677,32.863554 5.8949673,32.78833 5.4769263,32.661416 5.0278292,32.469482 4.5061401,32.185737 3.9311798,31.797247 3.6329568,31.575392 3.3245119,31.294388 3.0160682,31.013387 2.70928,30.67119 2.2535066,30.134842 1.8164651,29.522027 1.5413046,29.073594 1.4116321,28.83491 c 0,0 -0.2500222,-0.491307 -0.2500222,-0.491307 L 0.93159608,27.825065 0.82193182,27.55915 0.62656605,27.002247 0.5420862,26.712112 0.38746705,26.12111 0.2625712,25.509692 0.16938478,24.880016 c 0,0 -0.059701,-0.645615 -0.059701,-0.645615 0,0 -0.0178765,0.0061 -0.02127482,-0.326493 -0.0033799,-0.332608 0.02335191,-1.340033 0.02335191,-1.340033 l 0.0680266,-0.681711 c 0,0 0.0532915,-0.342908 0.0532915,-0.342908 L 0.43193401,20.513242 0.52427484,20.170472 0.61661629,19.8277 0.84029687,19.14658 0.97143997,18.809646 1.1025831,18.47271 1.252699,18.1408 1.4028149,17.80889 1.5714452,17.483366 1.7400749,17.157842 2.113188,16.522226 2.3169605,16.213401 2.5207336,15.904579 2.9610572,15.307331 3.1966706,15.020046 3.6823062,14.457878 4.1956211,13.921491 4.734252,13.412741 5.0095919,13.165496 5.5817543,12.701083 6.17266,12.268089 l 0.6067926,-0.400448 0.6197321,-0.367013 0.9479032,-0.482153 1.2789872,-0.527633 0.9590159,-0.309624 0.633138,-0.161357 1.238344,-0.2252676 1.464699,-0.1083584 0.282027,-0.00492 0.802486,0.03512 0.753898,0.079749 0.906301,0.1746115 0.394328,0.1149355 0.72668,0.246805 0.601697,0.269668 0.269342,0.137796 0.414874,0.265495 0.148734,0.117101 z"
       id="path32" />
  </g>
</svg>
