<?xml version="1.0" encoding="UTF-8" standalone="no"?>
<!-- Created with Inkscape (http://www.inkscape.org/) -->

<svg
   width="500"
   height="500"
   viewBox="0 0 132.29166 132.29167"
   version="1.1"
   id="svg1"
   xml:space="preserve"
   inkscape:version="1.4 (86a8ad7, 2024-10-11)"
   sodipodi:docname="input_possible_counter.svg"
   inkscape:export-filename="input_possible_counter.png"
   inkscape:export-xdpi="96"
   inkscape:export-ydpi="96"
   xmlns:inkscape="http://www.inkscape.org/namespaces/inkscape"
   xmlns:sodipodi="http://sodipodi.sourceforge.net/DTD/sodipodi-0.dtd"
   xmlns:xlink="http://www.w3.org/1999/xlink"
   xmlns="http://www.w3.org/2000/svg"
   xmlns:svg="http://www.w3.org/2000/svg"><sodipodi:namedview
     id="namedview1"
     pagecolor="#ffffff"
     bordercolor="#000000"
     borderopacity="0.25"
     inkscape:showpageshadow="2"
     inkscape:pageopacity="0.0"
     inkscape:pagecheckerboard="0"
     inkscape:deskcolor="#d1d1d1"
     inkscape:document-units="mm"
     inkscape:zoom="1.0167041"
     inkscape:cx="264.08864"
     inkscape:cy="210.97584"
     inkscape:window-width="1920"
     inkscape:window-height="1009"
     inkscape:window-x="1912"
     inkscape:window-y="-8"
     inkscape:window-maximized="1"
     inkscape:current-layer="svg1"
     inkscape:export-bgcolor="#ffffffff" /><defs
     id="defs1"><linearGradient
       id="swatch4"
       inkscape:swatch="solid"><stop
         style="stop-color:#000000;stop-opacity:1;"
         offset="0"
         id="stop4" /></linearGradient><linearGradient
       id="swatch3"
       inkscape:swatch="solid"><stop
         style="stop-color:#000000;stop-opacity:1;"
         offset="0"
         id="stop3" /></linearGradient><linearGradient
       id="swatch2"
       inkscape:swatch="solid"><stop
         style="stop-color:#000000;stop-opacity:1;"
         offset="0"
         id="stop2" /></linearGradient><linearGradient
       id="swatch1"
       inkscape:swatch="solid"><stop
         style="stop-color:#ffffff;stop-opacity:1;"
         offset="0"
         id="stop1" /></linearGradient><linearGradient
       inkscape:collect="always"
       xlink:href="#swatch1"
       id="linearGradient1"
       x1="14.963589"
       y1="29.146469"
       x2="45.41124"
       y2="29.146469"
       gradientUnits="userSpaceOnUse"
       gradientTransform="matrix(3.9755509,0,0,4.3991214,-54.620005,-62.675357)" /><linearGradient
       inkscape:collect="always"
       xlink:href="#swatch2"
       id="linearGradient2"
       x1="4.0386457"
       y1="32.020336"
       x2="59.863815"
       y2="32.020336"
       gradientUnits="userSpaceOnUse"
       gradientTransform="matrix(2.1980391,0,0,2.1980391,-4.8384552,-4.8384529)" /><linearGradient
       inkscape:collect="always"
       xlink:href="#swatch1"
       id="linearGradient4"
       x1="14.859201"
       y1="22.357805"
       x2="30.224442"
       y2="22.357805"
       gradientUnits="userSpaceOnUse"
       gradientTransform="matrix(2.1980391,0,0,2.1980391,-4.8384552,-4.8384529)" /><linearGradient
       inkscape:collect="always"
       xlink:href="#swatch1"
       id="linearGradient5"
       gradientUnits="userSpaceOnUse"
       x1="14.859201"
       y1="22.357805"
       x2="30.224442"
       y2="22.357805"
       gradientTransform="matrix(-2.1980391,0,0,2.1980391,135.92093,-5.1244577)" /><linearGradient
       inkscape:collect="always"
       xlink:href="#swatch1"
       id="linearGradient6"
       gradientUnits="userSpaceOnUse"
       gradientTransform="matrix(-2.1980391,0,0,-2.1980391,136.92194,135.53844)"
       x1="14.859201"
       y1="22.357805"
       x2="30.224442"
       y2="22.357805" /><linearGradient
       inkscape:collect="always"
       xlink:href="#swatch1"
       id="linearGradient7"
       gradientUnits="userSpaceOnUse"
       gradientTransform="matrix(2.1980391,0,0,-2.1980391,-4.5524468,135.53844)"
       x1="14.859201"
       y1="22.357805"
       x2="30.224442"
       y2="22.357805" /></defs><g
     inkscape:label="Layer 1"
     inkscape:groupmode="layer"
     id="layer1"><ellipse
       style="font-variation-settings:normal;opacity:1;vector-effect:none;fill:url(#linearGradient2);fill-rule:evenodd;stroke:url(#linearGradient1);stroke-width:1.65972;stroke-linecap:butt;stroke-linejoin:miter;stroke-miterlimit:4;stroke-dasharray:none;stroke-dashoffset:0;-inkscape-stroke:none;stop-color:#000000;stop-opacity:1"
       id="path1"
       cx="65.391602"
       cy="65.543495"
       rx="60.523094"
       ry="60.674992" /></g><path
     style="fill:none;fill-opacity:1;stroke:url(#linearGradient4);stroke-width:4.47921;stroke-dasharray:none"
     d="m 27.822649,61.090461 0.606707,-3.640245 0.808945,-3.033538 1.516767,-3.741366 1.415652,-2.932422 1.314535,-2.325714 1.92124,-2.932419 2.224596,-2.52795 2.022358,-2.426833 2.224596,-1.820121 2.224596,-1.51677 2.932421,-1.820124 3.336894,-1.51677 3.235773,-1.314533 3.438012,-1.213416 4.550306,-0.808944"
     id="path2" /><path
     style="fill:none;fill-opacity:1;stroke:url(#linearGradient5);stroke-width:4.47921;stroke-dasharray:none"
     d="m 103.25982,60.804456 -0.6067,-3.640245 -0.80895,-3.033538 -1.51677,-3.741366 -1.415648,-2.932421 -1.314535,-2.325714 -1.92124,-2.93242 -2.224596,-2.527949 -2.022359,-2.426833 -2.224596,-1.820121 -2.224595,-1.516771 -2.932422,-1.820123 -3.336894,-1.51677 -3.235772,-1.314533 -3.438013,-1.213417 -4.550305,-0.808944"
     id="path4" /><path
     style="fill:none;fill-opacity:1;stroke:url(#linearGradient6);stroke-width:4.47921;stroke-dasharray:none"
     d="m 104.26084,69.609517 -0.60671,3.640245 -0.80894,3.033538 -1.51677,3.741366 -1.415651,2.932421 -1.314535,2.325715 -1.92124,2.932419 -2.224595,2.527949 -2.022359,2.426833 -2.224596,1.820122 -2.224596,1.51677 -2.932421,1.820123 -3.336894,1.51677 -3.235773,1.314532 -3.438012,1.21342 -4.550306,0.80894"
     id="path5" /><path
     style="fill:none;fill-opacity:1;stroke:url(#linearGradient7);stroke-width:4.47921;stroke-dasharray:none"
     d="m 28.108656,69.609517 0.606707,3.640245 0.808944,3.033538 1.516768,3.741366 1.415651,2.932421 1.314536,2.325715 1.92124,2.932419 2.224595,2.527949 2.022359,2.426833 2.224596,1.820122 2.224595,1.51677 2.932422,1.820123 3.336894,1.51677 3.235773,1.314532 3.438012,1.21342 4.550305,0.80894"
     id="path6" /></svg>
