<?xml version="1.0" encoding="UTF-8" standalone="no"?>
<!-- Created with Inkscape (http://www.inkscape.org/) -->

<svg
   width="250"
   height="250"
   viewBox="0 0 66.145832 66.145833"
   version="1.1"
   id="svg1"
   inkscape:version="1.4 (86a8ad7, 2024-10-11)"
   sodipodi:docname="input_epi_n=5_g=250.svg"
   inkscape:export-filename="input_epi_n=5_g=250.png"
   inkscape:export-xdpi="96"
   inkscape:export-ydpi="96"
   xmlns:inkscape="http://www.inkscape.org/namespaces/inkscape"
   xmlns:sodipodi="http://sodipodi.sourceforge.net/DTD/sodipodi-0.dtd"
   xmlns="http://www.w3.org/2000/svg"
   xmlns:svg="http://www.w3.org/2000/svg">
  <sodipodi:namedview
     id="namedview1"
     pagecolor="#ffffff"
     bordercolor="#000000"
     borderopacity="0.25"
     inkscape:showpageshadow="2"
     inkscape:pageopacity="0.0"
     inkscape:pagecheckerboard="0"
     inkscape:deskcolor="#d1d1d1"
     inkscape:document-units="mm"
     inkscape:zoom="1.4378367"
     inkscape:cx="229.8592"
     inkscape:cy="149.87794"
     inkscape:window-width="1920"
     inkscape:window-height="1009"
     inkscape:window-x="1912"
     inkscape:window-y="-8"
     inkscape:window-maximized="1"
     inkscape:current-layer="layer1"
     inkscape:export-bgcolor="#ffffffff" />
  <defs
     id="defs1" />
  <g
     inkscape:label="Layer 1"
     inkscape:groupmode="layer"
     id="layer1">
    <path
       style="display:inline;fill:#000000;fill-opacity:0;stroke:#000000;stroke-width:0.162593;stroke-linecap:butt;stroke-linejoin:round;stroke-dasharray:none"
       d="M 14.729241,18.741781 14.472305,18.488743 14.181103,18.097791 14.070752,17.910198 13.848899,17.48714 13.737395,17.251673 13.52878,16.684231 13.43999,16.353119 13.3512,16.022001 l -0.06515,-0.37642 -0.06515,-0.376418 -0.03378,-0.418455 -0.03378,-0.418454 0.0048,-0.456102 0.0048,-0.456105 c 0,0 0.04961,-0.488357 0.04961,-0.488357 0,0 0.04961,-0.488356 0.04961,-0.488356 0,0 0.100007,-0.514316 0.100007,-0.514316 l 0.170354,-0.77903 0.07035,-0.264715 0.08453,-0.268512 0.183643,-0.539846 0.09911,-0.2713343 0.113995,-0.2731602 0.113984,-0.2731589 0.258186,-0.5479205 0.14435,-0.2737284 0.14435,-0.2737259 0.319347,-0.5448994 0.174985,-0.2701207 0.36519,-0.5368633 0.395456,-0.529075 0.425291,-0.5192216 0.454547,-0.5073385 0.483058,-0.4934713 0.248554,-0.2430219 0.52425,-0.469304 0.550282,-0.4507333 c 0,0 0.287533,-0.2152126 0.287533,-0.2152126 l 0.886008,-0.6236755 0.310192,-0.192481 0.310191,-0.1924785 0.640677,-0.3600165 0.329623,-0.166878 0.329624,-0.1668779 0.676001,-0.306306 0.345427,-0.1388981 0.345423,-0.1388981 0.703724,-0.24836823 0.714544,-0.21816249 0.723271,-0.18733089 0.729858,-0.15602317 0.734273,-0.12439397 c 0,0 0.7365,-0.0925954 0.7365,-0.0925954 l 0.736533,-0.0608018 0.734376,-0.02914314 0.73005,0.0022087 0.723589,0.03309434 0.715027,0.0633787 0.704428,0.0929022 0.69185,0.1215177 0.677374,0.14910245 0.661078,0.17551288 0.643075,0.20062261 0.311728,0.11215501 0.612899,0.2354005 0.591103,0.2567566 0.289931,0.1335124 0.278069,0.1429229 0.809385,0.4457895 0.50553,0.3180111 0.239468,0.1656128 0.465313,0.3368371 0.225846,0.1712242 0.423938,0.3516553 0.381712,0.3613492 0.38171,0.3613516 0.325212,0.3673889 0.325209,0.3673901 0.269598,0.3652316 0.269597,0.3652342 0.216129,0.355134 0.216132,0.355134 0.332032,0.6750472 0.120376,0.3130047 0.120377,0.3130047 0.206948,0.8110996 0.04648,0.2464246 0.04052,0.5755715 0.01166,0.4461061 -0.03503,0.074754 0.231182,-0.3819445 0.183223,-0.2177551 0.36088,-0.3877768 0.403879,-0.3514099 0.22622,-0.1813881 0.277014,-0.1849393 0.27701,-0.1849418 0.328769,-0.1804249 0.328769,-0.1804212 0.380218,-0.1677614 0.380217,-0.1677589 c 0,0 0.430071,-0.1470619 0.430071,-0.1470619 l 0.907151,-0.2657044 0.997155,-0.2016018 0.520069,-0.082963 0.55793,-0.04069 0.849214,-0.043316 0.589673,0.00736 0.298387,0.010062 0.609184,0.04658 0.619716,0.074116 0.628287,0.1025348 0.634838,0.1316939 0.319655,0.08073 0.640485,0.1765535 0.641759,0.206904 0.320928,0.1110753 0.639884,0.2527771 v 0 l 0.317866,0.1416971 0.317863,0.1416921 0.629406,0.3138195 0.62092,0.3439136 0.305154,0.1867627 0.603964,0.3880075 0.590249,0.4165849 0.291445,0.2153378 0.566188,0.4579237 0.547597,0.484099 0.263598,0.254536 0.516143,0.520889 0.493233,0.543809 0.240686,0.277453 0.228083,0.287766 0.228085,0.287765 0.214796,0.29725 0.415687,0.603101 0.200888,0.305852 0.372866,0.627071 0.342997,0.640527 0.156158,0.326 0.29665,0.656727 0.140491,0.330724 0.124575,0.334417 0.233063,0.671469 0.108486,0.337056 0.184627,0.677281 0.152261,0.678328 0.06002,0.338633 0.104081,0.675684 0.0724,0.671491 0.04127,0.665255 c 0,0 0.01292,0.330816 0.0108,0.657023 -0.0022,0.326206 -0.0022,0.326206 -0.01877,0.64685 -0.01668,0.320642 -0.07807,0.948973 -0.07807,0.948973 l -0.04413,0.306811 -0.04412,0.30681 -0.1138,0.597263 -0.06894,0.289675 -0.149137,0.569675 -0.0802,0.28 -0.09062,0.269665 -0.29095,0.787133 -0.217564,0.494548 -0.116437,0.235353 -0.116438,0.235356 -0.251854,0.43347 -0.251856,0.433469 -0.27028,0.38211 -0.270279,0.38211 -0.280276,0.329775 -0.56209,0.607487 c 0,0 -0.0067,0.05056 -0.28182,0.277712 -0.275067,0.227151 -0.810535,0.633602 -0.810535,0.633602 l -0.260396,0.179295 -0.238331,0.135263 -0.447919,0.23137 -0.559637,0.221551 -0.561953,0.113481 0.415949,0.07174 0.496053,0.167193 0.209588,0.09611 0.209589,0.09611 0.23833,0.135264 0.498727,0.314561 0.260395,0.179294 0.275073,0.227153 0.556887,0.504865 0.281815,0.27771 0.280275,0.329775 0.550555,0.711887 v 0 l 0.27028,0.382111 0.251856,0.433468 0.251854,0.43347 0.225222,0.482629 v 0 l 0.225221,0.482627 0.200328,0.517468 0.09062,0.269665 0.17082,0.549665 0.149137,0.569675 0.06894,0.289676 0.1138,0.597262 0.04412,0.306811 0.07483,0.620975 0.0307,0.314164 0.01668,0.320644 0.02087,0.973055 -0.01292,0.330818 -0.01292,0.330815 -0.02835,0.33444 -0.02833,0.334438 -0.04407,0.337053 -0.04406,0.337051 -0.120045,0.677264 -0.07613,0.339165 -0.168442,0.677805 -0.09231,0.338637 c 0,0 0,0 -0.108486,0.337058 -0.108486,0.337054 -0.233065,0.671471 -0.233065,0.671471 l -0.124572,0.334415 -0.140493,0.330726 v 0 l -0.140491,0.330726 -0.312318,0.652002 -0.171496,0.32026 -0.171498,0.320267 -0.372867,0.62707 -0.20089,0.305853 -0.200888,0.305853 -0.214796,0.297245 -0.442881,0.585019 -0.228084,0.287764 -0.481372,0.554905 -0.252547,0.266354 -0.252542,0.266359 -0.527198,0.509067 -0.5476,0.484099 -0.283094,0.228964 -0.574537,0.444299 -0.291442,0.215337 -0.597613,0.402493 -0.305157,0.186763 -0.615616,0.358721 -0.310459,0.171955 -0.314704,0.156912 -0.632567,0.298601 v 0 l -0.317864,0.141693 -0.639884,0.252779 -0.320928,0.111075 -0.64176,0.206902 -0.320828,0.09582 -0.639309,0.161451 -0.634839,0.131694 -0.628287,0.102534 -0.619716,0.07412 -0.609185,0.04658 -0.596775,0.02007 c 0,0 -0.865907,-0.01994 -0.865907,-0.01994 l -0.55797,-0.04067 -0.274593,-0.026 -1.040139,-0.165927 -0.477085,-0.118634 -0.477082,-0.118634 -0.430072,-0.147067 -0.430068,-0.147064 -0.760435,-0.335518 -0.328769,-0.180422 -0.328771,-0.180424 -0.554022,-0.369881 -0.226223,-0.18139 -0.403876,-0.351408 -0.310173,-0.321305 -0.22443,-0.277065 -0.240194,-0.381764 0.02373,0.350496 -0.008,0.260916 -0.0079,0.260916 -0.03222,0.22681 -0.09473,0.49179 -0.06251,0.264976 -0.199127,0.596775 -0.285144,0.652167 -0.19058,0.347233 -0.190584,0.347233 -0.242519,0.361154 -0.242517,0.361157 -0.297214,0.367322 -0.297213,0.367324 -0.353431,0.365402 -0.35343,0.365404 -0.409892,0.35523 -0.409893,0.355231 -0.225845,0.171225 -0.465312,0.336838 -0.492234,0.324618 -0.252765,0.159008 -0.531315,0.302865 -0.556139,0.285844 v 0 l -0.289932,0.133513 -0.289931,0.133512 -0.602344,0.246487 -0.311727,0.112156 -0.633268,0.212467 -0.982613,0.275826 -0.677373,0.149101 -0.345925,0.06075 -0.345926,0.06076 -0.704428,0.0929 -0.357513,0.03169 -0.719307,0.04824 -0.726823,0.01765 -0.732213,-0.01346 -0.367189,-0.01456 -0.736532,-0.06079 -0.368302,-0.04632 -0.735387,-0.108499 -0.732065,-0.140208 -0.364929,-0.07802 -0.723271,-0.187328 -0.357273,-0.109075 -0.357274,-0.109088 -0.703722,-0.248371 -0.69085,-0.277796 -0.338001,-0.153153 -0.997246,-0.486905 -0.640677,-0.360018 -0.310191,-0.192479 -0.908667,-0.600944 -0.287533,-0.215213 -0.287534,-0.215211 -0.550281,-0.450735 -0.262124,-0.234651 -0.510683,-0.477675 -0.248552,-0.243023 -0.469007,-0.500895 -0.440082,-0.513783 -0.410503,-0.524659 -0.380408,-0.533494 -0.349972,-0.540239 -0.319347,-0.544894 -0.14435,-0.273727 -0.14435,-0.273729 -0.25819,-0.547923 -0.227937,-0.546336 -0.198216,-0.542671 -0.08453,-0.268509 -0.15488,-0.533228 -0.07035,-0.264715 -0.113223,-0.519958 -0.0434,-0.254336 -0.09301,-0.742695 -0.04961,-0.488358 -0.0048,-0.456103 -0.0048,-0.456103 0.03378,-0.418454 0.03378,-0.418453 0.06515,-0.376419 0.06515,-0.37642 0.177572,-0.662231 0.104302,-0.28372 0.215808,-0.51919 0.111504,-0.235464 0.366302,-0.570661 0.145602,-0.195477 0.256935,-0.253037 -0.433002,0.197298 -0.265872,0.07296 -0.265874,0.07296 -0.474834,0.0783 -0.568089,0.04452 -0.655954,-0.0047 -0.736043,-0.06811 L 10.523298,47.226787 10.091142,47.110325 9.2045906,46.828501 8.7501908,46.663132 8.281088,46.44505 7.3362502,45.953511 6.8605151,45.680057 6.6227807,45.522062 6.1488298,45.191777 5.6789884,44.832917 5.2154038,44.445584 4.9854454,44.24482 4.3155483,43.58668 4.0961047,43.358113 3.8834751,43.116087 3.6708455,42.874063 3.2612267,42.363878 3.0652118,42.09619 2.8691944,41.828502 2.4966211,41.269 2.1452911,40.686583 1.9810943,40.384584 1.664963,39.770515 1.5130272,39.458449 1.3740924,39.137096 1.1098923,38.485944 0.98462833,38.156146 0.76266681,37.481402 0.66651285,37.137381 c 0,0 -0.096154,-0.34402 -0.096154,-0.34402 l -0.22677414,-1.05377 v 0 L 0.27841455,35.385184 0.22925774,35.027096 0.14719066,34.308273 0.11428038,33.947537 0.09778843,33.585211 0.08129648,32.860024 c 0,0 0,-0.362856 0,-0.362856 l 0.0329839,-0.724654 0.0329103,-0.360734 0.0820671,-0.718824 0.0491568,-0.358087 0.13033917,-0.708817 c 0,0 0,0 0.0808646,-0.349709 0.0808645,-0.349709 0.27317124,-1.037748 0.27317124,-1.037748 l 0.11097709,-0.337374 0.11097708,-0.337372 0.12526394,-0.329798 0.1252628,-0.329805 0.1389373,-0.321347 0.1389349,-0.321354 0.3038703,-0.624131 0.3283935,-0.604003 0.3513301,-0.582418 0.3725733,-0.5595 0.3920323,-0.535377 0.2048106,-0.25509 0.4174378,-0.49712 0.4320731,-0.470591 0.2194436,-0.228568 0.2252268,-0.214788 0.4551852,-0.415548 0.4635845,-0.387331 0.4698414,-0.35886 0.473951,-0.330282 0.4759105,-0.301764 0.2381774,-0.14377 0.4734552,-0.24551 0.4734527,-0.24551 0.4627317,-0.191323 0.4627281,-0.191319 0.4441807,-0.140376 0.8625985,-0.234116 0.41842,-0.09375 0.772476,-0.104879 0.697111,-0.03464 0.612847,0.02182 0.521983,0.06337 0.757266,0.188305 z"
       id="path38" />
  </g>
</svg>
