<?xml version="1.0" encoding="UTF-8" standalone="no"?>
<!-- Created with Inkscape (http://www.inkscape.org/) -->

<svg
   width="250"
   height="250"
   viewBox="0 0 66.145832 66.145833"
   version="1.1"
   id="svg1"
   inkscape:version="1.4 (86a8ad7, 2024-10-11)"
   sodipodi:docname="input_nephroid_ortho_polar_g=250.svg"
   inkscape:export-filename="input_nephroid_ortho_polar_g=250.png"
   inkscape:export-xdpi="96"
   inkscape:export-ydpi="96"
   xmlns:inkscape="http://www.inkscape.org/namespaces/inkscape"
   xmlns:sodipodi="http://sodipodi.sourceforge.net/DTD/sodipodi-0.dtd"
   xmlns:xlink="http://www.w3.org/1999/xlink"
   xmlns="http://www.w3.org/2000/svg"
   xmlns:svg="http://www.w3.org/2000/svg">
  <sodipodi:namedview
     id="namedview1"
     pagecolor="#ffffff"
     bordercolor="#000000"
     borderopacity="0.25"
     inkscape:showpageshadow="2"
     inkscape:pageopacity="0.0"
     inkscape:pagecheckerboard="0"
     inkscape:deskcolor="#d1d1d1"
     inkscape:document-units="mm"
     inkscape:zoom="2.0334082"
     inkscape:cx="-2.7048185"
     inkscape:cy="139.91288"
     inkscape:window-width="1920"
     inkscape:window-height="1009"
     inkscape:window-x="1912"
     inkscape:window-y="-8"
     inkscape:window-maximized="1"
     inkscape:current-layer="layer2"
     inkscape:export-bgcolor="#ffffffff" />
  <defs
     id="defs1">
    <linearGradient
       inkscape:collect="always"
       xlink:href="#swatch37"
       id="linearGradient37"
       x1="70.620193"
       y1="218.16"
       x2="354.52527"
       y2="218.16"
       gradientUnits="userSpaceOnUse"
       gradientTransform="matrix(0.21995758,0,0,0.21995758,-13.135856,-14.762855)" />
    <linearGradient
       id="swatch37"
       inkscape:swatch="solid">
      <stop
         style="stop-color:#000000;stop-opacity:0;"
         offset="0"
         id="stop37" />
    </linearGradient>
  </defs>
  <g
     inkscape:label="Layer 1"
     inkscape:groupmode="layer"
     id="layer1">
    <path
       style="fill:url(#linearGradient37);fill-opacity:0;stroke:#000000;stroke-width:0.439915;stroke-linecap:butt;stroke-linejoin:round;stroke-dasharray:none"
       d="M 2.6177375,5.4729055 H 33.624811 l 2.637681,0.2341269 3.16723,0.5171535 3.682826,0.799675 2.953627,0.7765067 1.955362,0.5722016 1.91507,0.6110566 2.662901,0.9370366 1.912933,0.7630006 1.888359,0.835986 1.28101,0.626225 1.13431,0.607729 1.00173,0.590798 0.883878,0.576487 0.773394,0.561915 0.982335,0.818183 0.741226,0.769279 0.715062,0.962489 0.45094,0.91297 0.225038,0.8826 8.73e-4,1.076582 -0.228701,0.870043 -0.443526,0.892812 -0.706076,0.951359 -0.740091,0.753765 -0.595336,0.520914 -0.689202,0.536026 -0.788124,0.549549 -0.419843,0.278307 -0.957536,0.574827 -1.060652,0.579932 -0.874437,0.437223 -0.996709,0.470911 -1.406839,0.617645 -0.743663,0.313499 -1.252354,0.486119 -0.832276,0.307976 -1.259375,0.45035 -0.905975,0.298388 -0.905977,0.29839 -0.957534,0.290081 -0.957536,0.290082 -0.995829,0.276071 -0.995831,0.276067 -0.677389,0.170445 -0.765152,0.192526 -0.572713,0.144107 -0.964901,0.217986 -0.613834,0.138677 -1.279137,0.26431 -1.320659,0.252088 -1.629139,0.268082 -2.530247,0.302304 1.738293,0.281459 1.502591,0.222163 2.110636,0.386022 1.351221,0.275794 1.477642,0.339199 1.701019,0.422809 1.660575,0.447352 1.479855,0.426884 1.451773,0.443675 1.878145,0.625563 1.723561,0.62417 1.622102,0.638344 1.502549,0.643994 1.60868,0.764102 1.231047,0.644613 1.253962,0.732682 1.296353,0.860502 1.032635,0.826031 0.838244,0.794075 0.782065,0.969049 0.514288,0.9277 0.278094,0.8872 0.06536,0.651312 -0.03411,0.64464 -0.158503,0.650668 -0.261949,0.658635 -0.410615,0.687903 -0.547386,0.717177 -0.465696,0.497632 -0.548861,0.512268 -0.64164,0.529388 -0.736564,0.54249 -0.839684,0.556611 -0.957536,0.574826 -1.060653,0.579935 -0.603986,0.301997 -1.267356,0.606225 -0.663374,0.304231 -0.743467,0.313412 -1.538955,0.622195 -0.795491,0.30878 -0.876511,0.313442 -1.374972,0.47761 -1.313492,0.43261 -0.957536,0.29008 -0.957534,0.290083 -1.311587,0.363598 -1.688028,0.442161 -1.007299,0.253454 -0.964902,0.217986 -0.964901,0.217984 -1.856147,0.369999 -1.694096,0.28949 -1.524591,0.212536 -1.977948,0.175632 -31.2617944,0.0072 z"
       id="path33" />
  </g>
  <g
     inkscape:groupmode="layer"
     id="layer2"
     inkscape:label="Layer 2" />
</svg>
