<?xml version="1.0" encoding="UTF-8" standalone="no"?>
<!-- Created with Inkscape (http://www.inkscape.org/) -->

<svg
   width="250"
   height="250"
   viewBox="0 0 66.145832 66.145833"
   version="1.1"
   id="svg1"
   inkscape:version="1.4 (86a8ad7, 2024-10-11)"
   sodipodi:docname="input_epi_n=5_g=250.svg"
   inkscape:export-filename="input_epi_n=5_g=250.png"
   inkscape:export-xdpi="96"
   inkscape:export-ydpi="96"
   xmlns:inkscape="http://www.inkscape.org/namespaces/inkscape"
   xmlns:sodipodi="http://sodipodi.sourceforge.net/DTD/sodipodi-0.dtd"
   xmlns="http://www.w3.org/2000/svg"
   xmlns:svg="http://www.w3.org/2000/svg">
  <sodipodi:namedview
     id="namedview1"
     pagecolor="#ffffff"
     bordercolor="#000000"
     borderopacity="0.25"
     inkscape:showpageshadow="2"
     inkscape:pageopacity="0.0"
     inkscape:pagecheckerboard="0"
     inkscape:deskcolor="#d1d1d1"
     inkscape:document-units="mm"
     inkscape:zoom="1.4378367"
     inkscape:cx="48.336504"
     inkscape:cy="124.14484"
     inkscape:window-width="1920"
     inkscape:window-height="1009"
     inkscape:window-x="1912"
     inkscape:window-y="-8"
     inkscape:window-maximized="1"
     inkscape:current-layer="layer1"
     inkscape:export-bgcolor="#ffffffff" />
  <defs
     id="defs1" />
  <g
     inkscape:label="Layer 1"
     inkscape:groupmode="layer"
     id="layer1">
    <path
       style="fill:#000000;fill-opacity:0;stroke:#000000;stroke-width:0.404992;stroke-linecap:butt;stroke-linejoin:round"
       d="m 14.799371,21.876627 -0.549054,-0.483662 -0.176079,-0.240282 -0.18091,-0.254862 -0.248046,-0.470997 -0.148972,-0.376364 -0.177577,-0.640936 -0.04283,-0.25114 -0.0542,-0.750765 0.0067,-0.289963 0.05572,-0.569859 0.05833,-0.298488 0.05833,-0.298488 0.18472,-0.601722 0.107542,-0.313777 0.143183,-0.339237 0.163117,-0.323257 0.163116,-0.323257 0.200982,-0.325646 0.20098,-0.325647 0.23949,-0.324925 0.239492,-0.324924 0.251319,-0.30253 0.304949,-0.339569 0.28737,-0.296721 0.334064,-0.309655 0.365118,-0.325571 0.339785,-0.282189 0.370835,-0.298103 0.405984,-0.2836 0.440444,-0.29628 0.40458,-0.25362 0.439036,-0.2663 0.469554,-0.246399 0.46955,-0.246399 0.497123,-0.2241285 0.497123,-0.2241281 0.52138,-0.1997531 0.02667,-0.018678 0.532802,-0.1860562 0.50391,-0.1685881 0.542008,-0.1735695 0.558735,-0.1458983 0.558737,-0.1458981 0.57135,-0.1170821 0.571349,-0.117082 0.579695,-0.087478 0.579692,-0.087478 0.619365,-0.068513 0.583992,-0.041477 0.547227,-0.032319 0.03676,-0.00916 0.581237,-0.011543 0.581236,-0.011543 0.540898,0.00952 0.569358,0.031365 0.569357,0.031366 0.556136,0.05933 0.556135,0.05933 0.538981,0.085888 0.538982,0.085888 0.51816,0.1107135 0.51816,0.1107148 0.02526,0.013289 0.468724,0.1202228 0.493984,0.1335118 0.46681,0.1540109 0.466811,0.1540112 0.437047,0.171976 0.437046,0.171976 0.405126,0.1872081 0.405129,0.1872079 0.371517,0.1995478 0.384696,0.214537 0.353156,0.204881 0.608303,0.413005 0.301212,0.215123 0.265528,0.218254 0.271993,0.231779 0.453912,0.423051 0.195683,0.215284 0.198434,0.226939 0.322287,0.407036 0.131164,0.20062 0.131067,0.209847 0.203079,0.377215 0.152414,0.343324 0.104486,0.319535 0.06442,0.284225 0.02733,0.339192 0.0096,0.406742 -0.05993,0.09754 0.259707,-0.335117 0.19494,-0.173041 0.347841,-0.273165 0.277337,-0.200472 0.184493,-0.108467 0.401083,-0.218514 0.473082,-0.226106 0.266586,-0.106566 0.257236,-0.09861 0.308396,-0.108367 0.629779,-0.191631 0.316965,-0.0829 0.01377,-0.0083 0.361169,-0.07908 0.345124,-0.07089 0.01604,-0.0082 0.389848,-0.06412 0.371542,-0.05626 0.402567,-0.05617 0.03205,0.0018 0.39579,-0.03919 0.878151,-0.05359 0.483612,-0.01068 0.436236,0.0015 0.0247,-0.0056 0.930099,0.04467 0.02659,-0.0045 0.458663,0.03652 0.497153,0.05858 0.497153,0.05859 0.505007,0.08626 0.02984,-0.0017 0.507474,0.101302 0.476354,0.101362 0.50865,0.11473 0.507972,0.14363 0.507974,0.14363 0.502926,0.172583 0.502928,0.172585 0.493526,0.201215 0.520224,0.221555 0.453149,0.208818 0.479843,0.229155 0.02468,0.02177 0.470889,0.243585 0.428475,0.246727 0.440247,0.281525 0.440247,0.281524 0.02006,0.02413 0.427166,0.294371 0.39985,0.317076 0.36837,0.301964 0.400797,0.352709 0.339107,0.320675 0.353996,0.346392 0.319429,0.363238 0.319432,0.363238 0.282648,0.377319 0.282648,0.377317 0.244109,0.388468 0.244106,0.388464 c 0,0 0.204297,0.396552 0.204297,0.396552 l 0.205492,0.422499 0.182817,0.399569 0.143421,0.37747 0.140652,0.428176 0.101288,0.402884 0.101287,0.402885 0.06106,0.399786 0.0912,0.77094 0.004,0.38967 -0.0061,0.410837 -0.01573,0.384449 -0.0396,0.352738 -0.06726,0.365956 0.0041,0.02627 -0.08456,0.357906 -0.199458,0.698858 -0.11375,0.315642 -0.128047,0.332253 -0.15717,0.336821 -0.16565,0.301003 -0.335191,0.568117 -0.19342,0.267724 -0.193422,0.267723 -0.217231,0.264932 -0.426056,0.461608 -0.428053,0.393937 -0.446314,0.364195 -0.459516,0.33029 -0.643674,0.376517 -0.404132,0.199396 -0.873803,0.331426 -0.361434,0.08617 -0.452982,0.07734 0.293297,0.04636 0.261808,0.04449 0.300004,0.09011 0.300003,0.09011 0.753885,0.321754 0.418333,0.223463 0.218026,0.134523 0.440928,0.292861 0.446544,0.34116 0.443809,0.390433 0.220162,0.207609 0.424851,0.464651 0.200464,0.256596 0.200463,0.256596 0.18437,0.280055 0.184368,0.280053 c 0,0 0.328592,0.604685 0.328592,0.604685 l 0.140456,0.323119 0.253566,0.665184 0.113113,0.342063 0.08258,0.358882 0.08258,0.35888 0.09847,0.746608 0.01347,0.385098 0.01347,0.3851 -0.02428,0.394074 -0.08781,0.794144 c 0,0 -0.06353,0.400069 -0.06353,0.400069 0,0 -0.103801,0.402974 -0.103801,0.402974 l -0.103801,0.402973 -0.144566,0.402713 -0.144566,0.402714 -0.185327,0.399265 -0.410889,0.79191 -0.22556,0.392646 -0.26476,0.382921 -0.26476,0.382923 -0.302428,0.370197 -0.302426,0.370198 -0.338087,0.354625 -0.338089,0.354625 -0.371293,0.336395 -0.371297,0.336396 -0.401635,0.315732 -0.401639,0.315732 -0.428744,0.292899 -0.428741,0.2929 -0.904573,0.53638 v 0 l -0.47199,0.241921 -0.471991,0.241921 -0.487635,0.214429 -0.487636,0.214428 -0.499056,0.186078 -0.499056,0.186076 -0.506152,0.157227 -0.506148,0.157228 -0.508876,0.128254 -0.508875,0.128256 -0.507249,0.09954 -0.50725,0.09954 -0.501349,0.07145 -0.501355,0.07144 -0.491327,0.04434 -0.491329,0.04434 -0.477372,0.01857 -0.937125,0.01301 -0.45975,-0.0055 -0.877513,-0.05545 -0.41475,-0.04766 -0.414751,-0.04766 -0.388133,-0.06513 -0.388133,-0.06513 -0.718659,-0.159834 v 0 l -0.328808,-0.09188 -0.625859,-0.192753 -0.297047,-0.100886 -0.264568,-0.106846 -0.264564,-0.106846 -0.23186,-0.109737 -0.431308,-0.219327 -0.367295,-0.216 -0.167842,-0.106421 -0.275067,-0.200705 -0.217995,-0.183046 -0.141679,-0.14647 -0.253533,-0.255953 0.03931,0.41239 -0.03351,0.246815 -0.07591,0.398511 -0.04241,0.151695 -0.128525,0.33683 -0.08931,0.183147 -0.08931,0.183147 -0.117209,0.195617 -0.264766,0.401207 -0.327489,0.418447 -0.3938,0.430108 -0.462745,0.435904 -0.248878,0.218654 -0.284469,0.216978 -0.284464,0.216982 -0.320117,0.212191 -0.320116,0.212195 -0.710622,0.408606 -0.389542,0.193366 -0.389544,0.193364 -0.422314,0.17947 -0.875463,0.342239 -0.453148,0.162767 -0.481587,0.143427 -0.481586,0.143429 -0.507217,0.121677 -1.03687,0.219445 -0.529651,0.09777 -0.548565,0.07198 -0.548563,0.07198 -1.12732,0.08927 -0.574708,0.01605 -0.574709,0.01605 -0.581535,-0.01338 -0.581533,-0.01338 -0.584017,-0.04334 -0.58402,-0.04334 -1.164209,-0.14685 v 0 L 25.273606,56.555523 24.697802,56.452253 24.132627,56.319752 23.567449,56.187251 23.017095,56.026495 22.46674,55.86574 21.935215,55.678062 21.40369,55.490385 20.894758,55.277443 20.385824,55.064505 19.90295,54.828272 19.420076,54.59204 l -0.453692,-0.257275 -0.453691,-0.257276 -0.421777,-0.275824 -0.421778,-0.275822 -0.387555,-0.29166 -0.387553,-0.291659 -0.351486,-0.304613 -0.351485,-0.304613 -0.628094,-0.6291 -0.275749,-0.321381 -0.275748,-0.321382 -0.237096,-0.325062 -0.435714,-0.650648 -0.198612,-0.325588 -0.160807,-0.323007 -0.284983,-0.640417 -0.124181,-0.317409 -0.08921,-0.308922 -0.08921,-0.308922 -0.112736,-0.595439 -0.02607,-0.284013 -0.02346,-0.82011 0.0254,-0.250103 0.07131,-0.480595 0.04591,-0.230487 0.06262,-0.209529 0.213295,-0.58467 0.167831,-0.329963 0.265116,-0.40364 0.249645,-0.292198 0.428936,-0.382268 -0.445391,0.129936 -0.423002,0.08468 -0.322829,0.05443 -0.655146,0.03896 -0.228807,0.01827 -0.525538,-0.0053 -0.576232,-0.03529 -0.311018,-0.03511 -0.642092,-0.08998 c 0,0 -0.0085,0.01133 -0.331075,-0.05487 C 9.9757138,43.037928 9.6024906,42.950909 9.6024906,42.950909 L 9.2412739,42.85079 8.9003312,42.751391 8.5341729,42.639754 8.138634,42.500665 7.7865912,42.365612 7.386263,42.198737 7.0087839,42.021105 6.6313061,41.843471 6.0921418,41.549117 5.8823246,41.434186 5.5151384,41.202563 5.1479544,40.970941 4.7923662,40.712747 4.436778,40.454552 4.0969943,40.170556 3.4516651,39.602988 3.1173717,39.26925 2.8331448,38.963517 2.5493262,38.621403 2.2655076,38.27929 2.0105845,37.916747 c 0,0 -0.2549243,-0.362542 -0.2549243,-0.362542 L 1.5106168,37.154125 1.3058474,36.764721 0.93354368,35.999833 0.78246991,35.590385 0.63302959,35.15274 0.50243276,34.737558 0.4115789,34.313867 0.33535984,33.915212 0.26357845,33.48859 0.23302237,33.058023 0.2024663,32.62746 c 0,0 0.008616,0.377577 0.009796,-0.02687 0.00118,-0.404446 0.0246431,-0.861774 0.0246431,-0.861774 l 0.0401395,-0.402853 c 0,0 0.0525319,-0.428868 0.0525319,-0.428868 0,0 0.0933442,-0.423253 0.0933442,-0.423253 0,0 0.0933441,-0.423256 0.0933441,-0.423256 0,0 0.0169717,-0.02375 0.0169717,-0.02375 0,0 0.11457643,-0.419016 0.11457643,-0.419016 0,0 0.15342831,-0.408722 0.15342831,-0.408722 l 0.15342714,-0.408724 c 0,0 0.19037402,-0.395551 0.19037402,-0.395551 0,0 0.1862033,-0.367568 0.1862033,-0.367568 l 0.2069221,-0.38843 0.2402717,-0.371374 0.00696,-0.02755 0.2568067,-0.36134 0.5178954,-0.686402 0.024407,-0.01571 0.2854969,-0.340781 0.3107147,-0.318297 0.2961992,-0.293281 c 0,0 0.3466905,-0.319203 0.3466905,-0.319203 l 0.3154534,-0.27039 0.7160295,-0.561431 0.3377089,-0.234138 0.3677634,-0.229958 0.020477,-0.02093 0.3720358,-0.215652 v 0 l 0.3720382,-0.215655 0.3528052,-0.183664 0.023982,-0.005 0.3535464,-0.171025 0.023239,-0.01757 0.3772218,-0.161759 0.3772241,-0.161756 0.3734367,-0.135467 0.3485753,-0.121499 0.3904167,-0.124066 0.3655552,-0.110092 0.3537742,-0.086 0.353774,-0.086 0.651586,-0.118531 0.329922,-0.05358 0.309679,-0.03397 0.620102,-0.05564 0.273357,-0.0085 0.520128,-0.0035 0.654142,0.04368 0.69409,0.09619 0.453003,0.10943 z"
       id="path41" />
  </g>
</svg>
