<?xml version="1.0" encoding="utf-8" standalone="no"?>
<!DOCTYPE svg PUBLIC "-//W3C//DTD SVG 1.1//EN"
  "http://www.w3.org/Graphics/SVG/1.1/DTD/svg11.dtd">
<svg xmlns:xlink="http://www.w3.org/1999/xlink" width="432pt" height="432pt" viewBox="0 0 432 432" xmlns="http://www.w3.org/2000/svg" version="1.1">
 <metadata>
  <rdf:RDF xmlns:dc="http://purl.org/dc/elements/1.1/" xmlns:cc="http://creativecommons.org/ns#" xmlns:rdf="http://www.w3.org/1999/02/22-rdf-syntax-ns#">
   <cc:Work>
    <dc:type rdf:resource="http://purl.org/dc/dcmitype/StillImage"/>
    <dc:date>2025-03-23T10:42:38.596000</dc:date>
    <dc:format>image/svg+xml</dc:format>
    <dc:creator>
     <cc:Agent>
      <dc:title>Matplotlib v3.9.2, https://matplotlib.org/</dc:title>
     </cc:Agent>
    </dc:creator>
   </cc:Work>
  </rdf:RDF>
 </metadata>
 <defs>
  <style type="text/css">*{stroke-linejoin: round; stroke-linecap: butt}</style>
 </defs>
 <g id="figure_1">
  <g id="patch_1">
   <path d="M 0 432 
L 432 432 
L 432 0 
L 0 0 
z
" style="fill: #ffffff"/>
  </g>
  <g id="axes_1">
   <g id="patch_2">
    <path d="M 54 384.48 
L 388.8 384.48 
L 388.8 51.84 
L 54 51.84 
z
" style="fill: #ffffff"/>
   </g>
   <g id="matplotlib.axis_1">
    <g id="xtick_1">
     <g id="line2d_1">
      <defs>
       <path id="mb87991692a" d="M 0 0 
L 0 3.5 
" style="stroke: #000000; stroke-width: 0.8"/>
      </defs>
      <g>
       <use xlink:href="#mb87991692a" x="97.852474" y="384.48" style="stroke: #000000; stroke-width: 0.8"/>
      </g>
     </g>
     <g id="text_1">
      <!-- −2 -->
      <g transform="translate(90.48138 399.078438) scale(0.1 -0.1)">
       <defs>
        <path id="DejaVuSans-2212" d="M 678 2272 
L 4684 2272 
L 4684 1741 
L 678 1741 
L 678 2272 
z
" transform="scale(0.015625)"/>
        <path id="DejaVuSans-32" d="M 1228 531 
L 3431 531 
L 3431 0 
L 469 0 
L 469 531 
Q 828 903 1448 1529 
Q 2069 2156 2228 2338 
Q 2531 2678 2651 2914 
Q 2772 3150 2772 3378 
Q 2772 3750 2511 3984 
Q 2250 4219 1831 4219 
Q 1534 4219 1204 4116 
Q 875 4013 500 3803 
L 500 4441 
Q 881 4594 1212 4672 
Q 1544 4750 1819 4750 
Q 2544 4750 2975 4387 
Q 3406 4025 3406 3419 
Q 3406 3131 3298 2873 
Q 3191 2616 2906 2266 
Q 2828 2175 2409 1742 
Q 1991 1309 1228 531 
z
" transform="scale(0.015625)"/>
       </defs>
       <use xlink:href="#DejaVuSans-2212"/>
       <use xlink:href="#DejaVuSans-32" x="83.789062"/>
      </g>
     </g>
    </g>
    <g id="xtick_2">
     <g id="line2d_2">
      <g>
       <use xlink:href="#mb87991692a" x="159.624909" y="384.48" style="stroke: #000000; stroke-width: 0.8"/>
      </g>
     </g>
     <g id="text_2">
      <!-- −1 -->
      <g transform="translate(152.253816 399.078438) scale(0.1 -0.1)">
       <defs>
        <path id="DejaVuSans-31" d="M 794 531 
L 1825 531 
L 1825 4091 
L 703 3866 
L 703 4441 
L 1819 4666 
L 2450 4666 
L 2450 531 
L 3481 531 
L 3481 0 
L 794 0 
L 794 531 
z
" transform="scale(0.015625)"/>
       </defs>
       <use xlink:href="#DejaVuSans-2212"/>
       <use xlink:href="#DejaVuSans-31" x="83.789062"/>
      </g>
     </g>
    </g>
    <g id="xtick_3">
     <g id="line2d_3">
      <g>
       <use xlink:href="#mb87991692a" x="221.397345" y="384.48" style="stroke: #000000; stroke-width: 0.8"/>
      </g>
     </g>
     <g id="text_3">
      <!-- 0 -->
      <g transform="translate(218.216095 399.078438) scale(0.1 -0.1)">
       <defs>
        <path id="DejaVuSans-30" d="M 2034 4250 
Q 1547 4250 1301 3770 
Q 1056 3291 1056 2328 
Q 1056 1369 1301 889 
Q 1547 409 2034 409 
Q 2525 409 2770 889 
Q 3016 1369 3016 2328 
Q 3016 3291 2770 3770 
Q 2525 4250 2034 4250 
z
M 2034 4750 
Q 2819 4750 3233 4129 
Q 3647 3509 3647 2328 
Q 3647 1150 3233 529 
Q 2819 -91 2034 -91 
Q 1250 -91 836 529 
Q 422 1150 422 2328 
Q 422 3509 836 4129 
Q 1250 4750 2034 4750 
z
" transform="scale(0.015625)"/>
       </defs>
       <use xlink:href="#DejaVuSans-30"/>
      </g>
     </g>
    </g>
    <g id="xtick_4">
     <g id="line2d_4">
      <g>
       <use xlink:href="#mb87991692a" x="283.16978" y="384.48" style="stroke: #000000; stroke-width: 0.8"/>
      </g>
     </g>
     <g id="text_4">
      <!-- 1 -->
      <g transform="translate(279.98853 399.078438) scale(0.1 -0.1)">
       <use xlink:href="#DejaVuSans-31"/>
      </g>
     </g>
    </g>
    <g id="xtick_5">
     <g id="line2d_5">
      <g>
       <use xlink:href="#mb87991692a" x="344.942215" y="384.48" style="stroke: #000000; stroke-width: 0.8"/>
      </g>
     </g>
     <g id="text_5">
      <!-- 2 -->
      <g transform="translate(341.760965 399.078438) scale(0.1 -0.1)">
       <use xlink:href="#DejaVuSans-32"/>
      </g>
     </g>
    </g>
   </g>
   <g id="matplotlib.axis_2">
    <g id="ytick_1">
     <g id="line2d_6">
      <defs>
       <path id="m69a92eb255" d="M 0 0 
L -3.5 0 
" style="stroke: #000000; stroke-width: 0.8"/>
      </defs>
      <g>
       <use xlink:href="#m69a92eb255" x="54" y="331.563933" style="stroke: #000000; stroke-width: 0.8"/>
      </g>
     </g>
     <g id="text_6">
      <!-- −2 -->
      <g transform="translate(32.257812 335.363152) scale(0.1 -0.1)">
       <use xlink:href="#DejaVuSans-2212"/>
       <use xlink:href="#DejaVuSans-32" x="83.789062"/>
      </g>
     </g>
    </g>
    <g id="ytick_2">
     <g id="line2d_7">
      <g>
       <use xlink:href="#m69a92eb255" x="54" y="274.861966" style="stroke: #000000; stroke-width: 0.8"/>
      </g>
     </g>
     <g id="text_7">
      <!-- −1 -->
      <g transform="translate(32.257812 278.661185) scale(0.1 -0.1)">
       <use xlink:href="#DejaVuSans-2212"/>
       <use xlink:href="#DejaVuSans-31" x="83.789062"/>
      </g>
     </g>
    </g>
    <g id="ytick_3">
     <g id="line2d_8">
      <g>
       <use xlink:href="#m69a92eb255" x="54" y="218.16" style="stroke: #000000; stroke-width: 0.8"/>
      </g>
     </g>
     <g id="text_8">
      <!-- 0 -->
      <g transform="translate(40.6375 221.959219) scale(0.1 -0.1)">
       <use xlink:href="#DejaVuSans-30"/>
      </g>
     </g>
    </g>
    <g id="ytick_4">
     <g id="line2d_9">
      <g>
       <use xlink:href="#m69a92eb255" x="54" y="161.458034" style="stroke: #000000; stroke-width: 0.8"/>
      </g>
     </g>
     <g id="text_9">
      <!-- 1 -->
      <g transform="translate(40.6375 165.257252) scale(0.1 -0.1)">
       <use xlink:href="#DejaVuSans-31"/>
      </g>
     </g>
    </g>
    <g id="ytick_5">
     <g id="line2d_10">
      <g>
       <use xlink:href="#m69a92eb255" x="54" y="104.756067" style="stroke: #000000; stroke-width: 0.8"/>
      </g>
     </g>
     <g id="text_10">
      <!-- 2 -->
      <g transform="translate(40.6375 108.555286) scale(0.1 -0.1)">
       <use xlink:href="#DejaVuSans-32"/>
      </g>
     </g>
    </g>
   </g>
   <g id="line2d_11">
    <path d="M 344.942215 218.16 
L 346.025964 218.025622 
L 347.343975 217.710058 
L 349.121866 217.105257 
L 351.294831 216.129204 
L 353.783058 214.711645 
L 356.49421 212.796331 
L 359.326297 210.342827 
L 362.170848 207.327821 
L 363.562956 205.60736 
L 364.916287 203.745919 
L 366.216978 201.745661 
L 367.451407 199.609867 
L 368.6063 197.342908 
L 369.668832 194.950222 
L 370.626728 192.438266 
L 371.468361 189.814469 
L 372.18284 187.087181 
L 372.760099 184.265605 
L 373.19097 181.35973 
L 373.467262 178.380252 
L 373.581818 175.3385 
L 373.528579 172.246341 
L 373.302625 169.116096 
L 372.900219 165.960445 
L 372.318833 162.792328 
L 371.557173 159.624849 
L 370.615185 156.471174 
L 369.494061 153.344433 
L 368.196226 150.257619 
L 366.725324 147.223486 
L 365.086191 144.254457 
L 363.284813 141.362524 
L 361.328288 138.559162 
L 359.224768 135.855236 
L 356.983395 133.260923 
L 354.614235 130.785633 
L 352.128201 128.437936 
L 349.536966 126.2255 
L 346.852875 124.155032 
L 344.088852 122.232228 
L 341.2583 120.461726 
L 338.374998 118.847081 
L 335.452994 117.390731 
L 332.506501 116.09398 
L 329.549784 114.956995 
L 326.597052 113.978802 
L 323.66235 113.157295 
L 320.75945 112.489255 
L 317.901749 111.970379 
L 315.102158 111.595309 
L 312.373015 111.357679 
L 309.72598 111.250168 
L 307.171952 111.264553 
L 302.382213 111.622022 
L 298.072753 112.348958 
L 294.295747 113.354642 
L 291.085019 114.541616 
L 288.455052 115.80875 
L 286.400589 117.054414 
L 284.896852 118.179669 
L 283.573982 119.440346 
L 283.170742 119.947804 
L 283.3981 119.490496 
L 283.916163 117.93505 
L 284.242295 116.261698 
L 284.424757 114.087096 
L 284.356933 111.438105 
L 283.938882 108.358633 
L 283.080504 104.908307 
L 281.704396 101.160636 
L 280.802093 99.201519 
L 279.748319 97.200764 
L 278.53799 95.170402 
L 277.167192 93.122845 
L 275.633211 91.070796 
L 273.934557 89.027144 
L 272.070979 87.00487 
L 270.043466 85.016945 
L 267.854246 83.076228 
L 265.506765 81.195369 
L 263.005668 79.386709 
L 260.356763 77.662185 
L 257.566976 76.033241 
L 254.644302 74.510734 
L 251.597743 73.104854 
L 248.437245 71.825044 
L 245.173616 70.679926 
L 241.81845 69.677236 
L 238.384034 68.823762 
L 234.883261 68.125293 
L 231.329527 67.586575 
L 227.736631 67.211272 
L 224.118672 67.001938 
L 220.489936 66.96 
L 216.864795 67.085743 
L 213.257591 67.378311 
L 209.68253 67.83571 
L 206.153574 68.45483 
L 202.684334 69.231461 
L 199.287967 70.16033 
L 195.977075 71.235143 
L 192.763609 72.448631 
L 189.658782 73.792607 
L 186.67298 75.258029 
L 183.815685 76.835072 
L 181.095405 78.513202 
L 178.519607 80.281257 
L 176.094664 82.127537 
L 173.825807 84.039889 
L 171.717085 86.005807 
L 169.771339 88.012523 
L 167.990176 90.04711 
L 166.373968 92.09658 
L 164.921842 94.147985 
L 163.631693 96.188516 
L 162.500205 98.205605 
L 161.522873 100.187017 
L 160.006968 103.996119 
L 159.025861 107.528169 
L 158.505725 110.706521 
L 158.359381 113.46789 
L 158.489062 115.764292 
L 158.789512 117.564507 
L 159.320727 119.309868 
L 159.621175 119.943219 
L 159.344757 119.583817 
L 158.192422 118.431084 
L 156.820278 117.350777 
L 154.906568 116.126114 
L 152.421741 114.854871 
L 149.355615 113.638301 
L 145.71775 112.577961 
L 141.537207 111.772519 
L 139.257647 111.494663 
L 136.861696 111.314657 
L 134.357999 111.242671 
L 131.756156 111.288153 
L 129.066655 111.45975 
L 126.300786 111.765243 
L 123.470559 112.211482 
L 120.588612 112.804336 
L 117.668111 113.548638 
L 114.722653 114.448155 
L 111.76616 115.505551 
L 108.812772 116.722368 
L 105.876742 118.099011 
L 102.97232 119.634743 
L 100.113651 121.327691 
L 97.314663 123.174857 
L 94.588958 125.17214 
L 91.949713 127.314368 
L 89.409575 129.595334 
L 86.980564 132.007844 
L 84.673985 134.543771 
L 82.500336 137.194116 
L 80.469231 139.949077 
L 78.589325 142.798123 
L 76.868251 145.730073 
L 75.312556 148.733182 
L 73.927657 151.795231 
L 72.717797 154.90362 
L 71.686015 158.045463 
L 70.83412 161.207686 
L 70.162681 164.377128 
L 69.671025 167.540643 
L 69.357237 170.685194 
L 69.218182 173.797961 
L 69.249528 176.86643 
L 69.445779 179.878497 
L 69.800321 182.822552 
L 70.305472 185.687573 
L 70.952545 188.463206 
L 71.731913 191.139846 
L 72.633087 193.708711 
L 73.644797 196.161901 
L 74.75508 198.492468 
L 75.951375 200.694458 
L 77.220619 202.762963 
L 78.54935 204.694153 
L 79.923813 206.485304 
L 82.754092 209.642237 
L 85.599643 212.234622 
L 88.3509 214.281343 
L 90.903943 215.818657 
L 93.163741 216.899013 
L 95.047101 217.589355 
L 97.020375 218.069843 
L 97.835338 218.160264 
L 97.426007 218.192934 
L 95.825502 218.507361 
L 94.15714 219.031759 
L 92.076007 219.907913 
L 89.658382 221.20924 
L 86.993725 222.99568 
L 84.181899 225.311765 
L 81.330067 228.185181 
L 79.923813 229.834696 
L 78.54935 231.625847 
L 77.220619 233.557037 
L 75.951375 235.625542 
L 74.75508 237.827532 
L 73.644797 240.158099 
L 72.633087 242.611289 
L 71.731913 245.180154 
L 70.952545 247.856794 
L 70.305472 250.632427 
L 69.800321 253.497448 
L 69.445779 256.441503 
L 69.249528 259.45357 
L 69.218182 262.522039 
L 69.357237 265.634806 
L 69.671025 268.779357 
L 70.162681 271.942872 
L 70.83412 275.112314 
L 71.686015 278.274537 
L 72.717797 281.41638 
L 73.927657 284.524769 
L 75.312556 287.586818 
L 76.868251 290.589927 
L 78.589325 293.521877 
L 80.469231 296.370923 
L 82.500336 299.125884 
L 84.673985 301.776229 
L 86.980564 304.312156 
L 89.409575 306.724666 
L 91.949713 309.005632 
L 94.588958 311.14786 
L 97.314663 313.145143 
L 100.113651 314.992309 
L 102.97232 316.685257 
L 105.876742 318.220989 
L 108.812772 319.597632 
L 111.76616 320.814449 
L 114.722653 321.871845 
L 117.668111 322.771362 
L 120.588612 323.515664 
L 123.470559 324.108518 
L 126.300786 324.554757 
L 129.066655 324.86025 
L 131.756156 325.031847 
L 134.357999 325.077329 
L 139.257647 324.825337 
L 143.692754 324.18259 
L 147.606784 323.237669 
L 150.961206 322.086626 
L 153.736642 320.829969 
L 155.933411 319.569503 
L 157.571465 318.405135 
L 159.070951 317.044193 
L 159.621175 316.376781 
L 159.464317 316.679579 
L 158.969649 318.046385 
L 158.624723 319.592311 
L 158.396159 321.64343 
L 158.391726 324.177294 
L 158.713337 327.154149 
L 159.453836 330.518147 
L 160.694046 334.199051 
L 161.522873 336.132983 
L 162.500205 338.114395 
L 163.631693 340.131484 
L 164.921842 342.172015 
L 166.373968 344.22342 
L 167.990176 346.27289 
L 169.771339 348.307477 
L 171.717085 350.314193 
L 173.825807 352.280111 
L 176.094664 354.192463 
L 178.519607 356.038743 
L 181.095405 357.806798 
L 183.815685 359.484928 
L 186.67298 361.061971 
L 189.658782 362.527393 
L 192.763609 363.871369 
L 195.977075 365.084857 
L 199.287967 366.15967 
L 202.684334 367.088539 
L 206.153574 367.86517 
L 209.68253 368.48429 
L 213.257591 368.941689 
L 216.864795 369.234257 
L 220.489936 369.36 
L 224.118672 369.318062 
L 227.736631 369.108728 
L 231.329527 368.733425 
L 234.883261 368.194707 
L 238.384034 367.496238 
L 241.81845 366.642764 
L 245.173616 365.640074 
L 248.437245 364.494956 
L 251.597743 363.215146 
L 254.644302 361.809266 
L 257.566976 360.286759 
L 260.356763 358.657815 
L 263.005668 356.933291 
L 265.506765 355.124631 
L 267.854246 353.243772 
L 270.043466 351.303055 
L 272.070979 349.31513 
L 273.934557 347.292856 
L 275.633211 345.249204 
L 277.167192 343.197155 
L 278.53799 341.149598 
L 279.748319 339.119236 
L 280.802093 337.118481 
L 282.461437 333.253439 
L 283.5699 329.644467 
L 284.197583 326.371198 
L 284.428572 323.500459 
L 284.358266 321.084213 
L 284.090354 319.157982 
L 283.556288 317.221851 
L 283.170742 316.372196 
L 283.35037 316.614898 
L 284.338616 317.652271 
L 285.582172 318.681915 
L 287.35698 319.87945 
L 289.697306 321.148459 
L 292.618232 322.388261 
L 296.115135 323.497075 
L 300.163773 324.375216 
L 304.720986 324.928223 
L 307.171952 325.055447 
L 309.72598 325.069832 
L 312.373015 324.962321 
L 315.102158 324.724691 
L 317.901749 324.349621 
L 320.75945 323.830745 
L 323.66235 323.162705 
L 326.597052 322.341198 
L 329.549784 321.363005 
L 332.506501 320.22602 
L 335.452994 318.929269 
L 338.374998 317.472919 
L 341.2583 315.858274 
L 344.088852 314.087772 
L 346.852875 312.164968 
L 349.536966 310.0945 
L 352.128201 307.882064 
L 354.614235 305.534367 
L 356.983395 303.059077 
L 359.224768 300.464764 
L 361.328288 297.760838 
L 363.284813 294.957476 
L 365.086191 292.065543 
L 366.725324 289.096514 
L 368.196226 286.062381 
L 369.494061 282.975567 
L 370.615185 279.848826 
L 371.557173 276.695151 
L 372.318833 273.527672 
L 372.900219 270.359555 
L 373.302625 267.203904 
L 373.528579 264.073659 
L 373.581818 260.9815 
L 373.467262 257.939748 
L 373.19097 254.96027 
L 372.760099 252.054395 
L 372.18284 249.232819 
L 371.468361 246.505531 
L 370.626728 243.881734 
L 369.668832 241.369778 
L 368.6063 238.977092 
L 367.451407 236.710133 
L 366.216978 234.574339 
L 364.916287 232.574081 
L 363.562956 230.71264 
L 360.753955 227.413726 
L 357.901803 224.681277 
L 355.116953 222.500877 
L 352.505047 220.84052 
L 350.163628 219.651668 
L 348.179108 218.870815 
L 346.025964 218.294378 
L 344.942215 218.16 
L 344.942215 218.16 
" clip-path="url(#p0011bdead5)" style="fill: none; stroke: #1f77b4; stroke-width: 1.5; stroke-linecap: square"/>
   </g>
   <g id="patch_3">
    <path d="M 54 384.48 
L 54 51.84 
" style="fill: none; stroke: #000000; stroke-width: 0.8; stroke-linejoin: miter; stroke-linecap: square"/>
   </g>
   <g id="patch_4">
    <path d="M 388.8 384.48 
L 388.8 51.84 
" style="fill: none; stroke: #000000; stroke-width: 0.8; stroke-linejoin: miter; stroke-linecap: square"/>
   </g>
   <g id="patch_5">
    <path d="M 54 384.48 
L 388.8 384.48 
" style="fill: none; stroke: #000000; stroke-width: 0.8; stroke-linejoin: miter; stroke-linecap: square"/>
   </g>
   <g id="patch_6">
    <path d="M 54 51.84 
L 388.8 51.84 
" style="fill: none; stroke: #000000; stroke-width: 0.8; stroke-linejoin: miter; stroke-linecap: square"/>
   </g>
  </g>
 </g>
 <defs>
  <clipPath id="p0011bdead5">
   <rect x="54" y="51.84" width="334.8" height="332.64"/>
  </clipPath>
 </defs>
</svg>
