<?xml version="1.0" encoding="utf-8" standalone="no"?>
<!DOCTYPE svg PUBLIC "-//W3C//DTD SVG 1.1//EN"
  "http://www.w3.org/Graphics/SVG/1.1/DTD/svg11.dtd">
<svg xmlns:xlink="http://www.w3.org/1999/xlink" width="432pt" height="432pt" viewBox="0 0 432 432" xmlns="http://www.w3.org/2000/svg" version="1.1">
 <metadata>
  <rdf:RDF xmlns:dc="http://purl.org/dc/elements/1.1/" xmlns:cc="http://creativecommons.org/ns#" xmlns:rdf="http://www.w3.org/1999/02/22-rdf-syntax-ns#">
   <cc:Work>
    <dc:type rdf:resource="http://purl.org/dc/dcmitype/StillImage"/>
    <dc:date>2025-03-23T10:44:16.223841</dc:date>
    <dc:format>image/svg+xml</dc:format>
    <dc:creator>
     <cc:Agent>
      <dc:title>Matplotlib v3.9.2, https://matplotlib.org/</dc:title>
     </cc:Agent>
    </dc:creator>
   </cc:Work>
  </rdf:RDF>
 </metadata>
 <defs>
  <style type="text/css">*{stroke-linejoin: round; stroke-linecap: butt}</style>
 </defs>
 <g id="figure_1">
  <g id="patch_1">
   <path d="M 0 432 
L 432 432 
L 432 0 
L 0 0 
z
" style="fill: #ffffff"/>
  </g>
  <g id="axes_1">
   <g id="patch_2">
    <path d="M 54 384.48 
L 388.8 384.48 
L 388.8 51.84 
L 54 51.84 
z
" style="fill: #ffffff"/>
   </g>
   <g id="matplotlib.axis_1">
    <g id="xtick_1">
     <g id="line2d_1">
      <defs>
       <path id="m55edaccb19" d="M 0 0 
L 0 3.5 
" style="stroke: #000000; stroke-width: 0.8"/>
      </defs>
      <g>
       <use xlink:href="#m55edaccb19" x="57.761688" y="384.48" style="stroke: #000000; stroke-width: 0.8"/>
      </g>
     </g>
     <g id="text_1">
      <!-- −3 -->
      <g transform="translate(50.390594 399.078438) scale(0.1 -0.1)">
       <defs>
        <path id="DejaVuSans-2212" d="M 678 2272 
L 4684 2272 
L 4684 1741 
L 678 1741 
L 678 2272 
z
" transform="scale(0.015625)"/>
        <path id="DejaVuSans-33" d="M 2597 2516 
Q 3050 2419 3304 2112 
Q 3559 1806 3559 1356 
Q 3559 666 3084 287 
Q 2609 -91 1734 -91 
Q 1441 -91 1130 -33 
Q 819 25 488 141 
L 488 750 
Q 750 597 1062 519 
Q 1375 441 1716 441 
Q 2309 441 2620 675 
Q 2931 909 2931 1356 
Q 2931 1769 2642 2001 
Q 2353 2234 1838 2234 
L 1294 2234 
L 1294 2753 
L 1863 2753 
Q 2328 2753 2575 2939 
Q 2822 3125 2822 3475 
Q 2822 3834 2567 4026 
Q 2313 4219 1838 4219 
Q 1578 4219 1281 4162 
Q 984 4106 628 3988 
L 628 4550 
Q 988 4650 1302 4700 
Q 1616 4750 1894 4750 
Q 2613 4750 3031 4423 
Q 3450 4097 3450 3541 
Q 3450 3153 3228 2886 
Q 3006 2619 2597 2516 
z
" transform="scale(0.015625)"/>
       </defs>
       <use xlink:href="#DejaVuSans-2212"/>
       <use xlink:href="#DejaVuSans-33" x="83.789062"/>
      </g>
     </g>
    </g>
    <g id="xtick_2">
     <g id="line2d_2">
      <g>
       <use xlink:href="#m55edaccb19" x="114.948966" y="384.48" style="stroke: #000000; stroke-width: 0.8"/>
      </g>
     </g>
     <g id="text_2">
      <!-- −2 -->
      <g transform="translate(107.577872 399.078438) scale(0.1 -0.1)">
       <defs>
        <path id="DejaVuSans-32" d="M 1228 531 
L 3431 531 
L 3431 0 
L 469 0 
L 469 531 
Q 828 903 1448 1529 
Q 2069 2156 2228 2338 
Q 2531 2678 2651 2914 
Q 2772 3150 2772 3378 
Q 2772 3750 2511 3984 
Q 2250 4219 1831 4219 
Q 1534 4219 1204 4116 
Q 875 4013 500 3803 
L 500 4441 
Q 881 4594 1212 4672 
Q 1544 4750 1819 4750 
Q 2544 4750 2975 4387 
Q 3406 4025 3406 3419 
Q 3406 3131 3298 2873 
Q 3191 2616 2906 2266 
Q 2828 2175 2409 1742 
Q 1991 1309 1228 531 
z
" transform="scale(0.015625)"/>
       </defs>
       <use xlink:href="#DejaVuSans-2212"/>
       <use xlink:href="#DejaVuSans-32" x="83.789062"/>
      </g>
     </g>
    </g>
    <g id="xtick_3">
     <g id="line2d_3">
      <g>
       <use xlink:href="#m55edaccb19" x="172.136244" y="384.48" style="stroke: #000000; stroke-width: 0.8"/>
      </g>
     </g>
     <g id="text_3">
      <!-- −1 -->
      <g transform="translate(164.76515 399.078438) scale(0.1 -0.1)">
       <defs>
        <path id="DejaVuSans-31" d="M 794 531 
L 1825 531 
L 1825 4091 
L 703 3866 
L 703 4441 
L 1819 4666 
L 2450 4666 
L 2450 531 
L 3481 531 
L 3481 0 
L 794 0 
L 794 531 
z
" transform="scale(0.015625)"/>
       </defs>
       <use xlink:href="#DejaVuSans-2212"/>
       <use xlink:href="#DejaVuSans-31" x="83.789062"/>
      </g>
     </g>
    </g>
    <g id="xtick_4">
     <g id="line2d_4">
      <g>
       <use xlink:href="#m55edaccb19" x="229.323522" y="384.48" style="stroke: #000000; stroke-width: 0.8"/>
      </g>
     </g>
     <g id="text_4">
      <!-- 0 -->
      <g transform="translate(226.142272 399.078438) scale(0.1 -0.1)">
       <defs>
        <path id="DejaVuSans-30" d="M 2034 4250 
Q 1547 4250 1301 3770 
Q 1056 3291 1056 2328 
Q 1056 1369 1301 889 
Q 1547 409 2034 409 
Q 2525 409 2770 889 
Q 3016 1369 3016 2328 
Q 3016 3291 2770 3770 
Q 2525 4250 2034 4250 
z
M 2034 4750 
Q 2819 4750 3233 4129 
Q 3647 3509 3647 2328 
Q 3647 1150 3233 529 
Q 2819 -91 2034 -91 
Q 1250 -91 836 529 
Q 422 1150 422 2328 
Q 422 3509 836 4129 
Q 1250 4750 2034 4750 
z
" transform="scale(0.015625)"/>
       </defs>
       <use xlink:href="#DejaVuSans-30"/>
      </g>
     </g>
    </g>
    <g id="xtick_5">
     <g id="line2d_5">
      <g>
       <use xlink:href="#m55edaccb19" x="286.5108" y="384.48" style="stroke: #000000; stroke-width: 0.8"/>
      </g>
     </g>
     <g id="text_5">
      <!-- 1 -->
      <g transform="translate(283.32955 399.078438) scale(0.1 -0.1)">
       <use xlink:href="#DejaVuSans-31"/>
      </g>
     </g>
    </g>
    <g id="xtick_6">
     <g id="line2d_6">
      <g>
       <use xlink:href="#m55edaccb19" x="343.698078" y="384.48" style="stroke: #000000; stroke-width: 0.8"/>
      </g>
     </g>
     <g id="text_6">
      <!-- 2 -->
      <g transform="translate(340.516828 399.078438) scale(0.1 -0.1)">
       <use xlink:href="#DejaVuSans-32"/>
      </g>
     </g>
    </g>
   </g>
   <g id="matplotlib.axis_2">
    <g id="ytick_1">
     <g id="line2d_7">
      <defs>
       <path id="m2e38754e40" d="M 0 0 
L -3.5 0 
" style="stroke: #000000; stroke-width: 0.8"/>
      </defs>
      <g>
       <use xlink:href="#m2e38754e40" x="54" y="384.340679" style="stroke: #000000; stroke-width: 0.8"/>
      </g>
     </g>
     <g id="text_7">
      <!-- −3 -->
      <g transform="translate(32.257812 388.139897) scale(0.1 -0.1)">
       <use xlink:href="#DejaVuSans-2212"/>
       <use xlink:href="#DejaVuSans-33" x="83.789062"/>
      </g>
     </g>
    </g>
    <g id="ytick_2">
     <g id="line2d_8">
      <g>
       <use xlink:href="#m2e38754e40" x="54" y="328.947119" style="stroke: #000000; stroke-width: 0.8"/>
      </g>
     </g>
     <g id="text_8">
      <!-- −2 -->
      <g transform="translate(32.257812 332.746338) scale(0.1 -0.1)">
       <use xlink:href="#DejaVuSans-2212"/>
       <use xlink:href="#DejaVuSans-32" x="83.789062"/>
      </g>
     </g>
    </g>
    <g id="ytick_3">
     <g id="line2d_9">
      <g>
       <use xlink:href="#m2e38754e40" x="54" y="273.55356" style="stroke: #000000; stroke-width: 0.8"/>
      </g>
     </g>
     <g id="text_9">
      <!-- −1 -->
      <g transform="translate(32.257812 277.352778) scale(0.1 -0.1)">
       <use xlink:href="#DejaVuSans-2212"/>
       <use xlink:href="#DejaVuSans-31" x="83.789062"/>
      </g>
     </g>
    </g>
    <g id="ytick_4">
     <g id="line2d_10">
      <g>
       <use xlink:href="#m2e38754e40" x="54" y="218.16" style="stroke: #000000; stroke-width: 0.8"/>
      </g>
     </g>
     <g id="text_10">
      <!-- 0 -->
      <g transform="translate(40.6375 221.959219) scale(0.1 -0.1)">
       <use xlink:href="#DejaVuSans-30"/>
      </g>
     </g>
    </g>
    <g id="ytick_5">
     <g id="line2d_11">
      <g>
       <use xlink:href="#m2e38754e40" x="54" y="162.76644" style="stroke: #000000; stroke-width: 0.8"/>
      </g>
     </g>
     <g id="text_11">
      <!-- 1 -->
      <g transform="translate(40.6375 166.565659) scale(0.1 -0.1)">
       <use xlink:href="#DejaVuSans-31"/>
      </g>
     </g>
    </g>
    <g id="ytick_6">
     <g id="line2d_12">
      <g>
       <use xlink:href="#m2e38754e40" x="54" y="107.372881" style="stroke: #000000; stroke-width: 0.8"/>
      </g>
     </g>
     <g id="text_12">
      <!-- 2 -->
      <g transform="translate(40.6375 111.1721) scale(0.1 -0.1)">
       <use xlink:href="#DejaVuSans-32"/>
      </g>
     </g>
    </g>
    <g id="ytick_7">
     <g id="line2d_13">
      <g>
       <use xlink:href="#m2e38754e40" x="54" y="51.979321" style="stroke: #000000; stroke-width: 0.8"/>
      </g>
     </g>
     <g id="text_13">
      <!-- 3 -->
      <g transform="translate(40.6375 55.77854) scale(0.1 -0.1)">
       <use xlink:href="#DejaVuSans-33"/>
      </g>
     </g>
    </g>
   </g>
   <g id="line2d_14">
    <path d="M 343.698078 218.16 
L 344.560611 218.06138 
L 346.290226 217.636551 
L 347.904917 217.057888 
L 349.838464 216.171296 
L 352.037192 214.923401 
L 354.439472 213.269316 
L 356.977134 211.173718 
L 359.57703 208.611694 
L 362.16271 205.569356 
L 364.656173 202.044205 
L 366.97966 198.04523 
L 368.053868 195.873977 
L 369.057437 193.592754 
L 369.981501 191.205803 
L 370.817535 188.718008 
L 371.557404 186.134869 
L 372.193407 183.462472 
L 372.718325 180.707454 
L 373.125461 177.876968 
L 373.408676 174.978646 
L 373.562433 172.02055 
L 373.581818 169.011134 
L 373.462579 165.959196 
L 373.201143 162.873824 
L 372.794643 159.764353 
L 372.24093 156.640306 
L 371.538591 153.511348 
L 370.686953 150.387225 
L 369.686091 147.277716 
L 368.536827 144.192572 
L 367.240726 141.141469 
L 365.800088 138.133948 
L 364.217936 135.179366 
L 362.497998 132.286839 
L 360.644691 129.465197 
L 358.66309 126.722931 
L 356.558906 124.068147 
L 354.33845 121.50852 
L 352.008601 119.051253 
L 349.576767 116.703036 
L 347.05084 114.47001 
L 344.439158 112.35773 
L 341.750454 110.371139 
L 338.993809 108.514538 
L 336.178601 106.791564 
L 333.314449 105.205168 
L 330.411168 103.757602 
L 327.478704 102.450407 
L 324.527083 101.284402 
L 321.566357 100.259686 
L 318.606543 99.375631 
L 315.657571 98.630896 
L 312.729225 98.023426 
L 309.83109 97.550471 
L 306.972501 97.208603 
L 304.162484 96.993731 
L 301.409714 96.90113 
L 298.72246 96.925469 
L 293.575293 97.300792 
L 288.777392 98.066167 
L 284.37606 99.160673 
L 280.408452 100.517415 
L 276.900768 102.065077 
L 273.867699 103.729569 
L 271.312132 105.435746 
L 269.225126 107.109136 
L 267.586157 108.677667 
L 265.895825 110.686574 
L 264.991025 112.103576 
L 264.667864 112.79318 
L 264.788687 112.269352 
L 264.941188 110.797756 
L 264.933186 109.293853 
L 264.750261 107.390834 
L 264.321514 105.117454 
L 263.581292 102.512738 
L 262.470731 99.62511 
L 260.939148 96.511288 
L 258.945238 93.235002 
L 256.458071 89.865545 
L 253.457841 86.476197 
L 249.936365 83.14256 
L 247.980846 81.520469 
L 245.897323 79.940831 
L 243.688103 78.412979 
L 241.356216 76.94607 
L 238.905396 75.549025 
L 236.340065 74.230487 
L 233.665309 72.998766 
L 230.886846 71.861793 
L 228.011002 70.827077 
L 225.044668 69.901657 
L 221.995272 69.092065 
L 218.870728 68.404289 
L 215.679401 67.843737 
L 212.430055 67.415205 
L 209.131808 67.122855 
L 205.794078 66.970181 
L 202.426534 66.96 
L 199.039041 67.094427 
L 195.641606 67.374867 
L 192.244321 67.802005 
L 188.857306 68.375802 
L 185.490658 69.095497 
L 182.154387 69.959607 
L 178.858369 70.965937 
L 175.612282 72.111594 
L 172.42556 73.392998 
L 169.307337 74.805909 
L 166.266395 76.345443 
L 163.31112 78.006107 
L 160.449451 79.781824 
L 157.688838 81.665967 
L 155.036201 83.651404 
L 152.497891 85.730527 
L 150.079657 87.895303 
L 147.786613 90.137316 
L 145.62321 92.447815 
L 143.593212 94.817765 
L 141.69968 97.237892 
L 139.944947 99.698743 
L 138.330617 102.190733 
L 136.857547 104.704205 
L 135.52585 107.229478 
L 134.334895 109.756904 
L 133.283308 112.276925 
L 132.368985 114.780124 
L 131.589104 117.257277 
L 130.940142 119.699407 
L 130.017515 124.444224 
L 129.559817 128.949552 
L 129.516307 133.157336 
L 129.827985 137.017775 
L 130.428974 140.490435 
L 131.248058 143.545134 
L 132.210344 146.162604 
L 133.239001 148.334895 
L 134.257046 150.065524 
L 135.600278 151.868897 
L 136.785461 153.03609 
L 136.250322 152.734322 
L 134.788136 152.126007 
L 133.264512 151.669077 
L 131.295061 151.257403 
L 128.887286 150.965095 
L 126.060372 150.864436 
L 122.844774 151.024189 
L 119.28154 151.507991 
L 115.421403 152.372859 
L 111.323636 153.667851 
L 107.054726 155.432896 
L 102.686872 157.697851 
L 100.489568 159.024185 
L 98.29636 160.481768 
L 96.117139 162.071214 
L 93.961834 163.792417 
L 91.84035 165.644551 
L 89.762521 167.626068 
L 87.738045 169.734711 
L 85.776437 171.967524 
L 83.88697 174.320864 
L 82.078622 176.790425 
L 80.36003 179.371259 
L 78.739437 182.057804 
L 77.224645 184.843911 
L 75.822971 187.72288 
L 74.541211 190.6875 
L 73.385591 193.730081 
L 72.36174 196.842503 
L 71.474657 200.016258 
L 70.728678 203.242499 
L 70.127455 206.512085 
L 69.673938 209.815637 
L 69.37035 213.143585 
L 69.218182 216.486226 
L 69.218182 219.833774 
L 69.37035 223.176415 
L 69.673938 226.504363 
L 70.127455 229.807915 
L 70.728678 233.077501 
L 71.474657 236.303742 
L 72.36174 239.477497 
L 73.385591 242.589919 
L 74.541211 245.6325 
L 75.822971 248.59712 
L 77.224645 251.476089 
L 78.739437 254.262196 
L 80.36003 256.948741 
L 82.078622 259.529575 
L 83.88697 261.999136 
L 85.776437 264.352476 
L 87.738045 266.585289 
L 89.762521 268.693932 
L 91.84035 270.675449 
L 93.961834 272.527583 
L 96.117139 274.248786 
L 98.29636 275.838232 
L 100.489568 277.295815 
L 104.878475 279.818566 
L 109.206176 281.830495 
L 113.39822 283.356132 
L 117.385065 284.430475 
L 121.103655 285.098152 
L 124.498831 285.412355 
L 127.524575 285.43359 
L 130.145035 285.228252 
L 132.335323 284.867072 
L 134.788136 284.193993 
L 136.526919 283.439572 
L 136.785461 283.28391 
L 136.512665 283.509582 
L 135.600278 284.451103 
L 134.257046 286.254476 
L 133.239001 287.985105 
L 132.210344 290.157396 
L 131.248058 292.774866 
L 130.428974 295.829565 
L 129.827985 299.302225 
L 129.516307 303.162664 
L 129.559817 307.370448 
L 130.017515 311.875776 
L 130.417898 314.222166 
L 130.940142 316.620593 
L 131.589104 319.062723 
L 132.368985 321.539876 
L 133.283308 324.043075 
L 134.334895 326.563096 
L 135.52585 329.090522 
L 136.857547 331.615795 
L 138.330617 334.129267 
L 139.944947 336.621257 
L 141.69968 339.082108 
L 143.593212 341.502235 
L 145.62321 343.872185 
L 147.786613 346.182684 
L 150.079657 348.424697 
L 152.497891 350.589473 
L 155.036201 352.668596 
L 157.688838 354.654033 
L 160.449451 356.538176 
L 163.31112 358.313893 
L 166.266395 359.974557 
L 169.307337 361.514091 
L 172.42556 362.927002 
L 175.612282 364.208406 
L 178.858369 365.354063 
L 182.154387 366.360393 
L 185.490658 367.224503 
L 188.857306 367.944198 
L 192.244321 368.517995 
L 195.641606 368.945133 
L 199.039041 369.225573 
L 202.426534 369.36 
L 205.794078 369.349819 
L 209.131808 369.197145 
L 212.430055 368.904795 
L 215.679401 368.476263 
L 218.870728 367.915711 
L 221.995272 367.227935 
L 225.044668 366.418343 
L 228.011002 365.492923 
L 230.886846 364.458207 
L 233.665309 363.321234 
L 236.340065 362.089513 
L 238.905396 360.770975 
L 241.356216 359.37393 
L 243.688103 357.907021 
L 245.897323 356.379169 
L 247.980846 354.799531 
L 251.762308 351.522354 
L 255.022877 348.151333 
L 257.764817 344.762586 
L 260.00217 341.430766 
L 261.760381 338.227362 
L 263.075679 335.219077 
L 263.994193 332.466305 
L 264.57086 330.021768 
L 264.868124 327.929315 
L 264.941188 325.522244 
L 264.732182 323.771793 
L 264.667864 323.52682 
L 264.831707 323.905495 
L 265.51566 325.086268 
L 266.363636 326.246674 
L 267.586157 327.642333 
L 269.225126 329.210864 
L 271.312132 330.884254 
L 273.867699 332.590431 
L 276.900768 334.254923 
L 280.408452 335.802585 
L 284.37606 337.159327 
L 288.777392 338.253833 
L 293.575293 339.019208 
L 296.108544 339.25916 
L 298.72246 339.394531 
L 301.409714 339.41887 
L 304.162484 339.326269 
L 306.972501 339.111397 
L 309.83109 338.769529 
L 312.729225 338.296574 
L 315.657571 337.689104 
L 318.606543 336.944369 
L 321.566357 336.060314 
L 324.527083 335.035598 
L 327.478704 333.869593 
L 330.411168 332.562398 
L 333.314449 331.114832 
L 336.178601 329.528436 
L 338.993809 327.805462 
L 341.750454 325.948861 
L 344.439158 323.96227 
L 347.05084 321.84999 
L 349.576767 319.616964 
L 352.008601 317.268747 
L 354.33845 314.81148 
L 356.558906 312.251853 
L 358.66309 309.597069 
L 360.644691 306.854803 
L 362.497998 304.033161 
L 364.217936 301.140634 
L 365.800088 298.186052 
L 367.240726 295.178531 
L 368.536827 292.127428 
L 369.686091 289.042284 
L 370.686953 285.932775 
L 371.538591 282.808652 
L 372.24093 279.679694 
L 372.794643 276.555647 
L 373.201143 273.446176 
L 373.462579 270.360804 
L 373.581818 267.308866 
L 373.562433 264.29945 
L 373.408676 261.341354 
L 373.125461 258.443032 
L 372.718325 255.612546 
L 372.193407 252.857528 
L 371.557404 250.185131 
L 370.817535 247.601992 
L 369.981501 245.114197 
L 369.057437 242.727246 
L 366.97966 238.27477 
L 364.656173 234.275795 
L 362.16271 230.750644 
L 359.57703 227.708306 
L 356.977134 225.146282 
L 354.439472 223.050684 
L 352.037192 221.396599 
L 349.838464 220.148704 
L 347.904917 219.262112 
L 345.616744 218.490896 
L 343.915189 218.172371 
L 343.698078 218.16 
L 343.698078 218.16 
" clip-path="url(#pf7e4bc8400)" style="fill: none; stroke: #1f77b4; stroke-width: 1.5; stroke-linecap: square"/>
   </g>
   <g id="patch_3">
    <path d="M 54 384.48 
L 54 51.84 
" style="fill: none; stroke: #000000; stroke-width: 0.8; stroke-linejoin: miter; stroke-linecap: square"/>
   </g>
   <g id="patch_4">
    <path d="M 388.8 384.48 
L 388.8 51.84 
" style="fill: none; stroke: #000000; stroke-width: 0.8; stroke-linejoin: miter; stroke-linecap: square"/>
   </g>
   <g id="patch_5">
    <path d="M 54 384.48 
L 388.8 384.48 
" style="fill: none; stroke: #000000; stroke-width: 0.8; stroke-linejoin: miter; stroke-linecap: square"/>
   </g>
   <g id="patch_6">
    <path d="M 54 51.84 
L 388.8 51.84 
" style="fill: none; stroke: #000000; stroke-width: 0.8; stroke-linejoin: miter; stroke-linecap: square"/>
   </g>
  </g>
 </g>
 <defs>
  <clipPath id="pf7e4bc8400">
   <rect x="54" y="51.84" width="334.8" height="332.64"/>
  </clipPath>
 </defs>
</svg>
