<?xml version="1.0" encoding="utf-8" standalone="no"?>
<!DOCTYPE svg PUBLIC "-//W3C//DTD SVG 1.1//EN"
  "http://www.w3.org/Graphics/SVG/1.1/DTD/svg11.dtd">
<svg xmlns:xlink="http://www.w3.org/1999/xlink" width="460.8pt" height="345.6pt" viewBox="0 0 460.8 345.6" xmlns="http://www.w3.org/2000/svg" version="1.1">
 <metadata>
  <rdf:RDF xmlns:dc="http://purl.org/dc/elements/1.1/" xmlns:cc="http://creativecommons.org/ns#" xmlns:rdf="http://www.w3.org/1999/02/22-rdf-syntax-ns#">
   <cc:Work>
    <dc:type rdf:resource="http://purl.org/dc/dcmitype/StillImage"/>
    <dc:date>2025-03-23T09:12:34.101844</dc:date>
    <dc:format>image/svg+xml</dc:format>
    <dc:creator>
     <cc:Agent>
      <dc:title>Matplotlib v3.9.0, https://matplotlib.org/</dc:title>
     </cc:Agent>
    </dc:creator>
   </cc:Work>
  </rdf:RDF>
 </metadata>
 <defs>
  <style type="text/css">*{stroke-linejoin: round; stroke-linecap: butt}</style>
 </defs>
 <g id="figure_1">
  <g id="patch_1">
   <path d="M 0 345.6 
L 460.8 345.6 
L 460.8 0 
L 0 0 
z
" style="fill: #ffffff"/>
  </g>
  <g id="axes_1">
   <g id="patch_2">
    <path d="M 57.6 307.584 
L 414.72 307.584 
L 414.72 41.472 
L 57.6 41.472 
z
" style="fill: #ffffff"/>
   </g>
   <g id="matplotlib.axis_1">
    <g id="xtick_1">
     <g id="line2d_1">
      <defs>
       <path id="m9969582f1f" d="M 0 0 
L 0 3.5 
" style="stroke: #000000; stroke-width: 0.8"/>
      </defs>
      <g>
       <use xlink:href="#m9969582f1f" x="61.622109" y="307.584" style="stroke: #000000; stroke-width: 0.8"/>
      </g>
     </g>
     <g id="text_1">
      <!-- −3 -->
      <g transform="translate(54.251015 322.182437) scale(0.1 -0.1)">
       <defs>
        <path id="DejaVuSans-2212" d="M 678 2272 
L 4684 2272 
L 4684 1741 
L 678 1741 
L 678 2272 
z
" transform="scale(0.015625)"/>
        <path id="DejaVuSans-33" d="M 2597 2516 
Q 3050 2419 3304 2112 
Q 3559 1806 3559 1356 
Q 3559 666 3084 287 
Q 2609 -91 1734 -91 
Q 1441 -91 1130 -33 
Q 819 25 488 141 
L 488 750 
Q 750 597 1062 519 
Q 1375 441 1716 441 
Q 2309 441 2620 675 
Q 2931 909 2931 1356 
Q 2931 1769 2642 2001 
Q 2353 2234 1838 2234 
L 1294 2234 
L 1294 2753 
L 1863 2753 
Q 2328 2753 2575 2939 
Q 2822 3125 2822 3475 
Q 2822 3834 2567 4026 
Q 2313 4219 1838 4219 
Q 1578 4219 1281 4162 
Q 984 4106 628 3988 
L 628 4550 
Q 988 4650 1302 4700 
Q 1616 4750 1894 4750 
Q 2613 4750 3031 4423 
Q 3450 4097 3450 3541 
Q 3450 3153 3228 2886 
Q 3006 2619 2597 2516 
z
" transform="scale(0.015625)"/>
       </defs>
       <use xlink:href="#DejaVuSans-2212"/>
       <use xlink:href="#DejaVuSans-33" x="83.789062"/>
      </g>
     </g>
    </g>
    <g id="xtick_2">
     <g id="line2d_2">
      <g>
       <use xlink:href="#m9969582f1f" x="122.618614" y="307.584" style="stroke: #000000; stroke-width: 0.8"/>
      </g>
     </g>
     <g id="text_2">
      <!-- −2 -->
      <g transform="translate(115.24752 322.182437) scale(0.1 -0.1)">
       <defs>
        <path id="DejaVuSans-32" d="M 1228 531 
L 3431 531 
L 3431 0 
L 469 0 
L 469 531 
Q 828 903 1448 1529 
Q 2069 2156 2228 2338 
Q 2531 2678 2651 2914 
Q 2772 3150 2772 3378 
Q 2772 3750 2511 3984 
Q 2250 4219 1831 4219 
Q 1534 4219 1204 4116 
Q 875 4013 500 3803 
L 500 4441 
Q 881 4594 1212 4672 
Q 1544 4750 1819 4750 
Q 2544 4750 2975 4387 
Q 3406 4025 3406 3419 
Q 3406 3131 3298 2873 
Q 3191 2616 2906 2266 
Q 2828 2175 2409 1742 
Q 1991 1309 1228 531 
z
" transform="scale(0.015625)"/>
       </defs>
       <use xlink:href="#DejaVuSans-2212"/>
       <use xlink:href="#DejaVuSans-32" x="83.789062"/>
      </g>
     </g>
    </g>
    <g id="xtick_3">
     <g id="line2d_3">
      <g>
       <use xlink:href="#m9969582f1f" x="183.615119" y="307.584" style="stroke: #000000; stroke-width: 0.8"/>
      </g>
     </g>
     <g id="text_3">
      <!-- −1 -->
      <g transform="translate(176.244025 322.182437) scale(0.1 -0.1)">
       <defs>
        <path id="DejaVuSans-31" d="M 794 531 
L 1825 531 
L 1825 4091 
L 703 3866 
L 703 4441 
L 1819 4666 
L 2450 4666 
L 2450 531 
L 3481 531 
L 3481 0 
L 794 0 
L 794 531 
z
" transform="scale(0.015625)"/>
       </defs>
       <use xlink:href="#DejaVuSans-2212"/>
       <use xlink:href="#DejaVuSans-31" x="83.789062"/>
      </g>
     </g>
    </g>
    <g id="xtick_4">
     <g id="line2d_4">
      <g>
       <use xlink:href="#m9969582f1f" x="244.611623" y="307.584" style="stroke: #000000; stroke-width: 0.8"/>
      </g>
     </g>
     <g id="text_4">
      <!-- 0 -->
      <g transform="translate(241.430373 322.182437) scale(0.1 -0.1)">
       <defs>
        <path id="DejaVuSans-30" d="M 2034 4250 
Q 1547 4250 1301 3770 
Q 1056 3291 1056 2328 
Q 1056 1369 1301 889 
Q 1547 409 2034 409 
Q 2525 409 2770 889 
Q 3016 1369 3016 2328 
Q 3016 3291 2770 3770 
Q 2525 4250 2034 4250 
z
M 2034 4750 
Q 2819 4750 3233 4129 
Q 3647 3509 3647 2328 
Q 3647 1150 3233 529 
Q 2819 -91 2034 -91 
Q 1250 -91 836 529 
Q 422 1150 422 2328 
Q 422 3509 836 4129 
Q 1250 4750 2034 4750 
z
" transform="scale(0.015625)"/>
       </defs>
       <use xlink:href="#DejaVuSans-30"/>
      </g>
     </g>
    </g>
    <g id="xtick_5">
     <g id="line2d_5">
      <g>
       <use xlink:href="#m9969582f1f" x="305.608128" y="307.584" style="stroke: #000000; stroke-width: 0.8"/>
      </g>
     </g>
     <g id="text_5">
      <!-- 1 -->
      <g transform="translate(302.426878 322.182437) scale(0.1 -0.1)">
       <use xlink:href="#DejaVuSans-31"/>
      </g>
     </g>
    </g>
    <g id="xtick_6">
     <g id="line2d_6">
      <g>
       <use xlink:href="#m9969582f1f" x="366.604633" y="307.584" style="stroke: #000000; stroke-width: 0.8"/>
      </g>
     </g>
     <g id="text_6">
      <!-- 2 -->
      <g transform="translate(363.423383 322.182437) scale(0.1 -0.1)">
       <use xlink:href="#DejaVuSans-32"/>
      </g>
     </g>
    </g>
   </g>
   <g id="matplotlib.axis_2">
    <g id="ytick_1">
     <g id="line2d_7">
      <defs>
       <path id="m1203c4f844" d="M 0 0 
L -3.5 0 
" style="stroke: #000000; stroke-width: 0.8"/>
      </defs>
      <g>
       <use xlink:href="#m1203c4f844" x="57.6" y="307.461367" style="stroke: #000000; stroke-width: 0.8"/>
      </g>
     </g>
     <g id="text_7">
      <!-- −3 -->
      <g transform="translate(35.857813 311.260585) scale(0.1 -0.1)">
       <use xlink:href="#DejaVuSans-2212"/>
       <use xlink:href="#DejaVuSans-33" x="83.789062"/>
      </g>
     </g>
    </g>
    <g id="ytick_2">
     <g id="line2d_8">
      <g>
       <use xlink:href="#m1203c4f844" x="57.6" y="263.150003" style="stroke: #000000; stroke-width: 0.8"/>
      </g>
     </g>
     <g id="text_8">
      <!-- −2 -->
      <g transform="translate(35.857813 266.949222) scale(0.1 -0.1)">
       <use xlink:href="#DejaVuSans-2212"/>
       <use xlink:href="#DejaVuSans-32" x="83.789062"/>
      </g>
     </g>
    </g>
    <g id="ytick_3">
     <g id="line2d_9">
      <g>
       <use xlink:href="#m1203c4f844" x="57.6" y="218.83864" style="stroke: #000000; stroke-width: 0.8"/>
      </g>
     </g>
     <g id="text_9">
      <!-- −1 -->
      <g transform="translate(35.857813 222.637859) scale(0.1 -0.1)">
       <use xlink:href="#DejaVuSans-2212"/>
       <use xlink:href="#DejaVuSans-31" x="83.789062"/>
      </g>
     </g>
    </g>
    <g id="ytick_4">
     <g id="line2d_10">
      <g>
       <use xlink:href="#m1203c4f844" x="57.6" y="174.527277" style="stroke: #000000; stroke-width: 0.8"/>
      </g>
     </g>
     <g id="text_10">
      <!-- 0 -->
      <g transform="translate(44.2375 178.326495) scale(0.1 -0.1)">
       <use xlink:href="#DejaVuSans-30"/>
      </g>
     </g>
    </g>
    <g id="ytick_5">
     <g id="line2d_11">
      <g>
       <use xlink:href="#m1203c4f844" x="57.6" y="130.215913" style="stroke: #000000; stroke-width: 0.8"/>
      </g>
     </g>
     <g id="text_11">
      <!-- 1 -->
      <g transform="translate(44.2375 134.015132) scale(0.1 -0.1)">
       <use xlink:href="#DejaVuSans-31"/>
      </g>
     </g>
    </g>
    <g id="ytick_6">
     <g id="line2d_12">
      <g>
       <use xlink:href="#m1203c4f844" x="57.6" y="85.90455" style="stroke: #000000; stroke-width: 0.8"/>
      </g>
     </g>
     <g id="text_12">
      <!-- 2 -->
      <g transform="translate(44.2375 89.703769) scale(0.1 -0.1)">
       <use xlink:href="#DejaVuSans-32"/>
      </g>
     </g>
    </g>
    <g id="ytick_7">
     <g id="line2d_13">
      <g>
       <use xlink:href="#m1203c4f844" x="57.6" y="41.593187" style="stroke: #000000; stroke-width: 0.8"/>
      </g>
     </g>
     <g id="text_13">
      <!-- 3 -->
      <g transform="translate(44.2375 45.392405) scale(0.1 -0.1)">
       <use xlink:href="#DejaVuSans-33"/>
      </g>
     </g>
    </g>
   </g>
   <g id="line2d_14">
    <path d="M 366.604633 174.527277 
L 367.910385 174.39337 
L 370.148499 173.914673 
L 373.310649 172.87606 
L 375.171323 172.089885 
L 377.175471 171.100575 
L 379.28717 169.892929 
L 381.468134 168.455008 
L 383.678267 166.778317 
L 385.876244 164.85794 
L 388.020118 162.692622 
L 390.067924 160.284802 
L 391.97829 157.640583 
L 393.711042 154.769662 
L 395.227787 151.685198 
L 396.492474 148.403634 
L 397.471918 144.944471 
L 398.136287 141.329996 
L 398.459541 137.584974 
L 398.419811 133.736301 
L 397.999723 129.812623 
L 397.186656 125.843938 
L 395.972934 121.861171 
L 394.35594 117.895736 
L 392.338166 113.9791 
L 389.927185 110.142328 
L 387.135547 106.415656 
L 383.980611 102.828057 
L 380.4843 99.406835 
L 376.672797 96.17724 
L 372.576174 93.162115 
L 368.227969 90.381572 
L 363.664712 87.852716 
L 358.925408 85.589402 
L 354.050985 83.602047 
L 349.083712 81.897489 
L 344.066604 80.478896 
L 339.042806 79.345727 
L 334.05499 78.493752 
L 329.144742 77.915119 
L 324.351982 77.598476 
L 319.714393 77.529142 
L 315.266894 77.68933 
L 311.041147 78.058406 
L 307.065113 78.613198 
L 303.362661 79.328339 
L 299.953239 80.176636 
L 296.851602 81.129473 
L 294.067618 82.157229 
L 291.606139 83.229712 
L 289.466941 84.316605 
L 287.644746 85.387903 
L 284.905582 87.3679 
L 283.250526 88.952342 
L 282.313291 90.233251 
L 282.371244 90.069141 
L 282.56294 89.102761 
L 282.582021 87.285282 
L 282.425782 86.070998 
L 282.107653 84.667384 
L 281.591693 83.089412 
L 280.844682 81.355162 
L 279.836613 79.485562 
L 278.541143 77.504092 
L 276.935992 75.436441 
L 275.003278 73.310143 
L 272.729795 71.154173 
L 270.107217 68.998537 
L 267.132236 66.873832 
L 263.806628 64.810812 
L 260.137241 62.839936 
L 256.135914 60.990934 
L 251.819324 59.292374 
L 247.208758 57.771249 
L 242.329828 56.452589 
L 237.21211 55.359093 
L 231.88874 54.510805 
L 226.395947 53.92482 
L 220.772551 53.615036 
L 215.059413 53.591951 
L 209.298868 53.862509 
L 203.534123 54.429998 
L 197.808652 55.293996 
L 192.165586 56.45038 
L 186.647103 57.891377 
L 181.293838 59.605675 
L 176.144308 61.578581 
L 171.234373 63.792233 
L 166.596737 66.225848 
L 162.260485 68.856021 
L 158.250682 71.657059 
L 154.588027 74.601346 
L 151.288566 77.659734 
L 148.363476 80.801963 
L 145.81892 83.99709 
L 143.655972 87.21393 
L 141.870612 90.421502 
L 140.453805 93.589468 
L 139.39164 96.688565 
L 138.665546 99.691022 
L 138.252575 102.570954 
L 138.125745 105.304729 
L 138.254446 107.871299 
L 138.604891 110.252503 
L 139.14062 112.433315 
L 139.823036 114.402056 
L 140.611978 116.150555 
L 141.466312 117.67426 
L 143.205389 120.047452 
L 144.714802 121.558407 
L 145.897273 122.425192 
L 145.602442 122.294662 
L 144.230141 121.827968 
L 141.680436 121.251887 
L 137.932333 120.80454 
L 135.624362 120.703201 
L 133.045243 120.721354 
L 130.214447 120.885724 
L 127.155826 121.221181 
L 123.897277 121.750367 
L 120.470347 122.493357 
L 116.90978 123.467359 
L 113.253026 124.686453 
L 109.539701 126.16138 
L 105.811023 127.89937 
L 102.109221 129.904031 
L 98.47693 132.175284 
L 94.956581 134.709349 
L 91.589789 137.498795 
L 88.416759 140.532628 
L 85.475707 143.796444 
L 82.802313 147.272622 
L 80.429206 150.940566 
L 78.385497 154.776995 
L 76.69636 158.75626 
L 75.38267 162.850711 
L 74.460704 167.031076 
L 73.941908 171.266877 
L 73.832727 175.526858 
L 74.13452 179.779422 
L 74.843535 183.993076 
L 75.950964 188.136874 
L 77.443072 192.180852 
L 79.301392 196.096449 
L 81.50299 199.856907 
L 84.020798 203.437645 
L 86.823998 206.816603 
L 89.87847 209.974548 
L 93.147277 212.89534 
L 96.591202 215.566153 
L 100.169304 217.97765 
L 103.839509 220.124102 
L 107.559216 222.003465 
L 111.285904 223.617392 
L 114.977742 224.971202 
L 118.594193 226.073789 
L 122.096587 226.937485 
L 125.44868 227.577865 
L 128.617168 228.013519 
L 131.572163 228.265763 
L 134.287619 228.35833 
L 138.917093 228.169261 
L 142.386521 227.67026 
L 144.655234 227.098652 
L 145.915527 226.619284 
L 145.525269 226.866266 
L 144.39794 227.777139 
L 142.80636 229.483981 
L 141.932262 230.663098 
L 141.060077 232.066858 
L 140.231256 233.696338 
L 139.487203 235.548932 
L 138.868672 237.61838 
L 138.415163 239.894848 
L 138.164338 242.365067 
L 138.15147 245.012509 
L 138.408914 247.817625 
L 138.965634 250.758116 
L 139.846766 253.80925 
L 141.073243 256.944208 
L 142.661481 260.134471 
L 144.623128 263.350217 
L 146.96488 266.560754 
L 149.688372 269.734948 
L 152.790137 272.841672 
L 156.261649 275.850251 
L 160.089422 278.730892 
L 164.255198 281.455116 
L 168.73619 283.996161 
L 173.505401 286.329363 
L 178.531995 288.432509 
L 183.781727 290.28615 
L 189.217427 291.873883 
L 194.799513 293.182577 
L 200.486555 294.202564 
L 206.235854 294.927772 
L 212.004041 295.35581 
L 217.747691 295.488 
L 223.42393 295.329354 
L 228.991043 294.888498 
L 234.409056 294.177548 
L 239.640298 293.21193 
L 244.649931 292.010154 
L 249.406434 290.593551 
L 253.882043 288.985954 
L 258.053133 287.213362 
L 261.900549 285.303557 
L 265.409858 283.285704 
L 268.571548 281.189929 
L 271.381144 279.046886 
L 273.839257 276.887309 
L 275.951563 274.741573 
L 277.728697 272.639254 
L 279.186089 270.608702 
L 280.343722 268.676632 
L 281.225828 266.867743 
L 281.86052 265.204356 
L 282.279372 263.7061 
L 282.610272 261.26837 
L 282.521345 259.648077 
L 282.310967 258.815608 
L 282.382744 258.949976 
L 282.968536 259.772517 
L 284.367857 261.219158 
L 285.444393 262.123113 
L 286.802777 263.114258 
L 288.460515 264.165323 
L 290.430426 265.247634 
L 292.720441 266.331534 
L 295.333474 267.386816 
L 298.267365 268.383165 
L 301.514901 269.290605 
L 305.063899 270.07993 
L 308.897374 270.723143 
L 312.993766 271.193858 
L 317.327244 271.467692 
L 321.868057 271.522625 
L 326.582958 271.339321 
L 331.435668 270.90142 
L 336.387385 270.195779 
L 341.397337 269.212668 
L 346.423354 267.945923 
L 351.422466 266.393038 
L 356.351512 264.555213 
L 361.167753 262.437347 
L 365.829473 260.047968 
L 370.296578 257.399129 
L 374.531156 254.506236 
L 378.498018 251.387835 
L 382.165196 248.065357 
L 385.504392 244.562817 
L 388.49138 240.906475 
L 391.106343 237.124466 
L 393.334151 233.246408 
L 395.164573 229.302979 
L 396.59241 225.32549 
L 397.617567 221.345435 
L 398.245045 217.394057 
L 398.484858 213.501897 
L 398.351885 209.698373 
L 397.865644 206.011357 
L 397.050004 202.466791 
L 395.932837 199.088319 
L 394.545603 195.896958 
L 392.922894 192.910805 
L 391.101929 190.144788 
L 389.122007 187.610462 
L 387.023938 185.31585 
L 384.849448 183.265345 
L 382.640569 181.45965 
L 380.439034 179.895788 
L 378.285663 178.56715 
L 376.219775 177.463605 
L 372.496814 175.874661 
L 369.53377 174.98466 
L 366.947961 174.545161 
L 366.63696 174.526762 
L 366.920847 174.511473 
L 368.342971 174.320696 
L 370.814342 173.728512 
L 374.163366 172.531506 
L 376.095638 171.652141 
L 378.154863 170.562118 
L 380.303943 169.247742 
L 382.50367 167.698667 
L 384.713299 165.908065 
L 386.891138 163.872729 
L 388.995154 161.593136 
L 390.983586 159.07345 
L 392.815549 156.321474 
L 394.451633 153.348547 
L 395.854475 150.169393 
L 396.989306 146.80192 
L 397.824457 143.266973 
L 398.331822 139.588043 
L 398.487273 135.790938 
L 398.271013 131.903424 
L 397.667871 127.954834 
L 396.667525 123.975653 
L 395.264661 119.99709 
L 393.459058 116.05064 
L 391.2556 112.167637 
L 388.664209 108.37881 
L 385.699719 104.713856 
L 382.381663 101.201013 
L 378.734003 97.866669 
L 374.784797 94.734987 
L 370.565799 91.827566 
L 366.11201 89.163141 
L 361.461191 86.757318 
L 356.653317 84.622362 
L 351.730019 82.767025 
L 346.733992 81.196431 
L 341.708388 79.91201 
L 336.696207 78.911486 
L 331.739684 78.188917 
L 326.879697 77.734793 
L 322.155184 77.536174 
L 317.602597 77.576894 
L 313.255385 77.837792 
L 309.143526 78.297007 
L 305.293107 78.93029 
L 301.725961 79.711371 
L 298.459362 80.612337 
L 295.505797 81.604048 
L 292.87279 82.656562 
L 290.562816 83.739571 
L 288.573271 84.822849 
L 285.520084 86.872354 
L 283.594709 88.581435 
L 282.608128 89.754691 
L 282.312178 90.236366 
L 282.414328 89.919452 
L 282.59501 88.751978 
L 282.526517 86.740114 
L 282.29897 85.435367 
L 281.892369 83.94791 
L 281.271986 82.294204 
L 280.406048 80.493698 
L 279.266213 78.568558 
L 277.828 76.543345 
L 276.071152 74.444659 
L 273.97995 72.300762 
L 271.543456 70.141166 
L 268.755685 67.996209 
L 265.61571 65.896616 
L 262.127691 63.873057 
L 258.300833 61.955706 
L 254.149267 60.173799 
L 249.691865 58.555215 
L 244.951982 57.126074 
L 239.957138 55.910356 
L 234.738632 54.929553 
L 229.331112 54.20236 
L 223.772087 53.7444 
L 218.101406 53.568 
L 212.360693 53.682006 
L 206.592767 54.091656 
L 200.841037 54.798502 
L 195.148891 55.800383 
L 189.55909 57.091452 
L 184.11316 58.662261 
L 178.85081 60.499888 
L 173.809379 62.588126 
L 169.023306 64.907707 
L 164.523649 67.436581 
L 160.337657 70.150224 
L 156.488385 73.021995 
L 152.994382 76.023508 
L 149.869432 79.125042 
L 147.122375 82.295961 
L 144.756991 85.505154 
L 142.77196 88.721476 
L 141.160898 91.914193 
L 139.912459 95.053418 
L 139.010516 98.110538 
L 138.434405 101.058618 
L 138.159241 103.872787 
L 138.156285 106.530585 
L 138.393378 109.012285 
L 138.835415 111.301165 
L 139.444863 113.383748 
L 140.18232 115.249983 
L 141.007093 116.893385 
L 141.877799 118.311122 
L 143.591685 120.476662 
L 145.002216 121.79686 
L 145.916823 122.435944 
L 145.382255 122.207317 
L 143.739942 121.693969 
L 140.908086 121.126574 
L 136.884588 120.74389 
L 134.447301 120.695168 
L 131.747433 120.77868 
L 128.806549 121.02033 
L 125.650445 121.443987 
L 122.308782 122.071127 
L 118.814666 122.920516 
L 115.204174 124.007925 
L 111.515841 125.345892 
L 107.790106 126.943527 
L 104.068737 128.806375 
L 100.394229 130.936318 
L 96.809196 133.331538 
L 93.355764 135.986536 
L 90.074958 138.892193 
L 87.006122 142.035896 
L 84.186348 145.401702 
L 81.649946 148.970564 
L 79.42795 152.720588 
L 77.547673 156.627339 
L 76.032315 160.664184 
L 74.900628 164.802661 
L 74.166647 169.012881 
L 73.839488 173.263948 
L 73.923219 177.524388 
L 74.416798 181.7626 
L 75.314092 185.947291 
L 76.60396 190.047923 
L 78.27042 194.035139 
L 80.292872 197.881175 
L 82.646398 201.56025 
L 85.302119 205.048924 
L 88.227611 208.326427 
L 91.387369 211.374947 
L 94.743318 214.179874 
L 98.25536 216.729998 
L 101.881949 219.017665 
L 105.580687 221.038867 
L 109.308935 222.793295 
L 113.024421 224.28433 
L 116.685846 225.518983 
L 120.253478 226.507779 
L 123.689718 227.264598 
L 126.959639 227.806463 
L 130.031485 228.153278 
L 132.877118 228.327537 
L 135.472425 228.35398 
L 139.837705 228.071404 
L 143.026211 227.533863 
L 145.016135 226.979808 
L 145.016135 226.979808 
" clip-path="url(#pe9f9b5430e)" style="fill: none; stroke: #1f77b4; stroke-width: 1.5; stroke-linecap: square"/>
   </g>
   <g id="patch_3">
    <path d="M 57.6 307.584 
L 57.6 41.472 
" style="fill: none; stroke: #000000; stroke-width: 0.8; stroke-linejoin: miter; stroke-linecap: square"/>
   </g>
   <g id="patch_4">
    <path d="M 414.72 307.584 
L 414.72 41.472 
" style="fill: none; stroke: #000000; stroke-width: 0.8; stroke-linejoin: miter; stroke-linecap: square"/>
   </g>
   <g id="patch_5">
    <path d="M 57.6 307.584 
L 414.72 307.584 
" style="fill: none; stroke: #000000; stroke-width: 0.8; stroke-linejoin: miter; stroke-linecap: square"/>
   </g>
   <g id="patch_6">
    <path d="M 57.6 41.472 
L 414.72 41.472 
" style="fill: none; stroke: #000000; stroke-width: 0.8; stroke-linejoin: miter; stroke-linecap: square"/>
   </g>
  </g>
 </g>
 <defs>
  <clipPath id="pe9f9b5430e">
   <rect x="57.6" y="41.472" width="357.12" height="266.112"/>
  </clipPath>
 </defs>
</svg>
