<?xml version="1.0" encoding="UTF-8" standalone="no"?>
<svg
   width="460.8pt"
   height="345.6pt"
   viewBox="0 0 460.8 345.6"
   version="1.1"
   id="svg29"
   sodipodi:docname="epi_n=6.svg"
   inkscape:version="1.4 (86a8ad7, 2024-10-11)"
   xmlns:inkscape="http://www.inkscape.org/namespaces/inkscape"
   xmlns:sodipodi="http://sodipodi.sourceforge.net/DTD/sodipodi-0.dtd"
   xmlns:xlink="http://www.w3.org/1999/xlink"
   xmlns="http://www.w3.org/2000/svg"
   xmlns:svg="http://www.w3.org/2000/svg"
   xmlns:rdf="http://www.w3.org/1999/02/22-rdf-syntax-ns#"
   xmlns:cc="http://creativecommons.org/ns#"
   xmlns:dc="http://purl.org/dc/elements/1.1/">
  <sodipodi:namedview
     id="namedview29"
     pagecolor="#ffffff"
     bordercolor="#000000"
     borderopacity="0.25"
     inkscape:showpageshadow="2"
     inkscape:pageopacity="0.0"
     inkscape:pagecheckerboard="0"
     inkscape:deskcolor="#d1d1d1"
     inkscape:document-units="pt"
     inkscape:zoom="1.7513021"
     inkscape:cx="301.77547"
     inkscape:cy="185.29071"
     inkscape:window-width="1920"
     inkscape:window-height="1009"
     inkscape:window-x="1912"
     inkscape:window-y="-8"
     inkscape:window-maximized="1"
     inkscape:current-layer="svg29" />
  <metadata
     id="metadata1">
    <rdf:RDF>
      <cc:Work>
        <dc:type
           rdf:resource="http://purl.org/dc/dcmitype/StillImage" />
        <dc:date>2025-03-23T09:33:06.325671</dc:date>
        <dc:format>image/svg+xml</dc:format>
        <dc:creator>
          <cc:Agent>
            <dc:title>Matplotlib v3.9.2, https://matplotlib.org/</dc:title>
          </cc:Agent>
        </dc:creator>
      </cc:Work>
    </rdf:RDF>
  </metadata>
  <defs
     id="defs1">
    <style
       type="text/css"
       id="style1">*{stroke-linejoin: round; stroke-linecap: butt}</style>
  </defs>
  <g
     id="figure_1">
    <g
       id="patch_1">
      <path
         d="M 0 345.6  L 460.8 345.6  L 460.8 0  L 0 0  z "
         style="fill: #ffffff"
         id="path1" />
    </g>
    <g
       id="axes_1">
      <g
         id="patch_2">
        <path
           d="M 57.6 307.584  L 414.72 307.584  L 414.72 41.472  L 57.6 41.472  z "
           style="fill: #ffffff"
           id="path2" />
      </g>
      <g
         id="matplotlib.axis_1">
        <g
           id="xtick_1">
          <g
             id="line2d_1">
            <defs
               id="defs2">
              <path
                 id="m39b15927c5"
                 d="M 0 0  L 0 3.5  "
                 style="stroke: #000000; stroke-width: 0.8" />
            </defs>
            <g
               id="g2">
              <use
                 xlink:href="#m39b15927c5"
                 x="104.375972"
                 y="307.584"
                 style="stroke: #000000; stroke-width: 0.8"
                 id="use2" />
            </g>
          </g>
          <g
             id="text_1">
            <!-- −2 -->
            <g
               transform="translate(97.004879 322.182437) scale(0.1 -0.1)"
               id="g4">
              <defs
                 id="defs3">
                <path
                   id="DejaVuSans-2212"
                   d="M 678 2272  L 4684 2272  L 4684 1741  L 678 1741  L 678 2272  z "
                   transform="scale(0.015625)" />
                <path
                   id="DejaVuSans-32"
                   d="M 1228 531  L 3431 531  L 3431 0  L 469 0  L 469 531  Q 828 903 1448 1529  Q 2069 2156 2228 2338  Q 2531 2678 2651 2914  Q 2772 3150 2772 3378  Q 2772 3750 2511 3984  Q 2250 4219 1831 4219  Q 1534 4219 1204 4116  Q 875 4013 500 3803  L 500 4441  Q 881 4594 1212 4672  Q 1544 4750 1819 4750  Q 2544 4750 2975 4387  Q 3406 4025 3406 3419  Q 3406 3131 3298 2873  Q 3191 2616 2906 2266  Q 2828 2175 2409 1742  Q 1991 1309 1228 531  z "
                   transform="scale(0.015625)" />
              </defs>
              <use
                 xlink:href="#DejaVuSans-2212"
                 id="use3" />
              <use
                 xlink:href="#DejaVuSans-32"
                 x="83.789062"
                 id="use4" />
            </g>
          </g>
        </g>
        <g
           id="xtick_2">
          <g
             id="line2d_2">
            <g
               id="g5">
              <use
                 xlink:href="#m39b15927c5"
                 x="170.26657"
                 y="307.584"
                 style="stroke: #000000; stroke-width: 0.8"
                 id="use5" />
            </g>
          </g>
          <g
             id="text_2">
            <!-- −1 -->
            <g
               transform="translate(162.895476 322.182437) scale(0.1 -0.1)"
               id="g7">
              <defs
                 id="defs5">
                <path
                   id="DejaVuSans-31"
                   d="M 794 531  L 1825 531  L 1825 4091  L 703 3866  L 703 4441  L 1819 4666  L 2450 4666  L 2450 531  L 3481 531  L 3481 0  L 794 0  L 794 531  z "
                   transform="scale(0.015625)" />
              </defs>
              <use
                 xlink:href="#DejaVuSans-2212"
                 id="use6" />
              <use
                 xlink:href="#DejaVuSans-31"
                 x="83.789062"
                 id="use7" />
            </g>
          </g>
        </g>
        <g
           id="xtick_3">
          <g
             id="line2d_3">
            <g
               id="g8">
              <use
                 xlink:href="#m39b15927c5"
                 x="236.157168"
                 y="307.584"
                 style="stroke: #000000; stroke-width: 0.8"
                 id="use8" />
            </g>
          </g>
          <g
             id="text_3">
            <!-- 0 -->
            <g
               transform="translate(232.975918 322.182437) scale(0.1 -0.1)"
               id="g9">
              <defs
                 id="defs8">
                <path
                   id="DejaVuSans-30"
                   d="M 2034 4250  Q 1547 4250 1301 3770  Q 1056 3291 1056 2328  Q 1056 1369 1301 889  Q 1547 409 2034 409  Q 2525 409 2770 889  Q 3016 1369 3016 2328  Q 3016 3291 2770 3770  Q 2525 4250 2034 4250  z M 2034 4750  Q 2819 4750 3233 4129  Q 3647 3509 3647 2328  Q 3647 1150 3233 529  Q 2819 -91 2034 -91  Q 1250 -91 836 529  Q 422 1150 422 2328  Q 422 3509 836 4129  Q 1250 4750 2034 4750  z "
                   transform="scale(0.015625)" />
              </defs>
              <use
                 xlink:href="#DejaVuSans-30"
                 id="use9" />
            </g>
          </g>
        </g>
        <g
           id="xtick_4">
          <g
             id="line2d_4">
            <g
               id="g10">
              <use
                 xlink:href="#m39b15927c5"
                 x="302.047765"
                 y="307.584"
                 style="stroke: #000000; stroke-width: 0.8"
                 id="use10" />
            </g>
          </g>
          <g
             id="text_4">
            <!-- 1 -->
            <g
               transform="translate(298.866515 322.182437) scale(0.1 -0.1)"
               id="g11">
              <use
                 xlink:href="#DejaVuSans-31"
                 id="use11" />
            </g>
          </g>
        </g>
        <g
           id="xtick_5">
          <g
             id="line2d_5">
            <g
               id="g12">
              <use
                 xlink:href="#m39b15927c5"
                 x="367.938363"
                 y="307.584"
                 style="stroke: #000000; stroke-width: 0.8"
                 id="use12" />
            </g>
          </g>
          <g
             id="text_5">
            <!-- 2 -->
            <g
               transform="translate(364.757113 322.182437) scale(0.1 -0.1)"
               id="g13">
              <use
                 xlink:href="#DejaVuSans-32"
                 id="use13" />
            </g>
          </g>
        </g>
      </g>
      <g
         id="matplotlib.axis_2">
        <g
           id="ytick_1">
          <g
             id="line2d_6">
            <defs
               id="defs13">
              <path
                 id="m6456db54a7"
                 d="M 0 0  L -3.5 0  "
                 style="stroke: #000000; stroke-width: 0.8" />
            </defs>
            <g
               id="g14">
              <use
                 xlink:href="#m6456db54a7"
                 x="57.6"
                 y="265.251146"
                 style="stroke: #000000; stroke-width: 0.8"
                 id="use14" />
            </g>
          </g>
          <g
             id="text_6">
            <!-- −2 -->
            <g
               transform="translate(35.857813 269.050365) scale(0.1 -0.1)"
               id="g16">
              <use
                 xlink:href="#DejaVuSans-2212"
                 id="use15" />
              <use
                 xlink:href="#DejaVuSans-32"
                 x="83.789062"
                 id="use16" />
            </g>
          </g>
        </g>
        <g
           id="ytick_2">
          <g
             id="line2d_7">
            <g
               id="g17">
              <use
                 xlink:href="#m6456db54a7"
                 x="57.6"
                 y="219.889573"
                 style="stroke: #000000; stroke-width: 0.8"
                 id="use17" />
            </g>
          </g>
          <g
             id="text_7">
            <!-- −1 -->
            <g
               transform="translate(35.857813 223.688792) scale(0.1 -0.1)"
               id="g19">
              <use
                 xlink:href="#DejaVuSans-2212"
                 id="use18" />
              <use
                 xlink:href="#DejaVuSans-31"
                 x="83.789062"
                 id="use19" />
            </g>
          </g>
        </g>
        <g
           id="ytick_3">
          <g
             id="line2d_8">
            <g
               id="g20">
              <use
                 xlink:href="#m6456db54a7"
                 x="57.6"
                 y="174.528"
                 style="stroke: #000000; stroke-width: 0.8"
                 id="use20" />
            </g>
          </g>
          <g
             id="text_8">
            <!-- 0 -->
            <g
               transform="translate(44.2375 178.327219) scale(0.1 -0.1)"
               id="g21">
              <use
                 xlink:href="#DejaVuSans-30"
                 id="use21" />
            </g>
          </g>
        </g>
        <g
           id="ytick_4">
          <g
             id="line2d_9">
            <g
               id="g22">
              <use
                 xlink:href="#m6456db54a7"
                 x="57.6"
                 y="129.166427"
                 style="stroke: #000000; stroke-width: 0.8"
                 id="use22" />
            </g>
          </g>
          <g
             id="text_9">
            <!-- 1 -->
            <g
               transform="translate(44.2375 132.965646) scale(0.1 -0.1)"
               id="g23">
              <use
                 xlink:href="#DejaVuSans-31"
                 id="use23" />
            </g>
          </g>
        </g>
        <g
           id="ytick_5">
          <g
             id="line2d_10">
            <g
               id="g24">
              <use
                 xlink:href="#m6456db54a7"
                 x="57.6"
                 y="83.804854"
                 style="stroke: #000000; stroke-width: 0.8"
                 id="use24" />
            </g>
          </g>
          <g
             id="text_10">
            <!-- 2 -->
            <g
               transform="translate(44.2375 87.604072) scale(0.1 -0.1)"
               id="g25">
              <use
                 xlink:href="#DejaVuSans-32"
                 id="use25" />
            </g>
          </g>
        </g>
      </g>
      <g
         id="line2d_11">
        <path
           d="M 367.938363 174.528  L 369.094362 174.420498  L 371.391049 173.959348  L 373.50787 173.334665  L 376.005383 172.383584  L 378.791416 171.055299  L 381.761923 169.310979  L 384.804219 167.125019  L 387.800487 164.485888  L 389.24404 162.996735  L 390.631443 161.396529  L 391.948168 159.687893  L 393.180054 157.874327  L 394.31342 155.960178  L 395.335176 153.950612  L 396.232918 151.851575  L 396.99503 149.669745  L 397.610772 147.412484  L 398.070368 145.087784  L 398.365079 142.704202  L 398.487273 140.2708  L 398.430484 137.797073  L 398.189467 135.292877  L 397.760233 132.768356  L 397.140089 130.233862  L 396.327651 127.699879  L 395.322864 125.176939  L 394.126998 122.675547  L 392.742641 120.206095  L 391.173679 117.778789  L 389.42527 115.403565  L 387.5038 113.090019  L 385.416841 110.847329  L 383.173086 108.684189  L 380.782288 106.608738  L 378.255184 104.628506  L 375.603415 102.750349  L 372.83943 100.9804  L 369.976399 99.324026  L 367.028108 97.785782  L 364.008853 96.369381  L 360.933331 95.077665  L 357.816527 93.912584  L 354.673601 92.875184  L 351.519769 91.965596  L 348.370188 91.183041  L 345.23984 90.525836  L 339.095198 89.576303  L 333.197882 89.086143  L 327.650082 89.011642  L 322.541027 89.297618  L 317.94427 89.879167  L 313.915463 90.683714  L 310.490687 91.633293  L 307.685389 92.647  L 305.493961 93.643531  L 303.294524 94.934183  L 302.048791 95.958243  L 302.291306 95.592396  L 302.843907 94.34804  L 303.191781 93.009359  L 303.386408 91.269677  L 303.314062 89.150484  L 302.868141 86.686907  L 301.952537 83.926645  L 301.292199 82.453249  L 300.484689 80.928509  L 299.522233 79.361215  L 298.398207 77.760611  L 297.10719 76.136321  L 295.645005 74.498276  L 294.008759 72.856636  L 292.196861 71.221715  L 290.209044 69.603896  L 288.046364 68.013556  L 285.711195 66.460983  L 283.207216 64.956295  L 280.53938 63.509367  L 277.713881 62.129748  L 274.738108 60.826593  L 271.620588 59.608587  L 268.370926 58.483883  L 264.999728 57.460035  L 261.518524 56.543941  L 257.939679 55.741788  L 254.276303 55.059009  L 250.542145 54.500234  L 246.751495 54.06926  L 242.919073 53.769017  L 239.059916 53.601551  L 235.189265 53.568  L 231.322448 53.668594  L 227.474763 53.902648  L 223.661365 54.268568  L 219.897146 54.763864  L 216.196623 55.385169  L 212.573832 56.128264  L 209.042213 56.988115  L 205.614516 57.958905  L 202.302701 59.034086  L 199.117845 60.206423  L 196.070064 61.468058  L 193.168432 62.810561  L 190.420914 64.225006  L 187.834309 65.70203  L 185.414194 67.231911  L 183.164891 68.804645  L 181.089428 70.410018  L 179.189521 72.037688  L 177.465566 73.677264  L 175.916631 75.318388  L 174.540473 76.950813  L 173.333552 78.564484  L 172.291065 80.149613  L 170.6741 83.196895  L 169.627585 86.022535  L 169.072773 88.565217  L 168.916673 90.774312  L 169.055 92.611433  L 169.37548 94.051605  L 169.942108 95.447894  L 170.262586 95.954575  L 169.967741 95.667054  L 168.738584 94.744867  L 167.274963 93.880622  L 165.233673 92.900891  L 162.583191 91.883897  L 159.312656 90.910641  L 155.432267 90.062369  L 150.97302 89.418015  L 145.985809 89.051725  L 140.5399 89.030522  L 134.720838 89.412194  L 128.627853 90.243468  L 125.512652 90.83891  L 122.37083 91.558524  L 119.217237 92.404441  L 116.066957 93.377894  L 112.935191 94.479209  L 109.837141 95.707795  L 106.787895 97.062153  L 103.802307 98.539886  L 100.894888 100.137712  L 98.079694 101.851494  L 95.370213 103.676267  L 92.779268 105.606275  L 90.318917 107.635017  L 88.000358 109.755293  L 85.833846 111.959262  L 83.828614 114.238499  L 81.992801 116.584058  L 80.333393 118.986546  L 78.856167 121.436185  L 77.56565 123.922896  L 76.465082 126.43637  L 75.556394 128.966149  L 74.840193 131.501703  L 74.315759 134.032514  L 73.981052 136.548155  L 73.832727 139.038368  L 73.866163 141.493144  L 74.075497 143.902798  L 74.453676 146.258042  L 74.992504 148.550058  L 75.682715 150.770565  L 76.514041 152.911877  L 77.475293 154.966968  L 78.55445 156.929521  L 79.738752 158.793974  L 81.0148 160.555566  L 82.36866 162.21037  L 83.785973 163.755322  L 86.752071 166.507855  L 89.794026 168.806588  L 92.793306 170.659456  L 95.635608 172.088608  L 98.214408 173.12967  L 100.434282 173.830592  L 102.917607 174.375193  L 104.357694 174.528211  L 103.921074 174.554347  L 102.213869 174.805889  L 100.434282 175.225408  L 98.214408 175.92633  L 95.635608 176.967392  L 92.793306 178.396544  L 89.794026 180.249412  L 86.752071 182.548145  L 83.785973 185.300678  L 82.36866 186.84563  L 81.0148 188.500434  L 79.738752 190.262026  L 78.55445 192.126479  L 77.475293 194.089032  L 76.514041 196.144123  L 75.682715 198.285435  L 74.992504 200.505942  L 74.453676 202.797958  L 74.075497 205.153202  L 73.866163 207.562856  L 73.832727 210.017632  L 73.981052 212.507845  L 74.315759 215.023486  L 74.840193 217.554297  L 75.556394 220.089851  L 76.465082 222.61963  L 77.56565 225.133104  L 78.856167 227.619815  L 80.333393 230.069454  L 81.992801 232.471942  L 83.828614 234.817501  L 85.833846 237.096738  L 88.000358 239.300707  L 90.318917 241.420983  L 92.779268 243.449725  L 95.370213 245.379733  L 98.079694 247.204506  L 100.894888 248.918288  L 103.802307 250.516114  L 106.787895 251.993847  L 109.837141 253.348205  L 112.935191 254.576791  L 116.066957 255.678106  L 119.217237 256.651559  L 122.37083 257.497476  L 125.512652 258.21709  L 128.627853 258.812532  L 134.720838 259.643806  L 140.5399 260.025478  L 145.985809 260.004275  L 150.97302 259.637985  L 155.432267 258.993631  L 159.312656 258.145359  L 162.583191 257.172103  L 165.233673 256.155109  L 167.274963 255.175378  L 169.269026 253.945392  L 170.262586 253.101425  L 170.095272 253.343663  L 169.567626 254.437108  L 169.199704 255.673848  L 168.955903 257.314744  L 168.951174 259.341835  L 169.294227 261.723319  L 170.084092 264.414517  L 170.6741 265.859105  L 171.406983 267.359241  L 172.291065 268.906387  L 173.333552 270.491516  L 174.540473 272.105187  L 175.916631 273.737612  L 177.465566 275.378736  L 179.189521 277.018312  L 181.089428 278.645982  L 183.164891 280.251355  L 185.414194 281.824089  L 187.834309 283.35397  L 190.420914 284.830994  L 193.168432 286.245439  L 196.070064 287.587942  L 199.117845 288.849577  L 202.302701 290.021914  L 205.614516 291.097095  L 209.042213 292.067885  L 212.573832 292.927736  L 216.196623 293.670831  L 219.897146 294.292136  L 223.661365 294.787432  L 227.474763 295.153352  L 231.322448 295.387406  L 235.189265 295.488  L 239.059916 295.454449  L 242.919073 295.286983  L 246.751495 294.98674  L 250.542145 294.555766  L 254.276303 293.996991  L 257.939679 293.314212  L 261.518524 292.512059  L 264.999728 291.595965  L 268.370926 290.572117  L 271.620588 289.447413  L 274.738108 288.229407  L 277.713881 286.926252  L 280.53938 285.546633  L 283.207216 284.099705  L 285.711195 282.595017  L 288.046364 281.042444  L 290.209044 279.452104  L 292.196861 277.834285  L 294.008759 276.199364  L 295.645005 274.557724  L 297.10719 272.919679  L 298.398207 271.295389  L 299.522233 269.694785  L 301.292199 266.602751  L 302.47456 263.715573  L 303.144088 261.096959  L 303.390477 258.800367  L 303.315484 256.867371  L 303.029711 255.326386  L 302.46004 253.777481  L 302.048791 253.097757  L 302.240394 253.291918  L 303.294524 254.121817  L 304.620984 254.945532  L 306.514112 255.90356  L 309.01046 256.918767  L 312.126114 257.910609  L 315.856144 258.79766  L 320.174691 259.500173  L 325.035718 259.942578  L 330.374378 260.055865  L 336.108969 259.779753  L 342.143414 259.064596  L 345.23984 258.530164  L 348.370188 257.872959  L 351.519769 257.090404  L 354.673601 256.180816  L 357.816527 255.143416  L 360.933331 253.978335  L 364.008853 252.686619  L 367.028108 251.270218  L 369.976399 249.731974  L 372.83943 248.0756  L 375.603415 246.305651  L 378.255184 244.427494  L 380.782288 242.447262  L 383.173086 240.371811  L 385.416841 238.208671  L 387.5038 235.965981  L 389.42527 233.652435  L 391.173679 231.277211  L 392.742641 228.849905  L 394.126998 226.380453  L 395.322864 223.879061  L 396.327651 221.356121  L 397.140089 218.822138  L 397.760233 216.287644  L 398.189467 213.763123  L 398.430484 211.258927  L 398.487273 208.7852  L 398.365079 206.351798  L 398.070368 203.968216  L 397.610772 201.643516  L 396.99503 199.386255  L 396.232918 197.204425  L 395.335176 195.105388  L 394.31342 193.095822  L 393.180054 191.181673  L 391.948168 189.368107  L 390.631443 187.659471  L 389.24404 186.059265  L 386.315571 183.193743  L 383.281383 180.781739  L 380.260491 178.818935  L 377.368596 177.286684  L 374.714487 176.152637  L 372.396657 175.371794  L 369.732351 174.737217  L 367.938363 174.528  L 367.938363 174.528  "
           clip-path="url(#p64fbb27fb8)"
           style="fill: none; stroke: #1f77b4; stroke-width: 1.5; stroke-linecap: square"
           id="path25" />
      </g>
      <g
         id="patch_3">
        <path
           d="M 57.6 307.584  L 57.6 41.472  "
           style="fill: none; stroke: #000000; stroke-width: 0.8; stroke-linejoin: miter; stroke-linecap: square"
           id="path26" />
      </g>
      <g
         id="patch_4">
        <path
           d="M 414.72 307.584  L 414.72 41.472  "
           style="fill: none; stroke: #000000; stroke-width: 0.8; stroke-linejoin: miter; stroke-linecap: square"
           id="path27" />
      </g>
      <g
         id="patch_5">
        <path
           d="M 57.6 307.584  L 414.72 307.584  "
           style="fill: none; stroke: #000000; stroke-width: 0.8; stroke-linejoin: miter; stroke-linecap: square"
           id="path28" />
      </g>
      <g
         id="patch_6">
        <path
           d="M 57.6 41.472  L 414.72 41.472  "
           style="fill: none; stroke: #000000; stroke-width: 0.8; stroke-linejoin: miter; stroke-linecap: square"
           id="path29" />
      </g>
    </g>
  </g>
  <defs
     id="defs29">
    <clipPath
       id="p64fbb27fb8">
      <rect
         x="57.6"
         y="41.472"
         width="357.12"
         height="266.112"
         id="rect29" />
    </clipPath>
  </defs>
  <path
     style="fill:#000000;fill-opacity:0;stroke:#000000;stroke-width:2"
     d="m 170.26258,95.954572 -1.04734,-2.623049 -0.2294,-1.638653 0.0869,-3.12765 0.55481,-2.542687 1.04652,-2.82564 0.80848,-1.52364 0.80848,-1.52364 1.64596,-2.391968 1.29153,-1.623045 2.23701,-2.457336 1.72396,-1.639576 1.89991,-1.62767 3.20011,-2.39174 3.54477,-2.316248 2.5866,-1.477024 2.74752,-1.414445 1.45082,-0.671251 2.97471,-1.302069 3.11631,-1.216986 3.24834,-1.12376 1.65591,-0.53759 1.71384,-0.485395 3.47966,-0.915321 3.57721,-0.801472 1.81139,-0.371548 1.85026,-0.310652 1.85026,-0.310653 5.67092,-0.678256 1.9067,-0.18296 3.84769,-0.234054 1.93341,-0.05029 3.86873,-0.03352 3.86491,0.100509 1.92957,0.08373 3.83242,0.300243 1.89533,0.215487 5.62948,0.774262 1.83169,0.341389 3.62111,0.742466 3.53003,0.859124 1.7406,0.458047 3.3712,1.023848 3.24965,1.124704 3.11753,1.218006 1.48789,0.651577 2.90063,1.341387 2.74667,1.413274 2.5859,1.475808 1.252,0.752344 3.41651,2.347743 2.07524,1.604079 2.80581,2.44383 2.36734,2.460661 1.3766,1.631168 1.76954,2.41275 1.3662,2.329664 0.73393,1.499071 0.78797,2.11683 0.68076,2.61192 0.22296,1.231785 0.0724,2.119192 -0.19463,1.739685 -0.34787,1.338683 -0.79512,1.610197 2.34545,-1.66938 1.09972,-0.64533 2.19143,-0.996532 2.8053,-1.013708 1.71239,-0.474787 1.71238,-0.474788 4.02881,-0.804547 2.29838,-0.290775 2.29838,-0.290775 2.55453,-0.142988 5.32842,-0.105735 2.7739,0.03727 2.94866,0.245085 2.94866,0.245078 3.07232,0.474765 3.07232,0.474765 3.13035,0.65721 4.7265,1.23735 3.14838,0.973492 3.12986,1.10124 3.09616,1.228395 3.04739,1.354065 1.50963,0.708195 2.94829,1.538243 1.43151,0.828185 2.81352,1.71317 1.38198,0.88497 2.65178,1.87815 2.5271,1.98024 1.1954,1.03773 2.31727,2.11929 2.16536,2.20292 2.00421,2.27812 0.96074,1.15677 2.53289,3.58887 0.78448,1.21365 1.38436,2.46946 1.19586,2.50139 1.00479,2.52294 0.81244,2.53398 0.31007,1.26725 0.52469,2.52951 0.45564,3.76645 0.0568,2.47373 -0.12219,2.4334 -0.29471,2.38359 -0.2298,1.16235 -0.53767,2.29098 -0.68892,2.21954 -0.82993,2.14043 -0.95975,2.0543 -1.07756,1.96186 -1.79857,2.77064 -1.31673,1.70864 -0.69369,0.80011 -2.13726,2.28925 -1.49814,1.31957 -3.01928,2.41254 -3.0064,1.96514 -1.48525,0.87216 -4.03479,1.80382 -1.24876,0.47555 -5.56951,1.19333 3.12615,0.52651 3.64998,1.09813 2.65411,1.13405 2.8919,1.53225 3.02088,1.9628 3.0342,2.412 1.46423,1.43276 2.15794,2.23287 1.35206,1.65442 1.89024,2.66789 1.13337,1.91415 1.47063,3.05908 0.82993,2.14043 0.9968,3.34818 0.45959,2.3247 0.29471,2.38358 0.12219,2.4334 -0.17729,3.72582 -0.33513,2.51436 -0.52468,2.52951 -0.31008,1.26725 -0.81243,2.53398 -1.00479,2.52294 -1.19587,2.50139 -0.69218,1.23473 c 0,0 0.0923,0.0211 -0.69218,1.23473 -0.78448,1.21365 -1.56895,2.4273 -1.56895,2.4273 l -1.74842,2.37523 -2.96494,3.43488 -1.04349,1.12135 -2.24375,2.16314 -2.3908,2.07546 -2.5271,1.98023 -2.65177,1.87815 -2.76399,1.76995 -2.86302,1.65638 -1.47415,0.76912 -2.98378,1.47732 -3.04738,1.35406 -1.53777,0.64586 -4.68826,1.68378 -3.14838,0.97349 -4.7265,1.23735 -3.13034,0.65721 -3.09643,0.53443 -3.01722,0.35757 -5.88452,0.49564 -5.53663,0.0814 -2.66933,-0.0566 -2.43051,-0.2212 v 0 l -4.58979,-0.57246 v 0 l -4.02429,-0.79478 -1.86501,-0.44353 -3.11565,-0.99184 -2.49636,-1.0152 -1.89312,-0.95803 -2.36657,-1.50791 0.77529,1.88876 0.32327,2.50748 -0.0857,2.1148 -0.45796,2.4576 -0.92595,2.7529 -0.59118,1.44358 -1.76996,3.09204 -1.76954,2.41275 -1.3766,1.63117 -2.36734,2.46066 -1.8119,1.63492 -1.98781,1.61782 -1.08134,0.79517 -3.41651,2.34774 -1.25199,0.75234 -2.58591,1.47582 -2.74667,1.41327 -2.90063,1.34139 -3.04665,1.26057 -3.18359,1.17136 -3.31043,1.07427 -3.4262,0.96998 -3.53002,0.85912 -3.62112,0.74246 -3.69876,0.62078 -1.86708,0.27939 -3.79065,0.43097 -1.91621,0.15013 -1.91621,0.15012 -3.85916,0.16747 -3.87065,0.0335 -1.93341,-0.0503 -1.93341,-0.0503 -3.84769,-0.23405 -1.90669,-0.18296 -3.78881,-0.43061 -1.88211,-0.24765 -5.51192,-0.99285 -3.57721,-0.80147 -3.47965,-0.91532 -3.36976,-1.02299 -4.84076,-1.70992 -3.04778,-1.26164 -2.90163,-1.3425 -4.04082,-2.15296 -4.83807,-3.05476 -2.16239,-1.58906 -1.03773,-0.80268 -1.89991,-1.62767 -1.72395,-1.63957 -1.54893,-1.64113 -1.37616,-1.63242 -1.20693,-1.61368 -2.293,-3.88234 -0.95645,-2.19465 -0.78987,-2.6912 -0.34305,-2.38149 0.005,-2.02708 0.2438,-1.64091 0.89557,-2.33018 -2.82032,1.83172 -3.36652,1.48822 -2.96052,0.99513 -1.63527,0.48663 -1.94019,0.42414 -4.16982,0.74631 -2.22962,0.32217 -4.98721,0.3663 -2.72295,0.0106 -2.72296,0.0106 -5.81906,-0.38168 -6.09299,-0.83127 -3.1152,-0.59545 -4.71862,-1.14257 -3.15193,-0.90968 -3.14102,-1.03739 -1.56589,-0.55065 -3.09805,-1.22859 -3.04924,-1.35435 -1.4928,-0.73887 -1.49279,-0.73887 -4.31502,-2.45472 -2.76234,-1.76928 -2.650207,-1.87738 -4.915103,-4.05389 -1.159282,-1.06014 -2.16651,-2.20397 -1.002615,-1.13962 -1.920525,-2.31239 -1.747613,-2.37403 -0.829702,-1.20124 -1.477223,-2.44964 -1.290517,-2.48671 -1.100573,-2.51348 -0.454342,-1.26489 -0.454343,-1.26489 -0.716202,-2.53554 -0.524434,-2.53082 -0.167353,-1.25782 -0.167354,-1.25782 -0.07416,-1.24511 -0.05744,-2.47249 0.01672,-1.22739 0.104667,-1.20482 0.293757,-2.38245 0.18909,-1.17762 0.269414,-1.14601 0.614525,-2.25626 0.760763,-2.18091 0.415665,-1.07066 0.961252,-2.05509 1.07916,-1.96255 1.184303,-1.86446 1.276042,-1.76159 1.353863,-1.6548 2.900362,-2.92122 v 0 l 1.48305,-1.37627 1.520978,-1.14936 1.520977,-1.14937 1.49964,-0.92644 2.920793,-1.64101 2.710545,-1.2351 2.39934,-0.87099 1.109932,-0.35046 1.77959,-0.41952 1.92551,-0.26461 -1.22177,-0.16609 -1.24166,-0.2723 -1.24167,-0.2723 -2.219872,-0.70092 -2.5788,-1.04106 -1.421145,-0.71458 v 0 l -1.421153,-0.71458 -1.49964,-0.92643 -1.49964,-0.92644 -1.520977,-1.14936 -1.520978,-1.14937 -1.48305,-1.37627 -1.48305,-1.37626 -1.417312,-1.54496 -1.353863,-1.6548 -1.276042,-1.76159 -1.184303,-1.86445 -1.07916,-1.96256 -0.480622,-1.02754 -0.896295,-2.0982 -0.760763,-2.18091 -0.345112,-1.11026 -0.538827,-2.29201 -0.37818,-2.35524 -0.209334,-2.40966 -0.03343,-2.45478 0.07416,-1.2451 0.241517,-2.50293 0.42957,-2.52323 0.262217,-1.2654 0.716199,-2.53555 0.454343,-1.26489 1.004625,-2.52163 1.195545,-2.50009 0.645262,-1.24336 1.477223,-2.44964 1.659405,-2.40249 1.83582,-2.34555 1.002615,-1.13962 2.08587,-2.24161 2.242537,-2.16212 2.389455,-2.07451 1.230173,-1.01437 2.590942,-1.93001 2.709488,-1.82477 2.815192,-1.71378 1.45371,-0.798915 2.9465,-1.537778 3.01742,-1.416045 1.52462,-0.677182 1.54903,-0.614288 1.54902,-0.614295 1.56589,-0.550657 1.56588,-0.550658 1.57514,-0.486727 1.57514,-0.486728 1.57679,-0.422955 1.5768,-0.422962 3.14182,-0.71961 3.1152,-0.595448 3.04649,-0.415635 3.0465,-0.415635 2.90953,-0.190837 2.90953,-0.190838 2.72296,0.01058 2.72295,0.01058 2.4936,0.18315 2.49361,0.183143 4.45925,0.644355 1.94019,0.424132 3.57546,0.91077 1.63527,0.486623 3.67113,1.506862 1.02064,0.489863 2.07821,1.32534 z"
     id="path31" />
</svg>
