<?xml version="1.0" encoding="UTF-8" standalone="no"?>
<svg
   width="460.8pt"
   height="345.6pt"
   viewBox="0 0 460.8 345.6"
   version="1.1"
   id="svg37"
   sodipodi:docname="epi_n=5.svg"
   inkscape:version="1.4 (86a8ad7, 2024-10-11)"
   xmlns:inkscape="http://www.inkscape.org/namespaces/inkscape"
   xmlns:sodipodi="http://sodipodi.sourceforge.net/DTD/sodipodi-0.dtd"
   xmlns:xlink="http://www.w3.org/1999/xlink"
   xmlns="http://www.w3.org/2000/svg"
   xmlns:svg="http://www.w3.org/2000/svg"
   xmlns:rdf="http://www.w3.org/1999/02/22-rdf-syntax-ns#"
   xmlns:cc="http://creativecommons.org/ns#"
   xmlns:dc="http://purl.org/dc/elements/1.1/">
  <sodipodi:namedview
     id="namedview37"
     pagecolor="#ffffff"
     bordercolor="#000000"
     borderopacity="0.25"
     inkscape:showpageshadow="2"
     inkscape:pageopacity="0.0"
     inkscape:pagecheckerboard="0"
     inkscape:deskcolor="#d1d1d1"
     inkscape:document-units="pt"
     inkscape:zoom="1.2383576"
     inkscape:cx="308.87686"
     inkscape:cy="228.93226"
     inkscape:window-width="1920"
     inkscape:window-height="1009"
     inkscape:window-x="1912"
     inkscape:window-y="-8"
     inkscape:window-maximized="1"
     inkscape:current-layer="svg37" />
  <metadata
     id="metadata1">
    <rdf:RDF>
      <cc:Work>
        <dc:type
           rdf:resource="http://purl.org/dc/dcmitype/StillImage" />
        <dc:date>2025-03-23T09:12:34.101844</dc:date>
        <dc:format>image/svg+xml</dc:format>
        <dc:creator>
          <cc:Agent>
            <dc:title>Matplotlib v3.9.0, https://matplotlib.org/</dc:title>
          </cc:Agent>
        </dc:creator>
      </cc:Work>
    </rdf:RDF>
  </metadata>
  <defs
     id="defs1">
    <style
       type="text/css"
       id="style1">*{stroke-linejoin: round; stroke-linecap: butt}</style>
  </defs>
  <g
     id="figure_1">
    <g
       id="patch_1">
      <path
         id="path1"
         style="fill: #ffffff"
         d="M 0,0 V 345.60059 H 460.80029 V 0 Z m 56.342285,153.49512 c 1.006978,0.0322 2.040273,0.99618 2.222168,2.97509 0.0886,0.96396 0.177256,1.9287 0.276856,2.89161 0.189155,2.15849 0.333177,4.32352 0.398437,6.48925 0.0603,2.124 0.188475,4.25324 0.05566,6.37647 -0.09904,1.49108 -0.204271,2.99073 -0.613769,4.43555 -0.0689,0.24309 -0.207151,0.3426 -0.295899,0.54931 0.01132,0.1489 0.02431,0.29785 0.03516,0.44678 0.05138,0.68986 0.09211,1.38076 0.133301,2.07129 0.02787,0.46721 -0.0023,0.88286 -0.07324,1.25244 0.322517,0.91075 0.596809,1.84069 1.063477,2.69385 2.034482,3.71943 -1.809316,5.64118 -3.830567,1.91455 -0.851632,-1.57018 -1.446827,-3.2457 -1.954101,-4.95264 -0.77745,-2.64674 -0.993944,-5.41259 -1.180664,-8.15185 -0.123347,-1.49338 -0.108239,-2.99153 -0.102539,-4.48828 0.0041,-1.06773 0.279679,-1.86224 0.688476,-2.39063 -0.0053,-0.0488 -0.0093,-0.0977 -0.01465,-0.14648 -0.214666,-1.97085 0.603664,-3.1117 1.582031,-3.33838 -0.05392,-0.79497 -0.08636,-1.59142 -0.156738,-2.38477 -0.09931,-0.95756 -0.187261,-1.91686 -0.275391,-2.87549 -0.206188,-2.24277 0.900751,-3.40412 2.041992,-3.36767 z" />
    </g>
    <g
       id="axes_1">
      <g
         id="patch_2">
        <path
           id="path2"
           style="fill: #ffffff"
           d="M 57.600586,41.472656 V 154.0752 c 0.487069,0.48528 0.861236,1.27845 0.963867,2.39501 0.0886,0.96396 0.177256,1.9287 0.276856,2.89161 0.189155,2.15849 0.333177,4.32352 0.398437,6.48925 0.0603,2.124 0.188475,4.25324 0.05566,6.37647 -0.09904,1.49108 -0.204271,2.99073 -0.613769,4.43555 -0.07589,0.26774 -0.18451,0.47498 -0.28418,0.69873 0.0074,0.0991 0.01622,0.19824 0.02344,0.29736 0.05138,0.68986 0.09211,1.38076 0.133301,2.07129 0.03239,0.543 -0.01125,1.01871 -0.109863,1.42969 0.311166,0.86115 0.657742,1.70789 1.100098,2.5166 1.484496,2.71395 -0.160638,4.46819 -1.943848,3.77197 V 307.5835 H 414.7207 V 41.472656 Z" />
      </g>
      <g
         id="matplotlib.axis_1">
        <g
           id="xtick_1">
          <g
             id="line2d_1">
            <defs
               id="defs2">
              <path
                 id="m9969582f1f"
                 d="M 0 0  L 0 3.5  "
                 style="stroke: #000000; stroke-width: 0.8" />
            </defs>
            <g
               id="g2">
              <use
                 xlink:href="#m9969582f1f"
                 x="61.622109"
                 y="307.584"
                 style="stroke: #000000; stroke-width: 0.8"
                 id="use2" />
            </g>
          </g>
          <g
             id="text_1">
            <!-- −3 -->
            <g
               transform="translate(54.251015 322.182437) scale(0.1 -0.1)"
               id="g4">
              <defs
                 id="defs3">
                <path
                   id="DejaVuSans-2212"
                   d="M 678 2272  L 4684 2272  L 4684 1741  L 678 1741  L 678 2272  z "
                   transform="scale(0.015625)" />
                <path
                   id="DejaVuSans-33"
                   d="M 2597 2516  Q 3050 2419 3304 2112  Q 3559 1806 3559 1356  Q 3559 666 3084 287  Q 2609 -91 1734 -91  Q 1441 -91 1130 -33  Q 819 25 488 141  L 488 750  Q 750 597 1062 519  Q 1375 441 1716 441  Q 2309 441 2620 675  Q 2931 909 2931 1356  Q 2931 1769 2642 2001  Q 2353 2234 1838 2234  L 1294 2234  L 1294 2753  L 1863 2753  Q 2328 2753 2575 2939  Q 2822 3125 2822 3475  Q 2822 3834 2567 4026  Q 2313 4219 1838 4219  Q 1578 4219 1281 4162  Q 984 4106 628 3988  L 628 4550  Q 988 4650 1302 4700  Q 1616 4750 1894 4750  Q 2613 4750 3031 4423  Q 3450 4097 3450 3541  Q 3450 3153 3228 2886  Q 3006 2619 2597 2516  z "
                   transform="scale(0.015625)" />
              </defs>
              <use
                 xlink:href="#DejaVuSans-2212"
                 id="use3" />
              <use
                 xlink:href="#DejaVuSans-33"
                 x="83.789062"
                 id="use4" />
            </g>
          </g>
        </g>
        <g
           id="xtick_2">
          <g
             id="line2d_2">
            <g
               id="g5">
              <use
                 xlink:href="#m9969582f1f"
                 x="122.618614"
                 y="307.584"
                 style="stroke: #000000; stroke-width: 0.8"
                 id="use5" />
            </g>
          </g>
          <g
             id="text_2">
            <!-- −2 -->
            <g
               transform="translate(115.24752 322.182437) scale(0.1 -0.1)"
               id="g7">
              <defs
                 id="defs5">
                <path
                   id="DejaVuSans-32"
                   d="M 1228 531  L 3431 531  L 3431 0  L 469 0  L 469 531  Q 828 903 1448 1529  Q 2069 2156 2228 2338  Q 2531 2678 2651 2914  Q 2772 3150 2772 3378  Q 2772 3750 2511 3984  Q 2250 4219 1831 4219  Q 1534 4219 1204 4116  Q 875 4013 500 3803  L 500 4441  Q 881 4594 1212 4672  Q 1544 4750 1819 4750  Q 2544 4750 2975 4387  Q 3406 4025 3406 3419  Q 3406 3131 3298 2873  Q 3191 2616 2906 2266  Q 2828 2175 2409 1742  Q 1991 1309 1228 531  z "
                   transform="scale(0.015625)" />
              </defs>
              <use
                 xlink:href="#DejaVuSans-2212"
                 id="use6" />
              <use
                 xlink:href="#DejaVuSans-32"
                 x="83.789062"
                 id="use7" />
            </g>
          </g>
        </g>
        <g
           id="xtick_3">
          <g
             id="line2d_3">
            <g
               id="g8">
              <use
                 xlink:href="#m9969582f1f"
                 x="183.615119"
                 y="307.584"
                 style="stroke: #000000; stroke-width: 0.8"
                 id="use8" />
            </g>
          </g>
          <g
             id="text_3">
            <!-- −1 -->
            <g
               transform="translate(176.244025 322.182437) scale(0.1 -0.1)"
               id="g10">
              <defs
                 id="defs8">
                <path
                   id="DejaVuSans-31"
                   d="M 794 531  L 1825 531  L 1825 4091  L 703 3866  L 703 4441  L 1819 4666  L 2450 4666  L 2450 531  L 3481 531  L 3481 0  L 794 0  L 794 531  z "
                   transform="scale(0.015625)" />
              </defs>
              <use
                 xlink:href="#DejaVuSans-2212"
                 id="use9" />
              <use
                 xlink:href="#DejaVuSans-31"
                 x="83.789062"
                 id="use10" />
            </g>
          </g>
        </g>
        <g
           id="xtick_4">
          <g
             id="line2d_4">
            <g
               id="g11">
              <use
                 xlink:href="#m9969582f1f"
                 x="244.611623"
                 y="307.584"
                 style="stroke: #000000; stroke-width: 0.8"
                 id="use11" />
            </g>
          </g>
          <g
             id="text_4">
            <!-- 0 -->
            <g
               transform="translate(241.430373 322.182437) scale(0.1 -0.1)"
               id="g12">
              <defs
                 id="defs11">
                <path
                   id="DejaVuSans-30"
                   d="M 2034 4250  Q 1547 4250 1301 3770  Q 1056 3291 1056 2328  Q 1056 1369 1301 889  Q 1547 409 2034 409  Q 2525 409 2770 889  Q 3016 1369 3016 2328  Q 3016 3291 2770 3770  Q 2525 4250 2034 4250  z M 2034 4750  Q 2819 4750 3233 4129  Q 3647 3509 3647 2328  Q 3647 1150 3233 529  Q 2819 -91 2034 -91  Q 1250 -91 836 529  Q 422 1150 422 2328  Q 422 3509 836 4129  Q 1250 4750 2034 4750  z "
                   transform="scale(0.015625)" />
              </defs>
              <use
                 xlink:href="#DejaVuSans-30"
                 id="use12" />
            </g>
          </g>
        </g>
        <g
           id="xtick_5">
          <g
             id="line2d_5">
            <g
               id="g13">
              <use
                 xlink:href="#m9969582f1f"
                 x="305.608128"
                 y="307.584"
                 style="stroke: #000000; stroke-width: 0.8"
                 id="use13" />
            </g>
          </g>
          <g
             id="text_5">
            <!-- 1 -->
            <g
               transform="translate(302.426878 322.182437) scale(0.1 -0.1)"
               id="g14">
              <use
                 xlink:href="#DejaVuSans-31"
                 id="use14" />
            </g>
          </g>
        </g>
        <g
           id="xtick_6">
          <g
             id="line2d_6">
            <g
               id="g15">
              <use
                 xlink:href="#m9969582f1f"
                 x="366.604633"
                 y="307.584"
                 style="stroke: #000000; stroke-width: 0.8"
                 id="use15" />
            </g>
          </g>
          <g
             id="text_6">
            <!-- 2 -->
            <g
               transform="translate(363.423383 322.182437) scale(0.1 -0.1)"
               id="g16">
              <use
                 xlink:href="#DejaVuSans-32"
                 id="use16" />
            </g>
          </g>
        </g>
      </g>
      <g
         id="matplotlib.axis_2">
        <g
           id="ytick_1">
          <g
             id="line2d_7">
            <defs
               id="defs16">
              <path
                 id="m1203c4f844"
                 d="M 0 0  L -3.5 0  "
                 style="stroke: #000000; stroke-width: 0.8" />
            </defs>
            <g
               id="g17">
              <use
                 xlink:href="#m1203c4f844"
                 x="57.6"
                 y="307.461367"
                 style="stroke: #000000; stroke-width: 0.8"
                 id="use17" />
            </g>
          </g>
          <g
             id="text_7">
            <!-- −3 -->
            <g
               transform="translate(35.857813 311.260585) scale(0.1 -0.1)"
               id="g19">
              <use
                 xlink:href="#DejaVuSans-2212"
                 id="use18" />
              <use
                 xlink:href="#DejaVuSans-33"
                 x="83.789062"
                 id="use19" />
            </g>
          </g>
        </g>
        <g
           id="ytick_2">
          <g
             id="line2d_8">
            <g
               id="g20">
              <use
                 xlink:href="#m1203c4f844"
                 x="57.6"
                 y="263.150003"
                 style="stroke: #000000; stroke-width: 0.8"
                 id="use20" />
            </g>
          </g>
          <g
             id="text_8">
            <!-- −2 -->
            <g
               transform="translate(35.857813 266.949222) scale(0.1 -0.1)"
               id="g22">
              <use
                 xlink:href="#DejaVuSans-2212"
                 id="use21" />
              <use
                 xlink:href="#DejaVuSans-32"
                 x="83.789062"
                 id="use22" />
            </g>
          </g>
        </g>
        <g
           id="ytick_3">
          <g
             id="line2d_9">
            <g
               id="g23">
              <use
                 xlink:href="#m1203c4f844"
                 x="57.6"
                 y="218.83864"
                 style="stroke: #000000; stroke-width: 0.8"
                 id="use23" />
            </g>
          </g>
          <g
             id="text_9">
            <!-- −1 -->
            <g
               transform="translate(35.857813 222.637859) scale(0.1 -0.1)"
               id="g25">
              <use
                 xlink:href="#DejaVuSans-2212"
                 id="use24" />
              <use
                 xlink:href="#DejaVuSans-31"
                 x="83.789062"
                 id="use25" />
            </g>
          </g>
        </g>
        <g
           id="ytick_4">
          <g
             id="line2d_10">
            <g
               id="g26">
              <use
                 xlink:href="#m1203c4f844"
                 x="57.6"
                 y="174.527277"
                 style="stroke: #000000; stroke-width: 0.8"
                 id="use26" />
            </g>
          </g>
          <g
             id="text_10">
            <!-- 0 -->
            <g
               transform="translate(44.2375 178.326495) scale(0.1 -0.1)"
               id="g27">
              <use
                 xlink:href="#DejaVuSans-30"
                 id="use27" />
            </g>
          </g>
        </g>
        <g
           id="ytick_5">
          <g
             id="line2d_11">
            <g
               id="g28">
              <use
                 xlink:href="#m1203c4f844"
                 x="57.6"
                 y="130.215913"
                 style="stroke: #000000; stroke-width: 0.8"
                 id="use28" />
            </g>
          </g>
          <g
             id="text_11">
            <!-- 1 -->
            <g
               transform="translate(44.2375 134.015132) scale(0.1 -0.1)"
               id="g29">
              <use
                 xlink:href="#DejaVuSans-31"
                 id="use29" />
            </g>
          </g>
        </g>
        <g
           id="ytick_6">
          <g
             id="line2d_12">
            <g
               id="g30">
              <use
                 xlink:href="#m1203c4f844"
                 x="57.6"
                 y="85.90455"
                 style="stroke: #000000; stroke-width: 0.8"
                 id="use30" />
            </g>
          </g>
          <g
             id="text_12">
            <!-- 2 -->
            <g
               transform="translate(44.2375 89.703769) scale(0.1 -0.1)"
               id="g31">
              <use
                 xlink:href="#DejaVuSans-32"
                 id="use31" />
            </g>
          </g>
        </g>
        <g
           id="ytick_7">
          <g
             id="line2d_13">
            <g
               id="g32">
              <use
                 xlink:href="#m1203c4f844"
                 x="57.6"
                 y="41.593187"
                 style="stroke: #000000; stroke-width: 0.8"
                 id="use32" />
            </g>
          </g>
          <g
             id="text_13">
            <!-- 3 -->
            <g
               transform="translate(44.2375 45.392405) scale(0.1 -0.1)"
               id="g33">
              <use
                 xlink:href="#DejaVuSans-33"
                 id="use33" />
            </g>
          </g>
        </g>
      </g>
      <g
         id="line2d_14">
        <path
           d="M 366.604633 174.527277  L 367.910385 174.39337  L 370.148499 173.914673  L 373.310649 172.87606  L 375.171323 172.089885  L 377.175471 171.100575  L 379.28717 169.892929  L 381.468134 168.455008  L 383.678267 166.778317  L 385.876244 164.85794  L 388.020118 162.692622  L 390.067924 160.284802  L 391.97829 157.640583  L 393.711042 154.769662  L 395.227787 151.685198  L 396.492474 148.403634  L 397.471918 144.944471  L 398.136287 141.329996  L 398.459541 137.584974  L 398.419811 133.736301  L 397.999723 129.812623  L 397.186656 125.843938  L 395.972934 121.861171  L 394.35594 117.895736  L 392.338166 113.9791  L 389.927185 110.142328  L 387.135547 106.415656  L 383.980611 102.828057  L 380.4843 99.406835  L 376.672797 96.17724  L 372.576174 93.162115  L 368.227969 90.381572  L 363.664712 87.852716  L 358.925408 85.589402  L 354.050985 83.602047  L 349.083712 81.897489  L 344.066604 80.478896  L 339.042806 79.345727  L 334.05499 78.493752  L 329.144742 77.915119  L 324.351982 77.598476  L 319.714393 77.529142  L 315.266894 77.68933  L 311.041147 78.058406  L 307.065113 78.613198  L 303.362661 79.328339  L 299.953239 80.176636  L 296.851602 81.129473  L 294.067618 82.157229  L 291.606139 83.229712  L 289.466941 84.316605  L 287.644746 85.387903  L 284.905582 87.3679  L 283.250526 88.952342  L 282.313291 90.233251  L 282.371244 90.069141  L 282.56294 89.102761  L 282.582021 87.285282  L 282.425782 86.070998  L 282.107653 84.667384  L 281.591693 83.089412  L 280.844682 81.355162  L 279.836613 79.485562  L 278.541143 77.504092  L 276.935992 75.436441  L 275.003278 73.310143  L 272.729795 71.154173  L 270.107217 68.998537  L 267.132236 66.873832  L 263.806628 64.810812  L 260.137241 62.839936  L 256.135914 60.990934  L 251.819324 59.292374  L 247.208758 57.771249  L 242.329828 56.452589  L 237.21211 55.359093  L 231.88874 54.510805  L 226.395947 53.92482  L 220.772551 53.615036  L 215.059413 53.591951  L 209.298868 53.862509  L 203.534123 54.429998  L 197.808652 55.293996  L 192.165586 56.45038  L 186.647103 57.891377  L 181.293838 59.605675  L 176.144308 61.578581  L 171.234373 63.792233  L 166.596737 66.225848  L 162.260485 68.856021  L 158.250682 71.657059  L 154.588027 74.601346  L 151.288566 77.659734  L 148.363476 80.801963  L 145.81892 83.99709  L 143.655972 87.21393  L 141.870612 90.421502  L 140.453805 93.589468  L 139.39164 96.688565  L 138.665546 99.691022  L 138.252575 102.570954  L 138.125745 105.304729  L 138.254446 107.871299  L 138.604891 110.252503  L 139.14062 112.433315  L 139.823036 114.402056  L 140.611978 116.150555  L 141.466312 117.67426  L 143.205389 120.047452  L 144.714802 121.558407  L 145.897273 122.425192  L 145.602442 122.294662  L 144.230141 121.827968  L 141.680436 121.251887  L 137.932333 120.80454  L 135.624362 120.703201  L 133.045243 120.721354  L 130.214447 120.885724  L 127.155826 121.221181  L 123.897277 121.750367  L 120.470347 122.493357  L 116.90978 123.467359  L 113.253026 124.686453  L 109.539701 126.16138  L 105.811023 127.89937  L 102.109221 129.904031  L 98.47693 132.175284  L 94.956581 134.709349  L 91.589789 137.498795  L 88.416759 140.532628  L 85.475707 143.796444  L 82.802313 147.272622  L 80.429206 150.940566  L 78.385497 154.776995  L 76.69636 158.75626  L 75.38267 162.850711  L 74.460704 167.031076  L 73.941908 171.266877  L 73.832727 175.526858  L 74.13452 179.779422  L 74.843535 183.993076  L 75.950964 188.136874  L 77.443072 192.180852  L 79.301392 196.096449  L 81.50299 199.856907  L 84.020798 203.437645  L 86.823998 206.816603  L 89.87847 209.974548  L 93.147277 212.89534  L 96.591202 215.566153  L 100.169304 217.97765  L 103.839509 220.124102  L 107.559216 222.003465  L 111.285904 223.617392  L 114.977742 224.971202  L 118.594193 226.073789  L 122.096587 226.937485  L 125.44868 227.577865  L 128.617168 228.013519  L 131.572163 228.265763  L 134.287619 228.35833  L 138.917093 228.169261  L 142.386521 227.67026  L 144.655234 227.098652  L 145.915527 226.619284  L 145.525269 226.866266  L 144.39794 227.777139  L 142.80636 229.483981  L 141.932262 230.663098  L 141.060077 232.066858  L 140.231256 233.696338  L 139.487203 235.548932  L 138.868672 237.61838  L 138.415163 239.894848  L 138.164338 242.365067  L 138.15147 245.012509  L 138.408914 247.817625  L 138.965634 250.758116  L 139.846766 253.80925  L 141.073243 256.944208  L 142.661481 260.134471  L 144.623128 263.350217  L 146.96488 266.560754  L 149.688372 269.734948  L 152.790137 272.841672  L 156.261649 275.850251  L 160.089422 278.730892  L 164.255198 281.455116  L 168.73619 283.996161  L 173.505401 286.329363  L 178.531995 288.432509  L 183.781727 290.28615  L 189.217427 291.873883  L 194.799513 293.182577  L 200.486555 294.202564  L 206.235854 294.927772  L 212.004041 295.35581  L 217.747691 295.488  L 223.42393 295.329354  L 228.991043 294.888498  L 234.409056 294.177548  L 239.640298 293.21193  L 244.649931 292.010154  L 249.406434 290.593551  L 253.882043 288.985954  L 258.053133 287.213362  L 261.900549 285.303557  L 265.409858 283.285704  L 268.571548 281.189929  L 271.381144 279.046886  L 273.839257 276.887309  L 275.951563 274.741573  L 277.728697 272.639254  L 279.186089 270.608702  L 280.343722 268.676632  L 281.225828 266.867743  L 281.86052 265.204356  L 282.279372 263.7061  L 282.610272 261.26837  L 282.521345 259.648077  L 282.310967 258.815608  L 282.382744 258.949976  L 282.968536 259.772517  L 284.367857 261.219158  L 285.444393 262.123113  L 286.802777 263.114258  L 288.460515 264.165323  L 290.430426 265.247634  L 292.720441 266.331534  L 295.333474 267.386816  L 298.267365 268.383165  L 301.514901 269.290605  L 305.063899 270.07993  L 308.897374 270.723143  L 312.993766 271.193858  L 317.327244 271.467692  L 321.868057 271.522625  L 326.582958 271.339321  L 331.435668 270.90142  L 336.387385 270.195779  L 341.397337 269.212668  L 346.423354 267.945923  L 351.422466 266.393038  L 356.351512 264.555213  L 361.167753 262.437347  L 365.829473 260.047968  L 370.296578 257.399129  L 374.531156 254.506236  L 378.498018 251.387835  L 382.165196 248.065357  L 385.504392 244.562817  L 388.49138 240.906475  L 391.106343 237.124466  L 393.334151 233.246408  L 395.164573 229.302979  L 396.59241 225.32549  L 397.617567 221.345435  L 398.245045 217.394057  L 398.484858 213.501897  L 398.351885 209.698373  L 397.865644 206.011357  L 397.050004 202.466791  L 395.932837 199.088319  L 394.545603 195.896958  L 392.922894 192.910805  L 391.101929 190.144788  L 389.122007 187.610462  L 387.023938 185.31585  L 384.849448 183.265345  L 382.640569 181.45965  L 380.439034 179.895788  L 378.285663 178.56715  L 376.219775 177.463605  L 372.496814 175.874661  L 369.53377 174.98466  L 366.947961 174.545161  L 366.63696 174.526762  L 366.920847 174.511473  L 368.342971 174.320696  L 370.814342 173.728512  L 374.163366 172.531506  L 376.095638 171.652141  L 378.154863 170.562118  L 380.303943 169.247742  L 382.50367 167.698667  L 384.713299 165.908065  L 386.891138 163.872729  L 388.995154 161.593136  L 390.983586 159.07345  L 392.815549 156.321474  L 394.451633 153.348547  L 395.854475 150.169393  L 396.989306 146.80192  L 397.824457 143.266973  L 398.331822 139.588043  L 398.487273 135.790938  L 398.271013 131.903424  L 397.667871 127.954834  L 396.667525 123.975653  L 395.264661 119.99709  L 393.459058 116.05064  L 391.2556 112.167637  L 388.664209 108.37881  L 385.699719 104.713856  L 382.381663 101.201013  L 378.734003 97.866669  L 374.784797 94.734987  L 370.565799 91.827566  L 366.11201 89.163141  L 361.461191 86.757318  L 356.653317 84.622362  L 351.730019 82.767025  L 346.733992 81.196431  L 341.708388 79.91201  L 336.696207 78.911486  L 331.739684 78.188917  L 326.879697 77.734793  L 322.155184 77.536174  L 317.602597 77.576894  L 313.255385 77.837792  L 309.143526 78.297007  L 305.293107 78.93029  L 301.725961 79.711371  L 298.459362 80.612337  L 295.505797 81.604048  L 292.87279 82.656562  L 290.562816 83.739571  L 288.573271 84.822849  L 285.520084 86.872354  L 283.594709 88.581435  L 282.608128 89.754691  L 282.312178 90.236366  L 282.414328 89.919452  L 282.59501 88.751978  L 282.526517 86.740114  L 282.29897 85.435367  L 281.892369 83.94791  L 281.271986 82.294204  L 280.406048 80.493698  L 279.266213 78.568558  L 277.828 76.543345  L 276.071152 74.444659  L 273.97995 72.300762  L 271.543456 70.141166  L 268.755685 67.996209  L 265.61571 65.896616  L 262.127691 63.873057  L 258.300833 61.955706  L 254.149267 60.173799  L 249.691865 58.555215  L 244.951982 57.126074  L 239.957138 55.910356  L 234.738632 54.929553  L 229.331112 54.20236  L 223.772087 53.7444  L 218.101406 53.568  L 212.360693 53.682006  L 206.592767 54.091656  L 200.841037 54.798502  L 195.148891 55.800383  L 189.55909 57.091452  L 184.11316 58.662261  L 178.85081 60.499888  L 173.809379 62.588126  L 169.023306 64.907707  L 164.523649 67.436581  L 160.337657 70.150224  L 156.488385 73.021995  L 152.994382 76.023508  L 149.869432 79.125042  L 147.122375 82.295961  L 144.756991 85.505154  L 142.77196 88.721476  L 141.160898 91.914193  L 139.912459 95.053418  L 139.010516 98.110538  L 138.434405 101.058618  L 138.159241 103.872787  L 138.156285 106.530585  L 138.393378 109.012285  L 138.835415 111.301165  L 139.444863 113.383748  L 140.18232 115.249983  L 141.007093 116.893385  L 141.877799 118.311122  L 143.591685 120.476662  L 145.002216 121.79686  L 145.916823 122.435944  L 145.382255 122.207317  L 143.739942 121.693969  L 140.908086 121.126574  L 136.884588 120.74389  L 134.447301 120.695168  L 131.747433 120.77868  L 128.806549 121.02033  L 125.650445 121.443987  L 122.308782 122.071127  L 118.814666 122.920516  L 115.204174 124.007925  L 111.515841 125.345892  L 107.790106 126.943527  L 104.068737 128.806375  L 100.394229 130.936318  L 96.809196 133.331538  L 93.355764 135.986536  L 90.074958 138.892193  L 87.006122 142.035896  L 84.186348 145.401702  L 81.649946 148.970564  L 79.42795 152.720588  L 77.547673 156.627339  L 76.032315 160.664184  L 74.900628 164.802661  L 74.166647 169.012881  L 73.839488 173.263948  L 73.923219 177.524388  L 74.416798 181.7626  L 75.314092 185.947291  L 76.60396 190.047923  L 78.27042 194.035139  L 80.292872 197.881175  L 82.646398 201.56025  L 85.302119 205.048924  L 88.227611 208.326427  L 91.387369 211.374947  L 94.743318 214.179874  L 98.25536 216.729998  L 101.881949 219.017665  L 105.580687 221.038867  L 109.308935 222.793295  L 113.024421 224.28433  L 116.685846 225.518983  L 120.253478 226.507779  L 123.689718 227.264598  L 126.959639 227.806463  L 130.031485 228.153278  L 132.877118 228.327537  L 135.472425 228.35398  L 139.837705 228.071404  L 143.026211 227.533863  L 145.016135 226.979808  L 145.016135 226.979808  "
           clip-path="url(#pe9f9b5430e)"
           style="fill: none; stroke: #1f77b4; stroke-width: 1.5; stroke-linecap: square"
           id="path33" />
      </g>
      <g
         id="patch_3">
        <path
           d="M 57.6 307.584  L 57.6 41.472  "
           style="fill: none; stroke: #000000; stroke-width: 0.8; stroke-linejoin: miter; stroke-linecap: square"
           id="path34" />
      </g>
      <g
         id="patch_4">
        <path
           d="M 414.72 307.584  L 414.72 41.472  "
           style="fill: none; stroke: #000000; stroke-width: 0.8; stroke-linejoin: miter; stroke-linecap: square"
           id="path35" />
      </g>
      <g
         id="patch_5">
        <path
           d="M 57.6 307.584  L 414.72 307.584  "
           style="fill: none; stroke: #000000; stroke-width: 0.8; stroke-linejoin: miter; stroke-linecap: square"
           id="path36" />
      </g>
      <g
         id="patch_6">
        <path
           d="M 57.6 41.472  L 414.72 41.472  "
           style="fill: none; stroke: #000000; stroke-width: 0.8; stroke-linejoin: miter; stroke-linecap: square"
           id="path37" />
      </g>
    </g>
  </g>
  <defs
     id="defs37">
    <clipPath
       id="pe9f9b5430e">
      <rect
         x="57.6"
         y="41.472"
         width="357.12"
         height="266.112"
         id="rect37" />
    </clipPath>
  </defs>
  <path
     style="fill:#000000;fill-opacity:0;stroke:#000000;stroke-width:2"
     d="m 145.91682,122.43595 -2.71143,-2.3885 -0.86954,-1.1866 -0.8934,-1.2586 -1.22494,-2.32595 -0.73568,-1.85862 -0.87694,-3.16518 -0.21152,-1.24022 -0.26763,-3.70755 0.0335,-1.43194 0.27517,-2.81417 0.28805,-1.47404 0.28805,-1.474043 0.91221,-2.971522 0.53109,-1.549545 0.70709,-1.675275 0.80553,-1.59636 0.80553,-1.59636 0.99252,-1.608158 0.99251,-1.608165 1.18269,-1.604595 1.1827,-1.604594 1.2411,-1.494001 1.50595,-1.676917 1.41914,-1.465313 1.64973,-1.52919 1.80308,-1.60779 1.67798,-1.39355 1.83132,-1.472143 2.0049,-1.400519 2.17507,-1.463137 1.99796,-1.252469 2.16812,-1.315086 2.31883,-1.216807 2.31881,-1.216808 2.45497,-1.106826 2.45497,-1.106826 2.57477,-0.986453 0.13173,-0.09224 2.63117,-0.918813 2.48849,-0.832549 2.67663,-0.857149 2.75924,-0.720499 2.75924,-0.720498 2.82154,-0.578192 2.82153,-0.578192 2.86274,-0.431999 2.86273,-0.431999 3.05865,-0.338342 2.88396,-0.204825 2.70241,-0.159601 0.18155,-0.04523 2.87036,-0.057 2.87035,-0.057 2.67115,0.04703 2.8117,0.154891 2.81169,0.154893 2.7464,0.292992 2.7464,0.292992 2.66168,0.424145 2.66169,0.424144 2.55886,0.546747 2.55886,0.546749 0.12473,0.06563 2.31473,0.593704 2.43947,0.65933 2.30528,0.760562 2.30528,0.760563 2.1583,0.84928 2.15829,0.84928 2.00066,0.924501 2.00067,0.924501 1.83469,0.985438 1.89977,1.059462 1.74401,1.01178 3.00402,2.039568 1.48749,1.062353 1.31128,1.077818 1.3432,1.144609 2.24158,2.089179 0.96635,1.063149 0.97994,1.12071 1.59157,2.01009 0.64774,0.990735 0.64725,1.036297 1.00288,1.862828 0.75268,1.695457 0.51596,1.577978 0.31813,1.40361 0.13498,1.67505 0.0474,2.008642 -0.29595,0.481673 1.28253,-1.654928 0.96268,-0.854542 1.71777,-1.348988 1.36959,-0.99 0.91109,-0.53565 1.9807,-1.0791 2.33625,-1.116592 1.3165,-0.52626 1.27032,-0.486953 1.52297,-0.535155 3.11008,-0.946342 1.56529,-0.409365 0.068,-0.0411 1.78358,-0.39054 1.70435,-0.350063 0.0792,-0.0405 1.92521,-0.316642 1.83481,-0.277845 1.98802,-0.277403 0.15831,0.009 1.95456,-0.193537 4.33663,-0.26463 2.38825,-0.05272 2.15429,0.0075 0.122,-0.0276 4.59317,0.22062 0.13134,-0.02197 2.26505,0.18033 2.45512,0.289312 2.45512,0.28932 2.49391,0.425985 0.14731,-0.0083 2.50609,0.500265 2.35241,0.500565 2.5119,0.56658 2.50855,0.709298 2.50856,0.709297 2.48363,0.852278 2.48364,0.852285 2.43721,0.993675 2.56906,1.094115 2.23781,1.03122 2.36964,1.131652 0.12189,0.10752 2.32542,1.20291 2.11596,1.218428 2.1741,1.390275 2.1741,1.390267 0.0991,0.119168 2.1095,1.45371 1.97461,1.565835 1.81914,1.49121 1.97928,1.741807 1.67463,1.583608 1.74816,1.71061 1.57746,1.7938 1.57747,1.7938 1.39582,1.86334 1.39582,1.86333 1.20549,1.91839 1.20549,1.91838 c 0,0 1.00889,1.95832 1.00889,1.95832 l 1.0148,2.08645 0.90281,1.97322 0.70827,1.86408 0.69459,2.11449 0.50017,1.98959 0.50018,1.98959 0.30156,1.97429 0.45037,3.80718 0.0199,1.92433 -0.0301,2.02886 -0.0777,1.89855 -0.19555,1.74195 -0.33218,1.80723 0.0203,0.12975 -0.41758,1.76747 -0.98499,3.45121 -0.56176,1.55876 -0.63234,1.64078 -0.77616,1.66335 -0.81804,1.48646 -1.6553,2.80557 -0.95518,1.32212 -0.95518,1.32211 -1.07277,1.30833 -2.10402,2.27959 -2.11388,1.9454 -2.20406,1.79853 -2.26926,1.63109 -3.17869,1.85938 -1.99575,0.98469 -4.31516,1.6367 -1.78489,0.4255 -2.23699,0.38195 1.44841,0.22894 1.2929,0.21975 1.48153,0.445 1.48152,0.44501 3.72296,1.58894 2.06588,1.10354 1.07669,0.66432 2.17746,1.44626 2.2052,1.68477 2.19169,1.9281 1.08724,1.02525 2.09807,2.29461 0.98996,1.26717 0.98996,1.26716 0.91049,1.38301 0.91047,1.38301 c 0,0 1.62271,2.98615 1.62271,2.98615 l 0.69362,1.59568 1.2522,3.28492 0.55859,1.68923 0.40782,1.77229 0.40782,1.77228 0.48624,3.68702 0.0665,1.90176 0.0665,1.90176 -0.1199,1.94608 -0.43365,3.92177 c 0,0 -0.31373,1.97569 -0.31373,1.97569 0,0 -0.51258,1.99003 -0.51258,1.99003 l -0.51258,1.99003 -0.71392,1.98874 -0.71392,1.98875 -0.91521,1.97171 -2.02912,3.91074 -1.1139,1.93903 -1.30748,1.891 -1.30748,1.89101 -1.4935,1.82817 -1.49349,1.82817 -1.66959,1.75127 -1.66961,1.75127 -1.83358,1.66124 -1.8336,1.66124 -1.98342,1.5592 -1.98344,1.5592 -2.11729,1.44644 -2.11728,1.44645 -4.46711,2.64884 v 0 l -2.33086,1.19469 -2.33086,1.19469 -2.40812,1.05893 -2.40812,1.05893 -2.46452,0.91892 -2.46452,0.91891 -2.49956,0.77644 -2.49955,0.77645 -2.51301,0.63337 -2.51301,0.63337 -2.50498,0.49156 -2.50498,0.49155 -2.47585,0.35283 -2.47587,0.35281 -2.42635,0.21896 -2.42636,0.21894 -2.35744,0.0917 -4.62786,0.0642 -2.27041,-0.0274 -4.33348,-0.27383 -2.04819,-0.23536 -2.04819,-0.23535 -1.91674,-0.32161 -1.91674,-0.32161 -3.549,-0.78932 v 0 l -1.62377,-0.45372 -3.09072,-0.95189 -1.46693,-0.49818 -1.30653,-0.52764 -1.30651,-0.52764 -1.14501,-0.54195 -2.12996,-1.08311 -1.81383,-1.06669 -0.82887,-0.52553 -1.35838,-0.99115 -1.07654,-0.90395 -0.69966,-0.72332 -1.25204,-1.26399 0.19412,2.03653 -0.16545,1.21886 -0.37488,1.96799 -0.20942,0.74913 -0.6347,1.66339 -0.44105,0.90444 -0.44105,0.90445 -0.57882,0.96603 -1.30751,1.98131 -1.61726,2.06644 -1.94473,2.12403 -2.2852,2.15265 -1.22905,1.07979 -1.40481,1.07152 -1.40479,1.07153 -1.58085,1.04788 -1.58085,1.04789 -3.50931,2.01785 -1.9237,0.95491 -1.92371,0.9549 -2.08554,0.88629 -4.32335,1.6901 -2.23781,0.8038 -2.37825,0.7083 -2.37825,0.7083 -2.50482,0.60089 -5.12044,1.0837 -2.61561,0.4828 -2.70901,0.35548 -2.70901,0.35547 -5.56711,0.44086 -2.83812,0.0793 -2.83812,0.0793 -2.87183,-0.0661 -2.87182,-0.0661 -2.88409,-0.21402 -2.8841,-0.21402 -5.74929,-0.7252 v 0 l -2.84352,-0.51 -2.84353,-0.51 -2.79104,-0.65434 -2.79105,-0.65434 -2.71785,-0.79387 -2.71785,-0.79387 -2.62486,-0.92682 -2.62487,-0.92682 -2.51329,-1.05158 -2.5133,-1.05157 -2.38461,-1.1666 -2.3846,-1.1666 -2.2405,-1.27052 -2.24049,-1.27052 -2.08289,-1.36212 -2.08289,-1.36211 -1.91389,-1.44032 -1.91388,-1.44032 -1.73576,-1.50429 -1.73576,-1.50429 -3.10176,-3.10672 -1.36175,-1.5871 -1.36174,-1.5871 -1.17087,-1.60527 -2.15171,-3.21314 -0.98082,-1.60787 -0.79412,-1.59513 -1.40735,-3.16261 -0.61325,-1.56748 -0.44056,-1.52557 -0.44057,-1.52557 -0.55672,-2.94049 -0.12872,-1.40256 -0.11585,-4.05 0.12541,-1.2351 0.35217,-2.37335 0.22675,-1.13823 0.30926,-1.03473 1.05333,-2.88731 0.82881,-1.62948 1.30924,-1.99332 1.23284,-1.44298 2.11824,-1.88778 -2.19951,0.64167 -2.08893,0.41818 -1.59425,0.26878 -3.23535,0.19239 -1.12993,0.0902 -2.5953,-0.0265 -2.84564,-0.17426 -1.53592,-0.17341 -3.17088,-0.44433 c 0,0 -0.0418,0.0562 -1.63497,-0.27094 -1.59312,-0.32711 -3.43623,-0.75682 -3.43623,-0.75682 l -1.78382,-0.4944 -1.6837,-0.49088 -1.80822,-0.5513 -1.95332,-0.68687 -1.73851,-0.66694 -1.97697,-0.82409 -1.86413,-0.87721 -1.86412,-0.87722 -2.66259,-1.45363 -1.03615,-0.56757 -1.8133,-1.14384 -1.81329,-1.14383 -1.75602,-1.27506 -1.756027,-1.27506 -1.677975,-1.40247 -3.18687,-2.80286 -1.650863,-1.64812 -1.40361,-1.50982 -1.4016,-1.68948 -1.4016,-1.68948 -1.258905,-1.79037 c 0,0 -1.258905,-1.79037 -1.258905,-1.79037 l -1.210117,-1.97573 -1.011225,-1.92302 -1.838573,-3.7773 -0.746055,-2.022 -0.737992,-2.16125 -0.644933,-2.05032 -0.448648,-2.09234 -0.376417,-1.9687 -0.354507,-2.10682 -0.150897,-2.12629 -0.150896,-2.12628 c 0,0 0.04266,1.86461 0.04863,-0.13269 0.006,-1.9973 0.121714,-4.25575 0.121714,-4.25575 l 0.198239,-1.98944 c 0,0 0.259398,-2.1179 0.259398,-2.1179 0,0 0.460983,-2.09018 0.460983,-2.09018 0,0 0.460989,-2.09019 0.460989,-2.09019 0,0 0.0838,-0.11728 0.0838,-0.11728 0,0 0.565845,-2.06925 0.565845,-2.06925 0,0 0.75768,-2.01842 0.75768,-2.01842 l 0.75768,-2.01842 c 0,0 0.94014,-1.95338 0.94014,-1.95338 0,0 0.919538,-1.81518 0.919538,-1.81518 l 1.021852,-1.91821 1.186553,-1.83398 0.0342,-0.13602 1.268205,-1.78443 2.55756,-3.3897 0.120525,-0.0776 1.409887,-1.6829 1.534418,-1.57186 1.46274,-1.44833 c 0,0 1.712085,-1.57634 1.712085,-1.57634 l 1.557825,-1.33529 3.53601,-2.77254 1.66773,-1.15626 1.816149,-1.13562 0.10115,-0.10334 1.83725,-1.06497 v 0 l 1.83726,-1.06498 1.74228,-0.907 0.1184,-0.0245 1.74594,-0.84458 0.11475,-0.0868 1.86286,-0.79882 1.86287,-0.79881 1.84417,-0.66899 1.72139,-0.6 1.92802,-0.61269 1.80524,-0.5437 1.74707,-0.4247 1.74706,-0.42469 3.21777,-0.58535 1.62927,-0.2646 1.52931,-0.16773 3.06229,-0.27477 1.34994,-0.0418 2.56858,-0.0174 3.23039,0.21571 3.42767,0.47503 2.23709,0.54038 z"
     id="path41" />
</svg>
