<?xml version="1.0" encoding="UTF-8" standalone="no"?>
<svg
   width="432pt"
   height="432pt"
   viewBox="0 0 432 432"
   version="1.1"
   id="svg33"
   sodipodi:docname="sym_yang_and_guo_ortho_polar.svg"
   inkscape:version="1.4 (86a8ad7, 2024-10-11)"
   xmlns:inkscape="http://www.inkscape.org/namespaces/inkscape"
   xmlns:sodipodi="http://sodipodi.sourceforge.net/DTD/sodipodi-0.dtd"
   xmlns:xlink="http://www.w3.org/1999/xlink"
   xmlns="http://www.w3.org/2000/svg"
   xmlns:svg="http://www.w3.org/2000/svg"
   xmlns:rdf="http://www.w3.org/1999/02/22-rdf-syntax-ns#"
   xmlns:cc="http://creativecommons.org/ns#"
   xmlns:dc="http://purl.org/dc/elements/1.1/">
  <sodipodi:namedview
     id="namedview33"
     pagecolor="#ffffff"
     bordercolor="#000000"
     borderopacity="0.25"
     inkscape:showpageshadow="2"
     inkscape:pageopacity="0.0"
     inkscape:pagecheckerboard="0"
     inkscape:deskcolor="#d1d1d1"
     inkscape:document-units="pt"
     inkscape:zoom="1.4010417"
     inkscape:cx="198.78067"
     inkscape:cy="191.64312"
     inkscape:window-width="1920"
     inkscape:window-height="1009"
     inkscape:window-x="1912"
     inkscape:window-y="-8"
     inkscape:window-maximized="1"
     inkscape:current-layer="svg33" />
  <metadata
     id="metadata1">
    <rdf:RDF>
      <cc:Work>
        <dc:type
           rdf:resource="http://purl.org/dc/dcmitype/StillImage" />
        <dc:date>2025-03-21T14:43:34.090297</dc:date>
        <dc:format>image/svg+xml</dc:format>
        <dc:creator>
          <cc:Agent>
            <dc:title>Matplotlib v3.9.2, https://matplotlib.org/</dc:title>
          </cc:Agent>
        </dc:creator>
      </cc:Work>
    </rdf:RDF>
  </metadata>
  <defs
     id="defs1">
    <style
       type="text/css"
       id="style1">*{stroke-linejoin: round; stroke-linecap: butt}</style>
  </defs>
  <g
     id="figure_1">
    <g
       id="patch_1">
      <path
         d="M 0 432  L 432 432  L 432 0  L 0 0  z "
         style="fill: #ffffff"
         id="path1" />
    </g>
    <g
       id="axes_1">
      <g
         id="patch_2">
        <path
           d="M 54 384.48  L 388.8 384.48  L 388.8 51.84  L 54 51.84  z "
           style="fill: #ffffff"
           id="path2" />
      </g>
      <g
         id="matplotlib.axis_1">
        <g
           id="xtick_1">
          <g
             id="line2d_1">
            <path
               d="M 87.48 384.48  L 87.48 51.84  "
               clip-path="url(#pf61e8a36dc)"
               style="fill: none; stroke: #b0b0b0; stroke-width: 0.8; stroke-linecap: square"
               id="path3" />
          </g>
          <g
             id="line2d_2">
            <defs
               id="defs3">
              <path
                 id="mfced47c5bf"
                 d="M 0 0  L 0 3.5  "
                 style="stroke: #000000; stroke-width: 0.8" />
            </defs>
            <g
               id="g3">
              <use
                 xlink:href="#mfced47c5bf"
                 x="87.48"
                 y="384.48"
                 style="stroke: #000000; stroke-width: 0.8"
                 id="use3" />
            </g>
          </g>
          <g
             id="text_1">
            <!-- 0 -->
            <g
               transform="translate(84.29875 399.078438) scale(0.1 -0.1)"
               id="g4">
              <defs
                 id="defs4">
                <path
                   id="DejaVuSans-30"
                   d="M 2034 4250  Q 1547 4250 1301 3770  Q 1056 3291 1056 2328  Q 1056 1369 1301 889  Q 1547 409 2034 409  Q 2525 409 2770 889  Q 3016 1369 3016 2328  Q 3016 3291 2770 3770  Q 2525 4250 2034 4250  z M 2034 4750  Q 2819 4750 3233 4129  Q 3647 3509 3647 2328  Q 3647 1150 3233 529  Q 2819 -91 2034 -91  Q 1250 -91 836 529  Q 422 1150 422 2328  Q 422 3509 836 4129  Q 1250 4750 2034 4750  z "
                   transform="scale(0.015625)" />
              </defs>
              <use
                 xlink:href="#DejaVuSans-30"
                 id="use4" />
            </g>
          </g>
        </g>
        <g
           id="xtick_2">
          <g
             id="line2d_3">
            <path
               d="M 154.44 384.48  L 154.44 51.84  "
               clip-path="url(#pf61e8a36dc)"
               style="fill: none; stroke: #b0b0b0; stroke-width: 0.8; stroke-linecap: square"
               id="path4" />
          </g>
          <g
             id="line2d_4">
            <g
               id="g5">
              <use
                 xlink:href="#mfced47c5bf"
                 x="154.44"
                 y="384.48"
                 style="stroke: #000000; stroke-width: 0.8"
                 id="use5" />
            </g>
          </g>
          <g
             id="text_2">
            <!-- 1 -->
            <g
               transform="translate(151.25875 399.078438) scale(0.1 -0.1)"
               id="g6">
              <defs
                 id="defs5">
                <path
                   id="DejaVuSans-31"
                   d="M 794 531  L 1825 531  L 1825 4091  L 703 3866  L 703 4441  L 1819 4666  L 2450 4666  L 2450 531  L 3481 531  L 3481 0  L 794 0  L 794 531  z "
                   transform="scale(0.015625)" />
              </defs>
              <use
                 xlink:href="#DejaVuSans-31"
                 id="use6" />
            </g>
          </g>
        </g>
        <g
           id="xtick_3">
          <g
             id="line2d_5">
            <path
               d="M 221.4 384.48  L 221.4 51.84  "
               clip-path="url(#pf61e8a36dc)"
               style="fill: none; stroke: #b0b0b0; stroke-width: 0.8; stroke-linecap: square"
               id="path6" />
          </g>
          <g
             id="line2d_6">
            <g
               id="g7">
              <use
                 xlink:href="#mfced47c5bf"
                 x="221.4"
                 y="384.48"
                 style="stroke: #000000; stroke-width: 0.8"
                 id="use7" />
            </g>
          </g>
          <g
             id="text_3">
            <!-- 2 -->
            <g
               transform="translate(218.21875 399.078438) scale(0.1 -0.1)"
               id="g8">
              <defs
                 id="defs7">
                <path
                   id="DejaVuSans-32"
                   d="M 1228 531  L 3431 531  L 3431 0  L 469 0  L 469 531  Q 828 903 1448 1529  Q 2069 2156 2228 2338  Q 2531 2678 2651 2914  Q 2772 3150 2772 3378  Q 2772 3750 2511 3984  Q 2250 4219 1831 4219  Q 1534 4219 1204 4116  Q 875 4013 500 3803  L 500 4441  Q 881 4594 1212 4672  Q 1544 4750 1819 4750  Q 2544 4750 2975 4387  Q 3406 4025 3406 3419  Q 3406 3131 3298 2873  Q 3191 2616 2906 2266  Q 2828 2175 2409 1742  Q 1991 1309 1228 531  z "
                   transform="scale(0.015625)" />
              </defs>
              <use
                 xlink:href="#DejaVuSans-32"
                 id="use8" />
            </g>
          </g>
        </g>
        <g
           id="xtick_4">
          <g
             id="line2d_7">
            <path
               d="M 288.36 384.48  L 288.36 51.84  "
               clip-path="url(#pf61e8a36dc)"
               style="fill: none; stroke: #b0b0b0; stroke-width: 0.8; stroke-linecap: square"
               id="path8" />
          </g>
          <g
             id="line2d_8">
            <g
               id="g9">
              <use
                 xlink:href="#mfced47c5bf"
                 x="288.36"
                 y="384.48"
                 style="stroke: #000000; stroke-width: 0.8"
                 id="use9" />
            </g>
          </g>
          <g
             id="text_4">
            <!-- 3 -->
            <g
               transform="translate(285.17875 399.078438) scale(0.1 -0.1)"
               id="g10">
              <defs
                 id="defs9">
                <path
                   id="DejaVuSans-33"
                   d="M 2597 2516  Q 3050 2419 3304 2112  Q 3559 1806 3559 1356  Q 3559 666 3084 287  Q 2609 -91 1734 -91  Q 1441 -91 1130 -33  Q 819 25 488 141  L 488 750  Q 750 597 1062 519  Q 1375 441 1716 441  Q 2309 441 2620 675  Q 2931 909 2931 1356  Q 2931 1769 2642 2001  Q 2353 2234 1838 2234  L 1294 2234  L 1294 2753  L 1863 2753  Q 2328 2753 2575 2939  Q 2822 3125 2822 3475  Q 2822 3834 2567 4026  Q 2313 4219 1838 4219  Q 1578 4219 1281 4162  Q 984 4106 628 3988  L 628 4550  Q 988 4650 1302 4700  Q 1616 4750 1894 4750  Q 2613 4750 3031 4423  Q 3450 4097 3450 3541  Q 3450 3153 3228 2886  Q 3006 2619 2597 2516  z "
                   transform="scale(0.015625)" />
              </defs>
              <use
                 xlink:href="#DejaVuSans-33"
                 id="use10" />
            </g>
          </g>
        </g>
        <g
           id="xtick_5">
          <g
             id="line2d_9">
            <path
               d="M 355.32 384.48  L 355.32 51.84  "
               clip-path="url(#pf61e8a36dc)"
               style="fill: none; stroke: #b0b0b0; stroke-width: 0.8; stroke-linecap: square"
               id="path10" />
          </g>
          <g
             id="line2d_10">
            <g
               id="g11">
              <use
                 xlink:href="#mfced47c5bf"
                 x="355.32"
                 y="384.48"
                 style="stroke: #000000; stroke-width: 0.8"
                 id="use11" />
            </g>
          </g>
          <g
             id="text_5">
            <!-- 4 -->
            <g
               transform="translate(352.13875 399.078438) scale(0.1 -0.1)"
               id="g12">
              <defs
                 id="defs11">
                <path
                   id="DejaVuSans-34"
                   d="M 2419 4116  L 825 1625  L 2419 1625  L 2419 4116  z M 2253 4666  L 3047 4666  L 3047 1625  L 3713 1625  L 3713 1100  L 3047 1100  L 3047 0  L 2419 0  L 2419 1100  L 313 1100  L 313 1709  L 2253 4666  z "
                   transform="scale(0.015625)" />
              </defs>
              <use
                 xlink:href="#DejaVuSans-34"
                 id="use12" />
            </g>
          </g>
        </g>
        <g
           id="text_6">
          <!-- r -->
          <g
             transform="translate(219.344531 412.756563) scale(0.1 -0.1)"
             id="g13">
            <defs
               id="defs12">
              <path
                 id="DejaVuSans-72"
                 d="M 2631 2963  Q 2534 3019 2420 3045  Q 2306 3072 2169 3072  Q 1681 3072 1420 2755  Q 1159 2438 1159 1844  L 1159 0  L 581 0  L 581 3500  L 1159 3500  L 1159 2956  Q 1341 3275 1631 3429  Q 1922 3584 2338 3584  Q 2397 3584 2469 3576  Q 2541 3569 2628 3553  L 2631 2963  z "
                 transform="scale(0.015625)" />
            </defs>
            <use
               xlink:href="#DejaVuSans-72"
               id="use13" />
          </g>
        </g>
      </g>
      <g
         id="matplotlib.axis_2">
        <g
           id="ytick_1">
          <g
             id="line2d_11">
            <path
               d="M 54 322.661938  L 388.8 322.661938  "
               clip-path="url(#pf61e8a36dc)"
               style="fill: none; stroke: #b0b0b0; stroke-width: 0.8; stroke-linecap: square"
               id="path13" />
          </g>
          <g
             id="line2d_12">
            <defs
               id="defs13">
              <path
                 id="m6a1c3e2d2e"
                 d="M 0 0  L -3.5 0  "
                 style="stroke: #000000; stroke-width: 0.8" />
            </defs>
            <g
               id="g14">
              <use
                 xlink:href="#m6a1c3e2d2e"
                 x="54"
                 y="322.661938"
                 style="stroke: #000000; stroke-width: 0.8"
                 id="use14" />
            </g>
          </g>
          <g
             id="text_7">
            <!-- -π/2 -->
            <g
               transform="translate(27.640625 326.461157) scale(0.1 -0.1)"
               id="g18">
              <defs
                 id="defs14">
                <path
                   id="DejaVuSans-2d"
                   d="M 313 2009  L 1997 2009  L 1997 1497  L 313 1497  L 313 2009  z "
                   transform="scale(0.015625)" />
                <path
                   id="DejaVuSans-3c0"
                   d="M 231 3500  L 3584 3500  L 3584 2925  L 3144 2925  L 3144 775  Q 3144 550 3220 451  Q 3297 353 3469 353  Q 3516 353 3584 361  Q 3653 369 3675 372  L 3675 -44  Q 3566 -84 3450 -103  Q 3334 -122 3219 -122  Q 2844 -122 2700 83  Q 2556 288 2556 838  L 2556 2925  L 1266 2925  L 1266 0  L 678 0  L 678 2925  L 231 2925  L 231 3500  z "
                   transform="scale(0.015625)" />
                <path
                   id="DejaVuSans-2f"
                   d="M 1625 4666  L 2156 4666  L 531 -594  L 0 -594  L 1625 4666  z "
                   transform="scale(0.015625)" />
              </defs>
              <use
                 xlink:href="#DejaVuSans-2d"
                 id="use15" />
              <use
                 xlink:href="#DejaVuSans-3c0"
                 x="36.083984"
                 id="use16" />
              <use
                 xlink:href="#DejaVuSans-2f"
                 x="96.289062"
                 id="use17" />
              <use
                 xlink:href="#DejaVuSans-32"
                 x="129.980469"
                 id="use18" />
            </g>
          </g>
        </g>
        <g
           id="ytick_2">
          <g
             id="line2d_13">
            <path
               d="M 54 218.16  L 388.8 218.16  "
               clip-path="url(#pf61e8a36dc)"
               style="fill: none; stroke: #b0b0b0; stroke-width: 0.8; stroke-linecap: square"
               id="path18" />
          </g>
          <g
             id="line2d_14">
            <g
               id="g19">
              <use
                 xlink:href="#m6a1c3e2d2e"
                 x="54"
                 y="218.16"
                 style="stroke: #000000; stroke-width: 0.8"
                 id="use19" />
            </g>
          </g>
          <g
             id="text_8">
            <!-- 0 -->
            <g
               transform="translate(40.6375 221.959219) scale(0.1 -0.1)"
               id="g20">
              <use
                 xlink:href="#DejaVuSans-30"
                 id="use20" />
            </g>
          </g>
        </g>
        <g
           id="ytick_3">
          <g
             id="line2d_15">
            <path
               d="M 54 113.658062  L 388.8 113.658062  "
               clip-path="url(#pf61e8a36dc)"
               style="fill: none; stroke: #b0b0b0; stroke-width: 0.8; stroke-linecap: square"
               id="path20" />
          </g>
          <g
             id="line2d_16">
            <g
               id="g21">
              <use
                 xlink:href="#m6a1c3e2d2e"
                 x="54"
                 y="113.658062"
                 style="stroke: #000000; stroke-width: 0.8"
                 id="use21" />
            </g>
          </g>
          <g
             id="text_9">
            <!-- π/2 -->
            <g
               transform="translate(31.248438 117.457281) scale(0.1 -0.1)"
               id="g24">
              <use
                 xlink:href="#DejaVuSans-3c0"
                 id="use22" />
              <use
                 xlink:href="#DejaVuSans-2f"
                 x="60.205078"
                 id="use23" />
              <use
                 xlink:href="#DejaVuSans-32"
                 x="93.896484"
                 id="use24" />
            </g>
          </g>
        </g>
        <g
           id="text_10">
          <!-- theta -->
          <g
             transform="translate(21.560938 231.389687) rotate(-90) scale(0.1 -0.1)"
             id="g29">
            <defs
               id="defs24">
              <path
                 id="DejaVuSans-74"
                 d="M 1172 4494  L 1172 3500  L 2356 3500  L 2356 3053  L 1172 3053  L 1172 1153  Q 1172 725 1289 603  Q 1406 481 1766 481  L 2356 481  L 2356 0  L 1766 0  Q 1100 0 847 248  Q 594 497 594 1153  L 594 3053  L 172 3053  L 172 3500  L 594 3500  L 594 4494  L 1172 4494  z "
                 transform="scale(0.015625)" />
              <path
                 id="DejaVuSans-68"
                 d="M 3513 2113  L 3513 0  L 2938 0  L 2938 2094  Q 2938 2591 2744 2837  Q 2550 3084 2163 3084  Q 1697 3084 1428 2787  Q 1159 2491 1159 1978  L 1159 0  L 581 0  L 581 4863  L 1159 4863  L 1159 2956  Q 1366 3272 1645 3428  Q 1925 3584 2291 3584  Q 2894 3584 3203 3211  Q 3513 2838 3513 2113  z "
                 transform="scale(0.015625)" />
              <path
                 id="DejaVuSans-65"
                 d="M 3597 1894  L 3597 1613  L 953 1613  Q 991 1019 1311 708  Q 1631 397 2203 397  Q 2534 397 2845 478  Q 3156 559 3463 722  L 3463 178  Q 3153 47 2828 -22  Q 2503 -91 2169 -91  Q 1331 -91 842 396  Q 353 884 353 1716  Q 353 2575 817 3079  Q 1281 3584 2069 3584  Q 2775 3584 3186 3129  Q 3597 2675 3597 1894  z M 3022 2063  Q 3016 2534 2758 2815  Q 2500 3097 2075 3097  Q 1594 3097 1305 2825  Q 1016 2553 972 2059  L 3022 2063  z "
                 transform="scale(0.015625)" />
              <path
                 id="DejaVuSans-61"
                 d="M 2194 1759  Q 1497 1759 1228 1600  Q 959 1441 959 1056  Q 959 750 1161 570  Q 1363 391 1709 391  Q 2188 391 2477 730  Q 2766 1069 2766 1631  L 2766 1759  L 2194 1759  z M 3341 1997  L 3341 0  L 2766 0  L 2766 531  Q 2569 213 2275 61  Q 1981 -91 1556 -91  Q 1019 -91 701 211  Q 384 513 384 1019  Q 384 1609 779 1909  Q 1175 2209 1959 2209  L 2766 2209  L 2766 2266  Q 2766 2663 2505 2880  Q 2244 3097 1772 3097  Q 1472 3097 1187 3025  Q 903 2953 641 2809  L 641 3341  Q 956 3463 1253 3523  Q 1550 3584 1831 3584  Q 2591 3584 2966 3190  Q 3341 2797 3341 1997  z "
                 transform="scale(0.015625)" />
            </defs>
            <use
               xlink:href="#DejaVuSans-74"
               id="use25" />
            <use
               xlink:href="#DejaVuSans-68"
               x="39.208984"
               id="use26" />
            <use
               xlink:href="#DejaVuSans-65"
               x="102.587891"
               id="use27" />
            <use
               xlink:href="#DejaVuSans-74"
               x="164.111328"
               id="use28" />
            <use
               xlink:href="#DejaVuSans-61"
               x="203.320312"
               id="use29" />
          </g>
        </g>
      </g>
      <g
         id="QuadContourSet_1">
        <path
           d="M 219.383133 351.155283  L 216.693976 350.88614  L 214.004819 350.400357  L 211.315663 349.698182  L 208.626506 348.771228  L 205.937349 347.618081  L 203.248193 346.232175  L 200.255351 344.402892  L 197.86988 342.728775  L 194.954582 340.395181  L 192.026235 337.723373  L 189.417874 335.051566  L 187.055656 332.379759  L 183.890407 328.372048  L 181.068757 324.364337  L 178.526282 320.356627  L 176.213716 316.348916  L 173.439125 311.005301  L 170.956597 305.661687  L 168.289157 299.189234  L 166.26036 293.638554  L 164.255422 287.510225  L 162.548304 281.615422  L 160.845758 274.935904  L 159.370693 268.256386  L 158.108589 261.576867  L 157.046136 254.897349  L 156.020188 246.881928  L 155.258718 238.866506  L 154.746194 230.851084  L 154.484001 222.835663  L 154.463833 214.820241  L 154.685688 206.804819  L 155.155816 198.789398  L 155.876126 190.773976  L 156.674976 184.094458  L 157.658012 177.41494  L 159.100316 169.399518  L 160.532023 162.72  L 162.18924 156.040482  L 164.087701 149.360964  L 165.801236 144.017349  L 168.2097 137.337831  L 169.815474 133.33012  L 172.322892 127.643591  L 175.012048 122.207702  L 177.727939 117.299277  L 180.390361 112.979489  L 183.079518 109.048362  L 185.956722 105.276145  L 188.457831 102.320957  L 191.146988 99.460386  L 193.836145 96.901717  L 196.572828 94.588916  L 199.214458 92.621229  L 202.396907 90.581205  L 204.832134 89.245301  L 207.737236 87.909398  L 209.971084 87.058032  L 212.660241 86.243499  L 215.349398 85.649764  L 218.466298 85.23759  L 220.727711 85.111281  L 223.416867 85.164717  L 226.106024 85.43386  L 228.795181 85.919643  L 231.484337 86.621818  L 234.173494 87.548772  L 236.862651 88.701919  L 239.551807 90.087825  L 242.544649 91.917108  L 244.93012 93.591225  L 247.845418 95.924819  L 250.773765 98.596627  L 253.382126 101.268434  L 255.744344 103.940241  L 258.909593 107.947952  L 261.731243 111.955663  L 264.273718 115.963373  L 266.586284 119.971084  L 269.360875 125.314699  L 271.843403 130.658313  L 274.510843 137.130766  L 276.53964 142.681446  L 278.544578 148.809775  L 280.251696 154.704578  L 281.954242 161.384096  L 283.429307 168.063614  L 284.691411 174.743133  L 285.753864 181.422651  L 286.779812 189.438072  L 287.541282 197.453494  L 288.053806 205.468916  L 288.315999 213.484337  L 288.336167 221.499759  L 288.114312 229.515181  L 287.644184 237.530602  L 286.923874 245.546024  L 286.125024 252.225542  L 285.141988 258.90506  L 283.699684 266.920482  L 282.267977 273.6  L 280.61076 280.279518  L 278.712299 286.959036  L 276.998764 292.302651  L 274.5903 298.982169  L 272.984526 302.98988  L 270.477108 308.676409  L 267.787952 314.112298  L 265.072061 319.020723  L 262.409639 323.340511  L 259.720482 327.271638  L 256.843278 331.043855  L 254.342169 333.999043  L 251.653012 336.859614  L 248.963855 339.418283  L 246.227172 341.731084  L 243.585542 343.698771  L 240.403093 345.738795  L 237.967866 347.074699  L 235.062764 348.410602  L 232.828916 349.261968  L 230.139759 350.076501  L 227.450602 350.670236  L 224.333702 351.08241  L 222.072289 351.208719  L 219.383133 351.155283  L 219.383133 351.155283  "
           clip-path="url(#pf61e8a36dc)"
           style="fill: none; stroke: #0000ff; stroke-width: 1.5"
           id="path29" />
      </g>
      <g
         id="patch_3">
        <path
           d="M 54 384.48  L 54 51.84  "
           style="fill: none; stroke: #000000; stroke-width: 0.8; stroke-linejoin: miter; stroke-linecap: square"
           id="path30" />
      </g>
      <g
         id="patch_4">
        <path
           d="M 388.8 384.48  L 388.8 51.84  "
           style="fill: none; stroke: #000000; stroke-width: 0.8; stroke-linejoin: miter; stroke-linecap: square"
           id="path31" />
      </g>
      <g
         id="patch_5">
        <path
           d="M 54 384.48  L 388.8 384.48  "
           style="fill: none; stroke: #000000; stroke-width: 0.8; stroke-linejoin: miter; stroke-linecap: square"
           id="path32" />
      </g>
      <g
         id="patch_6">
        <path
           d="M 54 51.84  L 388.8 51.84  "
           style="fill: none; stroke: #000000; stroke-width: 0.8; stroke-linejoin: miter; stroke-linecap: square"
           id="path33" />
      </g>
    </g>
  </g>
  <defs
     id="defs33">
    <clipPath
       id="pf61e8a36dc">
      <rect
         x="54"
         y="51.84"
         width="334.8"
         height="332.64"
         id="rect33" />
    </clipPath>
  </defs>
  <path
     style="fill:#000000;fill-opacity:0;stroke:#f50000;stroke-width:0.75;stroke-dasharray:9, 9"
     d="M 154.44,218.16 H 288.32776"
     id="path34" />
  <path
     style="fill:#000000;fill-opacity:0;stroke:#f50000;stroke-width:0.75;stroke-dasharray:9, 9"
     d="M 221.4,86.319705 V 351.19536"
     id="path35" />
</svg>
