<?xml version="1.0" encoding="UTF-8" standalone="no"?>
<svg
   width="432pt"
   height="432pt"
   viewBox="0 0 432 432"
   version="1.1"
   id="svg52"
   sodipodi:docname="sym_nephroid_cartesian.svg"
   inkscape:version="1.4 (86a8ad7, 2024-10-11)"
   inkscape:export-filename="sym_nephroid_cartesian.png"
   inkscape:export-xdpi="96"
   inkscape:export-ydpi="96"
   xmlns:inkscape="http://www.inkscape.org/namespaces/inkscape"
   xmlns:sodipodi="http://sodipodi.sourceforge.net/DTD/sodipodi-0.dtd"
   xmlns:xlink="http://www.w3.org/1999/xlink"
   xmlns="http://www.w3.org/2000/svg"
   xmlns:svg="http://www.w3.org/2000/svg"
   xmlns:rdf="http://www.w3.org/1999/02/22-rdf-syntax-ns#"
   xmlns:cc="http://creativecommons.org/ns#"
   xmlns:dc="http://purl.org/dc/elements/1.1/">
  <sodipodi:namedview
     id="namedview52"
     pagecolor="#ffffff"
     bordercolor="#000000"
     borderopacity="0.25"
     inkscape:showpageshadow="2"
     inkscape:pageopacity="0.0"
     inkscape:pagecheckerboard="0"
     inkscape:deskcolor="#d1d1d1"
     inkscape:document-units="pt"
     inkscape:zoom="1.4010417"
     inkscape:cx="204.49071"
     inkscape:cy="378.64684"
     inkscape:window-width="1920"
     inkscape:window-height="1009"
     inkscape:window-x="1912"
     inkscape:window-y="-8"
     inkscape:window-maximized="1"
     inkscape:current-layer="svg52" />
  <metadata
     id="metadata1">
    <rdf:RDF>
      <cc:Work>
        <dc:type
           rdf:resource="http://purl.org/dc/dcmitype/StillImage" />
        <dc:date>2025-03-21T13:40:59.232728</dc:date>
        <dc:format>image/svg+xml</dc:format>
        <dc:creator>
          <cc:Agent>
            <dc:title>Matplotlib v3.9.2, https://matplotlib.org/</dc:title>
          </cc:Agent>
        </dc:creator>
      </cc:Work>
    </rdf:RDF>
  </metadata>
  <defs
     id="defs1">
    <style
       type="text/css"
       id="style1">*{stroke-linejoin: round; stroke-linecap: butt}</style>
  </defs>
  <g
     id="figure_1">
    <g
       id="patch_1">
      <path
         d="M 0 432  L 432 432  L 432 0  L 0 0  z "
         style="fill: #ffffff"
         id="path1" />
    </g>
    <g
       id="axes_1">
      <g
         id="patch_2">
        <path
           d="M 54 384.48  L 388.8 384.48  L 388.8 51.84  L 54 51.84  z "
           style="fill: #ffffff"
           id="path2" />
      </g>
      <g
         id="matplotlib.axis_1">
        <g
           id="xtick_1">
          <g
             id="line2d_1">
            <path
               d="M 63.847059 384.48  L 63.847059 51.84  "
               clip-path="url(#pfaa94eb98e)"
               style="fill: none; stroke: #b0b0b0; stroke-width: 0.8; stroke-linecap: square"
               id="path3" />
          </g>
          <g
             id="line2d_2">
            <defs
               id="defs3">
              <path
                 id="m1b7f7c386c"
                 d="M 0 0  L 0 3.5  "
                 style="stroke: #000000; stroke-width: 0.8" />
            </defs>
            <g
               id="g3">
              <use
                 xlink:href="#m1b7f7c386c"
                 x="63.847059"
                 y="384.48"
                 style="stroke: #000000; stroke-width: 0.8"
                 id="use3" />
            </g>
          </g>
          <g
             id="text_1">
            <!-- −8 -->
            <g
               transform="translate(56.475965 399.078438) scale(0.1 -0.1)"
               id="g5">
              <defs
                 id="defs4">
                <path
                   id="DejaVuSans-2212"
                   d="M 678 2272  L 4684 2272  L 4684 1741  L 678 1741  L 678 2272  z "
                   transform="scale(0.015625)" />
                <path
                   id="DejaVuSans-38"
                   d="M 2034 2216  Q 1584 2216 1326 1975  Q 1069 1734 1069 1313  Q 1069 891 1326 650  Q 1584 409 2034 409  Q 2484 409 2743 651  Q 3003 894 3003 1313  Q 3003 1734 2745 1975  Q 2488 2216 2034 2216  z M 1403 2484  Q 997 2584 770 2862  Q 544 3141 544 3541  Q 544 4100 942 4425  Q 1341 4750 2034 4750  Q 2731 4750 3128 4425  Q 3525 4100 3525 3541  Q 3525 3141 3298 2862  Q 3072 2584 2669 2484  Q 3125 2378 3379 2068  Q 3634 1759 3634 1313  Q 3634 634 3220 271  Q 2806 -91 2034 -91  Q 1263 -91 848 271  Q 434 634 434 1313  Q 434 1759 690 2068  Q 947 2378 1403 2484  z M 1172 3481  Q 1172 3119 1398 2916  Q 1625 2713 2034 2713  Q 2441 2713 2670 2916  Q 2900 3119 2900 3481  Q 2900 3844 2670 4047  Q 2441 4250 2034 4250  Q 1625 4250 1398 4047  Q 1172 3844 1172 3481  z "
                   transform="scale(0.015625)" />
              </defs>
              <use
                 xlink:href="#DejaVuSans-2212"
                 id="use4" />
              <use
                 xlink:href="#DejaVuSans-38"
                 x="83.789062"
                 id="use5" />
            </g>
          </g>
        </g>
        <g
           id="xtick_2">
          <g
             id="line2d_3">
            <path
               d="M 103.235294 384.48  L 103.235294 51.84  "
               clip-path="url(#pfaa94eb98e)"
               style="fill: none; stroke: #b0b0b0; stroke-width: 0.8; stroke-linecap: square"
               id="path5" />
          </g>
          <g
             id="line2d_4">
            <g
               id="g6">
              <use
                 xlink:href="#m1b7f7c386c"
                 x="103.235294"
                 y="384.48"
                 style="stroke: #000000; stroke-width: 0.8"
                 id="use6" />
            </g>
          </g>
          <g
             id="text_2">
            <!-- −6 -->
            <g
               transform="translate(95.8642 399.078438) scale(0.1 -0.1)"
               id="g8">
              <defs
                 id="defs6">
                <path
                   id="DejaVuSans-36"
                   d="M 2113 2584  Q 1688 2584 1439 2293  Q 1191 2003 1191 1497  Q 1191 994 1439 701  Q 1688 409 2113 409  Q 2538 409 2786 701  Q 3034 994 3034 1497  Q 3034 2003 2786 2293  Q 2538 2584 2113 2584  z M 3366 4563  L 3366 3988  Q 3128 4100 2886 4159  Q 2644 4219 2406 4219  Q 1781 4219 1451 3797  Q 1122 3375 1075 2522  Q 1259 2794 1537 2939  Q 1816 3084 2150 3084  Q 2853 3084 3261 2657  Q 3669 2231 3669 1497  Q 3669 778 3244 343  Q 2819 -91 2113 -91  Q 1303 -91 875 529  Q 447 1150 447 2328  Q 447 3434 972 4092  Q 1497 4750 2381 4750  Q 2619 4750 2861 4703  Q 3103 4656 3366 4563  z "
                   transform="scale(0.015625)" />
              </defs>
              <use
                 xlink:href="#DejaVuSans-2212"
                 id="use7" />
              <use
                 xlink:href="#DejaVuSans-36"
                 x="83.789062"
                 id="use8" />
            </g>
          </g>
        </g>
        <g
           id="xtick_3">
          <g
             id="line2d_5">
            <path
               d="M 142.623529 384.48  L 142.623529 51.84  "
               clip-path="url(#pfaa94eb98e)"
               style="fill: none; stroke: #b0b0b0; stroke-width: 0.8; stroke-linecap: square"
               id="path8" />
          </g>
          <g
             id="line2d_6">
            <g
               id="g9">
              <use
                 xlink:href="#m1b7f7c386c"
                 x="142.623529"
                 y="384.48"
                 style="stroke: #000000; stroke-width: 0.8"
                 id="use9" />
            </g>
          </g>
          <g
             id="text_3">
            <!-- −4 -->
            <g
               transform="translate(135.252436 399.078438) scale(0.1 -0.1)"
               id="g11">
              <defs
                 id="defs9">
                <path
                   id="DejaVuSans-34"
                   d="M 2419 4116  L 825 1625  L 2419 1625  L 2419 4116  z M 2253 4666  L 3047 4666  L 3047 1625  L 3713 1625  L 3713 1100  L 3047 1100  L 3047 0  L 2419 0  L 2419 1100  L 313 1100  L 313 1709  L 2253 4666  z "
                   transform="scale(0.015625)" />
              </defs>
              <use
                 xlink:href="#DejaVuSans-2212"
                 id="use10" />
              <use
                 xlink:href="#DejaVuSans-34"
                 x="83.789062"
                 id="use11" />
            </g>
          </g>
        </g>
        <g
           id="xtick_4">
          <g
             id="line2d_7">
            <path
               d="M 182.011765 384.48  L 182.011765 51.84  "
               clip-path="url(#pfaa94eb98e)"
               style="fill: none; stroke: #b0b0b0; stroke-width: 0.8; stroke-linecap: square"
               id="path11" />
          </g>
          <g
             id="line2d_8">
            <g
               id="g12">
              <use
                 xlink:href="#m1b7f7c386c"
                 x="182.011765"
                 y="384.48"
                 style="stroke: #000000; stroke-width: 0.8"
                 id="use12" />
            </g>
          </g>
          <g
             id="text_4">
            <!-- −2 -->
            <g
               transform="translate(174.640671 399.078438) scale(0.1 -0.1)"
               id="g14">
              <defs
                 id="defs12">
                <path
                   id="DejaVuSans-32"
                   d="M 1228 531  L 3431 531  L 3431 0  L 469 0  L 469 531  Q 828 903 1448 1529  Q 2069 2156 2228 2338  Q 2531 2678 2651 2914  Q 2772 3150 2772 3378  Q 2772 3750 2511 3984  Q 2250 4219 1831 4219  Q 1534 4219 1204 4116  Q 875 4013 500 3803  L 500 4441  Q 881 4594 1212 4672  Q 1544 4750 1819 4750  Q 2544 4750 2975 4387  Q 3406 4025 3406 3419  Q 3406 3131 3298 2873  Q 3191 2616 2906 2266  Q 2828 2175 2409 1742  Q 1991 1309 1228 531  z "
                   transform="scale(0.015625)" />
              </defs>
              <use
                 xlink:href="#DejaVuSans-2212"
                 id="use13" />
              <use
                 xlink:href="#DejaVuSans-32"
                 x="83.789062"
                 id="use14" />
            </g>
          </g>
        </g>
        <g
           id="xtick_5">
          <g
             id="line2d_9">
            <path
               d="M 221.4 384.48  L 221.4 51.84  "
               clip-path="url(#pfaa94eb98e)"
               style="fill: none; stroke: #b0b0b0; stroke-width: 0.8; stroke-linecap: square"
               id="path14" />
          </g>
          <g
             id="line2d_10">
            <g
               id="g15">
              <use
                 xlink:href="#m1b7f7c386c"
                 x="221.4"
                 y="384.48"
                 style="stroke: #000000; stroke-width: 0.8"
                 id="use15" />
            </g>
          </g>
          <g
             id="text_5">
            <!-- 0 -->
            <g
               transform="translate(218.21875 399.078438) scale(0.1 -0.1)"
               id="g16">
              <defs
                 id="defs15">
                <path
                   id="DejaVuSans-30"
                   d="M 2034 4250  Q 1547 4250 1301 3770  Q 1056 3291 1056 2328  Q 1056 1369 1301 889  Q 1547 409 2034 409  Q 2525 409 2770 889  Q 3016 1369 3016 2328  Q 3016 3291 2770 3770  Q 2525 4250 2034 4250  z M 2034 4750  Q 2819 4750 3233 4129  Q 3647 3509 3647 2328  Q 3647 1150 3233 529  Q 2819 -91 2034 -91  Q 1250 -91 836 529  Q 422 1150 422 2328  Q 422 3509 836 4129  Q 1250 4750 2034 4750  z "
                   transform="scale(0.015625)" />
              </defs>
              <use
                 xlink:href="#DejaVuSans-30"
                 id="use16" />
            </g>
          </g>
        </g>
        <g
           id="xtick_6">
          <g
             id="line2d_11">
            <path
               d="M 260.788235 384.48  L 260.788235 51.84  "
               clip-path="url(#pfaa94eb98e)"
               style="fill: none; stroke: #b0b0b0; stroke-width: 0.8; stroke-linecap: square"
               id="path16" />
          </g>
          <g
             id="line2d_12">
            <g
               id="g17">
              <use
                 xlink:href="#m1b7f7c386c"
                 x="260.788235"
                 y="384.48"
                 style="stroke: #000000; stroke-width: 0.8"
                 id="use17" />
            </g>
          </g>
          <g
             id="text_6">
            <!-- 2 -->
            <g
               transform="translate(257.606985 399.078438) scale(0.1 -0.1)"
               id="g18">
              <use
                 xlink:href="#DejaVuSans-32"
                 id="use18" />
            </g>
          </g>
        </g>
        <g
           id="xtick_7">
          <g
             id="line2d_13">
            <path
               d="M 300.176471 384.48  L 300.176471 51.84  "
               clip-path="url(#pfaa94eb98e)"
               style="fill: none; stroke: #b0b0b0; stroke-width: 0.8; stroke-linecap: square"
               id="path18" />
          </g>
          <g
             id="line2d_14">
            <g
               id="g19">
              <use
                 xlink:href="#m1b7f7c386c"
                 x="300.176471"
                 y="384.48"
                 style="stroke: #000000; stroke-width: 0.8"
                 id="use19" />
            </g>
          </g>
          <g
             id="text_7">
            <!-- 4 -->
            <g
               transform="translate(296.995221 399.078438) scale(0.1 -0.1)"
               id="g20">
              <use
                 xlink:href="#DejaVuSans-34"
                 id="use20" />
            </g>
          </g>
        </g>
        <g
           id="xtick_8">
          <g
             id="line2d_15">
            <path
               d="M 339.564706 384.48  L 339.564706 51.84  "
               clip-path="url(#pfaa94eb98e)"
               style="fill: none; stroke: #b0b0b0; stroke-width: 0.8; stroke-linecap: square"
               id="path20" />
          </g>
          <g
             id="line2d_16">
            <g
               id="g21">
              <use
                 xlink:href="#m1b7f7c386c"
                 x="339.564706"
                 y="384.48"
                 style="stroke: #000000; stroke-width: 0.8"
                 id="use21" />
            </g>
          </g>
          <g
             id="text_8">
            <!-- 6 -->
            <g
               transform="translate(336.383456 399.078438) scale(0.1 -0.1)"
               id="g22">
              <use
                 xlink:href="#DejaVuSans-36"
                 id="use22" />
            </g>
          </g>
        </g>
        <g
           id="xtick_9">
          <g
             id="line2d_17">
            <path
               d="M 378.952941 384.48  L 378.952941 51.84  "
               clip-path="url(#pfaa94eb98e)"
               style="fill: none; stroke: #b0b0b0; stroke-width: 0.8; stroke-linecap: square"
               id="path22" />
          </g>
          <g
             id="line2d_18">
            <g
               id="g23">
              <use
                 xlink:href="#m1b7f7c386c"
                 x="378.952941"
                 y="384.48"
                 style="stroke: #000000; stroke-width: 0.8"
                 id="use23" />
            </g>
          </g>
          <g
             id="text_9">
            <!-- 8 -->
            <g
               transform="translate(375.771691 399.078438) scale(0.1 -0.1)"
               id="g24">
              <use
                 xlink:href="#DejaVuSans-38"
                 id="use24" />
            </g>
          </g>
        </g>
        <g
           id="text_10">
          <!-- x -->
          <g
             transform="translate(218.440625 412.756563) scale(0.1 -0.1)"
             id="g25">
            <defs
               id="defs24">
              <path
                 id="DejaVuSans-78"
                 d="M 3513 3500  L 2247 1797  L 3578 0  L 2900 0  L 1881 1375  L 863 0  L 184 0  L 1544 1831  L 300 3500  L 978 3500  L 1906 2253  L 2834 3500  L 3513 3500  z "
                 transform="scale(0.015625)" />
            </defs>
            <use
               xlink:href="#DejaVuSans-78"
               id="use25" />
          </g>
        </g>
      </g>
      <g
         id="matplotlib.axis_2">
        <g
           id="ytick_1">
          <g
             id="line2d_19">
            <path
               d="M 54 374.696471  L 388.8 374.696471  "
               clip-path="url(#pfaa94eb98e)"
               style="fill: none; stroke: #b0b0b0; stroke-width: 0.8; stroke-linecap: square"
               id="path25" />
          </g>
          <g
             id="line2d_20">
            <defs
               id="defs25">
              <path
                 id="m237e20ebd8"
                 d="M 0 0  L -3.5 0  "
                 style="stroke: #000000; stroke-width: 0.8" />
            </defs>
            <g
               id="g26">
              <use
                 xlink:href="#m237e20ebd8"
                 x="54"
                 y="374.696471"
                 style="stroke: #000000; stroke-width: 0.8"
                 id="use26" />
            </g>
          </g>
          <g
             id="text_11">
            <!-- −8 -->
            <g
               transform="translate(32.257812 378.495689) scale(0.1 -0.1)"
               id="g28">
              <use
                 xlink:href="#DejaVuSans-2212"
                 id="use27" />
              <use
                 xlink:href="#DejaVuSans-38"
                 x="83.789062"
                 id="use28" />
            </g>
          </g>
        </g>
        <g
           id="ytick_2">
          <g
             id="line2d_21">
            <path
               d="M 54 335.562353  L 388.8 335.562353  "
               clip-path="url(#pfaa94eb98e)"
               style="fill: none; stroke: #b0b0b0; stroke-width: 0.8; stroke-linecap: square"
               id="path28" />
          </g>
          <g
             id="line2d_22">
            <g
               id="g29">
              <use
                 xlink:href="#m237e20ebd8"
                 x="54"
                 y="335.562353"
                 style="stroke: #000000; stroke-width: 0.8"
                 id="use29" />
            </g>
          </g>
          <g
             id="text_12">
            <!-- −6 -->
            <g
               transform="translate(32.257812 339.361572) scale(0.1 -0.1)"
               id="g31">
              <use
                 xlink:href="#DejaVuSans-2212"
                 id="use30" />
              <use
                 xlink:href="#DejaVuSans-36"
                 x="83.789062"
                 id="use31" />
            </g>
          </g>
        </g>
        <g
           id="ytick_3">
          <g
             id="line2d_23">
            <path
               d="M 54 296.428235  L 388.8 296.428235  "
               clip-path="url(#pfaa94eb98e)"
               style="fill: none; stroke: #b0b0b0; stroke-width: 0.8; stroke-linecap: square"
               id="path31" />
          </g>
          <g
             id="line2d_24">
            <g
               id="g32">
              <use
                 xlink:href="#m237e20ebd8"
                 x="54"
                 y="296.428235"
                 style="stroke: #000000; stroke-width: 0.8"
                 id="use32" />
            </g>
          </g>
          <g
             id="text_13">
            <!-- −4 -->
            <g
               transform="translate(32.257812 300.227454) scale(0.1 -0.1)"
               id="g34">
              <use
                 xlink:href="#DejaVuSans-2212"
                 id="use33" />
              <use
                 xlink:href="#DejaVuSans-34"
                 x="83.789062"
                 id="use34" />
            </g>
          </g>
        </g>
        <g
           id="ytick_4">
          <g
             id="line2d_25">
            <path
               d="M 54 257.294118  L 388.8 257.294118  "
               clip-path="url(#pfaa94eb98e)"
               style="fill: none; stroke: #b0b0b0; stroke-width: 0.8; stroke-linecap: square"
               id="path34" />
          </g>
          <g
             id="line2d_26">
            <g
               id="g35">
              <use
                 xlink:href="#m237e20ebd8"
                 x="54"
                 y="257.294118"
                 style="stroke: #000000; stroke-width: 0.8"
                 id="use35" />
            </g>
          </g>
          <g
             id="text_14">
            <!-- −2 -->
            <g
               transform="translate(32.257812 261.093336) scale(0.1 -0.1)"
               id="g37">
              <use
                 xlink:href="#DejaVuSans-2212"
                 id="use36" />
              <use
                 xlink:href="#DejaVuSans-32"
                 x="83.789062"
                 id="use37" />
            </g>
          </g>
        </g>
        <g
           id="ytick_5">
          <g
             id="line2d_27">
            <path
               d="M 54 218.16  L 388.8 218.16  "
               clip-path="url(#pfaa94eb98e)"
               style="fill: none; stroke: #b0b0b0; stroke-width: 0.8; stroke-linecap: square"
               id="path37" />
          </g>
          <g
             id="line2d_28">
            <g
               id="g38">
              <use
                 xlink:href="#m237e20ebd8"
                 x="54"
                 y="218.16"
                 style="stroke: #000000; stroke-width: 0.8"
                 id="use38" />
            </g>
          </g>
          <g
             id="text_15">
            <!-- 0 -->
            <g
               transform="translate(40.6375 221.959219) scale(0.1 -0.1)"
               id="g39">
              <use
                 xlink:href="#DejaVuSans-30"
                 id="use39" />
            </g>
          </g>
        </g>
        <g
           id="ytick_6">
          <g
             id="line2d_29">
            <path
               d="M 54 179.025882  L 388.8 179.025882  "
               clip-path="url(#pfaa94eb98e)"
               style="fill: none; stroke: #b0b0b0; stroke-width: 0.8; stroke-linecap: square"
               id="path39" />
          </g>
          <g
             id="line2d_30">
            <g
               id="g40">
              <use
                 xlink:href="#m237e20ebd8"
                 x="54"
                 y="179.025882"
                 style="stroke: #000000; stroke-width: 0.8"
                 id="use40" />
            </g>
          </g>
          <g
             id="text_16">
            <!-- 2 -->
            <g
               transform="translate(40.6375 182.825101) scale(0.1 -0.1)"
               id="g41">
              <use
                 xlink:href="#DejaVuSans-32"
                 id="use41" />
            </g>
          </g>
        </g>
        <g
           id="ytick_7">
          <g
             id="line2d_31">
            <path
               d="M 54 139.891765  L 388.8 139.891765  "
               clip-path="url(#pfaa94eb98e)"
               style="fill: none; stroke: #b0b0b0; stroke-width: 0.8; stroke-linecap: square"
               id="path41" />
          </g>
          <g
             id="line2d_32">
            <g
               id="g42">
              <use
                 xlink:href="#m237e20ebd8"
                 x="54"
                 y="139.891765"
                 style="stroke: #000000; stroke-width: 0.8"
                 id="use42" />
            </g>
          </g>
          <g
             id="text_17">
            <!-- 4 -->
            <g
               transform="translate(40.6375 143.690983) scale(0.1 -0.1)"
               id="g43">
              <use
                 xlink:href="#DejaVuSans-34"
                 id="use43" />
            </g>
          </g>
        </g>
        <g
           id="ytick_8">
          <g
             id="line2d_33">
            <path
               d="M 54 100.757647  L 388.8 100.757647  "
               clip-path="url(#pfaa94eb98e)"
               style="fill: none; stroke: #b0b0b0; stroke-width: 0.8; stroke-linecap: square"
               id="path43" />
          </g>
          <g
             id="line2d_34">
            <g
               id="g44">
              <use
                 xlink:href="#m237e20ebd8"
                 x="54"
                 y="100.757647"
                 style="stroke: #000000; stroke-width: 0.8"
                 id="use44" />
            </g>
          </g>
          <g
             id="text_18">
            <!-- 6 -->
            <g
               transform="translate(40.6375 104.556866) scale(0.1 -0.1)"
               id="g45">
              <use
                 xlink:href="#DejaVuSans-36"
                 id="use45" />
            </g>
          </g>
        </g>
        <g
           id="ytick_9">
          <g
             id="line2d_35">
            <path
               d="M 54 61.623529  L 388.8 61.623529  "
               clip-path="url(#pfaa94eb98e)"
               style="fill: none; stroke: #b0b0b0; stroke-width: 0.8; stroke-linecap: square"
               id="path45" />
          </g>
          <g
             id="line2d_36">
            <g
               id="g46">
              <use
                 xlink:href="#m237e20ebd8"
                 x="54"
                 y="61.623529"
                 style="stroke: #000000; stroke-width: 0.8"
                 id="use46" />
            </g>
          </g>
          <g
             id="text_19">
            <!-- 8 -->
            <g
               transform="translate(40.6375 65.422748) scale(0.1 -0.1)"
               id="g47">
              <use
                 xlink:href="#DejaVuSans-38"
                 id="use47" />
            </g>
          </g>
        </g>
        <g
           id="text_20">
          <!-- y -->
          <g
             transform="translate(26.178125 221.119375) rotate(-90) scale(0.1 -0.1)"
             id="g48">
            <defs
               id="defs47">
              <path
                 id="DejaVuSans-79"
                 d="M 2059 -325  Q 1816 -950 1584 -1140  Q 1353 -1331 966 -1331  L 506 -1331  L 506 -850  L 844 -850  Q 1081 -850 1212 -737  Q 1344 -625 1503 -206  L 1606 56  L 191 3500  L 800 3500  L 1894 763  L 2988 3500  L 3597 3500  L 2059 -325  z "
                 transform="scale(0.015625)" />
            </defs>
            <use
               xlink:href="#DejaVuSans-79"
               id="use48" />
          </g>
        </g>
      </g>
      <g
         id="QuadContourSet_1">
        <path
           d="M 207.281928 373.853222  L 206.784262 373.792771  L 205.937349 373.683148  L 204.592771 373.494335  L 203.248193 373.291482  L 201.903614 373.074964  L 200.559036 372.845175  L 199.214458 372.602522  L 198.449618 372.456867  L 197.86988 372.339575  L 196.525301 372.053452  L 195.180723 371.755158  L 193.836145 371.445201  L 192.491566 371.124096  L 192.479016 371.120964  L 191.146988 370.768829  L 189.80241 370.402823  L 188.457831 370.026884  L 187.618093 369.78506  L 187.113253 369.631249  L 185.768675 369.209072  L 184.424096 368.778525  L 183.41747 368.449157  L 183.079518 368.332348  L 181.73494 367.855044  L 180.390361 367.371254  L 179.687496 367.113253  L 179.045783 366.864859  L 177.701205 366.334682  L 176.356627 365.800165  L 176.300628 365.777349  L 175.012048 365.224784  L 173.66747 364.645161  L 173.202549 364.441446  L 172.322892 364.036174  L 170.978313 363.411665  L 170.32638 363.105542  L 169.633735 362.763943  L 168.289157 362.09527  L 167.639898 361.769639  L 166.944578 361.403799  L 165.6 360.692211  L 165.116017 360.433735  L 164.255422 359.952201  L 162.910843 359.199477  L 162.731589 359.097831  L 161.566265 358.406473  L 160.476795 357.761928  L 160.221687 357.604063  L 158.877108 356.764899  L 158.335484 356.426024  L 157.53253 355.901352  L 156.287944 355.09012  L 156.187952 355.022079  L 154.843373 354.09879  L 154.341619 353.754217  L 153.498795 353.150987  L 152.473195 352.418313  L 152.154217 352.18094  L 150.809639 351.178793  L 150.681121 351.08241  L 149.46506 350.134116  L 148.967492 349.746506  L 148.120482 349.060843  L 147.316681 348.410602  L 146.775904 347.956312  L 145.726127 347.074699  L 145.431325 346.817783  L 144.193347 345.738795  L 144.086747 345.642454  L 142.742169 344.425727  L 142.717032 344.402892  L 141.39759 343.162612  L 141.296004 343.066988  L 140.053012 341.857374  L 139.923483 341.731084  L 138.708434 340.507473  L 138.597197 340.395181  L 137.363855 339.110432  L 137.314893 339.059277  L 136.076876 337.723373  L 136.019277 337.659178  L 134.88254 336.38747  L 134.674699 336.147982  L 133.727354 335.051566  L 133.33012 334.578595  L 132.609032 333.715663  L 131.985542 332.948976  L 131.525289 332.379759  L 130.640964 331.257342  L 130.473841 331.043855  L 129.460058 329.707952  L 129.296386 329.485379  L 128.48378 328.372048  L 127.951807 327.626103  L 127.534527 327.036145  L 126.6101 325.700241  L 126.607229 325.695921  L 125.730459 324.364337  L 125.262651 323.639512  L 124.872258 323.028434  L 124.03912 321.69253  L 123.918072 321.49108  L 123.244173 320.356627  L 122.573494 319.20903  L 122.46479 319.020723  L 121.723806 317.684819  L 121.228916 316.774766  L 121.000485 316.348916  L 120.308699 315.013012  L 119.884337 314.173303  L 119.637341 313.677108  L 118.99576 312.341205  L 118.539759 311.369204  L 118.371854 311.005301  L 117.781205 309.669398  L 117.200099 308.333494  L 117.195181 308.321542  L 116.660511 306.99759  L 116.132076 305.661687  L 115.850602 304.921899  L 115.628396 304.325783  L 115.152555 302.98988  L 114.689385 301.653976  L 114.506024 301.097477  L 114.255051 300.318072  L 113.845069 298.982169  L 113.449445 297.646265  L 113.161446 296.626644  L 113.074367 296.310361  L 112.731683 294.974458  L 112.404847 293.638554  L 112.094449 292.302651  L 111.816867 291.036201  L 111.802084 290.966747  L 111.543988 289.630843  L 111.303473 288.29494  L 111.081083 286.959036  L 110.877361 285.623133  L 110.692845 284.287229  L 110.528063 282.951325  L 110.472289 282.424908  L 110.389592 281.615422  L 110.274459 280.279518  L 110.179296 278.943614  L 110.104462 277.607711  L 110.050285 276.271807  L 110.017054 274.935904  L 110.005011 273.6  L 110.01435 272.264096  L 110.045207 270.928193  L 110.097656 269.592289  L 110.1717 268.256386  L 110.267268 266.920482  L 110.384205 265.584578  L 110.472289 264.723067  L 110.526667 264.248675  L 110.699753 262.912771  L 110.895399 261.576867  L 111.113079 260.240964  L 111.352136 258.90506  L 111.611783 257.569157  L 111.816867 256.580987  L 111.89835 256.233253  L 112.225852 254.897349  L 112.573208 253.561446  L 112.938965 252.225542  L 113.161446 251.439934  L 113.338447 250.889639  L 113.778774 249.553735  L 114.234513 248.217831  L 114.506024 247.435829  L 114.725692 246.881928  L 115.260272 245.546024  L 115.804748 244.21012  L 115.850602 244.096496  L 116.417378 242.874217  L 117.040545 241.538313  L 117.195181 241.201473  L 117.725362 240.20241  L 118.427758 238.866506  L 118.539759 238.647187  L 119.203213 237.530602  L 119.884337 236.357965  L 119.995462 236.194699  L 120.866628 234.858795  L 121.228916 234.278429  L 121.785931 233.522892  L 122.573494 232.396706  L 122.748245 232.186988  L 123.788292 230.851084  L 123.918072 230.67056  L 124.917395 229.515181  L 125.262651 229.077353  L 126.124462 228.179277  L 126.607229 227.616859  L 127.425922 226.843373  L 127.951807 226.274676  L 128.840248 225.50747  L 129.296386 225.042499  L 130.386201 224.171566  L 130.640964 223.920621  L 131.985542 222.904408  L 132.107412 222.835663  L 133.33012 221.92534  L 134.126231 221.499759  L 134.674699 221.063617  L 136.019277 220.330465  L 136.496353 220.163855  L 137.363855 219.561147  L 138.708434 219.021697  L 139.704199 218.827952  L 139.704199 217.492048  L 138.708434 217.298303  L 137.363855 216.758853  L 136.496353 216.156145  L 136.019277 215.989535  L 134.674699 215.256383  L 134.126231 214.820241  L 133.33012 214.39466  L 132.107412 213.484337  L 131.985542 213.415592  L 130.640964 212.399379  L 130.386201 212.148434  L 129.296386 211.277501  L 128.840248 210.81253  L 127.951807 210.045324  L 127.425922 209.476627  L 126.607229 208.703141  L 126.124462 208.140723  L 125.262651 207.242647  L 124.917395 206.804819  L 123.918072 205.64944  L 123.788292 205.468916  L 122.748245 204.133012  L 122.573494 203.923294  L 121.785931 202.797108  L 121.228916 202.041571  L 120.866628 201.461205  L 119.995462 200.125301  L 119.884337 199.962035  L 119.203213 198.789398  L 118.539759 197.672813  L 118.427758 197.453494  L 117.725362 196.11759  L 117.195181 195.118527  L 117.040545 194.781687  L 116.417378 193.445783  L 115.850602 192.223504  L 115.804748 192.10988  L 115.260272 190.773976  L 114.725692 189.438072  L 114.506024 188.884171  L 114.234513 188.102169  L 113.778774 186.766265  L 113.338447 185.430361  L 113.161446 184.880066  L 112.938965 184.094458  L 112.573208 182.758554  L 112.225852 181.422651  L 111.89835 180.086747  L 111.816867 179.739013  L 111.611783 178.750843  L 111.352136 177.41494  L 111.113079 176.079036  L 110.895399 174.743133  L 110.699753 173.407229  L 110.526667 172.071325  L 110.472289 171.596933  L 110.384205 170.735422  L 110.267268 169.399518  L 110.1717 168.063614  L 110.097656 166.727711  L 110.045207 165.391807  L 110.01435 164.055904  L 110.005011 162.72  L 110.017054 161.384096  L 110.050285 160.048193  L 110.104462 158.712289  L 110.179296 157.376386  L 110.274459 156.040482  L 110.389592 154.704578  L 110.472289 153.895092  L 110.528063 153.368675  L 110.692845 152.032771  L 110.877361 150.696867  L 111.081083 149.360964  L 111.303473 148.02506  L 111.543988 146.689157  L 111.802084 145.353253  L 111.816867 145.283799  L 112.094449 144.017349  L 112.404847 142.681446  L 112.731683 141.345542  L 113.074367 140.009639  L 113.161446 139.693356  L 113.449445 138.673735  L 113.845069 137.337831  L 114.255051 136.001928  L 114.506024 135.222523  L 114.689385 134.666024  L 115.152555 133.33012  L 115.628396 131.994217  L 115.850602 131.398101  L 116.132076 130.658313  L 116.660511 129.32241  L 117.195181 127.998458  L 117.200099 127.986506  L 117.781205 126.650602  L 118.371854 125.314699  L 118.539759 124.950796  L 118.99576 123.978795  L 119.637341 122.642892  L 119.884337 122.146697  L 120.308699 121.306988  L 121.000485 119.971084  L 121.228916 119.545234  L 121.723806 118.635181  L 122.46479 117.299277  L 122.573494 117.11097  L 123.244173 115.963373  L 123.918072 114.82892  L 124.03912 114.62747  L 124.872258 113.291566  L 125.262651 112.680488  L 125.730459 111.955663  L 126.607229 110.624079  L 126.6101 110.619759  L 127.534527 109.283855  L 127.951807 108.693897  L 128.48378 107.947952  L 129.296386 106.834621  L 129.460058 106.612048  L 130.473841 105.276145  L 130.640964 105.062658  L 131.525289 103.940241  L 131.985542 103.371024  L 132.609032 102.604337  L 133.33012 101.741405  L 133.727354 101.268434  L 134.674699 100.172018  L 134.88254 99.93253  L 136.019277 98.660822  L 136.076876 98.596627  L 137.314893 97.260723  L 137.363855 97.209568  L 138.597197 95.924819  L 138.708434 95.812527  L 139.923483 94.588916  L 140.053012 94.462626  L 141.296004 93.253012  L 141.39759 93.157388  L 142.717032 91.917108  L 142.742169 91.894273  L 144.086747 90.677546  L 144.193347 90.581205  L 145.431325 89.502217  L 145.726127 89.245301  L 146.775904 88.363688  L 147.316681 87.909398  L 148.120482 87.259157  L 148.967492 86.573494  L 149.46506 86.185884  L 150.681121 85.23759  L 150.809639 85.141207  L 152.154217 84.13906  L 152.473195 83.901687  L 153.498795 83.169013  L 154.341619 82.565783  L 154.843373 82.22121  L 156.187952 81.297921  L 156.287944 81.22988  L 157.53253 80.418648  L 158.335484 79.893976  L 158.877108 79.555101  L 160.221687 78.715937  L 160.476795 78.558072  L 161.566265 77.913527  L 162.731589 77.222169  L 162.910843 77.120523  L 164.255422 76.367799  L 165.116017 75.886265  L 165.6 75.627789  L 166.944578 74.916201  L 167.639898 74.550361  L 168.289157 74.22473  L 169.633735 73.556057  L 170.32638 73.214458  L 170.978313 72.908335  L 172.322892 72.283826  L 173.202549 71.878554  L 173.66747 71.674839  L 175.012048 71.095216  L 176.300628 70.542651  L 176.356627 70.519835  L 177.701205 69.985318  L 179.045783 69.455141  L 179.687496 69.206747  L 180.390361 68.948746  L 181.73494 68.464956  L 183.079518 67.987652  L 183.41747 67.870843  L 184.424096 67.541475  L 185.768675 67.110928  L 187.113253 66.688751  L 187.618093 66.53494  L 188.457831 66.293116  L 189.80241 65.917177  L 191.146988 65.551171  L 192.479016 65.199036  L 192.491566 65.195904  L 193.836145 64.874799  L 195.180723 64.564842  L 196.525301 64.266548  L 197.86988 63.980425  L 198.449618 63.863133  L 199.214458 63.717478  L 200.559036 63.474825  L 201.903614 63.245036  L 203.248193 63.028518  L 204.592771 62.825665  L 205.937349 62.636852  L 206.784262 62.527229  L 207.281928 62.466778  L 208.626506 62.317838  L 209.971084 62.182978  L 211.315663 62.062446  L 212.660241 61.956471  L 214.004819 61.865253  L 215.349398 61.788966  L 216.693976 61.727757  L 218.038554 61.681746  L 219.383133 61.651021  L 220.727711 61.635644  L 222.072289 61.635644  L 223.416867 61.651021  L 224.761446 61.681746  L 226.106024 61.727757  L 227.450602 61.788966  L 228.795181 61.865253  L 230.139759 61.956471  L 231.484337 62.062446  L 232.828916 62.182978  L 234.173494 62.317838  L 235.518072 62.466778  L 236.015738 62.527229  L 236.862651 62.636852  L 238.207229 62.825665  L 239.551807 63.028518  L 240.896386 63.245036  L 242.240964 63.474825  L 243.585542 63.717478  L 244.350382 63.863133  L 244.93012 63.980425  L 246.274699 64.266548  L 247.619277 64.564842  L 248.963855 64.874799  L 250.308434 65.195904  L 250.320984 65.199036  L 251.653012 65.551171  L 252.99759 65.917177  L 254.342169 66.293116  L 255.181907 66.53494  L 255.686747 66.688751  L 257.031325 67.110928  L 258.375904 67.541475  L 259.38253 67.870843  L 259.720482 67.987652  L 261.06506 68.464956  L 262.409639 68.948746  L 263.112504 69.206747  L 263.754217 69.455141  L 265.098795 69.985318  L 266.443373 70.519835  L 266.499372 70.542651  L 267.787952 71.095216  L 269.13253 71.674839  L 269.597451 71.878554  L 270.477108 72.283826  L 271.821687 72.908335  L 272.47362 73.214458  L 273.166265 73.556057  L 274.510843 74.22473  L 275.160102 74.550361  L 275.855422 74.916201  L 277.2 75.627789  L 277.683983 75.886265  L 278.544578 76.367799  L 279.889157 77.120523  L 280.068411 77.222169  L 281.233735 77.913527  L 282.323205 78.558072  L 282.578313 78.715937  L 283.922892 79.555101  L 284.464516 79.893976  L 285.26747 80.418648  L 286.512056 81.22988  L 286.612048 81.297921  L 287.956627 82.22121  L 288.458381 82.565783  L 289.301205 83.169013  L 290.326805 83.901687  L 290.645783 84.13906  L 291.990361 85.141207  L 292.118879 85.23759  L 293.33494 86.185884  L 293.832508 86.573494  L 294.679518 87.259157  L 295.483319 87.909398  L 296.024096 88.363688  L 297.073873 89.245301  L 297.368675 89.502217  L 298.606653 90.581205  L 298.713253 90.677546  L 300.057831 91.894273  L 300.082968 91.917108  L 301.40241 93.157388  L 301.503996 93.253012  L 302.746988 94.462626  L 302.876517 94.588916  L 304.091566 95.812527  L 304.202803 95.924819  L 305.436145 97.209568  L 305.485107 97.260723  L 306.723124 98.596627  L 306.780723 98.660822  L 307.91746 99.93253  L 308.125301 100.172018  L 309.072646 101.268434  L 309.46988 101.741405  L 310.190968 102.604337  L 310.814458 103.371024  L 311.274711 103.940241  L 312.159036 105.062658  L 312.326159 105.276145  L 313.339942 106.612048  L 313.503614 106.834621  L 314.31622 107.947952  L 314.848193 108.693897  L 315.265473 109.283855  L 316.1899 110.619759  L 316.192771 110.624079  L 317.069541 111.955663  L 317.537349 112.680488  L 317.927742 113.291566  L 318.76088 114.62747  L 318.881928 114.82892  L 319.555827 115.963373  L 320.226506 117.11097  L 320.33521 117.299277  L 321.076194 118.635181  L 321.571084 119.545234  L 321.799515 119.971084  L 322.491301 121.306988  L 322.915663 122.146697  L 323.162659 122.642892  L 323.80424 123.978795  L 324.260241 124.950796  L 324.428146 125.314699  L 325.018795 126.650602  L 325.599901 127.986506  L 325.604819 127.998458  L 326.139489 129.32241  L 326.667924 130.658313  L 326.949398 131.398101  L 327.171604 131.994217  L 327.647445 133.33012  L 328.110615 134.666024  L 328.293976 135.222523  L 328.544949 136.001928  L 328.954931 137.337831  L 329.350555 138.673735  L 329.638554 139.693356  L 329.725633 140.009639  L 330.068317 141.345542  L 330.395153 142.681446  L 330.705551 144.017349  L 330.983133 145.283799  L 330.997916 145.353253  L 331.256012 146.689157  L 331.496527 148.02506  L 331.718917 149.360964  L 331.922639 150.696867  L 332.107155 152.032771  L 332.271937 153.368675  L 332.327711 153.895092  L 332.410408 154.704578  L 332.525541 156.040482  L 332.620704 157.376386  L 332.695538 158.712289  L 332.749715 160.048193  L 332.782946 161.384096  L 332.794989 162.72  L 332.78565 164.055904  L 332.754793 165.391807  L 332.702344 166.727711  L 332.6283 168.063614  L 332.532732 169.399518  L 332.415795 170.735422  L 332.327711 171.596933  L 332.273333 172.071325  L 332.100247 173.407229  L 331.904601 174.743133  L 331.686921 176.079036  L 331.447864 177.41494  L 331.188217 178.750843  L 330.983133 179.739013  L 330.90165 180.086747  L 330.574148 181.422651  L 330.226792 182.758554  L 329.861035 184.094458  L 329.638554 184.880066  L 329.461553 185.430361  L 329.021226 186.766265  L 328.565487 188.102169  L 328.293976 188.884171  L 328.074308 189.438072  L 327.539728 190.773976  L 326.995252 192.10988  L 326.949398 192.223504  L 326.382622 193.445783  L 325.759455 194.781687  L 325.604819 195.118527  L 325.074638 196.11759  L 324.372242 197.453494  L 324.260241 197.672813  L 323.596787 198.789398  L 322.915663 199.962035  L 322.804538 200.125301  L 321.933372 201.461205  L 321.571084 202.041571  L 321.014069 202.797108  L 320.226506 203.923294  L 320.051755 204.133012  L 319.011708 205.468916  L 318.881928 205.64944  L 317.882605 206.804819  L 317.537349 207.242647  L 316.675538 208.140723  L 316.192771 208.703141  L 315.374078 209.476627  L 314.848193 210.045324  L 313.959752 210.81253  L 313.503614 211.277501  L 312.413799 212.148434  L 312.159036 212.399379  L 310.814458 213.415592  L 310.692588 213.484337  L 309.46988 214.39466  L 308.673769 214.820241  L 308.125301 215.256383  L 306.780723 215.989535  L 306.303647 216.156145  L 305.436145 216.758853  L 304.091566 217.298303  L 303.095801 217.492048  L 303.095801 218.827952  L 304.091566 219.021697  L 305.436145 219.561147  L 306.303647 220.163855  L 306.780723 220.330465  L 308.125301 221.063617  L 308.673769 221.499759  L 309.46988 221.92534  L 310.692588 222.835663  L 310.814458 222.904408  L 312.159036 223.920621  L 312.413799 224.171566  L 313.503614 225.042499  L 313.959752 225.50747  L 314.848193 226.274676  L 315.374078 226.843373  L 316.192771 227.616859  L 316.675538 228.179277  L 317.537349 229.077353  L 317.882605 229.515181  L 318.881928 230.67056  L 319.011708 230.851084  L 320.051755 232.186988  L 320.226506 232.396706  L 321.014069 233.522892  L 321.571084 234.278429  L 321.933372 234.858795  L 322.804538 236.194699  L 322.915663 236.357965  L 323.596787 237.530602  L 324.260241 238.647187  L 324.372242 238.866506  L 325.074638 240.20241  L 325.604819 241.201473  L 325.759455 241.538313  L 326.382622 242.874217  L 326.949398 244.096496  L 326.995252 244.21012  L 327.539728 245.546024  L 328.074308 246.881928  L 328.293976 247.435829  L 328.565487 248.217831  L 329.021226 249.553735  L 329.461553 250.889639  L 329.638554 251.439934  L 329.861035 252.225542  L 330.226792 253.561446  L 330.574148 254.897349  L 330.90165 256.233253  L 330.983133 256.580987  L 331.188217 257.569157  L 331.447864 258.90506  L 331.686921 260.240964  L 331.904601 261.576867  L 332.100247 262.912771  L 332.273333 264.248675  L 332.327711 264.723067  L 332.415795 265.584578  L 332.532732 266.920482  L 332.6283 268.256386  L 332.702344 269.592289  L 332.754793 270.928193  L 332.78565 272.264096  L 332.794989 273.6  L 332.782946 274.935904  L 332.749715 276.271807  L 332.695538 277.607711  L 332.620704 278.943614  L 332.525541 280.279518  L 332.410408 281.615422  L 332.327711 282.424908  L 332.271937 282.951325  L 332.107155 284.287229  L 331.922639 285.623133  L 331.718917 286.959036  L 331.496527 288.29494  L 331.256012 289.630843  L 330.997916 290.966747  L 330.983133 291.036201  L 330.705551 292.302651  L 330.395153 293.638554  L 330.068317 294.974458  L 329.725633 296.310361  L 329.638554 296.626644  L 329.350555 297.646265  L 328.954931 298.982169  L 328.544949 300.318072  L 328.293976 301.097477  L 328.110615 301.653976  L 327.647445 302.98988  L 327.171604 304.325783  L 326.949398 304.921899  L 326.667924 305.661687  L 326.139489 306.99759  L 325.604819 308.321542  L 325.599901 308.333494  L 325.018795 309.669398  L 324.428146 311.005301  L 324.260241 311.369204  L 323.80424 312.341205  L 323.162659 313.677108  L 322.915663 314.173303  L 322.491301 315.013012  L 321.799515 316.348916  L 321.571084 316.774766  L 321.076194 317.684819  L 320.33521 319.020723  L 320.226506 319.20903  L 319.555827 320.356627  L 318.881928 321.49108  L 318.76088 321.69253  L 317.927742 323.028434  L 317.537349 323.639512  L 317.069541 324.364337  L 316.192771 325.695921  L 316.1899 325.700241  L 315.265473 327.036145  L 314.848193 327.626103  L 314.31622 328.372048  L 313.503614 329.485379  L 313.339942 329.707952  L 312.326159 331.043855  L 312.159036 331.257342  L 311.274711 332.379759  L 310.814458 332.948976  L 310.190968 333.715663  L 309.46988 334.578595  L 309.072646 335.051566  L 308.125301 336.147982  L 307.91746 336.38747  L 306.780723 337.659178  L 306.723124 337.723373  L 305.485107 339.059277  L 305.436145 339.110432  L 304.202803 340.395181  L 304.091566 340.507473  L 302.876517 341.731084  L 302.746988 341.857374  L 301.503996 343.066988  L 301.40241 343.162612  L 300.082968 344.402892  L 300.057831 344.425727  L 298.713253 345.642454  L 298.606653 345.738795  L 297.368675 346.817783  L 297.073873 347.074699  L 296.024096 347.956312  L 295.483319 348.410602  L 294.679518 349.060843  L 293.832508 349.746506  L 293.33494 350.134116  L 292.118879 351.08241  L 291.990361 351.178793  L 290.645783 352.18094  L 290.326805 352.418313  L 289.301205 353.150987  L 288.458381 353.754217  L 287.956627 354.09879  L 286.612048 355.022079  L 286.512056 355.09012  L 285.26747 355.901352  L 284.464516 356.426024  L 283.922892 356.764899  L 282.578313 357.604063  L 282.323205 357.761928  L 281.233735 358.406473  L 280.068411 359.097831  L 279.889157 359.199477  L 278.544578 359.952201  L 277.683983 360.433735  L 277.2 360.692211  L 275.855422 361.403799  L 275.160102 361.769639  L 274.510843 362.09527  L 273.166265 362.763943  L 272.47362 363.105542  L 271.821687 363.411665  L 270.477108 364.036174  L 269.597451 364.441446  L 269.13253 364.645161  L 267.787952 365.224784  L 266.499372 365.777349  L 266.443373 365.800165  L 265.098795 366.334682  L 263.754217 366.864859  L 263.112504 367.113253  L 262.409639 367.371254  L 261.06506 367.855044  L 259.720482 368.332348  L 259.38253 368.449157  L 258.375904 368.778525  L 257.031325 369.209072  L 255.686747 369.631249  L 255.181907 369.78506  L 254.342169 370.026884  L 252.99759 370.402823  L 251.653012 370.768829  L 250.320984 371.120964  L 250.308434 371.124096  L 248.963855 371.445201  L 247.619277 371.755158  L 246.274699 372.053452  L 244.93012 372.339575  L 244.350382 372.456867  L 243.585542 372.602522  L 242.240964 372.845175  L 240.896386 373.074964  L 239.551807 373.291482  L 238.207229 373.494335  L 236.862651 373.683148  L 236.015738 373.792771  L 235.518072 373.853222  L 234.173494 374.002162  L 232.828916 374.137022  L 231.484337 374.257554  L 230.139759 374.363529  L 228.795181 374.454747  L 227.450602 374.531034  L 226.106024 374.592243  L 224.761446 374.638254  L 223.416867 374.668979  L 222.072289 374.684356  L 220.727711 374.684356  L 219.383133 374.668979  L 218.038554 374.638254  L 216.693976 374.592243  L 215.349398 374.531034  L 214.004819 374.454747  L 212.660241 374.363529  L 211.315663 374.257554  L 209.971084 374.137022  L 208.626506 374.002162  L 207.281928 373.853222  z "
           clip-path="url(#pfaa94eb98e)"
           style="fill: none; stroke: #0000ff; stroke-width: 1.5"
           id="path48" />
      </g>
      <g
         id="patch_3">
        <path
           d="M 54 384.48  L 54 51.84  "
           style="fill: none; stroke: #000000; stroke-width: 0.8; stroke-linejoin: miter; stroke-linecap: square"
           id="path49" />
      </g>
      <g
         id="patch_4">
        <path
           d="M 388.8 384.48  L 388.8 51.84  "
           style="fill: none; stroke: #000000; stroke-width: 0.8; stroke-linejoin: miter; stroke-linecap: square"
           id="path50" />
      </g>
      <g
         id="patch_5">
        <path
           d="M 54 384.48  L 388.8 384.48  "
           style="fill: none; stroke: #000000; stroke-width: 0.8; stroke-linejoin: miter; stroke-linecap: square"
           id="path51" />
      </g>
      <g
         id="patch_6">
        <path
           d="M 54 51.84  L 388.8 51.84  "
           style="fill: none; stroke: #000000; stroke-width: 0.8; stroke-linejoin: miter; stroke-linecap: square"
           id="path52" />
      </g>
    </g>
  </g>
  <defs
     id="defs52">
    <clipPath
       id="pfaa94eb98e">
      <rect
         x="54"
         y="51.84"
         width="334.8"
         height="332.64"
         id="rect52" />
    </clipPath>
  </defs>
  <path
     style="fill:#000000;fill-opacity:0;stroke:#f50000;stroke-width:0.75;stroke-dasharray:9, 9"
     d="M 139.7042,218.16 H 300.17647"
     id="path53" />
  <path
     style="fill:#000000;fill-opacity:0;stroke:#f50000;stroke-width:0.75;stroke-dasharray:9, 9"
     d="M 221.4,61.635644 V 374.69647"
     id="path54" />
</svg>
