<?xml version="1.0" encoding="UTF-8" standalone="no"?>
<svg
   width="432pt"
   height="432pt"
   viewBox="0 0 432 432"
   version="1.1"
   id="svg30"
   sodipodi:docname="sym_cardioid_ortho_polar.svg"
   inkscape:version="1.4 (86a8ad7, 2024-10-11)"
   inkscape:export-filename="sym_cardioid_ortho_polar.png"
   inkscape:export-xdpi="96"
   inkscape:export-ydpi="96"
   xmlns:inkscape="http://www.inkscape.org/namespaces/inkscape"
   xmlns:sodipodi="http://sodipodi.sourceforge.net/DTD/sodipodi-0.dtd"
   xmlns:xlink="http://www.w3.org/1999/xlink"
   xmlns="http://www.w3.org/2000/svg"
   xmlns:svg="http://www.w3.org/2000/svg"
   xmlns:rdf="http://www.w3.org/1999/02/22-rdf-syntax-ns#"
   xmlns:cc="http://creativecommons.org/ns#"
   xmlns:dc="http://purl.org/dc/elements/1.1/">
  <sodipodi:namedview
     id="namedview30"
     pagecolor="#ffffff"
     bordercolor="#000000"
     borderopacity="0.25"
     inkscape:showpageshadow="2"
     inkscape:pageopacity="0.0"
     inkscape:pagecheckerboard="0"
     inkscape:deskcolor="#d1d1d1"
     inkscape:document-units="pt"
     inkscape:zoom="1.4010417"
     inkscape:cx="288"
     inkscape:cy="288"
     inkscape:window-width="1920"
     inkscape:window-height="1009"
     inkscape:window-x="1912"
     inkscape:window-y="-8"
     inkscape:window-maximized="1"
     inkscape:current-layer="svg30" />
  <metadata
     id="metadata1">
    <rdf:RDF>
      <cc:Work>
        <dc:type
           rdf:resource="http://purl.org/dc/dcmitype/StillImage" />
        <dc:date>2025-03-23T10:45:14.091557</dc:date>
        <dc:format>image/svg+xml</dc:format>
        <dc:creator>
          <cc:Agent>
            <dc:title>Matplotlib v3.9.2, https://matplotlib.org/</dc:title>
          </cc:Agent>
        </dc:creator>
      </cc:Work>
    </rdf:RDF>
  </metadata>
  <defs
     id="defs1">
    <style
       type="text/css"
       id="style1">*{stroke-linejoin: round; stroke-linecap: butt}</style>
  </defs>
  <g
     id="figure_1">
    <g
       id="patch_1">
      <path
         d="M 0 432  L 432 432  L 432 0  L 0 0  z "
         style="fill: #ffffff"
         id="path1" />
    </g>
    <g
       id="axes_1">
      <g
         id="patch_2">
        <path
           d="M 54 384.48  L 388.8 384.48  L 388.8 51.84  L 54 51.84  z "
           style="fill: #ffffff"
           id="path2" />
      </g>
      <g
         id="matplotlib.axis_1">
        <g
           id="xtick_1">
          <g
             id="line2d_1">
            <path
               d="M 71.621053 384.48  L 71.621053 51.84  "
               clip-path="url(#p85090231f6)"
               style="fill: none; stroke: #b0b0b0; stroke-width: 0.8; stroke-linecap: square"
               id="path3" />
          </g>
          <g
             id="line2d_2">
            <defs
               id="defs3">
              <path
                 id="ma7a8dc61d1"
                 d="M 0 0  L 0 3.5  "
                 style="stroke: #000000; stroke-width: 0.8" />
            </defs>
            <g
               id="g3">
              <use
                 xlink:href="#ma7a8dc61d1"
                 x="71.621053"
                 y="384.48"
                 style="stroke: #000000; stroke-width: 0.8"
                 id="use3" />
            </g>
          </g>
          <g
             id="text_1">
            <!-- 0 -->
            <g
               transform="translate(68.439803 399.078438) scale(0.1 -0.1)"
               id="g4">
              <defs
                 id="defs4">
                <path
                   id="DejaVuSans-30"
                   d="M 2034 4250  Q 1547 4250 1301 3770  Q 1056 3291 1056 2328  Q 1056 1369 1301 889  Q 1547 409 2034 409  Q 2525 409 2770 889  Q 3016 1369 3016 2328  Q 3016 3291 2770 3770  Q 2525 4250 2034 4250  z M 2034 4750  Q 2819 4750 3233 4129  Q 3647 3509 3647 2328  Q 3647 1150 3233 529  Q 2819 -91 2034 -91  Q 1250 -91 836 529  Q 422 1150 422 2328  Q 422 3509 836 4129  Q 1250 4750 2034 4750  z "
                   transform="scale(0.015625)" />
              </defs>
              <use
                 xlink:href="#DejaVuSans-30"
                 id="use4" />
            </g>
          </g>
        </g>
        <g
           id="xtick_2">
          <g
             id="line2d_3">
            <path
               d="M 142.105263 384.48  L 142.105263 51.84  "
               clip-path="url(#p85090231f6)"
               style="fill: none; stroke: #b0b0b0; stroke-width: 0.8; stroke-linecap: square"
               id="path4" />
          </g>
          <g
             id="line2d_4">
            <g
               id="g5">
              <use
                 xlink:href="#ma7a8dc61d1"
                 x="142.105263"
                 y="384.48"
                 style="stroke: #000000; stroke-width: 0.8"
                 id="use5" />
            </g>
          </g>
          <g
             id="text_2">
            <!-- 2 -->
            <g
               transform="translate(138.924013 399.078438) scale(0.1 -0.1)"
               id="g6">
              <defs
                 id="defs5">
                <path
                   id="DejaVuSans-32"
                   d="M 1228 531  L 3431 531  L 3431 0  L 469 0  L 469 531  Q 828 903 1448 1529  Q 2069 2156 2228 2338  Q 2531 2678 2651 2914  Q 2772 3150 2772 3378  Q 2772 3750 2511 3984  Q 2250 4219 1831 4219  Q 1534 4219 1204 4116  Q 875 4013 500 3803  L 500 4441  Q 881 4594 1212 4672  Q 1544 4750 1819 4750  Q 2544 4750 2975 4387  Q 3406 4025 3406 3419  Q 3406 3131 3298 2873  Q 3191 2616 2906 2266  Q 2828 2175 2409 1742  Q 1991 1309 1228 531  z "
                   transform="scale(0.015625)" />
              </defs>
              <use
                 xlink:href="#DejaVuSans-32"
                 id="use6" />
            </g>
          </g>
        </g>
        <g
           id="xtick_3">
          <g
             id="line2d_5">
            <path
               d="M 212.589474 384.48  L 212.589474 51.84  "
               clip-path="url(#p85090231f6)"
               style="fill: none; stroke: #b0b0b0; stroke-width: 0.8; stroke-linecap: square"
               id="path6" />
          </g>
          <g
             id="line2d_6">
            <g
               id="g7">
              <use
                 xlink:href="#ma7a8dc61d1"
                 x="212.589474"
                 y="384.48"
                 style="stroke: #000000; stroke-width: 0.8"
                 id="use7" />
            </g>
          </g>
          <g
             id="text_3">
            <!-- 4 -->
            <g
               transform="translate(209.408224 399.078438) scale(0.1 -0.1)"
               id="g8">
              <defs
                 id="defs7">
                <path
                   id="DejaVuSans-34"
                   d="M 2419 4116  L 825 1625  L 2419 1625  L 2419 4116  z M 2253 4666  L 3047 4666  L 3047 1625  L 3713 1625  L 3713 1100  L 3047 1100  L 3047 0  L 2419 0  L 2419 1100  L 313 1100  L 313 1709  L 2253 4666  z "
                   transform="scale(0.015625)" />
              </defs>
              <use
                 xlink:href="#DejaVuSans-34"
                 id="use8" />
            </g>
          </g>
        </g>
        <g
           id="xtick_4">
          <g
             id="line2d_7">
            <path
               d="M 283.073684 384.48  L 283.073684 51.84  "
               clip-path="url(#p85090231f6)"
               style="fill: none; stroke: #b0b0b0; stroke-width: 0.8; stroke-linecap: square"
               id="path8" />
          </g>
          <g
             id="line2d_8">
            <g
               id="g9">
              <use
                 xlink:href="#ma7a8dc61d1"
                 x="283.073684"
                 y="384.48"
                 style="stroke: #000000; stroke-width: 0.8"
                 id="use9" />
            </g>
          </g>
          <g
             id="text_4">
            <!-- 6 -->
            <g
               transform="translate(279.892434 399.078438) scale(0.1 -0.1)"
               id="g10">
              <defs
                 id="defs9">
                <path
                   id="DejaVuSans-36"
                   d="M 2113 2584  Q 1688 2584 1439 2293  Q 1191 2003 1191 1497  Q 1191 994 1439 701  Q 1688 409 2113 409  Q 2538 409 2786 701  Q 3034 994 3034 1497  Q 3034 2003 2786 2293  Q 2538 2584 2113 2584  z M 3366 4563  L 3366 3988  Q 3128 4100 2886 4159  Q 2644 4219 2406 4219  Q 1781 4219 1451 3797  Q 1122 3375 1075 2522  Q 1259 2794 1537 2939  Q 1816 3084 2150 3084  Q 2853 3084 3261 2657  Q 3669 2231 3669 1497  Q 3669 778 3244 343  Q 2819 -91 2113 -91  Q 1303 -91 875 529  Q 447 1150 447 2328  Q 447 3434 972 4092  Q 1497 4750 2381 4750  Q 2619 4750 2861 4703  Q 3103 4656 3366 4563  z "
                   transform="scale(0.015625)" />
              </defs>
              <use
                 xlink:href="#DejaVuSans-36"
                 id="use10" />
            </g>
          </g>
        </g>
        <g
           id="xtick_5">
          <g
             id="line2d_9">
            <path
               d="M 353.557895 384.48  L 353.557895 51.84  "
               clip-path="url(#p85090231f6)"
               style="fill: none; stroke: #b0b0b0; stroke-width: 0.8; stroke-linecap: square"
               id="path10" />
          </g>
          <g
             id="line2d_10">
            <g
               id="g11">
              <use
                 xlink:href="#ma7a8dc61d1"
                 x="353.557895"
                 y="384.48"
                 style="stroke: #000000; stroke-width: 0.8"
                 id="use11" />
            </g>
          </g>
          <g
             id="text_5">
            <!-- 8 -->
            <g
               transform="translate(350.376645 399.078438) scale(0.1 -0.1)"
               id="g12">
              <defs
                 id="defs11">
                <path
                   id="DejaVuSans-38"
                   d="M 2034 2216  Q 1584 2216 1326 1975  Q 1069 1734 1069 1313  Q 1069 891 1326 650  Q 1584 409 2034 409  Q 2484 409 2743 651  Q 3003 894 3003 1313  Q 3003 1734 2745 1975  Q 2488 2216 2034 2216  z M 1403 2484  Q 997 2584 770 2862  Q 544 3141 544 3541  Q 544 4100 942 4425  Q 1341 4750 2034 4750  Q 2731 4750 3128 4425  Q 3525 4100 3525 3541  Q 3525 3141 3298 2862  Q 3072 2584 2669 2484  Q 3125 2378 3379 2068  Q 3634 1759 3634 1313  Q 3634 634 3220 271  Q 2806 -91 2034 -91  Q 1263 -91 848 271  Q 434 634 434 1313  Q 434 1759 690 2068  Q 947 2378 1403 2484  z M 1172 3481  Q 1172 3119 1398 2916  Q 1625 2713 2034 2713  Q 2441 2713 2670 2916  Q 2900 3119 2900 3481  Q 2900 3844 2670 4047  Q 2441 4250 2034 4250  Q 1625 4250 1398 4047  Q 1172 3844 1172 3481  z "
                   transform="scale(0.015625)" />
              </defs>
              <use
                 xlink:href="#DejaVuSans-38"
                 id="use12" />
            </g>
          </g>
        </g>
        <g
           id="text_6">
          <!-- r -->
          <g
             transform="translate(219.344531 412.756563) scale(0.1 -0.1)"
             id="g13">
            <defs
               id="defs12">
              <path
                 id="DejaVuSans-72"
                 d="M 2631 2963  Q 2534 3019 2420 3045  Q 2306 3072 2169 3072  Q 1681 3072 1420 2755  Q 1159 2438 1159 1844  L 1159 0  L 581 0  L 581 3500  L 1159 3500  L 1159 2956  Q 1341 3275 1631 3429  Q 1922 3584 2338 3584  Q 2397 3584 2469 3576  Q 2541 3569 2628 3553  L 2631 2963  z "
                 transform="scale(0.015625)" />
            </defs>
            <use
               xlink:href="#DejaVuSans-72"
               id="use13" />
          </g>
        </g>
      </g>
      <g
         id="matplotlib.axis_2">
        <g
           id="ytick_1">
          <g
             id="line2d_11">
            <path
               d="M 54 344.321536  L 388.8 344.321536  "
               clip-path="url(#p85090231f6)"
               style="fill: none; stroke: #b0b0b0; stroke-width: 0.8; stroke-linecap: square"
               id="path13" />
          </g>
          <g
             id="line2d_12">
            <defs
               id="defs13">
              <path
                 id="mf698b3f954"
                 d="M 0 0  L -3.5 0  "
                 style="stroke: #000000; stroke-width: 0.8" />
            </defs>
            <g
               id="g14">
              <use
                 xlink:href="#mf698b3f954"
                 x="54"
                 y="344.321536"
                 style="stroke: #000000; stroke-width: 0.8"
                 id="use14" />
            </g>
          </g>
          <g
             id="text_7">
            <!-- 0 -->
            <g
               transform="translate(40.6375 348.120755) scale(0.1 -0.1)"
               id="g15">
              <use
                 xlink:href="#DejaVuSans-30"
                 id="use15" />
            </g>
          </g>
        </g>
        <g
           id="ytick_2">
          <g
             id="line2d_13">
            <path
               d="M 54 218.16  L 388.8 218.16  "
               clip-path="url(#p85090231f6)"
               style="fill: none; stroke: #b0b0b0; stroke-width: 0.8; stroke-linecap: square"
               id="path15" />
          </g>
          <g
             id="line2d_14">
            <g
               id="g16">
              <use
                 xlink:href="#mf698b3f954"
                 x="54"
                 y="218.16"
                 style="stroke: #000000; stroke-width: 0.8"
                 id="use16" />
            </g>
          </g>
          <g
             id="text_8">
            <!-- π -->
            <g
               transform="translate(40.979687 221.959219) scale(0.1 -0.1)"
               id="g17">
              <defs
                 id="defs16">
                <path
                   id="DejaVuSans-3c0"
                   d="M 231 3500  L 3584 3500  L 3584 2925  L 3144 2925  L 3144 775  Q 3144 550 3220 451  Q 3297 353 3469 353  Q 3516 353 3584 361  Q 3653 369 3675 372  L 3675 -44  Q 3566 -84 3450 -103  Q 3334 -122 3219 -122  Q 2844 -122 2700 83  Q 2556 288 2556 838  L 2556 2925  L 1266 2925  L 1266 0  L 678 0  L 678 2925  L 231 2925  L 231 3500  z "
                   transform="scale(0.015625)" />
              </defs>
              <use
                 xlink:href="#DejaVuSans-3c0"
                 id="use17" />
            </g>
          </g>
        </g>
        <g
           id="ytick_3">
          <g
             id="line2d_15">
            <path
               d="M 54 91.998464  L 388.8 91.998464  "
               clip-path="url(#p85090231f6)"
               style="fill: none; stroke: #b0b0b0; stroke-width: 0.8; stroke-linecap: square"
               id="path17" />
          </g>
          <g
             id="line2d_16">
            <g
               id="g18">
              <use
                 xlink:href="#mf698b3f954"
                 x="54"
                 y="91.998464"
                 style="stroke: #000000; stroke-width: 0.8"
                 id="use18" />
            </g>
          </g>
          <g
             id="text_9">
            <!-- 2π -->
            <g
               transform="translate(34.617188 95.797683) scale(0.1 -0.1)"
               id="g20">
              <use
                 xlink:href="#DejaVuSans-32"
                 id="use19" />
              <use
                 xlink:href="#DejaVuSans-3c0"
                 x="63.623047"
                 id="use20" />
            </g>
          </g>
        </g>
        <g
           id="text_10">
          <!-- theta -->
          <g
             transform="translate(28.5375 231.389687) rotate(-90) scale(0.1 -0.1)"
             id="g25">
            <defs
               id="defs20">
              <path
                 id="DejaVuSans-74"
                 d="M 1172 4494  L 1172 3500  L 2356 3500  L 2356 3053  L 1172 3053  L 1172 1153  Q 1172 725 1289 603  Q 1406 481 1766 481  L 2356 481  L 2356 0  L 1766 0  Q 1100 0 847 248  Q 594 497 594 1153  L 594 3053  L 172 3053  L 172 3500  L 594 3500  L 594 4494  L 1172 4494  z "
                 transform="scale(0.015625)" />
              <path
                 id="DejaVuSans-68"
                 d="M 3513 2113  L 3513 0  L 2938 0  L 2938 2094  Q 2938 2591 2744 2837  Q 2550 3084 2163 3084  Q 1697 3084 1428 2787  Q 1159 2491 1159 1978  L 1159 0  L 581 0  L 581 4863  L 1159 4863  L 1159 2956  Q 1366 3272 1645 3428  Q 1925 3584 2291 3584  Q 2894 3584 3203 3211  Q 3513 2838 3513 2113  z "
                 transform="scale(0.015625)" />
              <path
                 id="DejaVuSans-65"
                 d="M 3597 1894  L 3597 1613  L 953 1613  Q 991 1019 1311 708  Q 1631 397 2203 397  Q 2534 397 2845 478  Q 3156 559 3463 722  L 3463 178  Q 3153 47 2828 -22  Q 2503 -91 2169 -91  Q 1331 -91 842 396  Q 353 884 353 1716  Q 353 2575 817 3079  Q 1281 3584 2069 3584  Q 2775 3584 3186 3129  Q 3597 2675 3597 1894  z M 3022 2063  Q 3016 2534 2758 2815  Q 2500 3097 2075 3097  Q 1594 3097 1305 2825  Q 1016 2553 972 2059  L 3022 2063  z "
                 transform="scale(0.015625)" />
              <path
                 id="DejaVuSans-61"
                 d="M 2194 1759  Q 1497 1759 1228 1600  Q 959 1441 959 1056  Q 959 750 1161 570  Q 1363 391 1709 391  Q 2188 391 2477 730  Q 2766 1069 2766 1631  L 2766 1759  L 2194 1759  z M 3341 1997  L 3341 0  L 2766 0  L 2766 531  Q 2569 213 2275 61  Q 1981 -91 1556 -91  Q 1019 -91 701 211  Q 384 513 384 1019  Q 384 1609 779 1909  Q 1175 2209 1959 2209  L 2766 2209  L 2766 2266  Q 2766 2663 2505 2880  Q 2244 3097 1772 3097  Q 1472 3097 1187 3025  Q 903 2953 641 2809  L 641 3341  Q 956 3463 1253 3523  Q 1550 3584 1831 3584  Q 2591 3584 2966 3190  Q 3341 2797 3341 1997  z "
                 transform="scale(0.015625)" />
            </defs>
            <use
               xlink:href="#DejaVuSans-74"
               id="use21" />
            <use
               xlink:href="#DejaVuSans-68"
               x="39.208984"
               id="use22" />
            <use
               xlink:href="#DejaVuSans-65"
               x="102.587891"
               id="use23" />
            <use
               xlink:href="#DejaVuSans-74"
               x="164.111328"
               id="use24" />
            <use
               xlink:href="#DejaVuSans-61"
               x="203.320312"
               id="use25" />
          </g>
        </g>
      </g>
      <g
         id="QuadContourSet_1">
        <path
           d="M 71.680976 93.169253  L 71.954018 94.759144  L 72.450178 96.356135  L 73.20263 98.019668  L 74.238847 99.749742  L 75.586626 101.546357  L 77.273867 103.409514  L 79.328318 105.339212  L 81.864518 107.401992  L 84.874735 109.551882  L 88.424325 111.806399  L 92.600897 114.189206  L 97.532707 116.736607  L 103.225445 119.418895  L 109.788838 122.260954  L 117.423805 125.31859  L 126.264293 128.612464  L 136.419276 132.155359  L 148.49946 136.125675  L 162.69782 140.551506  L 180.512743 145.860602  L 205.828686 153.152509  L 249.964153 165.855225  L 267.846049 171.254308  L 281.957398 175.739916  L 293.795363 179.732394  L 303.810762 183.341977  L 312.351263 186.652691  L 319.683457 189.730161  L 325.911982 192.579201  L 331.269854 195.269132  L 335.76582 197.765089  L 339.641528 200.165774  L 342.87183 202.422981  L 345.542083 204.552302  L 347.745309 206.587749  L 349.486617 208.485102  L 350.894572 210.341396  L 351.975906 212.138012  L 352.753579 213.868086  L 353.256067 215.531618  L 353.511405 217.12861  L 353.543913 218.725601  L 353.353541 220.322593  L 352.940589 221.919584  L 352.274455 223.583117  L 351.361872 225.257614  L 350.156351 226.999824  L 348.615963 228.824858  L 346.740708 230.700055  L 344.501962 232.632735  L 341.717704 234.736676  L 338.499145 236.891378  L 334.613041 239.220324  L 330.059043 241.682352  L 324.706461 244.312693  L 318.574728 247.072198  L 311.378756 250.057532  L 303.231461 253.193999  L 293.604321 256.654147  L 282.379276 260.441893  L 269.386437 264.587478  L 253.446769 269.432078  L 232.484097 275.554291  L 163.903341 295.401933  L 148.49946 300.194325  L 135.908462 304.337828  L 125.326665 308.046517  L 116.285257 311.443292  L 108.516343 314.592619  L 101.885977 317.511586  L 96.193239 320.251698  L 91.371154 322.807515  L 87.208071 325.258236  L 83.669214 327.597776  L 80.75856 329.783045  L 78.369014 331.845825  L 76.393603 333.842064  L 74.828726 335.738321  L 73.648848 337.501836  L 72.751702 339.23191  L 72.133763 340.895443  L 71.756808 342.558976  L 71.680976 343.150747  L 71.680976 343.150747  "
           clip-path="url(#p85090231f6)"
           style="fill: none; stroke: #0000ff; stroke-width: 1.5"
           id="path25" />
      </g>
      <g
         id="line2d_17">
        <path
           d="M 71.621053 344.321536  L 71.621053 91.998464  "
           clip-path="url(#p85090231f6)"
           style="fill: none; stroke-dasharray: 4.44,1.92; stroke-dashoffset: 0; stroke: #0000ff; stroke-width: 1.2"
           id="path26" />
      </g>
      <g
         id="patch_3">
        <path
           d="M 54 384.48  L 54 51.84  "
           style="fill: none; stroke: #000000; stroke-width: 0.8; stroke-linejoin: miter; stroke-linecap: square"
           id="path27" />
      </g>
      <g
         id="patch_4">
        <path
           d="M 388.8 384.48  L 388.8 51.84  "
           style="fill: none; stroke: #000000; stroke-width: 0.8; stroke-linejoin: miter; stroke-linecap: square"
           id="path28" />
      </g>
      <g
         id="patch_5">
        <path
           d="M 54 384.48  L 388.8 384.48  "
           style="fill: none; stroke: #000000; stroke-width: 0.8; stroke-linejoin: miter; stroke-linecap: square"
           id="path29" />
      </g>
      <g
         id="patch_6">
        <path
           d="M 54 51.84  L 388.8 51.84  "
           style="fill: none; stroke: #000000; stroke-width: 0.8; stroke-linejoin: miter; stroke-linecap: square"
           id="path30" />
      </g>
    </g>
  </g>
  <defs
     id="defs30">
    <clipPath
       id="p85090231f6">
      <rect
         x="54"
         y="51.84"
         width="334.8"
         height="332.64"
         id="rect30" />
    </clipPath>
  </defs>
  <path
     style="fill:#000000;fill-opacity:0;stroke:#f50000;stroke-width:0.75;stroke-dasharray:9,9;stroke-dashoffset:0"
     d="M 71.621053,218.16 H 353.5579"
     id="path31" />
</svg>
