<?xml version="1.0" encoding="utf-8" standalone="no"?>
<!DOCTYPE svg PUBLIC "-//W3C//DTD SVG 1.1//EN"
  "http://www.w3.org/Graphics/SVG/1.1/DTD/svg11.dtd">
<svg xmlns:xlink="http://www.w3.org/1999/xlink" width="432pt" height="432pt" viewBox="0 0 432 432" xmlns="http://www.w3.org/2000/svg" version="1.1">
 <metadata>
  <rdf:RDF xmlns:dc="http://purl.org/dc/elements/1.1/" xmlns:cc="http://creativecommons.org/ns#" xmlns:rdf="http://www.w3.org/1999/02/22-rdf-syntax-ns#">
   <cc:Work>
    <dc:type rdf:resource="http://purl.org/dc/dcmitype/StillImage"/>
    <dc:date>2025-04-09T14:13:37.063655</dc:date>
    <dc:format>image/svg+xml</dc:format>
    <dc:creator>
     <cc:Agent>
      <dc:title>Matplotlib v3.9.2, https://matplotlib.org/</dc:title>
     </cc:Agent>
    </dc:creator>
   </cc:Work>
  </rdf:RDF>
 </metadata>
 <defs>
  <style type="text/css">*{stroke-linejoin: round; stroke-linecap: butt}</style>
 </defs>
 <g id="figure_1">
  <g id="patch_1">
   <path d="M 0 432 
L 432 432 
L 432 0 
L 0 0 
z
" style="fill: #ffffff"/>
  </g>
  <g id="axes_1">
   <g id="patch_2">
    <path d="M 54 384.48 
L 388.8 384.48 
L 388.8 51.84 
L 54 51.84 
z
" style="fill: #ffffff"/>
   </g>
   <g id="matplotlib.axis_1">
    <g id="xtick_1">
     <g id="line2d_1">
      <path d="M 104.066615 384.48 
L 104.066615 51.84 
" clip-path="url(#p04c03e38ca)" style="fill: none; stroke: #b0b0b0; stroke-width: 0.8; stroke-linecap: square"/>
     </g>
     <g id="line2d_2">
      <defs>
       <path id="m5f0c7a69e6" d="M 0 0 
L 0 3.5 
" style="stroke: #000000; stroke-width: 0.8"/>
      </defs>
      <g>
       <use xlink:href="#m5f0c7a69e6" x="104.066615" y="384.48" style="stroke: #000000; stroke-width: 0.8"/>
      </g>
     </g>
     <g id="text_1">
      <!-- −2 -->
      <g transform="translate(96.695521 399.078438) scale(0.1 -0.1)">
       <defs>
        <path id="DejaVuSans-2212" d="M 678 2272 
L 4684 2272 
L 4684 1741 
L 678 1741 
L 678 2272 
z
" transform="scale(0.015625)"/>
        <path id="DejaVuSans-32" d="M 1228 531 
L 3431 531 
L 3431 0 
L 469 0 
L 469 531 
Q 828 903 1448 1529 
Q 2069 2156 2228 2338 
Q 2531 2678 2651 2914 
Q 2772 3150 2772 3378 
Q 2772 3750 2511 3984 
Q 2250 4219 1831 4219 
Q 1534 4219 1204 4116 
Q 875 4013 500 3803 
L 500 4441 
Q 881 4594 1212 4672 
Q 1544 4750 1819 4750 
Q 2544 4750 2975 4387 
Q 3406 4025 3406 3419 
Q 3406 3131 3298 2873 
Q 3191 2616 2906 2266 
Q 2828 2175 2409 1742 
Q 1991 1309 1228 531 
z
" transform="scale(0.015625)"/>
       </defs>
       <use xlink:href="#DejaVuSans-2212"/>
       <use xlink:href="#DejaVuSans-32" x="83.789062"/>
      </g>
     </g>
    </g>
    <g id="xtick_2">
     <g id="line2d_3">
      <path d="M 165.094905 384.48 
L 165.094905 51.84 
" clip-path="url(#p04c03e38ca)" style="fill: none; stroke: #b0b0b0; stroke-width: 0.8; stroke-linecap: square"/>
     </g>
     <g id="line2d_4">
      <g>
       <use xlink:href="#m5f0c7a69e6" x="165.094905" y="384.48" style="stroke: #000000; stroke-width: 0.8"/>
      </g>
     </g>
     <g id="text_2">
      <!-- −1 -->
      <g transform="translate(157.723811 399.078438) scale(0.1 -0.1)">
       <defs>
        <path id="DejaVuSans-31" d="M 794 531 
L 1825 531 
L 1825 4091 
L 703 3866 
L 703 4441 
L 1819 4666 
L 2450 4666 
L 2450 531 
L 3481 531 
L 3481 0 
L 794 0 
L 794 531 
z
" transform="scale(0.015625)"/>
       </defs>
       <use xlink:href="#DejaVuSans-2212"/>
       <use xlink:href="#DejaVuSans-31" x="83.789062"/>
      </g>
     </g>
    </g>
    <g id="xtick_3">
     <g id="line2d_5">
      <path d="M 226.123196 384.48 
L 226.123196 51.84 
" clip-path="url(#p04c03e38ca)" style="fill: none; stroke: #b0b0b0; stroke-width: 0.8; stroke-linecap: square"/>
     </g>
     <g id="line2d_6">
      <g>
       <use xlink:href="#m5f0c7a69e6" x="226.123196" y="384.48" style="stroke: #000000; stroke-width: 0.8"/>
      </g>
     </g>
     <g id="text_3">
      <!-- 0 -->
      <g transform="translate(222.941946 399.078438) scale(0.1 -0.1)">
       <defs>
        <path id="DejaVuSans-30" d="M 2034 4250 
Q 1547 4250 1301 3770 
Q 1056 3291 1056 2328 
Q 1056 1369 1301 889 
Q 1547 409 2034 409 
Q 2525 409 2770 889 
Q 3016 1369 3016 2328 
Q 3016 3291 2770 3770 
Q 2525 4250 2034 4250 
z
M 2034 4750 
Q 2819 4750 3233 4129 
Q 3647 3509 3647 2328 
Q 3647 1150 3233 529 
Q 2819 -91 2034 -91 
Q 1250 -91 836 529 
Q 422 1150 422 2328 
Q 422 3509 836 4129 
Q 1250 4750 2034 4750 
z
" transform="scale(0.015625)"/>
       </defs>
       <use xlink:href="#DejaVuSans-30"/>
      </g>
     </g>
    </g>
    <g id="xtick_4">
     <g id="line2d_7">
      <path d="M 287.151486 384.48 
L 287.151486 51.84 
" clip-path="url(#p04c03e38ca)" style="fill: none; stroke: #b0b0b0; stroke-width: 0.8; stroke-linecap: square"/>
     </g>
     <g id="line2d_8">
      <g>
       <use xlink:href="#m5f0c7a69e6" x="287.151486" y="384.48" style="stroke: #000000; stroke-width: 0.8"/>
      </g>
     </g>
     <g id="text_4">
      <!-- 1 -->
      <g transform="translate(283.970236 399.078438) scale(0.1 -0.1)">
       <use xlink:href="#DejaVuSans-31"/>
      </g>
     </g>
    </g>
    <g id="xtick_5">
     <g id="line2d_9">
      <path d="M 348.179777 384.48 
L 348.179777 51.84 
" clip-path="url(#p04c03e38ca)" style="fill: none; stroke: #b0b0b0; stroke-width: 0.8; stroke-linecap: square"/>
     </g>
     <g id="line2d_10">
      <g>
       <use xlink:href="#m5f0c7a69e6" x="348.179777" y="384.48" style="stroke: #000000; stroke-width: 0.8"/>
      </g>
     </g>
     <g id="text_5">
      <!-- 2 -->
      <g transform="translate(344.998527 399.078438) scale(0.1 -0.1)">
       <use xlink:href="#DejaVuSans-32"/>
      </g>
     </g>
    </g>
    <g id="text_6">
     <!-- x -->
     <g transform="translate(218.440625 412.756563) scale(0.1 -0.1)">
      <defs>
       <path id="DejaVuSans-78" d="M 3513 3500 
L 2247 1797 
L 3578 0 
L 2900 0 
L 1881 1375 
L 863 0 
L 184 0 
L 1544 1831 
L 300 3500 
L 978 3500 
L 1906 2253 
L 2834 3500 
L 3513 3500 
z
" transform="scale(0.015625)"/>
      </defs>
      <use xlink:href="#DejaVuSans-78"/>
     </g>
    </g>
   </g>
   <g id="matplotlib.axis_2">
    <g id="ytick_1">
     <g id="line2d_11">
      <path d="M 54 337.575104 
L 388.8 337.575104 
" clip-path="url(#p04c03e38ca)" style="fill: none; stroke: #b0b0b0; stroke-width: 0.8; stroke-linecap: square"/>
     </g>
     <g id="line2d_12">
      <defs>
       <path id="mbea7051fef" d="M 0 0 
L -3.5 0 
" style="stroke: #000000; stroke-width: 0.8"/>
      </defs>
      <g>
       <use xlink:href="#mbea7051fef" x="54" y="337.575104" style="stroke: #000000; stroke-width: 0.8"/>
      </g>
     </g>
     <g id="text_7">
      <!-- −2 -->
      <g transform="translate(32.257812 341.374323) scale(0.1 -0.1)">
       <use xlink:href="#DejaVuSans-2212"/>
       <use xlink:href="#DejaVuSans-32" x="83.789062"/>
      </g>
     </g>
    </g>
    <g id="ytick_2">
     <g id="line2d_13">
      <path d="M 54 277.867552 
L 388.8 277.867552 
" clip-path="url(#p04c03e38ca)" style="fill: none; stroke: #b0b0b0; stroke-width: 0.8; stroke-linecap: square"/>
     </g>
     <g id="line2d_14">
      <g>
       <use xlink:href="#mbea7051fef" x="54" y="277.867552" style="stroke: #000000; stroke-width: 0.8"/>
      </g>
     </g>
     <g id="text_8">
      <!-- −1 -->
      <g transform="translate(32.257812 281.666771) scale(0.1 -0.1)">
       <use xlink:href="#DejaVuSans-2212"/>
       <use xlink:href="#DejaVuSans-31" x="83.789062"/>
      </g>
     </g>
    </g>
    <g id="ytick_3">
     <g id="line2d_15">
      <path d="M 54 218.16 
L 388.8 218.16 
" clip-path="url(#p04c03e38ca)" style="fill: none; stroke: #b0b0b0; stroke-width: 0.8; stroke-linecap: square"/>
     </g>
     <g id="line2d_16">
      <g>
       <use xlink:href="#mbea7051fef" x="54" y="218.16" style="stroke: #000000; stroke-width: 0.8"/>
      </g>
     </g>
     <g id="text_9">
      <!-- 0 -->
      <g transform="translate(40.6375 221.959219) scale(0.1 -0.1)">
       <use xlink:href="#DejaVuSans-30"/>
      </g>
     </g>
    </g>
    <g id="ytick_4">
     <g id="line2d_17">
      <path d="M 54 158.452448 
L 388.8 158.452448 
" clip-path="url(#p04c03e38ca)" style="fill: none; stroke: #b0b0b0; stroke-width: 0.8; stroke-linecap: square"/>
     </g>
     <g id="line2d_18">
      <g>
       <use xlink:href="#mbea7051fef" x="54" y="158.452448" style="stroke: #000000; stroke-width: 0.8"/>
      </g>
     </g>
     <g id="text_10">
      <!-- 1 -->
      <g transform="translate(40.6375 162.251667) scale(0.1 -0.1)">
       <use xlink:href="#DejaVuSans-31"/>
      </g>
     </g>
    </g>
    <g id="ytick_5">
     <g id="line2d_19">
      <path d="M 54 98.744896 
L 388.8 98.744896 
" clip-path="url(#p04c03e38ca)" style="fill: none; stroke: #b0b0b0; stroke-width: 0.8; stroke-linecap: square"/>
     </g>
     <g id="line2d_20">
      <g>
       <use xlink:href="#mbea7051fef" x="54" y="98.744896" style="stroke: #000000; stroke-width: 0.8"/>
      </g>
     </g>
     <g id="text_11">
      <!-- 2 -->
      <g transform="translate(40.6375 102.544115) scale(0.1 -0.1)">
       <use xlink:href="#DejaVuSans-32"/>
      </g>
     </g>
    </g>
    <g id="text_12">
     <!-- y -->
     <g transform="translate(26.178125 221.119375) rotate(-90) scale(0.1 -0.1)">
      <defs>
       <path id="DejaVuSans-79" d="M 2059 -325 
Q 1816 -950 1584 -1140 
Q 1353 -1331 966 -1331 
L 506 -1331 
L 506 -850 
L 844 -850 
Q 1081 -850 1212 -737 
Q 1344 -625 1503 -206 
L 1606 56 
L 191 3500 
L 800 3500 
L 1894 763 
L 2988 3500 
L 3597 3500 
L 2059 -325 
z
" transform="scale(0.015625)"/>
      </defs>
      <use xlink:href="#DejaVuSans-79"/>
     </g>
    </g>
   </g>
   <g id="line2d_21">
    <path d="M 348.179777 218.16 
L 348.87041 218.083117 
L 350.068682 217.806986 
L 351.796411 217.203249 
L 353.973153 216.159878 
L 356.49679 214.582931 
L 359.247675 212.40044 
L 360.667333 211.066391 
L 362.093477 209.565406 
L 363.508465 207.895838 
L 364.894552 206.05779 
L 366.234069 204.053115 
L 367.509606 201.885404 
L 368.704182 199.559947 
L 369.801427 197.083686 
L 370.785741 194.465143 
L 371.642457 191.714343 
L 372.357989 188.842709 
L 372.919973 185.862949 
L 373.317387 182.788934 
L 373.54067 179.635557 
L 373.581818 176.418584 
L 373.434465 173.154499 
L 373.093947 169.860337 
L 372.557356 166.553515 
L 371.823563 163.251661 
L 370.893237 159.972431 
L 369.768834 156.733337 
L 368.454578 153.551573 
L 366.956415 150.44384 
L 365.281958 147.426182 
L 363.440408 144.513822 
L 361.442462 141.721014 
L 359.300208 139.0609 
L 357.027001 136.545376 
L 354.637332 134.18498 
L 352.146679 131.98878 
L 349.571356 129.964291 
L 346.928343 128.117397 
L 344.235121 126.452296 
L 341.509492 124.971458 
L 338.769403 123.675603 
L 336.032765 122.563697 
L 333.31727 121.632963 
L 330.640219 120.878912 
L 328.018342 120.295392 
L 325.467634 119.874649 
L 323.003194 119.607413 
L 320.639071 119.48299 
L 318.388128 119.489374 
L 314.270524 119.840731 
L 310.724957 120.544189 
L 307.800237 121.470507 
L 305.517499 122.483794 
L 303.869404 123.447065 
L 302.502334 124.510971 
L 302.228222 124.792721 
L 302.531733 124.328855 
L 303.037226 123.324859 
L 303.630729 121.71507 
L 304.172895 119.487198 
L 304.524497 116.656821 
L 304.552137 113.266804 
L 304.405732 111.382393 
L 304.133714 109.385608 
L 303.72341 107.288559 
L 303.163444 105.104563 
L 302.443857 102.84801 
L 301.556211 100.534219 
L 300.493675 98.179285 
L 299.251097 95.799913 
L 297.825059 93.413254 
L 296.213917 91.036732 
L 294.417815 88.687866 
L 292.438691 86.384093 
L 290.280255 84.142597 
L 287.947961 81.980129 
L 285.448945 79.912845 
L 282.791965 77.956137 
L 279.987308 76.124483 
L 277.04669 74.431297 
L 273.983141 72.888796 
L 270.810876 71.507877 
L 267.545152 70.298005 
L 264.202114 69.267122 
L 260.798641 68.421563 
L 257.35217 67.765995 
L 253.880525 67.303367 
L 250.40174 67.034886 
L 246.933879 66.96 
L 243.494852 67.076409 
L 240.10224 67.380084 
L 236.773119 67.865311 
L 233.523886 68.52475 
L 230.370101 69.349508 
L 227.326328 70.329231 
L 224.405992 71.452206 
L 221.621244 72.705486 
L 218.982843 74.075016 
L 216.500048 75.545778 
L 214.180526 77.101944 
L 212.03028 78.727034 
L 210.053587 80.404088 
L 208.252962 82.115832 
L 206.62913 83.844859 
L 205.181028 85.5738 
L 203.905812 87.285504 
L 201.853981 90.590724 
L 200.416968 93.634136 
L 199.513468 96.303391 
L 199.040913 98.504704 
L 198.879716 100.166641 
L 198.959664 101.725373 
L 198.821329 101.314981 
L 198.386479 100.372794 
L 197.537812 98.973105 
L 196.175742 97.212023 
L 194.222508 95.203564 
L 191.625404 93.075008 
L 190.07635 92.00783 
L 188.358998 90.961725 
L 186.474614 89.953973 
L 184.426241 89.001665 
L 182.218679 88.121526 
L 179.858429 87.329747 
L 177.35364 86.641816 
L 174.71402 86.072363 
L 171.950744 85.635011 
L 169.076346 85.342233 
L 166.104588 85.205227 
L 163.050327 85.2338 
L 159.929367 85.436268 
L 156.758299 85.819372 
L 153.554337 86.388203 
L 150.335146 87.146155 
L 147.118663 88.094885 
L 143.922919 89.234297 
L 140.76586 90.562539 
L 137.665164 92.076024 
L 134.638066 93.769461 
L 131.701188 95.63591 
L 128.870366 97.666849 
L 126.160499 99.852258 
L 123.585394 102.180722 
L 121.157634 104.639542 
L 118.888448 107.214864 
L 116.787601 109.891815 
L 114.863297 112.654655 
L 113.122097 115.486936 
L 111.568858 118.37166 
L 110.206681 121.291457 
L 109.036885 124.228755 
L 108.058992 127.16596 
L 107.270739 130.085626 
L 106.668099 132.970637 
L 106.245325 135.804374 
L 105.995009 138.570883 
L 105.908161 141.255035 
L 105.974301 143.842677 
L 106.181565 146.320773 
L 106.516832 148.677535 
L 106.965852 150.902539 
L 107.5134 152.986829 
L 108.83922 156.705309 
L 110.359018 159.793668 
L 111.932562 162.240065 
L 113.42038 164.060532 
L 114.689452 165.298252 
L 116.103612 166.321982 
L 116.152589 166.347065 
L 115.822738 166.222814 
L 114.185833 165.846464 
L 112.317544 165.667252 
L 109.85244 165.702976 
L 106.842765 166.08091 
L 103.366124 166.915612 
L 101.483128 167.5354 
L 99.522363 168.304212 
L 97.499127 169.230806 
L 95.429563 170.322397 
L 93.330502 171.584578 
L 91.219284 173.021265 
L 89.113591 174.63465 
L 87.031263 176.425178 
L 84.990121 178.391541 
L 83.007786 180.530686 
L 81.101497 182.837847 
L 79.287944 185.306586 
L 77.583093 187.92886 
L 76.002027 190.695097 
L 74.558794 193.594291 
L 73.266262 196.614111 
L 72.135994 199.741024 
L 71.178125 202.960429 
L 70.401264 206.256802 
L 69.812404 209.61385 
L 69.416854 213.014676 
L 69.218182 216.441944 
L 69.218182 219.878056 
L 69.416854 223.305324 
L 69.812404 226.70615 
L 70.401264 230.063198 
L 71.178125 233.359571 
L 72.135994 236.578976 
L 73.266262 239.705889 
L 74.558794 242.725709 
L 76.002027 245.624903 
L 77.583093 248.39114 
L 79.287944 251.013414 
L 81.101497 253.482153 
L 83.007786 255.789314 
L 84.990121 257.928459 
L 87.031263 259.894822 
L 89.113591 261.68535 
L 91.219284 263.298735 
L 93.330502 264.735422 
L 95.429563 265.997603 
L 97.499127 267.089194 
L 99.522363 268.015788 
L 103.366124 269.404388 
L 106.842765 270.23909 
L 109.85244 270.617024 
L 112.317544 270.652748 
L 114.185833 270.473536 
L 115.822738 270.097186 
L 116.152589 269.972935 
L 115.922391 270.101704 
L 114.689452 271.021748 
L 113.42038 272.259468 
L 111.932562 274.079935 
L 110.359018 276.526332 
L 108.83922 279.614691 
L 108.143426 281.396991 
L 107.5134 283.333171 
L 106.965852 285.417461 
L 106.516832 287.642465 
L 106.181565 289.999227 
L 105.974301 292.477323 
L 105.908161 295.064965 
L 105.995009 297.749117 
L 106.245325 300.515626 
L 106.668099 303.349363 
L 107.270739 306.234374 
L 108.058992 309.15404 
L 109.036885 312.091245 
L 110.206681 315.028543 
L 111.568858 317.94834 
L 113.122097 320.833064 
L 114.863297 323.665345 
L 116.787601 326.428185 
L 118.888448 329.105136 
L 121.157634 331.680458 
L 123.585394 334.139278 
L 126.160499 336.467742 
L 128.870366 338.653151 
L 131.701188 340.68409 
L 134.638066 342.550539 
L 137.665164 344.243976 
L 140.76586 345.757461 
L 143.922919 347.085703 
L 147.118663 348.225115 
L 150.335146 349.173845 
L 153.554337 349.931797 
L 156.758299 350.500628 
L 159.929367 350.883732 
L 163.050327 351.0862 
L 166.104588 351.114773 
L 169.076346 350.977767 
L 171.950744 350.684989 
L 174.71402 350.247637 
L 177.35364 349.678184 
L 179.858429 348.990253 
L 182.218679 348.198474 
L 184.426241 347.318335 
L 186.474614 346.366027 
L 188.358998 345.358275 
L 191.625404 343.244992 
L 194.222508 341.116436 
L 196.175742 339.107977 
L 197.537812 337.346895 
L 198.648661 335.41373 
L 198.959664 334.594627 
L 198.898188 335.077 
L 198.879716 336.153359 
L 199.040913 337.815296 
L 199.513468 340.016609 
L 200.416968 342.685864 
L 201.853981 345.729276 
L 202.798892 347.356788 
L 203.905812 349.034496 
L 205.181028 350.7462 
L 206.62913 352.475141 
L 208.252962 354.204168 
L 210.053587 355.915912 
L 212.03028 357.592966 
L 214.180526 359.218056 
L 216.500048 360.774222 
L 218.982843 362.244984 
L 221.621244 363.614514 
L 224.405992 364.867794 
L 227.326328 365.990769 
L 230.370101 366.970492 
L 233.523886 367.79525 
L 236.773119 368.454689 
L 240.10224 368.939916 
L 243.494852 369.243591 
L 246.933879 369.36 
L 250.40174 369.285114 
L 253.880525 369.016633 
L 257.35217 368.554005 
L 260.798641 367.898437 
L 264.202114 367.052878 
L 267.545152 366.021995 
L 270.810876 364.812123 
L 273.983141 363.431204 
L 277.04669 361.888703 
L 279.987308 360.195517 
L 282.791965 358.363863 
L 285.448945 356.407155 
L 287.947961 354.339871 
L 290.280255 352.177403 
L 292.438691 349.935907 
L 294.417815 347.632134 
L 296.213917 345.283268 
L 297.825059 342.906746 
L 299.251097 340.520087 
L 300.493675 338.140715 
L 301.556211 335.785781 
L 302.443857 333.47199 
L 303.163444 331.215437 
L 303.72341 329.031441 
L 304.133714 326.934392 
L 304.552137 323.053196 
L 304.524497 319.663179 
L 304.172895 316.832802 
L 303.630729 314.60493 
L 303.037226 312.995141 
L 302.228222 311.527279 
L 302.502334 311.809029 
L 303.273335 312.451782 
L 304.61569 313.339868 
L 306.57841 314.345118 
L 309.183007 315.332108 
L 312.422554 316.163695 
L 316.261909 316.70663 
L 318.388128 316.830626 
L 320.639071 316.83701 
L 323.003194 316.712587 
L 325.467634 316.445351 
L 328.018342 316.024608 
L 330.640219 315.441088 
L 333.31727 314.687037 
L 336.032765 313.756303 
L 338.769403 312.644397 
L 341.509492 311.348542 
L 344.235121 309.867704 
L 346.928343 308.202603 
L 349.571356 306.355709 
L 352.146679 304.33122 
L 354.637332 302.13502 
L 357.027001 299.774624 
L 359.300208 297.2591 
L 361.442462 294.598986 
L 363.440408 291.806178 
L 365.281958 288.893818 
L 366.956415 285.87616 
L 368.454578 282.768427 
L 369.768834 279.586663 
L 370.893237 276.347569 
L 371.823563 273.068339 
L 372.557356 269.766485 
L 373.093947 266.459663 
L 373.434465 263.165501 
L 373.581818 259.901416 
L 373.54067 256.684443 
L 373.317387 253.531066 
L 372.919973 250.457051 
L 372.357989 247.477291 
L 371.642457 244.605657 
L 370.785741 241.854857 
L 369.801427 239.236314 
L 368.704182 236.760053 
L 367.509606 234.434596 
L 366.234069 232.266885 
L 364.894552 230.26221 
L 363.508465 228.424162 
L 362.093477 226.754594 
L 359.247675 223.91956 
L 356.49679 221.737069 
L 353.973153 220.160122 
L 351.796411 219.116751 
L 350.068682 218.513014 
L 348.257109 218.162859 
L 348.179777 218.16 
L 348.179777 218.16 
" clip-path="url(#p04c03e38ca)" style="fill: none; stroke: #0000ff; stroke-width: 1.5; stroke-linecap: square"/>
   </g>
   <g id="patch_3">
    <path d="M 54 384.48 
L 54 51.84 
" style="fill: none; stroke: #000000; stroke-width: 0.8; stroke-linejoin: miter; stroke-linecap: square"/>
   </g>
   <g id="patch_4">
    <path d="M 388.8 384.48 
L 388.8 51.84 
" style="fill: none; stroke: #000000; stroke-width: 0.8; stroke-linejoin: miter; stroke-linecap: square"/>
   </g>
   <g id="patch_5">
    <path d="M 54 384.48 
L 388.8 384.48 
" style="fill: none; stroke: #000000; stroke-width: 0.8; stroke-linejoin: miter; stroke-linecap: square"/>
   </g>
   <g id="patch_6">
    <path d="M 54 51.84 
L 388.8 51.84 
" style="fill: none; stroke: #000000; stroke-width: 0.8; stroke-linejoin: miter; stroke-linecap: square"/>
   </g>
  </g>
 </g>
 <defs>
  <clipPath id="p04c03e38ca">
   <rect x="54" y="51.84" width="334.8" height="332.64"/>
  </clipPath>
 </defs>
</svg>
