<?xml version="1.0" encoding="UTF-8" standalone="no"?>
<svg
   width="432pt"
   height="432pt"
   viewBox="0 0 432 432"
   version="1.1"
   id="svg41"
   sodipodi:docname="sym_yang_and_guo_cartesian.svg"
   inkscape:version="1.4 (86a8ad7, 2024-10-11)"
   inkscape:export-filename="sym_yang_and_guo_cartesian.png"
   inkscape:export-xdpi="96"
   inkscape:export-ydpi="96"
   xmlns:inkscape="http://www.inkscape.org/namespaces/inkscape"
   xmlns:sodipodi="http://sodipodi.sourceforge.net/DTD/sodipodi-0.dtd"
   xmlns:xlink="http://www.w3.org/1999/xlink"
   xmlns="http://www.w3.org/2000/svg"
   xmlns:svg="http://www.w3.org/2000/svg"
   xmlns:rdf="http://www.w3.org/1999/02/22-rdf-syntax-ns#"
   xmlns:cc="http://creativecommons.org/ns#"
   xmlns:dc="http://purl.org/dc/elements/1.1/">
  <sodipodi:namedview
     id="namedview41"
     pagecolor="#ffffff"
     bordercolor="#000000"
     borderopacity="0.25"
     inkscape:showpageshadow="2"
     inkscape:pageopacity="0.0"
     inkscape:pagecheckerboard="0"
     inkscape:deskcolor="#d1d1d1"
     inkscape:document-units="pt"
     inkscape:zoom="0.99068606"
     inkscape:cx="123.65168"
     inkscape:cy="279.09952"
     inkscape:window-width="1920"
     inkscape:window-height="1009"
     inkscape:window-x="1912"
     inkscape:window-y="-8"
     inkscape:window-maximized="1"
     inkscape:current-layer="svg41" />
  <metadata
     id="metadata1">
    <rdf:RDF>
      <cc:Work>
        <dc:type
           rdf:resource="http://purl.org/dc/dcmitype/StillImage" />
        <dc:date>2025-03-21T13:44:08.947214</dc:date>
        <dc:format>image/svg+xml</dc:format>
        <dc:creator>
          <cc:Agent>
            <dc:title>Matplotlib v3.9.2, https://matplotlib.org/</dc:title>
          </cc:Agent>
        </dc:creator>
      </cc:Work>
    </rdf:RDF>
  </metadata>
  <defs
     id="defs1">
    <style
       type="text/css"
       id="style1">*{stroke-linejoin: round; stroke-linecap: butt}</style>
  </defs>
  <g
     id="figure_1">
    <g
       id="patch_1">
      <path
         d="M 0 432  L 432 432  L 432 0  L 0 0  z "
         style="fill: #ffffff"
         id="path1" />
    </g>
    <g
       id="axes_1">
      <g
         id="patch_2">
        <path
           d="M 54 384.48  L 388.8 384.48  L 388.8 51.84  L 54 51.84  z "
           style="fill: #ffffff"
           id="path2" />
      </g>
      <g
         id="matplotlib.axis_1">
        <g
           id="xtick_1">
          <g
             id="line2d_1">
            <path
               d="M 54 384.48  L 54 51.84  "
               clip-path="url(#p3b95f01f75)"
               style="fill: none; stroke: #b0b0b0; stroke-width: 0.8; stroke-linecap: square"
               id="path3" />
          </g>
          <g
             id="line2d_2">
            <defs
               id="defs3">
              <path
                 id="m55868e2aeb"
                 d="M 0 0  L 0 3.5  "
                 style="stroke: #000000; stroke-width: 0.8" />
            </defs>
            <g
               id="g3">
              <use
                 xlink:href="#m55868e2aeb"
                 x="54"
                 y="384.48"
                 style="stroke: #000000; stroke-width: 0.8"
                 id="use3" />
            </g>
          </g>
          <g
             id="text_1">
            <!-- −2 -->
            <g
               transform="translate(46.628906 399.078438) scale(0.1 -0.1)"
               id="g5">
              <defs
                 id="defs4">
                <path
                   id="DejaVuSans-2212"
                   d="M 678 2272  L 4684 2272  L 4684 1741  L 678 1741  L 678 2272  z "
                   transform="scale(0.015625)" />
                <path
                   id="DejaVuSans-32"
                   d="M 1228 531  L 3431 531  L 3431 0  L 469 0  L 469 531  Q 828 903 1448 1529  Q 2069 2156 2228 2338  Q 2531 2678 2651 2914  Q 2772 3150 2772 3378  Q 2772 3750 2511 3984  Q 2250 4219 1831 4219  Q 1534 4219 1204 4116  Q 875 4013 500 3803  L 500 4441  Q 881 4594 1212 4672  Q 1544 4750 1819 4750  Q 2544 4750 2975 4387  Q 3406 4025 3406 3419  Q 3406 3131 3298 2873  Q 3191 2616 2906 2266  Q 2828 2175 2409 1742  Q 1991 1309 1228 531  z "
                   transform="scale(0.015625)" />
              </defs>
              <use
                 xlink:href="#DejaVuSans-2212"
                 id="use4" />
              <use
                 xlink:href="#DejaVuSans-32"
                 x="83.789062"
                 id="use5" />
            </g>
          </g>
        </g>
        <g
           id="xtick_2">
          <g
             id="line2d_3">
            <path
               d="M 109.8 384.48  L 109.8 51.84  "
               clip-path="url(#p3b95f01f75)"
               style="fill: none; stroke: #b0b0b0; stroke-width: 0.8; stroke-linecap: square"
               id="path5" />
          </g>
          <g
             id="line2d_4">
            <g
               id="g6">
              <use
                 xlink:href="#m55868e2aeb"
                 x="109.8"
                 y="384.48"
                 style="stroke: #000000; stroke-width: 0.8"
                 id="use6" />
            </g>
          </g>
          <g
             id="text_2">
            <!-- −1 -->
            <g
               transform="translate(102.428906 399.078438) scale(0.1 -0.1)"
               id="g8">
              <defs
                 id="defs6">
                <path
                   id="DejaVuSans-31"
                   d="M 794 531  L 1825 531  L 1825 4091  L 703 3866  L 703 4441  L 1819 4666  L 2450 4666  L 2450 531  L 3481 531  L 3481 0  L 794 0  L 794 531  z "
                   transform="scale(0.015625)" />
              </defs>
              <use
                 xlink:href="#DejaVuSans-2212"
                 id="use7" />
              <use
                 xlink:href="#DejaVuSans-31"
                 x="83.789062"
                 id="use8" />
            </g>
          </g>
        </g>
        <g
           id="xtick_3">
          <g
             id="line2d_5">
            <path
               d="M 165.6 384.48  L 165.6 51.84  "
               clip-path="url(#p3b95f01f75)"
               style="fill: none; stroke: #b0b0b0; stroke-width: 0.8; stroke-linecap: square"
               id="path8" />
          </g>
          <g
             id="line2d_6">
            <g
               id="g9">
              <use
                 xlink:href="#m55868e2aeb"
                 x="165.6"
                 y="384.48"
                 style="stroke: #000000; stroke-width: 0.8"
                 id="use9" />
            </g>
          </g>
          <g
             id="text_3">
            <!-- 0 -->
            <g
               transform="translate(162.41875 399.078438) scale(0.1 -0.1)"
               id="g10">
              <defs
                 id="defs9">
                <path
                   id="DejaVuSans-30"
                   d="M 2034 4250  Q 1547 4250 1301 3770  Q 1056 3291 1056 2328  Q 1056 1369 1301 889  Q 1547 409 2034 409  Q 2525 409 2770 889  Q 3016 1369 3016 2328  Q 3016 3291 2770 3770  Q 2525 4250 2034 4250  z M 2034 4750  Q 2819 4750 3233 4129  Q 3647 3509 3647 2328  Q 3647 1150 3233 529  Q 2819 -91 2034 -91  Q 1250 -91 836 529  Q 422 1150 422 2328  Q 422 3509 836 4129  Q 1250 4750 2034 4750  z "
                   transform="scale(0.015625)" />
              </defs>
              <use
                 xlink:href="#DejaVuSans-30"
                 id="use10" />
            </g>
          </g>
        </g>
        <g
           id="xtick_4">
          <g
             id="line2d_7">
            <path
               d="M 221.4 384.48  L 221.4 51.84  "
               clip-path="url(#p3b95f01f75)"
               style="fill: none; stroke: #b0b0b0; stroke-width: 0.8; stroke-linecap: square"
               id="path10" />
          </g>
          <g
             id="line2d_8">
            <g
               id="g11">
              <use
                 xlink:href="#m55868e2aeb"
                 x="221.4"
                 y="384.48"
                 style="stroke: #000000; stroke-width: 0.8"
                 id="use11" />
            </g>
          </g>
          <g
             id="text_4">
            <!-- 1 -->
            <g
               transform="translate(218.21875 399.078438) scale(0.1 -0.1)"
               id="g12">
              <use
                 xlink:href="#DejaVuSans-31"
                 id="use12" />
            </g>
          </g>
        </g>
        <g
           id="xtick_5">
          <g
             id="line2d_9">
            <path
               d="M 277.2 384.48  L 277.2 51.84  "
               clip-path="url(#p3b95f01f75)"
               style="fill: none; stroke: #b0b0b0; stroke-width: 0.8; stroke-linecap: square"
               id="path12" />
          </g>
          <g
             id="line2d_10">
            <g
               id="g13">
              <use
                 xlink:href="#m55868e2aeb"
                 x="277.2"
                 y="384.48"
                 style="stroke: #000000; stroke-width: 0.8"
                 id="use13" />
            </g>
          </g>
          <g
             id="text_5">
            <!-- 2 -->
            <g
               transform="translate(274.01875 399.078438) scale(0.1 -0.1)"
               id="g14">
              <use
                 xlink:href="#DejaVuSans-32"
                 id="use14" />
            </g>
          </g>
        </g>
        <g
           id="xtick_6">
          <g
             id="line2d_11">
            <path
               d="M 333 384.48  L 333 51.84  "
               clip-path="url(#p3b95f01f75)"
               style="fill: none; stroke: #b0b0b0; stroke-width: 0.8; stroke-linecap: square"
               id="path14" />
          </g>
          <g
             id="line2d_12">
            <g
               id="g15">
              <use
                 xlink:href="#m55868e2aeb"
                 x="333"
                 y="384.48"
                 style="stroke: #000000; stroke-width: 0.8"
                 id="use15" />
            </g>
          </g>
          <g
             id="text_6">
            <!-- 3 -->
            <g
               transform="translate(329.81875 399.078438) scale(0.1 -0.1)"
               id="g16">
              <defs
                 id="defs15">
                <path
                   id="DejaVuSans-33"
                   d="M 2597 2516  Q 3050 2419 3304 2112  Q 3559 1806 3559 1356  Q 3559 666 3084 287  Q 2609 -91 1734 -91  Q 1441 -91 1130 -33  Q 819 25 488 141  L 488 750  Q 750 597 1062 519  Q 1375 441 1716 441  Q 2309 441 2620 675  Q 2931 909 2931 1356  Q 2931 1769 2642 2001  Q 2353 2234 1838 2234  L 1294 2234  L 1294 2753  L 1863 2753  Q 2328 2753 2575 2939  Q 2822 3125 2822 3475  Q 2822 3834 2567 4026  Q 2313 4219 1838 4219  Q 1578 4219 1281 4162  Q 984 4106 628 3988  L 628 4550  Q 988 4650 1302 4700  Q 1616 4750 1894 4750  Q 2613 4750 3031 4423  Q 3450 4097 3450 3541  Q 3450 3153 3228 2886  Q 3006 2619 2597 2516  z "
                   transform="scale(0.015625)" />
              </defs>
              <use
                 xlink:href="#DejaVuSans-33"
                 id="use16" />
            </g>
          </g>
        </g>
        <g
           id="xtick_7">
          <g
             id="line2d_13">
            <path
               d="M 388.8 384.48  L 388.8 51.84  "
               clip-path="url(#p3b95f01f75)"
               style="fill: none; stroke: #b0b0b0; stroke-width: 0.8; stroke-linecap: square"
               id="path16" />
          </g>
          <g
             id="line2d_14">
            <g
               id="g17">
              <use
                 xlink:href="#m55868e2aeb"
                 x="388.8"
                 y="384.48"
                 style="stroke: #000000; stroke-width: 0.8"
                 id="use17" />
            </g>
          </g>
          <g
             id="text_7">
            <!-- 4 -->
            <g
               transform="translate(385.61875 399.078438) scale(0.1 -0.1)"
               id="g18">
              <defs
                 id="defs17">
                <path
                   id="DejaVuSans-34"
                   d="M 2419 4116  L 825 1625  L 2419 1625  L 2419 4116  z M 2253 4666  L 3047 4666  L 3047 1625  L 3713 1625  L 3713 1100  L 3047 1100  L 3047 0  L 2419 0  L 2419 1100  L 313 1100  L 313 1709  L 2253 4666  z "
                   transform="scale(0.015625)" />
              </defs>
              <use
                 xlink:href="#DejaVuSans-34"
                 id="use18" />
            </g>
          </g>
        </g>
        <g
           id="text_8">
          <!-- x -->
          <g
             transform="translate(218.440625 412.756563) scale(0.1 -0.1)"
             id="g19">
            <defs
               id="defs18">
              <path
                 id="DejaVuSans-78"
                 d="M 3513 3500  L 2247 1797  L 3578 0  L 2900 0  L 1881 1375  L 863 0  L 184 0  L 1544 1831  L 300 3500  L 978 3500  L 1906 2253  L 2834 3500  L 3513 3500  z "
                 transform="scale(0.015625)" />
            </defs>
            <use
               xlink:href="#DejaVuSans-78"
               id="use19" />
          </g>
        </g>
      </g>
      <g
         id="matplotlib.axis_2">
        <g
           id="ytick_1">
          <g
             id="line2d_15">
            <path
               d="M 54 384.48  L 388.8 384.48  "
               clip-path="url(#p3b95f01f75)"
               style="fill: none; stroke: #b0b0b0; stroke-width: 0.8; stroke-linecap: square"
               id="path19" />
          </g>
          <g
             id="line2d_16">
            <defs
               id="defs19">
              <path
                 id="m719e725b91"
                 d="M 0 0  L -3.5 0  "
                 style="stroke: #000000; stroke-width: 0.8" />
            </defs>
            <g
               id="g20">
              <use
                 xlink:href="#m719e725b91"
                 x="54"
                 y="384.48"
                 style="stroke: #000000; stroke-width: 0.8"
                 id="use20" />
            </g>
          </g>
          <g
             id="text_9">
            <!-- −3 -->
            <g
               transform="translate(32.257812 388.279219) scale(0.1 -0.1)"
               id="g22">
              <use
                 xlink:href="#DejaVuSans-2212"
                 id="use21" />
              <use
                 xlink:href="#DejaVuSans-33"
                 x="83.789062"
                 id="use22" />
            </g>
          </g>
        </g>
        <g
           id="ytick_2">
          <g
             id="line2d_17">
            <path
               d="M 54 329.04  L 388.8 329.04  "
               clip-path="url(#p3b95f01f75)"
               style="fill: none; stroke: #b0b0b0; stroke-width: 0.8; stroke-linecap: square"
               id="path22" />
          </g>
          <g
             id="line2d_18">
            <g
               id="g23">
              <use
                 xlink:href="#m719e725b91"
                 x="54"
                 y="329.04"
                 style="stroke: #000000; stroke-width: 0.8"
                 id="use23" />
            </g>
          </g>
          <g
             id="text_10">
            <!-- −2 -->
            <g
               transform="translate(32.257812 332.839219) scale(0.1 -0.1)"
               id="g25">
              <use
                 xlink:href="#DejaVuSans-2212"
                 id="use24" />
              <use
                 xlink:href="#DejaVuSans-32"
                 x="83.789062"
                 id="use25" />
            </g>
          </g>
        </g>
        <g
           id="ytick_3">
          <g
             id="line2d_19">
            <path
               d="M 54 273.6  L 388.8 273.6  "
               clip-path="url(#p3b95f01f75)"
               style="fill: none; stroke: #b0b0b0; stroke-width: 0.8; stroke-linecap: square"
               id="path25" />
          </g>
          <g
             id="line2d_20">
            <g
               id="g26">
              <use
                 xlink:href="#m719e725b91"
                 x="54"
                 y="273.6"
                 style="stroke: #000000; stroke-width: 0.8"
                 id="use26" />
            </g>
          </g>
          <g
             id="text_11">
            <!-- −1 -->
            <g
               transform="translate(32.257812 277.399219) scale(0.1 -0.1)"
               id="g28">
              <use
                 xlink:href="#DejaVuSans-2212"
                 id="use27" />
              <use
                 xlink:href="#DejaVuSans-31"
                 x="83.789062"
                 id="use28" />
            </g>
          </g>
        </g>
        <g
           id="ytick_4">
          <g
             id="line2d_21">
            <path
               d="M 54 218.16  L 388.8 218.16  "
               clip-path="url(#p3b95f01f75)"
               style="fill: none; stroke: #b0b0b0; stroke-width: 0.8; stroke-linecap: square"
               id="path28" />
          </g>
          <g
             id="line2d_22">
            <g
               id="g29">
              <use
                 xlink:href="#m719e725b91"
                 x="54"
                 y="218.16"
                 style="stroke: #000000; stroke-width: 0.8"
                 id="use29" />
            </g>
          </g>
          <g
             id="text_12">
            <!-- 0 -->
            <g
               transform="translate(40.6375 221.959219) scale(0.1 -0.1)"
               id="g30">
              <use
                 xlink:href="#DejaVuSans-30"
                 id="use30" />
            </g>
          </g>
        </g>
        <g
           id="ytick_5">
          <g
             id="line2d_23">
            <path
               d="M 54 162.72  L 388.8 162.72  "
               clip-path="url(#p3b95f01f75)"
               style="fill: none; stroke: #b0b0b0; stroke-width: 0.8; stroke-linecap: square"
               id="path30" />
          </g>
          <g
             id="line2d_24">
            <g
               id="g31">
              <use
                 xlink:href="#m719e725b91"
                 x="54"
                 y="162.72"
                 style="stroke: #000000; stroke-width: 0.8"
                 id="use31" />
            </g>
          </g>
          <g
             id="text_13">
            <!-- 1 -->
            <g
               transform="translate(40.6375 166.519219) scale(0.1 -0.1)"
               id="g32">
              <use
                 xlink:href="#DejaVuSans-31"
                 id="use32" />
            </g>
          </g>
        </g>
        <g
           id="ytick_6">
          <g
             id="line2d_25">
            <path
               d="M 54 107.28  L 388.8 107.28  "
               clip-path="url(#p3b95f01f75)"
               style="fill: none; stroke: #b0b0b0; stroke-width: 0.8; stroke-linecap: square"
               id="path32" />
          </g>
          <g
             id="line2d_26">
            <g
               id="g33">
              <use
                 xlink:href="#m719e725b91"
                 x="54"
                 y="107.28"
                 style="stroke: #000000; stroke-width: 0.8"
                 id="use33" />
            </g>
          </g>
          <g
             id="text_14">
            <!-- 2 -->
            <g
               transform="translate(40.6375 111.079219) scale(0.1 -0.1)"
               id="g34">
              <use
                 xlink:href="#DejaVuSans-32"
                 id="use34" />
            </g>
          </g>
        </g>
        <g
           id="ytick_7">
          <g
             id="line2d_27">
            <path
               d="M 54 51.84  L 388.8 51.84  "
               clip-path="url(#p3b95f01f75)"
               style="fill: none; stroke: #b0b0b0; stroke-width: 0.8; stroke-linecap: square"
               id="path34" />
          </g>
          <g
             id="line2d_28">
            <g
               id="g35">
              <use
                 xlink:href="#m719e725b91"
                 x="54"
                 y="51.84"
                 style="stroke: #000000; stroke-width: 0.8"
                 id="use35" />
            </g>
          </g>
          <g
             id="text_15">
            <!-- 3 -->
            <g
               transform="translate(40.6375 55.639219) scale(0.1 -0.1)"
               id="g36">
              <use
                 xlink:href="#DejaVuSans-33"
                 id="use36" />
            </g>
          </g>
        </g>
        <g
           id="text_16">
          <!-- y -->
          <g
             transform="translate(26.178125 221.119375) rotate(-90) scale(0.1 -0.1)"
             id="g37">
            <defs
               id="defs36">
              <path
                 id="DejaVuSans-79"
                 d="M 2059 -325  Q 1816 -950 1584 -1140  Q 1353 -1331 966 -1331  L 506 -1331  L 506 -850  L 844 -850  Q 1081 -850 1212 -737  Q 1344 -625 1503 -206  L 1606 56  L 191 3500  L 800 3500  L 1894 763  L 2988 3500  L 3597 3500  L 2059 -325  z "
                 transform="scale(0.015625)" />
            </defs>
            <use
               xlink:href="#DejaVuSans-79"
               id="use37" />
          </g>
        </g>
      </g>
      <g
         id="QuadContourSet_1">
        <path
           d="M 180.390361 365.852634  L 179.671088 365.777349  L 179.045783 365.709312  L 177.701205 365.547602  L 176.356627 365.370174  L 175.012048 365.177073  L 173.66747 364.968354  L 172.322892 364.744092  L 170.978313 364.504373  L 170.645888 364.441446  L 169.633735 364.241994  L 168.289157 363.961338  L 166.944578 363.664931  L 165.6 363.352931  L 164.58354 363.105542  L 164.255422 363.022307  L 162.910843 362.665878  L 161.566265 362.293767  L 160.221687 361.906223  L 159.765308 361.769639  L 158.877108 361.492278  L 157.53253 361.05701  L 156.187952 360.606502  L 155.688694 360.433735  L 154.843373 360.128159  L 153.498795 359.62699  L 152.154217 359.111045  L 152.120727 359.097831  L 150.809639 358.556845  L 149.46506 357.98754  L 148.945344 357.761928  L 148.120482 357.386954  L 146.775904 356.761435  L 146.070681 356.426024  L 145.431325 356.107152  L 144.086747 355.422593  L 143.446401 355.09012  L 142.742169 354.706159  L 141.39759 353.959848  L 141.033662 353.754217  L 140.053012 353.171542  L 138.803897 352.418313  L 138.708434 352.357652  L 137.363855 351.489701  L 136.741131 351.08241  L 136.019277 350.584149  L 134.819668 349.746506  L 134.674699 349.639421  L 133.33012 348.634312  L 133.034014 348.410602  L 131.985542 347.571329  L 131.370535 347.074699  L 130.640964 346.448798  L 129.819708 345.738795  L 129.296386 345.256709  L 128.375693 344.402892  L 127.951807 343.982653  L 127.033413 343.066988  L 126.607229 342.611078  L 125.788465 341.731084  L 125.262651 341.122262  L 124.637054 340.395181  L 123.918072 339.490852  L 123.575926 339.059277  L 122.602813 337.723373  L 122.573494 337.678942  L 121.72228 336.38747  L 121.228916 335.559378  L 120.92645 335.051566  L 120.219421 333.715663  L 119.884337 332.991279  L 119.601039 332.379759  L 119.0743 331.043855  L 118.637899 329.707952  L 118.539759 329.318013  L 118.300633 328.372048  L 118.063882 327.036145  L 117.932207 325.700241  L 117.912626 324.364337  L 118.013148 323.028434  L 118.242958 321.69253  L 118.539759 320.614282  L 118.613706 320.356627  L 119.142953 319.020723  L 119.840512 317.684819  L 119.884337 317.616489  L 120.733561 316.348916  L 121.228916 315.736517  L 121.839929 315.013012  L 122.573494 314.271849  L 123.187622 313.677108  L 123.918072 313.060325  L 124.805653 312.341205  L 125.262651 312.013021  L 126.607229 311.083309  L 126.723357 311.005301  L 127.951807 310.262305  L 128.967227 309.669398  L 129.296386 309.494612  L 130.640964 308.795201  L 131.550992 308.333494  L 131.985542 308.130954  L 133.33012 307.512585  L 134.469874 306.99759  L 134.674699 306.91186  L 136.019277 306.350754  L 137.363855 305.795316  L 137.686716 305.661687  L 138.708434 305.266725  L 140.053012 304.746438  L 141.135867 304.325783  L 141.39759 304.230272  L 142.742169 303.733248  L 144.086747 303.231387  L 144.72368 302.98988  L 145.431325 302.736278  L 146.775904 302.245332  L 148.120482 301.744989  L 148.359302 301.653976  L 149.46506 301.253539  L 150.809639 300.754462  L 151.954464 300.318072  L 152.154217 300.245427  L 153.498795 299.741835  L 154.843373 299.222596  L 155.446645 298.982169  L 156.187952 298.699009  L 157.53253 298.167986  L 158.80748 297.646265  L 158.877108 297.618862  L 160.221687 297.071414  L 161.566265 296.502511  L 162.004467 296.310361  L 162.910843 295.926523  L 164.255422 295.33452  L 165.042119 294.974458  L 165.6 294.727069  L 166.944578 294.107444  L 167.920902 293.638554  L 168.289157 293.466661  L 169.633735 292.814747  L 170.645654 292.302651  L 170.978313 292.138522  L 172.322892 291.449382  L 173.225008 290.966747  L 173.66747 290.735248  L 175.012048 290.003552  L 175.669357 289.630843  L 176.356627 289.248566  L 177.701205 288.468458  L 177.989393 288.29494  L 179.045783 287.669065  L 180.192009 286.959036  L 180.390361 286.837868  L 181.73494 285.985911  L 182.284736 285.623133  L 183.079518 285.104342  L 184.279161 284.287229  L 184.424096 284.189354  L 185.768675 283.248708  L 186.17771 282.951325  L 187.113253 282.274819  L 187.989581 281.615422  L 188.457831 281.264186  L 189.720655 280.279518  L 189.80241 280.215824  L 191.146988 279.132747  L 191.373737 278.943614  L 192.491566 278.008925  L 192.954852 277.607711  L 193.836145 276.840799  L 194.468313 276.271807  L 195.180723 275.625941  L 195.917667 274.935904  L 196.525301 274.361421  L 197.306245 273.6  L 197.86988 273.043745  L 198.637128 272.264096  L 199.214458 271.668778  L 199.913129 270.928193  L 200.559036 270.231657  L 201.136776 269.592289  L 201.903614 268.726682  L 202.310304 268.256386  L 203.248193 267.147197  L 203.435651 266.920482  L 204.51502 265.584578  L 204.592771 265.486194  L 205.551359 264.248675  L 205.937349 263.735359  L 206.544775 262.912771  L 207.281928 261.881514  L 207.496181 261.576867  L 208.408656 260.240964  L 208.626506 259.911805  L 209.283778 258.90506  L 209.971084 257.808865  L 210.119631 257.569157  L 210.921628 256.233253  L 211.315663 255.549099  L 211.687679 254.897349  L 212.419145 253.561446  L 212.660241 253.102973  L 213.118808 252.225542  L 213.784301 250.889639  L 214.004819 250.427255  L 214.420019 249.553735  L 215.023576 248.217831  L 215.349398 247.458708  L 215.59683 246.881928  L 216.141935 245.546024  L 216.654044 244.21012  L 216.693976 244.100653  L 217.142831 242.874217  L 217.600926 241.538313  L 218.028443 240.20241  L 218.038554 240.168907  L 218.434422 238.866506  L 218.811237 237.530602  L 219.159432 236.194699  L 219.383133 235.264828  L 219.481877 234.858795  L 219.781532 233.522892  L 220.054043 232.186988  L 220.299971 230.851084  L 220.519828 229.515181  L 220.714078 228.179277  L 220.727711 228.072153  L 220.886831 226.843373  L 221.034513 225.50747  L 221.15711 224.171566  L 221.254877 222.835663  L 221.328022 221.499759  L 221.376699 220.163855  L 221.401012 218.827952  L 221.401012 217.492048  L 221.376699 216.156145  L 221.328022 214.820241  L 221.254877 213.484337  L 221.15711 212.148434  L 221.034513 210.81253  L 220.886831 209.476627  L 220.727711 208.247847  L 220.714078 208.140723  L 220.519828 206.804819  L 220.299971 205.468916  L 220.054043 204.133012  L 219.781532 202.797108  L 219.481877 201.461205  L 219.383133 201.055172  L 219.159432 200.125301  L 218.811237 198.789398  L 218.434422 197.453494  L 218.038554 196.151093  L 218.028443 196.11759  L 217.600926 194.781687  L 217.142831 193.445783  L 216.693976 192.219347  L 216.654044 192.10988  L 216.141935 190.773976  L 215.59683 189.438072  L 215.349398 188.861292  L 215.023576 188.102169  L 214.420019 186.766265  L 214.004819 185.892745  L 213.784301 185.430361  L 213.118808 184.094458  L 212.660241 183.217027  L 212.419145 182.758554  L 211.687679 181.422651  L 211.315663 180.770901  L 210.921628 180.086747  L 210.119631 178.750843  L 209.971084 178.511135  L 209.283778 177.41494  L 208.626506 176.408195  L 208.408656 176.079036  L 207.496181 174.743133  L 207.281928 174.438486  L 206.544775 173.407229  L 205.937349 172.584641  L 205.551359 172.071325  L 204.592771 170.833806  L 204.51502 170.735422  L 203.435651 169.399518  L 203.248193 169.172803  L 202.310304 168.063614  L 201.903614 167.593318  L 201.136776 166.727711  L 200.559036 166.088343  L 199.913129 165.391807  L 199.214458 164.651222  L 198.637128 164.055904  L 197.86988 163.276255  L 197.306245 162.72  L 196.525301 161.958579  L 195.917667 161.384096  L 195.180723 160.694059  L 194.468313 160.048193  L 193.836145 159.479201  L 192.954852 158.712289  L 192.491566 158.311075  L 191.373737 157.376386  L 191.146988 157.187253  L 189.80241 156.104176  L 189.720655 156.040482  L 188.457831 155.055814  L 187.989581 154.704578  L 187.113253 154.045181  L 186.17771 153.368675  L 185.768675 153.071292  L 184.424096 152.130646  L 184.279161 152.032771  L 183.079518 151.215658  L 182.284736 150.696867  L 181.73494 150.334089  L 180.390361 149.482132  L 180.192009 149.360964  L 179.045783 148.650935  L 177.989393 148.02506  L 177.701205 147.851542  L 176.356627 147.071434  L 175.669357 146.689157  L 175.012048 146.316448  L 173.66747 145.584752  L 173.225008 145.353253  L 172.322892 144.870618  L 170.978313 144.181478  L 170.645654 144.017349  L 169.633735 143.505253  L 168.289157 142.853339  L 167.920902 142.681446  L 166.944578 142.212556  L 165.6 141.592931  L 165.042119 141.345542  L 164.255422 140.98548  L 162.910843 140.393477  L 162.004467 140.009639  L 161.566265 139.817489  L 160.221687 139.248586  L 158.877108 138.701138  L 158.80748 138.673735  L 157.53253 138.152014  L 156.187952 137.620991  L 155.446645 137.337831  L 154.843373 137.097404  L 153.498795 136.578165  L 152.154217 136.074573  L 151.954464 136.001928  L 150.809639 135.565538  L 149.46506 135.066461  L 148.359302 134.666024  L 148.120482 134.575011  L 146.775904 134.074668  L 145.431325 133.583722  L 144.72368 133.33012  L 144.086747 133.088613  L 142.742169 132.586752  L 141.39759 132.089728  L 141.135867 131.994217  L 140.053012 131.573562  L 138.708434 131.053275  L 137.686716 130.658313  L 137.363855 130.524684  L 136.019277 129.969246  L 134.674699 129.40814  L 134.469874 129.32241  L 133.33012 128.807415  L 131.985542 128.189046  L 131.550992 127.986506  L 130.640964 127.524799  L 129.296386 126.825388  L 128.967227 126.650602  L 127.951807 126.057695  L 126.723357 125.314699  L 126.607229 125.236691  L 125.262651 124.306979  L 124.805653 123.978795  L 123.918072 123.259675  L 123.187622 122.642892  L 122.573494 122.048151  L 121.839929 121.306988  L 121.228916 120.583483  L 120.733561 119.971084  L 119.884337 118.703511  L 119.840512 118.635181  L 119.142953 117.299277  L 118.613706 115.963373  L 118.539759 115.705718  L 118.242958 114.62747  L 118.013148 113.291566  L 117.912626 111.955663  L 117.932207 110.619759  L 118.063882 109.283855  L 118.300633 107.947952  L 118.539759 107.001987  L 118.637899 106.612048  L 119.0743 105.276145  L 119.601039 103.940241  L 119.884337 103.328721  L 120.219421 102.604337  L 120.92645 101.268434  L 121.228916 100.760622  L 121.72228 99.93253  L 122.573494 98.641058  L 122.602813 98.596627  L 123.575926 97.260723  L 123.918072 96.829148  L 124.637054 95.924819  L 125.262651 95.197738  L 125.788465 94.588916  L 126.607229 93.708922  L 127.033413 93.253012  L 127.951807 92.337347  L 128.375693 91.917108  L 129.296386 91.063291  L 129.819708 90.581205  L 130.640964 89.871202  L 131.370535 89.245301  L 131.985542 88.748671  L 133.034014 87.909398  L 133.33012 87.685688  L 134.674699 86.680579  L 134.819668 86.573494  L 136.019277 85.735851  L 136.741131 85.23759  L 137.363855 84.830299  L 138.708434 83.962348  L 138.803897 83.901687  L 140.053012 83.148458  L 141.033662 82.565783  L 141.39759 82.360152  L 142.742169 81.613841  L 143.446401 81.22988  L 144.086747 80.897407  L 145.431325 80.212848  L 146.070681 79.893976  L 146.775904 79.558565  L 148.120482 78.933046  L 148.945344 78.558072  L 149.46506 78.33246  L 150.809639 77.763155  L 152.120727 77.222169  L 152.154217 77.208955  L 153.498795 76.69301  L 154.843373 76.191841  L 155.688694 75.886265  L 156.187952 75.713498  L 157.53253 75.26299  L 158.877108 74.827722  L 159.765308 74.550361  L 160.221687 74.413777  L 161.566265 74.026233  L 162.910843 73.654122  L 164.255422 73.297693  L 164.58354 73.214458  L 165.6 72.967069  L 166.944578 72.655069  L 168.289157 72.358662  L 169.633735 72.078006  L 170.645888 71.878554  L 170.978313 71.815627  L 172.322892 71.575908  L 173.66747 71.351646  L 175.012048 71.142927  L 176.356627 70.949826  L 177.701205 70.772398  L 179.045783 70.610688  L 179.671088 70.542651  L 180.390361 70.467366  L 181.73494 70.34153  L 183.079518 70.230865  L 184.424096 70.135365  L 185.768675 70.055012  L 187.113253 69.989778  L 188.457831 69.939624  L 189.80241 69.904502  L 191.146988 69.884352  L 192.491566 69.879108  L 193.836145 69.888693  L 195.180723 69.913025  L 196.525301 69.952013  L 197.86988 70.005561  L 199.214458 70.073566  L 200.559036 70.15592  L 201.903614 70.252513  L 203.248193 70.363226  L 204.592771 70.487943  L 205.121423 70.542651  L 205.937349 70.629041  L 207.281928 70.785863  L 208.626506 70.95662  L 209.971084 71.141167  L 211.315663 71.339361  L 212.660241 71.551059  L 214.004819 71.776117  L 214.580485 71.878554  L 215.349398 72.018248  L 216.693976 72.276609  L 218.038554 72.548106  L 219.383133 72.832588  L 220.727711 73.129905  L 221.092386 73.214458  L 222.072289 73.4461  L 223.416867 73.777328  L 224.761446 74.12109  L 226.106024 74.477239  L 226.371188 74.550361  L 227.450602 74.853535  L 228.795181 75.243996  L 230.139759 75.646497  L 230.914962 75.886265  L 231.484337 76.065506  L 232.828916 76.502718  L 234.173494 76.951595  L 234.960849 77.222169  L 235.518072 77.416932  L 236.862651 77.900773  L 238.207229 78.395891  L 238.635359 78.558072  L 239.551807 78.91093  L 240.896386 79.441143  L 242.019951 79.893976  L 242.240964 79.984478  L 243.585542 80.55011  L 244.93012 81.126342  L 245.165587 81.22988  L 246.274699 81.725053  L 247.619277 82.336663  L 248.111754 82.565783  L 248.963855 82.968146  L 250.308434 83.615328  L 250.891206 83.901687  L 251.653012 84.281474  L 252.99759 84.964376  L 253.524908 85.23759  L 254.342169 85.667041  L 255.686747 86.385773  L 256.03088 86.573494  L 257.031325 87.126773  L 258.375904 87.881414  L 258.424699 87.909398  L 259.720482 88.662527  L 260.708945 89.245301  L 261.06506 89.458056  L 262.409639 90.276108  L 262.902708 90.581205  L 263.754217 91.114934  L 265.015888 91.917108  L 265.098795 91.970498  L 266.443373 92.853107  L 267.043612 93.253012  L 267.787952 93.755129  L 269.006435 94.588916  L 269.13253 94.676268  L 270.477108 95.62445  L 270.896604 95.924819  L 271.821687 96.595194  L 272.727009 97.260723  L 273.166265 97.587486  L 274.503392 98.596627  L 274.510843 98.602317  L 275.855422 99.647242  L 276.217248 99.93253  L 277.2 100.716333  L 277.882271 101.268434  L 278.544578 101.810494  L 279.500467 102.604337  L 279.889157 102.930779  L 281.073574 103.940241  L 281.233735 104.078269  L 282.578313 105.254556  L 282.602599 105.276145  L 283.922892 106.462683  L 284.086657 106.612048  L 285.26747 107.700731  L 285.531654 107.947952  L 286.612048 108.969863  L 286.939079 109.283855  L 287.956627 110.271273  L 288.310378 110.619759  L 289.301205 111.606188  L 289.646957 111.955663  L 290.645783 112.975872  L 290.950182 113.291566  L 291.990361 114.381629  L 292.22138 114.62747  L 293.33494 115.824804  L 293.461841 115.963373  L 294.672636 117.299277  L 294.679518 117.306957  L 295.851059 118.635181  L 296.024096 118.833383  L 297.001734 119.971084  L 297.368675 120.402492  L 298.125851 121.306988  L 298.713253 122.015878  L 299.224561 122.642892  L 300.057831 123.675205  L 300.298979 123.978795  L 301.348819 125.314699  L 301.40241 125.383744  L 302.369704 126.650602  L 302.746988 127.149813  L 303.369008 127.986506  L 304.091566 128.968473  L 304.347738 129.32241  L 305.303541 130.658313  L 305.436145 130.846023  L 306.233729 131.994217  L 306.780723 132.789907  L 307.145882 133.33012  L 308.038739 134.666024  L 308.125301 134.797361  L 308.905703 136.001928  L 309.46988 136.882068  L 309.757051 137.337831  L 310.587999 138.673735  L 310.814458 139.042778  L 311.397489 140.009639  L 312.159036 141.286502  L 312.193639 141.345542  L 312.963985 142.681446  L 313.503614 143.628159  L 313.721557 144.017349  L 314.458388 145.353253  L 314.848193 146.069708  L 315.179214 146.689157  L 315.88262 148.02506  L 316.192771 148.623087  L 316.568545 149.360964  L 317.238673 150.696867  L 317.537349 151.301911  L 317.891544 152.032771  L 318.5286 153.368675  L 318.881928 154.121831  L 319.150263 154.704578  L 319.754514 156.040482  L 320.226506 157.100973  L 320.346797 157.376386  L 320.918571 158.712289  L 321.481104 160.048193  L 321.571084 160.26649  L 322.022965 161.384096  L 322.553161 162.72  L 322.915663 163.651691  L 323.069911 164.055904  L 323.568241 165.391807  L 324.056743 166.727711  L 324.260241 167.297346  L 324.528624 168.063614  L 324.985601 169.399518  L 325.432444 170.735422  L 325.604819 171.264266  L 325.862639 172.071325  L 326.278416 173.407229  L 326.683794 174.743133  L 326.949398 175.642902  L 327.075538 176.079036  L 327.450425 177.41494  L 327.814693 178.750843  L 328.168227 180.086747  L 328.293976 180.578028  L 328.505694 181.422651  L 328.829365 182.758554  L 329.142143 184.094458  L 329.443923 185.430361  L 329.638554 186.325717  L 329.7323 186.766265  L 330.005036 188.102169  L 330.26668 189.438072  L 330.517142 190.773976  L 330.756332 192.10988  L 330.983133 193.439762  L 330.984137 193.445783  L 331.195338 194.781687  L 331.395255 196.11759  L 331.583815 197.453494  L 331.76095 198.789398  L 331.926593 200.125301  L 332.080682 201.461205  L 332.223156 202.797108  L 332.327711 203.865212  L 332.353334 204.133012  L 332.469572 205.468916  L 332.574312 206.804819  L 332.667516 208.140723  L 332.749148 209.476627  L 332.819177 210.81253  L 332.877576 212.148434  L 332.924322 213.484337  L 332.959398 214.820241  L 332.98279 216.156145  L 332.994488 217.492048  L 332.994488 218.827952  L 332.98279 220.163855  L 332.959398 221.499759  L 332.924322 222.835663  L 332.877576 224.171566  L 332.819177 225.50747  L 332.749148 226.843373  L 332.667516 228.179277  L 332.574312 229.515181  L 332.469572 230.851084  L 332.353334 232.186988  L 332.327711 232.454788  L 332.223156 233.522892  L 332.080682 234.858795  L 331.926593 236.194699  L 331.76095 237.530602  L 331.583815 238.866506  L 331.395255 240.20241  L 331.195338 241.538313  L 330.984137 242.874217  L 330.983133 242.880238  L 330.756332 244.21012  L 330.517142 245.546024  L 330.26668 246.881928  L 330.005036 248.217831  L 329.7323 249.553735  L 329.638554 249.994283  L 329.443923 250.889639  L 329.142143 252.225542  L 328.829365 253.561446  L 328.505694 254.897349  L 328.293976 255.741972  L 328.168227 256.233253  L 327.814693 257.569157  L 327.450425 258.90506  L 327.075538 260.240964  L 326.949398 260.677098  L 326.683794 261.576867  L 326.278416 262.912771  L 325.862639 264.248675  L 325.604819 265.055734  L 325.432444 265.584578  L 324.985601 266.920482  L 324.528624 268.256386  L 324.260241 269.022654  L 324.056743 269.592289  L 323.568241 270.928193  L 323.069911 272.264096  L 322.915663 272.668309  L 322.553161 273.6  L 322.022965 274.935904  L 321.571084 276.05351  L 321.481104 276.271807  L 320.918571 277.607711  L 320.346797 278.943614  L 320.226506 279.219027  L 319.754514 280.279518  L 319.150263 281.615422  L 318.881928 282.198169  L 318.5286 282.951325  L 317.891544 284.287229  L 317.537349 285.018089  L 317.238673 285.623133  L 316.568545 286.959036  L 316.192771 287.696913  L 315.88262 288.29494  L 315.179214 289.630843  L 314.848193 290.250292  L 314.458388 290.966747  L 313.721557 292.302651  L 313.503614 292.691841  L 312.963985 293.638554  L 312.193639 294.974458  L 312.159036 295.033498  L 311.397489 296.310361  L 310.814458 297.277222  L 310.587999 297.646265  L 309.757051 298.982169  L 309.46988 299.437932  L 308.905703 300.318072  L 308.125301 301.522639  L 308.038739 301.653976  L 307.145882 302.98988  L 306.780723 303.530093  L 306.233729 304.325783  L 305.436145 305.473977  L 305.303541 305.661687  L 304.347738 306.99759  L 304.091566 307.351527  L 303.369008 308.333494  L 302.746988 309.170187  L 302.369704 309.669398  L 301.40241 310.936256  L 301.348819 311.005301  L 300.298979 312.341205  L 300.057831 312.644795  L 299.224561 313.677108  L 298.713253 314.304122  L 298.125851 315.013012  L 297.368675 315.917508  L 297.001734 316.348916  L 296.024096 317.486617  L 295.851059 317.684819  L 294.679518 319.013043  L 294.672636 319.020723  L 293.461841 320.356627  L 293.33494 320.495196  L 292.22138 321.69253  L 291.990361 321.938371  L 290.950182 323.028434  L 290.645783 323.344128  L 289.646957 324.364337  L 289.301205 324.713812  L 288.310378 325.700241  L 287.956627 326.048727  L 286.939079 327.036145  L 286.612048 327.350137  L 285.531654 328.372048  L 285.26747 328.619269  L 284.086657 329.707952  L 283.922892 329.857317  L 282.602599 331.043855  L 282.578313 331.065444  L 281.233735 332.241731  L 281.073574 332.379759  L 279.889157 333.389221  L 279.500467 333.715663  L 278.544578 334.509506  L 277.882271 335.051566  L 277.2 335.603667  L 276.217248 336.38747  L 275.855422 336.672758  L 274.510843 337.717683  L 274.503392 337.723373  L 273.166265 338.732514  L 272.727009 339.059277  L 271.821687 339.724806  L 270.896604 340.395181  L 270.477108 340.69555  L 269.13253 341.643732  L 269.006435 341.731084  L 267.787952 342.564871  L 267.043612 343.066988  L 266.443373 343.466893  L 265.098795 344.349502  L 265.015888 344.402892  L 263.754217 345.205066  L 262.902708 345.738795  L 262.409639 346.043892  L 261.06506 346.861944  L 260.708945 347.074699  L 259.720482 347.657473  L 258.424699 348.410602  L 258.375904 348.438586  L 257.031325 349.193227  L 256.03088 349.746506  L 255.686747 349.934227  L 254.342169 350.652959  L 253.524908 351.08241  L 252.99759 351.355624  L 251.653012 352.038526  L 250.891206 352.418313  L 250.308434 352.704672  L 248.963855 353.351854  L 248.111754 353.754217  L 247.619277 353.983337  L 246.274699 354.594947  L 245.165587 355.09012  L 244.93012 355.193658  L 243.585542 355.76989  L 242.240964 356.335522  L 242.019951 356.426024  L 240.896386 356.878857  L 239.551807 357.40907  L 238.635359 357.761928  L 238.207229 357.924109  L 236.862651 358.419227  L 235.518072 358.903068  L 234.960849 359.097831  L 234.173494 359.368405  L 232.828916 359.817282  L 231.484337 360.254494  L 230.914962 360.433735  L 230.139759 360.673503  L 228.795181 361.076004  L 227.450602 361.466465  L 226.371188 361.769639  L 226.106024 361.842761  L 224.761446 362.19891  L 223.416867 362.542672  L 222.072289 362.8739  L 221.092386 363.105542  L 220.727711 363.190095  L 219.383133 363.487412  L 218.038554 363.771894  L 216.693976 364.043391  L 215.349398 364.301752  L 214.580485 364.441446  L 214.004819 364.543883  L 212.660241 364.768941  L 211.315663 364.980639  L 209.971084 365.178833  L 208.626506 365.36338  L 207.281928 365.534137  L 205.937349 365.690959  L 205.121423 365.777349  L 204.592771 365.832057  L 203.248193 365.956774  L 201.903614 366.067487  L 200.559036 366.16408  L 199.214458 366.246434  L 197.86988 366.314439  L 196.525301 366.367987  L 195.180723 366.406975  L 193.836145 366.431307  L 192.491566 366.440892  L 191.146988 366.435648  L 189.80241 366.415498  L 188.457831 366.380376  L 187.113253 366.330222  L 185.768675 366.264988  L 184.424096 366.184635  L 183.079518 366.089135  L 181.73494 365.97847  L 180.390361 365.852634  z "
           clip-path="url(#p3b95f01f75)"
           style="fill: none; stroke: #0000ff; stroke-width: 1.5"
           id="path37" />
      </g>
      <g
         id="patch_3">
        <path
           d="M 54 384.48  L 54 51.84  "
           style="fill: none; stroke: #000000; stroke-width: 0.8; stroke-linejoin: miter; stroke-linecap: square"
           id="path38" />
      </g>
      <g
         id="patch_4">
        <path
           d="M 388.8 384.48  L 388.8 51.84  "
           style="fill: none; stroke: #000000; stroke-width: 0.8; stroke-linejoin: miter; stroke-linecap: square"
           id="path39" />
      </g>
      <g
         id="patch_5">
        <path
           d="M 54 384.48  L 388.8 384.48  "
           style="fill: none; stroke: #000000; stroke-width: 0.8; stroke-linejoin: miter; stroke-linecap: square"
           id="path40" />
      </g>
      <g
         id="patch_6">
        <path
           d="M 54 51.84  L 388.8 51.84  "
           style="fill: none; stroke: #000000; stroke-width: 0.8; stroke-linejoin: miter; stroke-linecap: square"
           id="path41" />
      </g>
    </g>
  </g>
  <defs
     id="defs41">
    <clipPath
       id="p3b95f01f75">
      <rect
         x="54"
         y="51.84"
         width="334.8"
         height="332.64"
         id="rect41" />
    </clipPath>
  </defs>
  <path
     style="fill:#000000;fill-opacity:0;stroke:#f50000;stroke-width:0.75;stroke-dasharray:9, 9"
     d="M 221.40101,218.16 H 333"
     id="path42" />
</svg>
